{
  "title" : "",
  "description" : "",
  "author" : "",
  "targetLoudness" : -18.0,
  "shouldApplyLoudnessNormalization" : true,
  "videoFormatFrameRate" : 30,
  "audioFormatSampleRate" : 44100,
  "allowSubFrameEditing" : false,
  "width" : 3840.0,
  "height" : 2160.0,
  "version" : "6.0",
  "editRate" : 705600000,
  "authoringClientName" :  {
    "name" : "Camtasia",
    "platform" : "Windows",
    "version" : "2022.5.4"
  },
  "sourceBin" : [
    {
      "id" : 1,
      "src" : "Rec 8-28-2023-8-09-26-PM.trec",
      "rect" : [0, 0, 3840, 2160],
      "lastMod" : "20230828T180926",
      "loudnessNormalization" : true,
      "sourceTracks" : [
        {
          "range" : [0, 15588],
          "type" : 0,
          "editRate" : 30,
          "trackRect" : [0, 0, 3840, 2160],
          "sampleRate" : "40847/2000",
          "bitDepth" : 24,
          "numChannels" : 0,
          "integratedLUFS" : 100.0,
          "peakLevel" : -1.0,
          "metaData" : "Rec 8-28-2023-8-09-26-PM.trec;2b7b6a00-7a1f-11e2-83d0-0017f200be7f;2b7b6aef-7a1f-11e2-83d0-0017f200be7f;2b7b6af0-7a1f-11e2-83d0-0017f200be7f;2b7b6af1-7a1f-11e2-83d0-0017f200be7f;2b7b6af2-7a1f-11e2-83d0-0017f200be7f;2b7b6af3-7a1f-11e2-83d0-0017f200be7f;2b7b6af5-7a1f-11e2-83d0-0017f200be7f;2b7b6af6-7a1f-11e2-83d0-0017f200be7f;2b7b6af7-7a1f-11e2-83d0-0017f200be7f;2b7b6af8-7a1f-11e2-83d0-0017f200be7f;2b7b6af9-7a1f-11e2-83d0-0017f200be7f;2b7b6afa-7a1f-11e2-83d0-0017f200be7f;"
        },
        {
          "range" : [0, 22916096],
          "type" : 2,
          "editRate" : 44100,
          "trackRect" : [0, 0, 0, 0],
          "sampleRate" : 44100,
          "bitDepth" : 16,
          "numChannels" : 2,
          "integratedLUFS" : -16.7282495930412,
          "peakLevel" : 0.999969482421875,
          "metaData" : ""
        }
      ],
      "metadata" : {
        "timeAdded" : "20230828T180928.496016"
      }
    },
    {
      "id" : 2,
      "src" : "Rec 8-28-2023-8-24-43-PM.trec",
      "rect" : [0, 0, 3840, 2160],
      "lastMod" : "20230828T182443",
      "loudnessNormalization" : true,
      "sourceTracks" : [
        {
          "range" : [0, 21536],
          "type" : 0,
          "editRate" : 30,
          "trackRect" : [0, 0, 3840, 2160],
          "sampleRate" : "33179/2000",
          "bitDepth" : 24,
          "numChannels" : 0,
          "integratedLUFS" : 100.0,
          "peakLevel" : -1.0,
          "metaData" : "Rec 8-28-2023-8-24-43-PM.trec;2b7b6a00-7a1f-11e2-83d0-0017f200be7f;2b7b6aef-7a1f-11e2-83d0-0017f200be7f;2b7b6af0-7a1f-11e2-83d0-0017f200be7f;2b7b6af1-7a1f-11e2-83d0-0017f200be7f;2b7b6af2-7a1f-11e2-83d0-0017f200be7f;2b7b6af3-7a1f-11e2-83d0-0017f200be7f;2b7b6af5-7a1f-11e2-83d0-0017f200be7f;2b7b6af6-7a1f-11e2-83d0-0017f200be7f;2b7b6af7-7a1f-11e2-83d0-0017f200be7f;2b7b6af8-7a1f-11e2-83d0-0017f200be7f;2b7b6af9-7a1f-11e2-83d0-0017f200be7f;2b7b6afa-7a1f-11e2-83d0-0017f200be7f;"
        },
        {
          "range" : [0, 31661056],
          "type" : 2,
          "editRate" : 44100,
          "trackRect" : [0, 0, 0, 0],
          "sampleRate" : 44100,
          "bitDepth" : 16,
          "numChannels" : 2,
          "integratedLUFS" : -20.3084713573284,
          "peakLevel" : 0.999969482421875,
          "metaData" : ""
        }
      ],
      "metadata" : {
        "timeAdded" : "20230828T182444.552190"
      }
    },
    {
      "id" : 3,
      "src" : "Rec 8-28-2023-8-37-08-PM.trec",
      "rect" : [0, 0, 3840, 2160],
      "lastMod" : "20230828T183708",
      "loudnessNormalization" : true,
      "sourceTracks" : [
        {
          "range" : [0, 19464],
          "type" : 0,
          "editRate" : 30,
          "trackRect" : [0, 0, 3840, 2160],
          "sampleRate" : "24189/1250",
          "bitDepth" : 24,
          "numChannels" : 0,
          "integratedLUFS" : 100.0,
          "peakLevel" : -1.0,
          "metaData" : "Rec 8-28-2023-8-37-08-PM.trec;2b7b6a00-7a1f-11e2-83d0-0017f200be7f;2b7b6aef-7a1f-11e2-83d0-0017f200be7f;2b7b6af0-7a1f-11e2-83d0-0017f200be7f;2b7b6af1-7a1f-11e2-83d0-0017f200be7f;2b7b6af2-7a1f-11e2-83d0-0017f200be7f;2b7b6af3-7a1f-11e2-83d0-0017f200be7f;2b7b6af5-7a1f-11e2-83d0-0017f200be7f;2b7b6af6-7a1f-11e2-83d0-0017f200be7f;2b7b6af7-7a1f-11e2-83d0-0017f200be7f;2b7b6af8-7a1f-11e2-83d0-0017f200be7f;2b7b6af9-7a1f-11e2-83d0-0017f200be7f;2b7b6afa-7a1f-11e2-83d0-0017f200be7f;"
        },
        {
          "range" : [0, 28617728],
          "type" : 2,
          "editRate" : 44100,
          "trackRect" : [0, 0, 0, 0],
          "sampleRate" : 44100,
          "bitDepth" : 16,
          "numChannels" : 2,
          "integratedLUFS" : -21.8505288440312,
          "peakLevel" : 0.95281982421875,
          "metaData" : ""
        }
      ],
      "metadata" : {
        "timeAdded" : "20230828T183709.735195"
      }
    },
    {
      "id" : 4,
      "src" : "Rec 8-28-2023-8-43-05-PM.trec",
      "rect" : [0, 0, 3840, 2160],
      "lastMod" : "20230828T184305",
      "loudnessNormalization" : true,
      "sourceTracks" : [
        {
          "range" : [0, 1789],
          "type" : 0,
          "editRate" : 30,
          "trackRect" : [0, 0, 3840, 2160],
          "sampleRate" : "2136/125",
          "bitDepth" : 24,
          "numChannels" : 0,
          "integratedLUFS" : 100.0,
          "peakLevel" : -1.0,
          "metaData" : "Rec 8-28-2023-8-43-05-PM.trec;2b7b6a00-7a1f-11e2-83d0-0017f200be7f;2b7b6aef-7a1f-11e2-83d0-0017f200be7f;2b7b6af0-7a1f-11e2-83d0-0017f200be7f;2b7b6af1-7a1f-11e2-83d0-0017f200be7f;2b7b6af2-7a1f-11e2-83d0-0017f200be7f;2b7b6af3-7a1f-11e2-83d0-0017f200be7f;2b7b6af5-7a1f-11e2-83d0-0017f200be7f;2b7b6af6-7a1f-11e2-83d0-0017f200be7f;2b7b6af7-7a1f-11e2-83d0-0017f200be7f;2b7b6af8-7a1f-11e2-83d0-0017f200be7f;2b7b6af9-7a1f-11e2-83d0-0017f200be7f;2b7b6afa-7a1f-11e2-83d0-0017f200be7f;"
        },
        {
          "range" : [0, 2633728],
          "type" : 2,
          "editRate" : 44100,
          "trackRect" : [0, 0, 0, 0],
          "sampleRate" : 44100,
          "bitDepth" : 16,
          "numChannels" : 2,
          "integratedLUFS" : -20.5016019130287,
          "peakLevel" : 0.5343017578125,
          "metaData" : ""
        }
      ],
      "metadata" : {
        "timeAdded" : "20230828T184306.594036"
      }
    },
    {
      "id" : 5,
      "src" : "Rec 8-28-2023-8-58-42-PM.trec",
      "rect" : [0, 0, 3840, 2160],
      "lastMod" : "20230828T185841",
      "loudnessNormalization" : true,
      "sourceTracks" : [
        {
          "range" : [0, 22410],
          "type" : 0,
          "editRate" : 30,
          "trackRect" : [0, 0, 3840, 2160],
          "sampleRate" : "23531/1250",
          "bitDepth" : 24,
          "numChannels" : 0,
          "integratedLUFS" : 100.0,
          "peakLevel" : -1.0,
          "metaData" : "Rec 8-28-2023-8-58-42-PM.trec;2b7b6a00-7a1f-11e2-83d0-0017f200be7f;2b7b6aef-7a1f-11e2-83d0-0017f200be7f;2b7b6af0-7a1f-11e2-83d0-0017f200be7f;2b7b6af1-7a1f-11e2-83d0-0017f200be7f;2b7b6af2-7a1f-11e2-83d0-0017f200be7f;2b7b6af3-7a1f-11e2-83d0-0017f200be7f;2b7b6af5-7a1f-11e2-83d0-0017f200be7f;2b7b6af6-7a1f-11e2-83d0-0017f200be7f;2b7b6af7-7a1f-11e2-83d0-0017f200be7f;2b7b6af8-7a1f-11e2-83d0-0017f200be7f;2b7b6af9-7a1f-11e2-83d0-0017f200be7f;2b7b6afa-7a1f-11e2-83d0-0017f200be7f;"
        },
        {
          "range" : [0, 32946176],
          "type" : 2,
          "editRate" : 44100,
          "trackRect" : [0, 0, 0, 0],
          "sampleRate" : 44100,
          "bitDepth" : 16,
          "numChannels" : 2,
          "integratedLUFS" : -18.0153549364295,
          "peakLevel" : 0.999969482421875,
          "metaData" : ""
        }
      ],
      "metadata" : {
        "timeAdded" : "20230828T185843.728328"
      }
    },
    {
      "id" : 6,
      "src" : "Rec 8-28-2023-9-35-48-PM.trec",
      "rect" : [0, 0, 0, 0],
      "lastMod" : "20230828T193548",
      "loudnessNormalization" : true,
      "sourceTracks" : [
        {
          "range" : [0, 22607872],
          "type" : 2,
          "editRate" : 44100,
          "trackRect" : [0, 0, 0, 0],
          "sampleRate" : 44100,
          "bitDepth" : 16,
          "numChannels" : 2,
          "integratedLUFS" : -15.2782194635661,
          "peakLevel" : 0.999969482421875,
          "metaData" : ""
        }
      ],
      "metadata" : {
        "timeAdded" : "20230828T193549.586640"
      }
    },
    {
      "id" : 7,
      "src" : "VID_20230828_212740.mp4",
      "rect" : [0, 0, 1080, 1920],
      "lastMod" : "20230828T193545",
      "loudnessNormalization" : true,
      "sourceTracks" : [
        {
          "range" : [0, 4836985],
          "type" : 0,
          "editRate" : 10000,
          "trackRect" : [0, 0, 1080, 1920],
          "sampleRate" : "300953/10000",
          "bitDepth" : 24,
          "numChannels" : 0,
          "integratedLUFS" : 100.0,
          "peakLevel" : -1.0,
          "metaData" : ""
        },
        {
          "range" : [0, 4837129],
          "type" : 2,
          "editRate" : 10000,
          "trackRect" : [0, 0, 0, 0],
          "sampleRate" : 48000,
          "bitDepth" : 16,
          "numChannels" : 2,
          "integratedLUFS" : -17.1559792923462,
          "peakLevel" : 0.884154915809631,
          "metaData" : ""
        }
      ],
      "metadata" : {
        "timeAdded" : "20230828T193744.378084"
      }
    },
    {
      "id" : 8,
      "src" : "Code Spell Checker (Time 0_00_02;11).png",
      "rect" : [0, 0, 3840, 2160],
      "lastMod" : "20230829T052325",
      "loudnessNormalization" : true,
      "sourceTracks" : [
        {
          "range" : [0, 1],
          "type" : 1,
          "editRate" : 10000000,
          "trackRect" : [0, 0, 3840, 2160],
          "sampleRate" : 0,
          "bitDepth" : 32,
          "numChannels" : 0,
          "integratedLUFS" : 100.0,
          "peakLevel" : -1.0,
          "metaData" : ""
        }
      ],
      "metadata" : {
        "timeAdded" : "20230829T052325.231540"
      }
    },
    {
      "id" : 9,
      "src" : "Code Spell Checker (Time 0_00_19;11).png",
      "rect" : [0, 0, 3840, 2160],
      "lastMod" : "20230829T052340",
      "loudnessNormalization" : true,
      "sourceTracks" : [
        {
          "range" : [0, 1],
          "type" : 1,
          "editRate" : 10000000,
          "trackRect" : [0, 0, 3840, 2160],
          "sampleRate" : 0,
          "bitDepth" : 32,
          "numChannels" : 0,
          "integratedLUFS" : 100.0,
          "peakLevel" : -1.0,
          "metaData" : ""
        }
      ],
      "metadata" : {
        "timeAdded" : "20230829T052341.088727"
      }
    },
    {
      "id" : 10,
      "src" : "Code Spell Checker (Time 0_05_23;18).png",
      "rect" : [0, 0, 3840, 2160],
      "lastMod" : "20230829T055621",
      "loudnessNormalization" : true,
      "sourceTracks" : [
        {
          "range" : [0, 1],
          "type" : 1,
          "editRate" : 10000000,
          "trackRect" : [0, 0, 3840, 2160],
          "sampleRate" : 0,
          "bitDepth" : 32,
          "numChannels" : 0,
          "integratedLUFS" : 100.0,
          "peakLevel" : -1.0,
          "metaData" : ""
        }
      ],
      "metadata" : {
        "timeAdded" : "20230829T055621.821402"
      }
    },
    {
      "id" : 11,
      "src" : "Code Spell Checker - video with silence_ALTERED.mp4",
      "rect" : [0, 0, 3840, 2160],
      "lastMod" : "20230830T062919",
      "loudnessNormalization" : true,
      "sourceTracks" : [
        {
          "range" : [0, 633767],
          "type" : 0,
          "editRate" : 1000,
          "trackRect" : [0, 0, 3840, 2160],
          "sampleRate" : "150001/5000",
          "bitDepth" : 24,
          "numChannels" : 0,
          "integratedLUFS" : 100.0,
          "peakLevel" : -1.0,
          "metaData" : ""
        },
        {
          "range" : [0, 633766],
          "type" : 2,
          "editRate" : 1000,
          "trackRect" : [0, 0, 0, 0],
          "sampleRate" : 44100,
          "bitDepth" : 16,
          "numChannels" : 2,
          "integratedLUFS" : -18.018896122026,
          "peakLevel" : 0.999969482421875,
          "metaData" : ""
        }
      ],
      "metadata" : {
        "timeAdded" : "20230830T064815.503491"
      }
    }
  ],
  "timeline" : {
    "id" : 12,
    "sceneTrack" : {
      "scenes" : [
        {
          "csml" : {
            "tracks" : [
              {
                "trackIndex" : 0,
                "medias" : [
                  {
                    "id" : 13,
                    "_type" : "StitchedMedia",
                    "minMediaStart" : 0,
                    "attributes" : {
                      "ident" : "Rec 8-28-2023-8-09-26-PM",
                      "gain" : 1.0,
                      "mixToMono" : false,
                      "loudnessNormalization" : true,
                      "sourceFileOffset" : 0
                    },
                    "parameters" : {
                      "sourceCrop0" : 0.0,
                      "sourceCrop1" : 0.0,
                      "sourceCrop2" : 0.0,
                      "sourceCrop3" : 0.0,
                      "geometryCrop0" : 0.0,
                      "geometryCrop1" : 0.0,
                      "geometryCrop2" : 0.0,
                      "geometryCrop3" : 0.0,
                      "volume" : 1.0,
                      "cursorOpacity" : 1.0,
                      "cursorScale" : 1.2,
                      "smoothCursorAcrossEditDuration" : 235200000
                    },
                    "medias" : [
                        {
                          "id" : 14,
                          "_type" : "UnifiedMedia",
                          "video" : 
                              {
                                "id" : 15,
                                "_type" : "ScreenVMFile",
                                "src" : 1,
                                "trackNumber" : 0,
                                "attributes" : {
                                  "ident" : "Rec 8-28-2023-8-09-26-PM"
                                },
                                "parameters" : {
                                  "sourceCrop0" : {
                                    "type" : "double",
                                    "defaultValue" : 0.0,
                                    "interp" : "eioe"
                                  },
                                  "sourceCrop1" : {
                                    "type" : "double",
                                    "defaultValue" : 0.0,
                                    "interp" : "eioe"
                                  },
                                  "sourceCrop2" : {
                                    "type" : "double",
                                    "defaultValue" : 0.0,
                                    "interp" : "eioe"
                                  },
                                  "sourceCrop3" : {
                                    "type" : "double",
                                    "defaultValue" : 0.0,
                                    "interp" : "eioe"
                                  },
                                  "geometryCrop0" : {
                                    "type" : "double",
                                    "defaultValue" : 0.0,
                                    "interp" : "eioe"
                                  },
                                  "geometryCrop1" : {
                                    "type" : "double",
                                    "defaultValue" : 0.0,
                                    "interp" : "eioe"
                                  },
                                  "geometryCrop2" : {
                                    "type" : "double",
                                    "defaultValue" : 0.0,
                                    "interp" : "eioe"
                                  },
                                  "geometryCrop3" : {
                                    "type" : "double",
                                    "defaultValue" : 0.0,
                                    "interp" : "eioe"
                                  },
                                  "cursorScale" : {
                                    "type" : "double",
                                    "defaultValue" : 0.0,
                                    "interp" : "linr"
                                  },
                                  "cursorOpacity" : {
                                    "type" : "double",
                                    "defaultValue" : 0.0,
                                    "interp" : "linr"
                                  },
                                  "smoothCursorAcrossEditDuration" : 235200000
                                },
                                "effects" : [

                                ],
                                "start" : 0,
                                "duration" : 188865600000,
                                "mediaStart" : 0,
                                "mediaDuration" : 188865600000,
                                "scalar" : 1,
                                "animationTracks" : {

                                }
                              },
                          "audio" : 
                              {
                                "id" : 16,
                                "_type" : "AMFile",
                                "src" : 1,
                                "trackNumber" : 1,
                                "attributes" : {
                                  "ident" : "",
                                  "gain" : 1.0,
                                  "mixToMono" : false,
                                  "loudnessNormalization" : true,
                                  "sourceFileOffset" : 0
                                },
                                  "channelNumber" : "0,1",
                                "effects" : [

                                ],
                                "start" : 0,
                                "duration" : 188865600000,
                                "mediaStart" : 0,
                                "mediaDuration" : 188865600000,
                                "scalar" : 1,
                                "animationTracks" : {

                                }
                              }
,
                          "start" : 0,
                          "duration" : 188865600000,
                          "mediaStart" : 0,
                          "mediaDuration" : 366629760000,
                          "scalar" : 1,
                          "metadata" : {
                            "AutoAppliedSmartFocus" : "False",
                            "clipSpeedAttribute" : false
                          }
                        },
                        {
                          "id" : 17,
                          "_type" : "UnifiedMedia",
                          "video" : 
                              {
                                "id" : 18,
                                "_type" : "ScreenVMFile",
                                "src" : 1,
                                "trackNumber" : 0,
                                "attributes" : {
                                  "ident" : "Rec 8-28-2023-8-09-26-PM"
                                },
                                "parameters" : {
                                  "sourceCrop0" : {
                                    "type" : "double",
                                    "defaultValue" : 0.0,
                                    "interp" : "eioe"
                                  },
                                  "sourceCrop1" : {
                                    "type" : "double",
                                    "defaultValue" : 0.0,
                                    "interp" : "eioe"
                                  },
                                  "sourceCrop2" : {
                                    "type" : "double",
                                    "defaultValue" : 0.0,
                                    "interp" : "eioe"
                                  },
                                  "sourceCrop3" : {
                                    "type" : "double",
                                    "defaultValue" : 0.0,
                                    "interp" : "eioe"
                                  },
                                  "geometryCrop0" : {
                                    "type" : "double",
                                    "defaultValue" : 0.0,
                                    "interp" : "eioe"
                                  },
                                  "geometryCrop1" : {
                                    "type" : "double",
                                    "defaultValue" : 0.0,
                                    "interp" : "eioe"
                                  },
                                  "geometryCrop2" : {
                                    "type" : "double",
                                    "defaultValue" : 0.0,
                                    "interp" : "eioe"
                                  },
                                  "geometryCrop3" : {
                                    "type" : "double",
                                    "defaultValue" : 0.0,
                                    "interp" : "eioe"
                                  },
                                  "cursorScale" : {
                                    "type" : "double",
                                    "defaultValue" : 0.0,
                                    "interp" : "linr"
                                  },
                                  "cursorOpacity" : {
                                    "type" : "double",
                                    "defaultValue" : 0.0,
                                    "interp" : "linr"
                                  },
                                  "smoothCursorAcrossEditDuration" : 235200000
                                },
                                "effects" : [

                                ],
                                "start" : 188865600000,
                                "duration" : 153844320000,
                                "mediaStart" : 212785440000,
                                "mediaDuration" : 153844320000,
                                "scalar" : 1,
                                "animationTracks" : {

                                }
                              },
                          "audio" : 
                              {
                                "id" : 19,
                                "_type" : "AMFile",
                                "src" : 1,
                                "trackNumber" : 1,
                                "attributes" : {
                                  "ident" : "",
                                  "gain" : 1.0,
                                  "mixToMono" : false,
                                  "loudnessNormalization" : true,
                                  "sourceFileOffset" : 0
                                },
                                  "channelNumber" : "0,1",
                                "effects" : [

                                ],
                                "start" : 188865600000,
                                "duration" : 153844320000,
                                "mediaStart" : 212785440000,
                                "mediaDuration" : 153844320000,
                                "scalar" : 1,
                                "animationTracks" : {

                                }
                              }
,
                          "start" : 188865600000,
                          "duration" : 153844320000,
                          "mediaStart" : 0,
                          "mediaDuration" : 366629760000,
                          "scalar" : 1,
                          "metadata" : {
                            "AutoAppliedSmartFocus" : "False",
                            "clipSpeedAttribute" : false
                          }
                        }
                    ],
                    "effects" : [

                    ],
                    "start" : 9008160000,
                    "duration" : 98784000000,
                    "mediaStart" : 179269440000,
                    "mediaDuration" : 98784000000,
                    "scalar" : 1,
                    "metadata" : {
                      "AutoAppliedSmartFocus" : "False",
                      "clipSpeedAttribute" : false
                    },
                    "animationTracks" : {

                    }
                  },
                  {
                    "id" : 20,
                    "_type" : "UnifiedMedia",
                    "video" : 
                        {
                          "id" : 21,
                          "_type" : "ScreenVMFile",
                          "src" : 2,
                          "trackNumber" : 0,
                          "attributes" : {
                            "ident" : "Rec 8-28-2023-8-24-43-PM"
                          },
                          "parameters" : {
                            "sourceCrop0" : {
                              "type" : "double",
                              "defaultValue" : 0.0,
                              "interp" : "eioe"
                            },
                            "sourceCrop1" : {
                              "type" : "double",
                              "defaultValue" : 0.0,
                              "interp" : "eioe"
                            },
                            "sourceCrop2" : {
                              "type" : "double",
                              "defaultValue" : 0.0,
                              "interp" : "eioe"
                            },
                            "sourceCrop3" : {
                              "type" : "double",
                              "defaultValue" : 0.0,
                              "interp" : "eioe"
                            },
                            "geometryCrop0" : {
                              "type" : "double",
                              "defaultValue" : 0.0,
                              "interp" : "eioe"
                            },
                            "geometryCrop1" : {
                              "type" : "double",
                              "defaultValue" : 0.0,
                              "interp" : "eioe"
                            },
                            "geometryCrop2" : {
                              "type" : "double",
                              "defaultValue" : 0.0,
                              "interp" : "eioe"
                            },
                            "geometryCrop3" : {
                              "type" : "double",
                              "defaultValue" : 0.0,
                              "interp" : "eioe"
                            },
                            "cursorScale" : {
                              "type" : "double",
                              "defaultValue" : 1.2,
                              "interp" : "linr"
                            },
                            "cursorOpacity" : {
                              "type" : "double",
                              "defaultValue" : 1.0,
                              "interp" : "linr"
                            },
                            "smoothCursorAcrossEditDuration" : 235200000
                          },
                          "effects" : [

                          ],
                          "start" : 107792160000,
                          "duration" : 398264160000,
                          "mediaStart" : 0,
                          "mediaDuration" : 398264160000,
                          "scalar" : 1,
                          "animationTracks" : {

                          }
                        },
                    "audio" : 
                        {
                          "id" : 22,
                          "_type" : "AMFile",
                          "src" : 2,
                          "trackNumber" : 1,
                          "attributes" : {
                            "ident" : "",
                            "gain" : 1.0,
                            "mixToMono" : false,
                            "loudnessNormalization" : true,
                            "sourceFileOffset" : 0
                          },
                            "channelNumber" : "0,1",
                          "effects" : [

                          ],
                          "start" : 107792160000,
                          "duration" : 398264160000,
                          "mediaStart" : 0,
                          "mediaDuration" : 398264160000,
                          "scalar" : 1,
                          "animationTracks" : {

                          }
                        }
,
                    "start" : 107792160000,
                    "duration" : 398264160000,
                    "mediaStart" : 0,
                    "mediaDuration" : 506526720000,
                    "scalar" : 1,
                    "metadata" : {
                      "AutoAppliedSmartFocus" : "False",
                      "clipSpeedAttribute" : false
                    }
                  },
                  {
                    "id" : 23,
                    "_type" : "UnifiedMedia",
                    "video" : 
                        {
                          "id" : 24,
                          "_type" : "ScreenVMFile",
                          "src" : 3,
                          "trackNumber" : 0,
                          "attributes" : {
                            "ident" : "Rec 8-28-2023-8-37-08-PM"
                          },
                          "parameters" : {
                            "sourceCrop0" : {
                              "type" : "double",
                              "defaultValue" : 0.0,
                              "interp" : "eioe"
                            },
                            "sourceCrop1" : {
                              "type" : "double",
                              "defaultValue" : 0.0,
                              "interp" : "eioe"
                            },
                            "sourceCrop2" : {
                              "type" : "double",
                              "defaultValue" : 0.0,
                              "interp" : "eioe"
                            },
                            "sourceCrop3" : {
                              "type" : "double",
                              "defaultValue" : 0.0,
                              "interp" : "eioe"
                            },
                            "geometryCrop0" : {
                              "type" : "double",
                              "defaultValue" : 0.0,
                              "interp" : "eioe"
                            },
                            "geometryCrop1" : {
                              "type" : "double",
                              "defaultValue" : 0.0,
                              "interp" : "eioe"
                            },
                            "geometryCrop2" : {
                              "type" : "double",
                              "defaultValue" : 0.0,
                              "interp" : "eioe"
                            },
                            "geometryCrop3" : {
                              "type" : "double",
                              "defaultValue" : 0.0,
                              "interp" : "eioe"
                            },
                            "cursorScale" : {
                              "type" : "double",
                              "defaultValue" : 1.2,
                              "interp" : "linr"
                            },
                            "cursorOpacity" : {
                              "type" : "double",
                              "defaultValue" : 1.0,
                              "interp" : "linr"
                            },
                            "smoothCursorAcrossEditDuration" : 235200000
                          },
                          "effects" : [

                          ],
                          "start" : 506056320000,
                          "duration" : 457793280000,
                          "mediaStart" : 0,
                          "mediaDuration" : 457793280000,
                          "scalar" : 1,
                          "animationTracks" : {

                          }
                        },
                    "audio" : 
                        {
                          "id" : 25,
                          "_type" : "AMFile",
                          "src" : 3,
                          "trackNumber" : 1,
                          "attributes" : {
                            "ident" : "",
                            "gain" : 1.0,
                            "mixToMono" : false,
                            "loudnessNormalization" : true,
                            "sourceFileOffset" : 0
                          },
                            "channelNumber" : "0,1",
                          "effects" : [

                          ],
                          "start" : 506056320000,
                          "duration" : 457793280000,
                          "mediaStart" : 0,
                          "mediaDuration" : 457793280000,
                          "scalar" : 1,
                          "animationTracks" : {

                          }
                        }
,
                    "start" : 506056320000,
                    "duration" : 457793280000,
                    "mediaStart" : 0,
                    "mediaDuration" : 457793280000,
                    "scalar" : 1,
                    "metadata" : {
                      "AutoAppliedSmartFocus" : "False",
                      "clipSpeedAttribute" : false
                    }
                  }
                ]
              },
              {
                "trackIndex" : 1,
                "medias" : [
                  {
                    "id" : 26,
                    "_type" : "StitchedMedia",
                    "minMediaStart" : 0,
                    "attributes" : {
                      "ident" : "Rec 8-28-2023-8-58-42-PM",
                      "gain" : 1.0,
                      "mixToMono" : false,
                      "loudnessNormalization" : true,
                      "sourceFileOffset" : 0
                    },
                    "parameters" : {
                      "sourceCrop0" : 0.0,
                      "sourceCrop1" : 0.0,
                      "sourceCrop2" : 0.0,
                      "sourceCrop3" : 0.0,
                      "geometryCrop0" : 0.0,
                      "geometryCrop1" : 0.0,
                      "geometryCrop2" : 0.0,
                      "geometryCrop3" : 0.0,
                      "volume" : 1.0,
                      "cursorOpacity" : 1.0,
                      "cursorScale" : 1.2,
                      "smoothCursorAcrossEditDuration" : 235200000
                    },
                    "medias" : [
                        {
                          "id" : 27,
                          "_type" : "UnifiedMedia",
                          "video" : 
                              {
                                "id" : 28,
                                "_type" : "ScreenVMFile",
                                "src" : 5,
                                "trackNumber" : 0,
                                "attributes" : {
                                  "ident" : "Rec 8-28-2023-8-58-42-PM"
                                },
                                "parameters" : {
                                  "sourceCrop0" : {
                                    "type" : "double",
                                    "defaultValue" : 0.0,
                                    "interp" : "eioe"
                                  },
                                  "sourceCrop1" : {
                                    "type" : "double",
                                    "defaultValue" : 0.0,
                                    "interp" : "eioe"
                                  },
                                  "sourceCrop2" : {
                                    "type" : "double",
                                    "defaultValue" : 0.0,
                                    "interp" : "eioe"
                                  },
                                  "sourceCrop3" : {
                                    "type" : "double",
                                    "defaultValue" : 0.0,
                                    "interp" : "eioe"
                                  },
                                  "geometryCrop0" : {
                                    "type" : "double",
                                    "defaultValue" : 0.0,
                                    "interp" : "eioe"
                                  },
                                  "geometryCrop1" : {
                                    "type" : "double",
                                    "defaultValue" : 0.0,
                                    "interp" : "eioe"
                                  },
                                  "geometryCrop2" : {
                                    "type" : "double",
                                    "defaultValue" : 0.0,
                                    "interp" : "eioe"
                                  },
                                  "geometryCrop3" : {
                                    "type" : "double",
                                    "defaultValue" : 0.0,
                                    "interp" : "eioe"
                                  },
                                  "cursorScale" : {
                                    "type" : "double",
                                    "defaultValue" : 0.0,
                                    "interp" : "linr"
                                  },
                                  "cursorOpacity" : {
                                    "type" : "double",
                                    "defaultValue" : 0.0,
                                    "interp" : "linr"
                                  },
                                  "smoothCursorAcrossEditDuration" : 235200000
                                },
                                "effects" : [

                                ],
                                "start" : 0,
                                "duration" : 154314720000,
                                "mediaStart" : 0,
                                "mediaDuration" : 154314720000,
                                "scalar" : 1,
                                "animationTracks" : {

                                }
                              },
                          "audio" : 
                              {
                                "id" : 29,
                                "_type" : "AMFile",
                                "src" : 5,
                                "trackNumber" : 1,
                                "attributes" : {
                                  "ident" : "",
                                  "gain" : 1.0,
                                  "mixToMono" : false,
                                  "loudnessNormalization" : true,
                                  "sourceFileOffset" : 0
                                },
                                  "channelNumber" : "0,1",
                                "effects" : [

                                ],
                                "start" : 0,
                                "duration" : 154314720000,
                                "mediaStart" : 0,
                                "mediaDuration" : 154314720000,
                                "scalar" : 1,
                                "animationTracks" : {

                                }
                              }
,
                          "start" : 0,
                          "duration" : 154314720000,
                          "mediaStart" : 0,
                          "mediaDuration" : 527083200000,
                          "scalar" : 1,
                          "metadata" : {
                            "AutoAppliedSmartFocus" : "False",
                            "clipSpeedAttribute" : false
                          }
                        },
                        {
                          "id" : 30,
                          "_type" : "UnifiedMedia",
                          "video" : 
                              {
                                "id" : 31,
                                "_type" : "ScreenVMFile",
                                "src" : 5,
                                "trackNumber" : 0,
                                "attributes" : {
                                  "ident" : "Rec 8-28-2023-8-58-42-PM"
                                },
                                "parameters" : {
                                  "sourceCrop0" : {
                                    "type" : "double",
                                    "defaultValue" : 0.0,
                                    "interp" : "eioe"
                                  },
                                  "sourceCrop1" : {
                                    "type" : "double",
                                    "defaultValue" : 0.0,
                                    "interp" : "eioe"
                                  },
                                  "sourceCrop2" : {
                                    "type" : "double",
                                    "defaultValue" : 0.0,
                                    "interp" : "eioe"
                                  },
                                  "sourceCrop3" : {
                                    "type" : "double",
                                    "defaultValue" : 0.0,
                                    "interp" : "eioe"
                                  },
                                  "geometryCrop0" : {
                                    "type" : "double",
                                    "defaultValue" : 0.0,
                                    "interp" : "eioe"
                                  },
                                  "geometryCrop1" : {
                                    "type" : "double",
                                    "defaultValue" : 0.0,
                                    "interp" : "eioe"
                                  },
                                  "geometryCrop2" : {
                                    "type" : "double",
                                    "defaultValue" : 0.0,
                                    "interp" : "eioe"
                                  },
                                  "geometryCrop3" : {
                                    "type" : "double",
                                    "defaultValue" : 0.0,
                                    "interp" : "eioe"
                                  },
                                  "cursorScale" : {
                                    "type" : "double",
                                    "defaultValue" : 0.0,
                                    "interp" : "linr"
                                  },
                                  "cursorOpacity" : {
                                    "type" : "double",
                                    "defaultValue" : 0.0,
                                    "interp" : "linr"
                                  },
                                  "smoothCursorAcrossEditDuration" : 235200000
                                },
                                "effects" : [

                                ],
                                "start" : 154314720000,
                                "duration" : 7714560000,
                                "mediaStart" : 166215840000,
                                "mediaDuration" : 7714560000,
                                "scalar" : 1,
                                "animationTracks" : {

                                }
                              },
                          "audio" : 
                              {
                                "id" : 32,
                                "_type" : "AMFile",
                                "src" : 5,
                                "trackNumber" : 1,
                                "attributes" : {
                                  "ident" : "",
                                  "gain" : 1.0,
                                  "mixToMono" : false,
                                  "loudnessNormalization" : true,
                                  "sourceFileOffset" : 0
                                },
                                  "channelNumber" : "0,1",
                                "effects" : [

                                ],
                                "start" : 154314720000,
                                "duration" : 7714560000,
                                "mediaStart" : 166215840000,
                                "mediaDuration" : 7714560000,
                                "scalar" : 1,
                                "animationTracks" : {

                                }
                              }
,
                          "start" : 154314720000,
                          "duration" : 7714560000,
                          "mediaStart" : 0,
                          "mediaDuration" : 527083200000,
                          "scalar" : 1,
                          "metadata" : {
                            "AutoAppliedSmartFocus" : "False",
                            "clipSpeedAttribute" : false
                          }
                        },
                        {
                          "id" : 33,
                          "_type" : "UnifiedMedia",
                          "video" : 
                              {
                                "id" : 34,
                                "_type" : "ScreenVMFile",
                                "src" : 5,
                                "trackNumber" : 0,
                                "attributes" : {
                                  "ident" : "Rec 8-28-2023-8-58-42-PM"
                                },
                                "parameters" : {
                                  "sourceCrop0" : {
                                    "type" : "double",
                                    "defaultValue" : 0.0,
                                    "interp" : "eioe"
                                  },
                                  "sourceCrop1" : {
                                    "type" : "double",
                                    "defaultValue" : 0.0,
                                    "interp" : "eioe"
                                  },
                                  "sourceCrop2" : {
                                    "type" : "double",
                                    "defaultValue" : 0.0,
                                    "interp" : "eioe"
                                  },
                                  "sourceCrop3" : {
                                    "type" : "double",
                                    "defaultValue" : 0.0,
                                    "interp" : "eioe"
                                  },
                                  "geometryCrop0" : {
                                    "type" : "double",
                                    "defaultValue" : 0.0,
                                    "interp" : "eioe"
                                  },
                                  "geometryCrop1" : {
                                    "type" : "double",
                                    "defaultValue" : 0.0,
                                    "interp" : "eioe"
                                  },
                                  "geometryCrop2" : {
                                    "type" : "double",
                                    "defaultValue" : 0.0,
                                    "interp" : "eioe"
                                  },
                                  "geometryCrop3" : {
                                    "type" : "double",
                                    "defaultValue" : 0.0,
                                    "interp" : "eioe"
                                  },
                                  "cursorScale" : {
                                    "type" : "double",
                                    "defaultValue" : 0.0,
                                    "interp" : "linr"
                                  },
                                  "cursorOpacity" : {
                                    "type" : "double",
                                    "defaultValue" : 0.0,
                                    "interp" : "linr"
                                  },
                                  "smoothCursorAcrossEditDuration" : 235200000
                                },
                                "effects" : [

                                ],
                                "start" : 162029280000,
                                "duration" : 8443680000,
                                "mediaStart" : 180539520000,
                                "mediaDuration" : 8443680000,
                                "scalar" : 1,
                                "animationTracks" : {

                                }
                              },
                          "audio" : 
                              {
                                "id" : 35,
                                "_type" : "AMFile",
                                "src" : 5,
                                "trackNumber" : 1,
                                "attributes" : {
                                  "ident" : "",
                                  "gain" : 1.0,
                                  "mixToMono" : false,
                                  "loudnessNormalization" : true,
                                  "sourceFileOffset" : 0
                                },
                                  "channelNumber" : "0,1",
                                "effects" : [

                                ],
                                "start" : 162029280000,
                                "duration" : 8443680000,
                                "mediaStart" : 180539520000,
                                "mediaDuration" : 8443680000,
                                "scalar" : 1,
                                "animationTracks" : {

                                }
                              }
,
                          "start" : 162029280000,
                          "duration" : 8443680000,
                          "mediaStart" : 0,
                          "mediaDuration" : 527083200000,
                          "scalar" : 1,
                          "metadata" : {
                            "AutoAppliedSmartFocus" : "False",
                            "clipSpeedAttribute" : false
                          }
                        },
                        {
                          "id" : 36,
                          "_type" : "UnifiedMedia",
                          "video" : 
                              {
                                "id" : 37,
                                "_type" : "ScreenVMFile",
                                "src" : 5,
                                "trackNumber" : 0,
                                "attributes" : {
                                  "ident" : "Rec 8-28-2023-8-58-42-PM"
                                },
                                "parameters" : {
                                  "sourceCrop0" : {
                                    "type" : "double",
                                    "defaultValue" : 0.0,
                                    "interp" : "eioe"
                                  },
                                  "sourceCrop1" : {
                                    "type" : "double",
                                    "defaultValue" : 0.0,
                                    "interp" : "eioe"
                                  },
                                  "sourceCrop2" : {
                                    "type" : "double",
                                    "defaultValue" : 0.0,
                                    "interp" : "eioe"
                                  },
                                  "sourceCrop3" : {
                                    "type" : "double",
                                    "defaultValue" : 0.0,
                                    "interp" : "eioe"
                                  },
                                  "geometryCrop0" : {
                                    "type" : "double",
                                    "defaultValue" : 0.0,
                                    "interp" : "eioe"
                                  },
                                  "geometryCrop1" : {
                                    "type" : "double",
                                    "defaultValue" : 0.0,
                                    "interp" : "eioe"
                                  },
                                  "geometryCrop2" : {
                                    "type" : "double",
                                    "defaultValue" : 0.0,
                                    "interp" : "eioe"
                                  },
                                  "geometryCrop3" : {
                                    "type" : "double",
                                    "defaultValue" : 0.0,
                                    "interp" : "eioe"
                                  },
                                  "cursorScale" : {
                                    "type" : "double",
                                    "defaultValue" : 0.0,
                                    "interp" : "linr"
                                  },
                                  "cursorOpacity" : {
                                    "type" : "double",
                                    "defaultValue" : 0.0,
                                    "interp" : "linr"
                                  },
                                  "smoothCursorAcrossEditDuration" : 235200000
                                },
                                "effects" : [

                                ],
                                "start" : 170472960000,
                                "duration" : 17992800000,
                                "mediaStart" : 229155360000,
                                "mediaDuration" : 17992800000,
                                "scalar" : 1,
                                "animationTracks" : {

                                }
                              },
                          "audio" : 
                              {
                                "id" : 38,
                                "_type" : "AMFile",
                                "src" : 5,
                                "trackNumber" : 1,
                                "attributes" : {
                                  "ident" : "",
                                  "gain" : 1.0,
                                  "mixToMono" : false,
                                  "loudnessNormalization" : true,
                                  "sourceFileOffset" : 0
                                },
                                  "channelNumber" : "0,1",
                                "effects" : [

                                ],
                                "start" : 170472960000,
                                "duration" : 17992800000,
                                "mediaStart" : 229155360000,
                                "mediaDuration" : 17992800000,
                                "scalar" : 1,
                                "animationTracks" : {

                                }
                              }
,
                          "start" : 170472960000,
                          "duration" : 17992800000,
                          "mediaStart" : 0,
                          "mediaDuration" : 527083200000,
                          "scalar" : 1,
                          "metadata" : {
                            "AutoAppliedSmartFocus" : "False",
                            "clipSpeedAttribute" : false
                          }
                        },
                        {
                          "id" : 39,
                          "_type" : "UnifiedMedia",
                          "video" : 
                              {
                                "id" : 40,
                                "_type" : "ScreenVMFile",
                                "src" : 5,
                                "trackNumber" : 0,
                                "attributes" : {
                                  "ident" : "Rec 8-28-2023-8-58-42-PM"
                                },
                                "parameters" : {
                                  "sourceCrop0" : {
                                    "type" : "double",
                                    "defaultValue" : 0.0,
                                    "interp" : "eioe"
                                  },
                                  "sourceCrop1" : {
                                    "type" : "double",
                                    "defaultValue" : 0.0,
                                    "interp" : "eioe"
                                  },
                                  "sourceCrop2" : {
                                    "type" : "double",
                                    "defaultValue" : 0.0,
                                    "interp" : "eioe"
                                  },
                                  "sourceCrop3" : {
                                    "type" : "double",
                                    "defaultValue" : 0.0,
                                    "interp" : "eioe"
                                  },
                                  "geometryCrop0" : {
                                    "type" : "double",
                                    "defaultValue" : 0.0,
                                    "interp" : "eioe"
                                  },
                                  "geometryCrop1" : {
                                    "type" : "double",
                                    "defaultValue" : 0.0,
                                    "interp" : "eioe"
                                  },
                                  "geometryCrop2" : {
                                    "type" : "double",
                                    "defaultValue" : 0.0,
                                    "interp" : "eioe"
                                  },
                                  "geometryCrop3" : {
                                    "type" : "double",
                                    "defaultValue" : 0.0,
                                    "interp" : "eioe"
                                  },
                                  "cursorScale" : {
                                    "type" : "double",
                                    "defaultValue" : 0.0,
                                    "interp" : "linr"
                                  },
                                  "cursorOpacity" : {
                                    "type" : "double",
                                    "defaultValue" : 0.0,
                                    "interp" : "linr"
                                  },
                                  "smoothCursorAcrossEditDuration" : 235200000
                                },
                                "effects" : [

                                ],
                                "start" : 188465760000,
                                "duration" : 1952160000,
                                "mediaStart" : 247994880000,
                                "mediaDuration" : 1952160000,
                                "scalar" : 1,
                                "animationTracks" : {

                                }
                              },
                          "audio" : 
                              {
                                "id" : 41,
                                "_type" : "AMFile",
                                "src" : 5,
                                "trackNumber" : 1,
                                "attributes" : {
                                  "ident" : "",
                                  "gain" : 1.0,
                                  "mixToMono" : false,
                                  "loudnessNormalization" : true,
                                  "sourceFileOffset" : 0
                                },
                                  "channelNumber" : "0,1",
                                "effects" : [

                                ],
                                "start" : 188465760000,
                                "duration" : 1952160000,
                                "mediaStart" : 247994880000,
                                "mediaDuration" : 1952160000,
                                "scalar" : 1,
                                "animationTracks" : {

                                }
                              }
,
                          "start" : 188465760000,
                          "duration" : 1952160000,
                          "mediaStart" : 0,
                          "mediaDuration" : 527083200000,
                          "scalar" : 1,
                          "metadata" : {
                            "AutoAppliedSmartFocus" : "False",
                            "clipSpeedAttribute" : false
                          }
                        },
                        {
                          "id" : 42,
                          "_type" : "UnifiedMedia",
                          "video" : 
                              {
                                "id" : 43,
                                "_type" : "ScreenVMFile",
                                "src" : 5,
                                "trackNumber" : 0,
                                "attributes" : {
                                  "ident" : "Rec 8-28-2023-8-58-42-PM"
                                },
                                "parameters" : {
                                  "sourceCrop0" : {
                                    "type" : "double",
                                    "defaultValue" : 0.0,
                                    "interp" : "eioe"
                                  },
                                  "sourceCrop1" : {
                                    "type" : "double",
                                    "defaultValue" : 0.0,
                                    "interp" : "eioe"
                                  },
                                  "sourceCrop2" : {
                                    "type" : "double",
                                    "defaultValue" : 0.0,
                                    "interp" : "eioe"
                                  },
                                  "sourceCrop3" : {
                                    "type" : "double",
                                    "defaultValue" : 0.0,
                                    "interp" : "eioe"
                                  },
                                  "geometryCrop0" : {
                                    "type" : "double",
                                    "defaultValue" : 0.0,
                                    "interp" : "eioe"
                                  },
                                  "geometryCrop1" : {
                                    "type" : "double",
                                    "defaultValue" : 0.0,
                                    "interp" : "eioe"
                                  },
                                  "geometryCrop2" : {
                                    "type" : "double",
                                    "defaultValue" : 0.0,
                                    "interp" : "eioe"
                                  },
                                  "geometryCrop3" : {
                                    "type" : "double",
                                    "defaultValue" : 0.0,
                                    "interp" : "eioe"
                                  },
                                  "cursorScale" : {
                                    "type" : "double",
                                    "defaultValue" : 0.0,
                                    "interp" : "linr"
                                  },
                                  "cursorOpacity" : {
                                    "type" : "double",
                                    "defaultValue" : 0.0,
                                    "interp" : "linr"
                                  },
                                  "smoothCursorAcrossEditDuration" : 235200000
                                },
                                "effects" : [

                                ],
                                "start" : 190417920000,
                                "duration" : 540960000,
                                "mediaStart" : 258273120000,
                                "mediaDuration" : 540960000,
                                "scalar" : 1,
                                "animationTracks" : {

                                }
                              },
                          "audio" : 
                              {
                                "id" : 44,
                                "_type" : "AMFile",
                                "src" : 5,
                                "trackNumber" : 1,
                                "attributes" : {
                                  "ident" : "",
                                  "gain" : 1.0,
                                  "mixToMono" : false,
                                  "loudnessNormalization" : true,
                                  "sourceFileOffset" : 0
                                },
                                  "channelNumber" : "0,1",
                                "effects" : [

                                ],
                                "start" : 190417920000,
                                "duration" : 540960000,
                                "mediaStart" : 258273120000,
                                "mediaDuration" : 540960000,
                                "scalar" : 1,
                                "animationTracks" : {

                                }
                              }
,
                          "start" : 190417920000,
                          "duration" : 540960000,
                          "mediaStart" : 0,
                          "mediaDuration" : 527083200000,
                          "scalar" : 1,
                          "metadata" : {
                            "AutoAppliedSmartFocus" : "False",
                            "clipSpeedAttribute" : false
                          }
                        },
                        {
                          "id" : 45,
                          "_type" : "UnifiedMedia",
                          "video" : 
                              {
                                "id" : 46,
                                "_type" : "ScreenVMFile",
                                "src" : 5,
                                "trackNumber" : 0,
                                "attributes" : {
                                  "ident" : "Rec 8-28-2023-8-58-42-PM"
                                },
                                "parameters" : {
                                  "sourceCrop0" : {
                                    "type" : "double",
                                    "defaultValue" : 0.0,
                                    "interp" : "eioe"
                                  },
                                  "sourceCrop1" : {
                                    "type" : "double",
                                    "defaultValue" : 0.0,
                                    "interp" : "eioe"
                                  },
                                  "sourceCrop2" : {
                                    "type" : "double",
                                    "defaultValue" : 0.0,
                                    "interp" : "eioe"
                                  },
                                  "sourceCrop3" : {
                                    "type" : "double",
                                    "defaultValue" : 0.0,
                                    "interp" : "eioe"
                                  },
                                  "geometryCrop0" : {
                                    "type" : "double",
                                    "defaultValue" : 0.0,
                                    "interp" : "eioe"
                                  },
                                  "geometryCrop1" : {
                                    "type" : "double",
                                    "defaultValue" : 0.0,
                                    "interp" : "eioe"
                                  },
                                  "geometryCrop2" : {
                                    "type" : "double",
                                    "defaultValue" : 0.0,
                                    "interp" : "eioe"
                                  },
                                  "geometryCrop3" : {
                                    "type" : "double",
                                    "defaultValue" : 0.0,
                                    "interp" : "eioe"
                                  },
                                  "cursorScale" : {
                                    "type" : "double",
                                    "defaultValue" : 0.0,
                                    "interp" : "linr"
                                  },
                                  "cursorOpacity" : {
                                    "type" : "double",
                                    "defaultValue" : 0.0,
                                    "interp" : "linr"
                                  },
                                  "smoothCursorAcrossEditDuration" : 235200000
                                },
                                "effects" : [

                                ],
                                "start" : 190958880000,
                                "duration" : 5503680000,
                                "mediaStart" : 259378560000,
                                "mediaDuration" : 5503680000,
                                "scalar" : 1,
                                "animationTracks" : {

                                }
                              },
                          "audio" : 
                              {
                                "id" : 47,
                                "_type" : "AMFile",
                                "src" : 5,
                                "trackNumber" : 1,
                                "attributes" : {
                                  "ident" : "",
                                  "gain" : 1.0,
                                  "mixToMono" : false,
                                  "loudnessNormalization" : true,
                                  "sourceFileOffset" : 0
                                },
                                  "channelNumber" : "0,1",
                                "effects" : [

                                ],
                                "start" : 190958880000,
                                "duration" : 5503680000,
                                "mediaStart" : 259378560000,
                                "mediaDuration" : 5503680000,
                                "scalar" : 1,
                                "animationTracks" : {

                                }
                              }
,
                          "start" : 190958880000,
                          "duration" : 5503680000,
                          "mediaStart" : 0,
                          "mediaDuration" : 527083200000,
                          "scalar" : 1,
                          "metadata" : {
                            "AutoAppliedSmartFocus" : "False",
                            "clipSpeedAttribute" : false
                          }
                        },
                        {
                          "id" : 48,
                          "_type" : "UnifiedMedia",
                          "video" : 
                              {
                                "id" : 49,
                                "_type" : "ScreenVMFile",
                                "src" : 5,
                                "trackNumber" : 0,
                                "attributes" : {
                                  "ident" : "Rec 8-28-2023-8-58-42-PM"
                                },
                                "parameters" : {
                                  "sourceCrop0" : {
                                    "type" : "double",
                                    "defaultValue" : 0.0,
                                    "interp" : "eioe"
                                  },
                                  "sourceCrop1" : {
                                    "type" : "double",
                                    "defaultValue" : 0.0,
                                    "interp" : "eioe"
                                  },
                                  "sourceCrop2" : {
                                    "type" : "double",
                                    "defaultValue" : 0.0,
                                    "interp" : "eioe"
                                  },
                                  "sourceCrop3" : {
                                    "type" : "double",
                                    "defaultValue" : 0.0,
                                    "interp" : "eioe"
                                  },
                                  "geometryCrop0" : {
                                    "type" : "double",
                                    "defaultValue" : 0.0,
                                    "interp" : "eioe"
                                  },
                                  "geometryCrop1" : {
                                    "type" : "double",
                                    "defaultValue" : 0.0,
                                    "interp" : "eioe"
                                  },
                                  "geometryCrop2" : {
                                    "type" : "double",
                                    "defaultValue" : 0.0,
                                    "interp" : "eioe"
                                  },
                                  "geometryCrop3" : {
                                    "type" : "double",
                                    "defaultValue" : 0.0,
                                    "interp" : "eioe"
                                  },
                                  "cursorScale" : {
                                    "type" : "double",
                                    "defaultValue" : 0.0,
                                    "interp" : "linr"
                                  },
                                  "cursorOpacity" : {
                                    "type" : "double",
                                    "defaultValue" : 0.0,
                                    "interp" : "linr"
                                  },
                                  "smoothCursorAcrossEditDuration" : 235200000
                                },
                                "effects" : [

                                ],
                                "start" : 196462560000,
                                "duration" : 7267680000,
                                "mediaStart" : 265540800000,
                                "mediaDuration" : 7267680000,
                                "scalar" : 1,
                                "animationTracks" : {

                                }
                              },
                          "audio" : 
                              {
                                "id" : 50,
                                "_type" : "AMFile",
                                "src" : 5,
                                "trackNumber" : 1,
                                "attributes" : {
                                  "ident" : "",
                                  "gain" : 1.0,
                                  "mixToMono" : false,
                                  "loudnessNormalization" : true,
                                  "sourceFileOffset" : 0
                                },
                                  "channelNumber" : "0,1",
                                "effects" : [

                                ],
                                "start" : 196462560000,
                                "duration" : 7267680000,
                                "mediaStart" : 265540800000,
                                "mediaDuration" : 7267680000,
                                "scalar" : 1,
                                "animationTracks" : {

                                }
                              }
,
                          "start" : 196462560000,
                          "duration" : 7267680000,
                          "mediaStart" : 0,
                          "mediaDuration" : 527083200000,
                          "scalar" : 1,
                          "metadata" : {
                            "AutoAppliedSmartFocus" : "False",
                            "clipSpeedAttribute" : false
                          }
                        },
                        {
                          "id" : 51,
                          "_type" : "UnifiedMedia",
                          "video" : 
                              {
                                "id" : 52,
                                "_type" : "ScreenVMFile",
                                "src" : 5,
                                "trackNumber" : 0,
                                "attributes" : {
                                  "ident" : "Rec 8-28-2023-8-58-42-PM"
                                },
                                "parameters" : {
                                  "sourceCrop0" : {
                                    "type" : "double",
                                    "defaultValue" : 0.0,
                                    "interp" : "eioe"
                                  },
                                  "sourceCrop1" : {
                                    "type" : "double",
                                    "defaultValue" : 0.0,
                                    "interp" : "eioe"
                                  },
                                  "sourceCrop2" : {
                                    "type" : "double",
                                    "defaultValue" : 0.0,
                                    "interp" : "eioe"
                                  },
                                  "sourceCrop3" : {
                                    "type" : "double",
                                    "defaultValue" : 0.0,
                                    "interp" : "eioe"
                                  },
                                  "geometryCrop0" : {
                                    "type" : "double",
                                    "defaultValue" : 0.0,
                                    "interp" : "eioe"
                                  },
                                  "geometryCrop1" : {
                                    "type" : "double",
                                    "defaultValue" : 0.0,
                                    "interp" : "eioe"
                                  },
                                  "geometryCrop2" : {
                                    "type" : "double",
                                    "defaultValue" : 0.0,
                                    "interp" : "eioe"
                                  },
                                  "geometryCrop3" : {
                                    "type" : "double",
                                    "defaultValue" : 0.0,
                                    "interp" : "eioe"
                                  },
                                  "cursorScale" : {
                                    "type" : "double",
                                    "defaultValue" : 0.0,
                                    "interp" : "linr"
                                  },
                                  "cursorOpacity" : {
                                    "type" : "double",
                                    "defaultValue" : 0.0,
                                    "interp" : "linr"
                                  },
                                  "smoothCursorAcrossEditDuration" : 235200000
                                },
                                "effects" : [

                                ],
                                "start" : 203730240000,
                                "duration" : 1999200000,
                                "mediaStart" : 273984480000,
                                "mediaDuration" : 1999200000,
                                "scalar" : 1,
                                "animationTracks" : {

                                }
                              },
                          "audio" : 
                              {
                                "id" : 53,
                                "_type" : "AMFile",
                                "src" : 5,
                                "trackNumber" : 1,
                                "attributes" : {
                                  "ident" : "",
                                  "gain" : 1.0,
                                  "mixToMono" : false,
                                  "loudnessNormalization" : true,
                                  "sourceFileOffset" : 0
                                },
                                  "channelNumber" : "0,1",
                                "effects" : [

                                ],
                                "start" : 203730240000,
                                "duration" : 1999200000,
                                "mediaStart" : 273984480000,
                                "mediaDuration" : 1999200000,
                                "scalar" : 1,
                                "animationTracks" : {

                                }
                              }
,
                          "start" : 203730240000,
                          "duration" : 1999200000,
                          "mediaStart" : 0,
                          "mediaDuration" : 527083200000,
                          "scalar" : 1,
                          "metadata" : {
                            "AutoAppliedSmartFocus" : "False",
                            "clipSpeedAttribute" : false
                          }
                        },
                        {
                          "id" : 54,
                          "_type" : "UnifiedMedia",
                          "video" : 
                              {
                                "id" : 55,
                                "_type" : "ScreenVMFile",
                                "src" : 5,
                                "trackNumber" : 0,
                                "attributes" : {
                                  "ident" : "Rec 8-28-2023-8-58-42-PM"
                                },
                                "parameters" : {
                                  "sourceCrop0" : {
                                    "type" : "double",
                                    "defaultValue" : 0.0,
                                    "interp" : "eioe"
                                  },
                                  "sourceCrop1" : {
                                    "type" : "double",
                                    "defaultValue" : 0.0,
                                    "interp" : "eioe"
                                  },
                                  "sourceCrop2" : {
                                    "type" : "double",
                                    "defaultValue" : 0.0,
                                    "interp" : "eioe"
                                  },
                                  "sourceCrop3" : {
                                    "type" : "double",
                                    "defaultValue" : 0.0,
                                    "interp" : "eioe"
                                  },
                                  "geometryCrop0" : {
                                    "type" : "double",
                                    "defaultValue" : 0.0,
                                    "interp" : "eioe"
                                  },
                                  "geometryCrop1" : {
                                    "type" : "double",
                                    "defaultValue" : 0.0,
                                    "interp" : "eioe"
                                  },
                                  "geometryCrop2" : {
                                    "type" : "double",
                                    "defaultValue" : 0.0,
                                    "interp" : "eioe"
                                  },
                                  "geometryCrop3" : {
                                    "type" : "double",
                                    "defaultValue" : 0.0,
                                    "interp" : "eioe"
                                  },
                                  "cursorScale" : {
                                    "type" : "double",
                                    "defaultValue" : 0.0,
                                    "interp" : "linr"
                                  },
                                  "cursorOpacity" : {
                                    "type" : "double",
                                    "defaultValue" : 0.0,
                                    "interp" : "linr"
                                  },
                                  "smoothCursorAcrossEditDuration" : 235200000
                                },
                                "effects" : [

                                ],
                                "start" : 205729440000,
                                "duration" : 3551520000,
                                "mediaStart" : 276477600000,
                                "mediaDuration" : 3551520000,
                                "scalar" : 1,
                                "animationTracks" : {

                                }
                              },
                          "audio" : 
                              {
                                "id" : 56,
                                "_type" : "AMFile",
                                "src" : 5,
                                "trackNumber" : 1,
                                "attributes" : {
                                  "ident" : "",
                                  "gain" : 1.0,
                                  "mixToMono" : false,
                                  "loudnessNormalization" : true,
                                  "sourceFileOffset" : 0
                                },
                                  "channelNumber" : "0,1",
                                "effects" : [

                                ],
                                "start" : 205729440000,
                                "duration" : 3551520000,
                                "mediaStart" : 276477600000,
                                "mediaDuration" : 3551520000,
                                "scalar" : 1,
                                "animationTracks" : {

                                }
                              }
,
                          "start" : 205729440000,
                          "duration" : 3551520000,
                          "mediaStart" : 0,
                          "mediaDuration" : 527083200000,
                          "scalar" : 1,
                          "metadata" : {
                            "AutoAppliedSmartFocus" : "False",
                            "clipSpeedAttribute" : false
                          }
                        },
                        {
                          "id" : 57,
                          "_type" : "UnifiedMedia",
                          "video" : 
                              {
                                "id" : 58,
                                "_type" : "ScreenVMFile",
                                "src" : 5,
                                "trackNumber" : 0,
                                "attributes" : {
                                  "ident" : "Rec 8-28-2023-8-58-42-PM"
                                },
                                "parameters" : {
                                  "sourceCrop0" : {
                                    "type" : "double",
                                    "defaultValue" : 0.0,
                                    "interp" : "eioe"
                                  },
                                  "sourceCrop1" : {
                                    "type" : "double",
                                    "defaultValue" : 0.0,
                                    "interp" : "eioe"
                                  },
                                  "sourceCrop2" : {
                                    "type" : "double",
                                    "defaultValue" : 0.0,
                                    "interp" : "eioe"
                                  },
                                  "sourceCrop3" : {
                                    "type" : "double",
                                    "defaultValue" : 0.0,
                                    "interp" : "eioe"
                                  },
                                  "geometryCrop0" : {
                                    "type" : "double",
                                    "defaultValue" : 0.0,
                                    "interp" : "eioe"
                                  },
                                  "geometryCrop1" : {
                                    "type" : "double",
                                    "defaultValue" : 0.0,
                                    "interp" : "eioe"
                                  },
                                  "geometryCrop2" : {
                                    "type" : "double",
                                    "defaultValue" : 0.0,
                                    "interp" : "eioe"
                                  },
                                  "geometryCrop3" : {
                                    "type" : "double",
                                    "defaultValue" : 0.0,
                                    "interp" : "eioe"
                                  },
                                  "cursorScale" : {
                                    "type" : "double",
                                    "defaultValue" : 0.0,
                                    "interp" : "linr"
                                  },
                                  "cursorOpacity" : {
                                    "type" : "double",
                                    "defaultValue" : 0.0,
                                    "interp" : "linr"
                                  },
                                  "smoothCursorAcrossEditDuration" : 235200000
                                },
                                "effects" : [

                                ],
                                "start" : 209280960000,
                                "duration" : 5150880000,
                                "mediaStart" : 284074560000,
                                "mediaDuration" : 5150880000,
                                "scalar" : 1,
                                "animationTracks" : {

                                }
                              },
                          "audio" : 
                              {
                                "id" : 59,
                                "_type" : "AMFile",
                                "src" : 5,
                                "trackNumber" : 1,
                                "attributes" : {
                                  "ident" : "",
                                  "gain" : 1.0,
                                  "mixToMono" : false,
                                  "loudnessNormalization" : true,
                                  "sourceFileOffset" : 0
                                },
                                  "channelNumber" : "0,1",
                                "effects" : [

                                ],
                                "start" : 209280960000,
                                "duration" : 5150880000,
                                "mediaStart" : 284074560000,
                                "mediaDuration" : 5150880000,
                                "scalar" : 1,
                                "animationTracks" : {

                                }
                              }
,
                          "start" : 209280960000,
                          "duration" : 5150880000,
                          "mediaStart" : 0,
                          "mediaDuration" : 527083200000,
                          "scalar" : 1,
                          "metadata" : {
                            "AutoAppliedSmartFocus" : "False",
                            "clipSpeedAttribute" : false
                          }
                        },
                        {
                          "id" : 60,
                          "_type" : "UnifiedMedia",
                          "video" : 
                              {
                                "id" : 61,
                                "_type" : "ScreenVMFile",
                                "src" : 5,
                                "trackNumber" : 0,
                                "attributes" : {
                                  "ident" : "Rec 8-28-2023-8-58-42-PM"
                                },
                                "parameters" : {
                                  "sourceCrop0" : {
                                    "type" : "double",
                                    "defaultValue" : 0.0,
                                    "interp" : "eioe"
                                  },
                                  "sourceCrop1" : {
                                    "type" : "double",
                                    "defaultValue" : 0.0,
                                    "interp" : "eioe"
                                  },
                                  "sourceCrop2" : {
                                    "type" : "double",
                                    "defaultValue" : 0.0,
                                    "interp" : "eioe"
                                  },
                                  "sourceCrop3" : {
                                    "type" : "double",
                                    "defaultValue" : 0.0,
                                    "interp" : "eioe"
                                  },
                                  "geometryCrop0" : {
                                    "type" : "double",
                                    "defaultValue" : 0.0,
                                    "interp" : "eioe"
                                  },
                                  "geometryCrop1" : {
                                    "type" : "double",
                                    "defaultValue" : 0.0,
                                    "interp" : "eioe"
                                  },
                                  "geometryCrop2" : {
                                    "type" : "double",
                                    "defaultValue" : 0.0,
                                    "interp" : "eioe"
                                  },
                                  "geometryCrop3" : {
                                    "type" : "double",
                                    "defaultValue" : 0.0,
                                    "interp" : "eioe"
                                  },
                                  "cursorScale" : {
                                    "type" : "double",
                                    "defaultValue" : 0.0,
                                    "interp" : "linr"
                                  },
                                  "cursorOpacity" : {
                                    "type" : "double",
                                    "defaultValue" : 0.0,
                                    "interp" : "linr"
                                  },
                                  "smoothCursorAcrossEditDuration" : 235200000
                                },
                                "effects" : [

                                ],
                                "start" : 214431840000,
                                "duration" : 1223040000,
                                "mediaStart" : 290072160000,
                                "mediaDuration" : 1223040000,
                                "scalar" : 1,
                                "animationTracks" : {

                                }
                              },
                          "audio" : 
                              {
                                "id" : 62,
                                "_type" : "AMFile",
                                "src" : 5,
                                "trackNumber" : 1,
                                "attributes" : {
                                  "ident" : "",
                                  "gain" : 1.0,
                                  "mixToMono" : false,
                                  "loudnessNormalization" : true,
                                  "sourceFileOffset" : 0
                                },
                                  "channelNumber" : "0,1",
                                "effects" : [

                                ],
                                "start" : 214431840000,
                                "duration" : 1223040000,
                                "mediaStart" : 290072160000,
                                "mediaDuration" : 1223040000,
                                "scalar" : 1,
                                "animationTracks" : {

                                }
                              }
,
                          "start" : 214431840000,
                          "duration" : 1223040000,
                          "mediaStart" : 0,
                          "mediaDuration" : 527083200000,
                          "scalar" : 1,
                          "metadata" : {
                            "AutoAppliedSmartFocus" : "False",
                            "clipSpeedAttribute" : false
                          }
                        },
                        {
                          "id" : 63,
                          "_type" : "UnifiedMedia",
                          "video" : 
                              {
                                "id" : 64,
                                "_type" : "ScreenVMFile",
                                "src" : 5,
                                "trackNumber" : 0,
                                "attributes" : {
                                  "ident" : "Rec 8-28-2023-8-58-42-PM"
                                },
                                "parameters" : {
                                  "sourceCrop0" : {
                                    "type" : "double",
                                    "defaultValue" : 0.0,
                                    "interp" : "eioe"
                                  },
                                  "sourceCrop1" : {
                                    "type" : "double",
                                    "defaultValue" : 0.0,
                                    "interp" : "eioe"
                                  },
                                  "sourceCrop2" : {
                                    "type" : "double",
                                    "defaultValue" : 0.0,
                                    "interp" : "eioe"
                                  },
                                  "sourceCrop3" : {
                                    "type" : "double",
                                    "defaultValue" : 0.0,
                                    "interp" : "eioe"
                                  },
                                  "geometryCrop0" : {
                                    "type" : "double",
                                    "defaultValue" : 0.0,
                                    "interp" : "eioe"
                                  },
                                  "geometryCrop1" : {
                                    "type" : "double",
                                    "defaultValue" : 0.0,
                                    "interp" : "eioe"
                                  },
                                  "geometryCrop2" : {
                                    "type" : "double",
                                    "defaultValue" : 0.0,
                                    "interp" : "eioe"
                                  },
                                  "geometryCrop3" : {
                                    "type" : "double",
                                    "defaultValue" : 0.0,
                                    "interp" : "eioe"
                                  },
                                  "cursorScale" : {
                                    "type" : "double",
                                    "defaultValue" : 0.0,
                                    "interp" : "linr"
                                  },
                                  "cursorOpacity" : {
                                    "type" : "double",
                                    "defaultValue" : 0.0,
                                    "interp" : "linr"
                                  },
                                  "smoothCursorAcrossEditDuration" : 235200000
                                },
                                "effects" : [

                                ],
                                "start" : 215654880000,
                                "duration" : 2845920000,
                                "mediaStart" : 292330080000,
                                "mediaDuration" : 2845920000,
                                "scalar" : 1,
                                "animationTracks" : {

                                }
                              },
                          "audio" : 
                              {
                                "id" : 65,
                                "_type" : "AMFile",
                                "src" : 5,
                                "trackNumber" : 1,
                                "attributes" : {
                                  "ident" : "",
                                  "gain" : 1.0,
                                  "mixToMono" : false,
                                  "loudnessNormalization" : true,
                                  "sourceFileOffset" : 0
                                },
                                  "channelNumber" : "0,1",
                                "effects" : [

                                ],
                                "start" : 215654880000,
                                "duration" : 2845920000,
                                "mediaStart" : 292330080000,
                                "mediaDuration" : 2845920000,
                                "scalar" : 1,
                                "animationTracks" : {

                                }
                              }
,
                          "start" : 215654880000,
                          "duration" : 2845920000,
                          "mediaStart" : 0,
                          "mediaDuration" : 527083200000,
                          "scalar" : 1,
                          "metadata" : {
                            "AutoAppliedSmartFocus" : "False",
                            "clipSpeedAttribute" : false
                          }
                        },
                        {
                          "id" : 66,
                          "_type" : "UnifiedMedia",
                          "video" : 
                              {
                                "id" : 67,
                                "_type" : "ScreenVMFile",
                                "src" : 5,
                                "trackNumber" : 0,
                                "attributes" : {
                                  "ident" : "Rec 8-28-2023-8-58-42-PM"
                                },
                                "parameters" : {
                                  "sourceCrop0" : {
                                    "type" : "double",
                                    "defaultValue" : 0.0,
                                    "interp" : "eioe"
                                  },
                                  "sourceCrop1" : {
                                    "type" : "double",
                                    "defaultValue" : 0.0,
                                    "interp" : "eioe"
                                  },
                                  "sourceCrop2" : {
                                    "type" : "double",
                                    "defaultValue" : 0.0,
                                    "interp" : "eioe"
                                  },
                                  "sourceCrop3" : {
                                    "type" : "double",
                                    "defaultValue" : 0.0,
                                    "interp" : "eioe"
                                  },
                                  "geometryCrop0" : {
                                    "type" : "double",
                                    "defaultValue" : 0.0,
                                    "interp" : "eioe"
                                  },
                                  "geometryCrop1" : {
                                    "type" : "double",
                                    "defaultValue" : 0.0,
                                    "interp" : "eioe"
                                  },
                                  "geometryCrop2" : {
                                    "type" : "double",
                                    "defaultValue" : 0.0,
                                    "interp" : "eioe"
                                  },
                                  "geometryCrop3" : {
                                    "type" : "double",
                                    "defaultValue" : 0.0,
                                    "interp" : "eioe"
                                  },
                                  "cursorScale" : {
                                    "type" : "double",
                                    "defaultValue" : 0.0,
                                    "interp" : "linr"
                                  },
                                  "cursorOpacity" : {
                                    "type" : "double",
                                    "defaultValue" : 0.0,
                                    "interp" : "linr"
                                  },
                                  "smoothCursorAcrossEditDuration" : 235200000
                                },
                                "effects" : [

                                ],
                                "start" : 218500800000,
                                "duration" : 11195520000,
                                "mediaStart" : 299644800000,
                                "mediaDuration" : 11195520000,
                                "scalar" : 1,
                                "animationTracks" : {

                                }
                              },
                          "audio" : 
                              {
                                "id" : 68,
                                "_type" : "AMFile",
                                "src" : 5,
                                "trackNumber" : 1,
                                "attributes" : {
                                  "ident" : "",
                                  "gain" : 1.0,
                                  "mixToMono" : false,
                                  "loudnessNormalization" : true,
                                  "sourceFileOffset" : 0
                                },
                                  "channelNumber" : "0,1",
                                "effects" : [

                                ],
                                "start" : 218500800000,
                                "duration" : 11195520000,
                                "mediaStart" : 299644800000,
                                "mediaDuration" : 11195520000,
                                "scalar" : 1,
                                "animationTracks" : {

                                }
                              }
,
                          "start" : 218500800000,
                          "duration" : 11195520000,
                          "mediaStart" : 0,
                          "mediaDuration" : 527083200000,
                          "scalar" : 1,
                          "metadata" : {
                            "AutoAppliedSmartFocus" : "False",
                            "clipSpeedAttribute" : false
                          }
                        },
                        {
                          "id" : 69,
                          "_type" : "UnifiedMedia",
                          "video" : 
                              {
                                "id" : 70,
                                "_type" : "ScreenVMFile",
                                "src" : 5,
                                "trackNumber" : 0,
                                "attributes" : {
                                  "ident" : "Rec 8-28-2023-8-58-42-PM"
                                },
                                "parameters" : {
                                  "sourceCrop0" : {
                                    "type" : "double",
                                    "defaultValue" : 0.0,
                                    "interp" : "eioe"
                                  },
                                  "sourceCrop1" : {
                                    "type" : "double",
                                    "defaultValue" : 0.0,
                                    "interp" : "eioe"
                                  },
                                  "sourceCrop2" : {
                                    "type" : "double",
                                    "defaultValue" : 0.0,
                                    "interp" : "eioe"
                                  },
                                  "sourceCrop3" : {
                                    "type" : "double",
                                    "defaultValue" : 0.0,
                                    "interp" : "eioe"
                                  },
                                  "geometryCrop0" : {
                                    "type" : "double",
                                    "defaultValue" : 0.0,
                                    "interp" : "eioe"
                                  },
                                  "geometryCrop1" : {
                                    "type" : "double",
                                    "defaultValue" : 0.0,
                                    "interp" : "eioe"
                                  },
                                  "geometryCrop2" : {
                                    "type" : "double",
                                    "defaultValue" : 0.0,
                                    "interp" : "eioe"
                                  },
                                  "geometryCrop3" : {
                                    "type" : "double",
                                    "defaultValue" : 0.0,
                                    "interp" : "eioe"
                                  },
                                  "cursorScale" : {
                                    "type" : "double",
                                    "defaultValue" : 0.0,
                                    "interp" : "linr"
                                  },
                                  "cursorOpacity" : {
                                    "type" : "double",
                                    "defaultValue" : 0.0,
                                    "interp" : "linr"
                                  },
                                  "smoothCursorAcrossEditDuration" : 235200000
                                },
                                "effects" : [

                                ],
                                "start" : 229696320000,
                                "duration" : 329280000,
                                "mediaStart" : 320883360000,
                                "mediaDuration" : 329280000,
                                "scalar" : 1,
                                "animationTracks" : {

                                }
                              },
                          "audio" : 
                              {
                                "id" : 71,
                                "_type" : "AMFile",
                                "src" : 5,
                                "trackNumber" : 1,
                                "attributes" : {
                                  "ident" : "",
                                  "gain" : 1.0,
                                  "mixToMono" : false,
                                  "loudnessNormalization" : true,
                                  "sourceFileOffset" : 0
                                },
                                  "channelNumber" : "0,1",
                                "effects" : [

                                ],
                                "start" : 229696320000,
                                "duration" : 329280000,
                                "mediaStart" : 320883360000,
                                "mediaDuration" : 329280000,
                                "scalar" : 1,
                                "animationTracks" : {

                                }
                              }
,
                          "start" : 229696320000,
                          "duration" : 329280000,
                          "mediaStart" : 0,
                          "mediaDuration" : 527083200000,
                          "scalar" : 1,
                          "metadata" : {
                            "AutoAppliedSmartFocus" : "False",
                            "clipSpeedAttribute" : false
                          }
                        },
                        {
                          "id" : 72,
                          "_type" : "UnifiedMedia",
                          "video" : 
                              {
                                "id" : 73,
                                "_type" : "ScreenVMFile",
                                "src" : 5,
                                "trackNumber" : 0,
                                "attributes" : {
                                  "ident" : "Rec 8-28-2023-8-58-42-PM"
                                },
                                "parameters" : {
                                  "sourceCrop0" : {
                                    "type" : "double",
                                    "defaultValue" : 0.0,
                                    "interp" : "eioe"
                                  },
                                  "sourceCrop1" : {
                                    "type" : "double",
                                    "defaultValue" : 0.0,
                                    "interp" : "eioe"
                                  },
                                  "sourceCrop2" : {
                                    "type" : "double",
                                    "defaultValue" : 0.0,
                                    "interp" : "eioe"
                                  },
                                  "sourceCrop3" : {
                                    "type" : "double",
                                    "defaultValue" : 0.0,
                                    "interp" : "eioe"
                                  },
                                  "geometryCrop0" : {
                                    "type" : "double",
                                    "defaultValue" : 0.0,
                                    "interp" : "eioe"
                                  },
                                  "geometryCrop1" : {
                                    "type" : "double",
                                    "defaultValue" : 0.0,
                                    "interp" : "eioe"
                                  },
                                  "geometryCrop2" : {
                                    "type" : "double",
                                    "defaultValue" : 0.0,
                                    "interp" : "eioe"
                                  },
                                  "geometryCrop3" : {
                                    "type" : "double",
                                    "defaultValue" : 0.0,
                                    "interp" : "eioe"
                                  },
                                  "cursorScale" : {
                                    "type" : "double",
                                    "defaultValue" : 0.0,
                                    "interp" : "linr"
                                  },
                                  "cursorOpacity" : {
                                    "type" : "double",
                                    "defaultValue" : 0.0,
                                    "interp" : "linr"
                                  },
                                  "smoothCursorAcrossEditDuration" : 235200000
                                },
                                "effects" : [

                                ],
                                "start" : 230025600000,
                                "duration" : 205588320000,
                                "mediaStart" : 321494880000,
                                "mediaDuration" : 205588320000,
                                "scalar" : 1,
                                "animationTracks" : {

                                }
                              },
                          "audio" : 
                              {
                                "id" : 74,
                                "_type" : "AMFile",
                                "src" : 5,
                                "trackNumber" : 1,
                                "attributes" : {
                                  "ident" : "",
                                  "gain" : 1.0,
                                  "mixToMono" : false,
                                  "loudnessNormalization" : true,
                                  "sourceFileOffset" : 0
                                },
                                  "channelNumber" : "0,1",
                                "effects" : [

                                ],
                                "start" : 230025600000,
                                "duration" : 205588320000,
                                "mediaStart" : 321494880000,
                                "mediaDuration" : 205588320000,
                                "scalar" : 1,
                                "animationTracks" : {

                                }
                              }
,
                          "start" : 230025600000,
                          "duration" : 205588320000,
                          "mediaStart" : 0,
                          "mediaDuration" : 527083200000,
                          "scalar" : 1,
                          "metadata" : {
                            "AutoAppliedSmartFocus" : "False",
                            "clipSpeedAttribute" : false
                          }
                        }
                    ],
                    "effects" : [

                    ],
                    "start" : 13147680000,
                    "duration" : 97137600000,
                    "mediaStart" : 149399040000,
                    "mediaDuration" : 97137600000,
                    "scalar" : 1,
                    "metadata" : {
                      "AutoAppliedSmartFocus" : "False",
                      "clipSpeedAttribute" : false
                    },
                    "animationTracks" : {

                    }
                  },
                  {
                    "id" : 75,
                    "_type" : "StitchedMedia",
                    "minMediaStart" : 0,
                    "attributes" : {
                      "ident" : "Rec 8-28-2023-8-43-05-PM",
                      "gain" : 1.0,
                      "mixToMono" : false,
                      "loudnessNormalization" : true,
                      "sourceFileOffset" : 0
                    },
                    "parameters" : {
                      "sourceCrop0" : 0.0,
                      "sourceCrop1" : 0.0,
                      "sourceCrop2" : 0.0,
                      "sourceCrop3" : 0.0,
                      "geometryCrop0" : 0.0,
                      "geometryCrop1" : 0.0,
                      "geometryCrop2" : 0.0,
                      "geometryCrop3" : 0.0,
                      "volume" : 1.0,
                      "cursorOpacity" : 1.0,
                      "cursorScale" : 1.2,
                      "smoothCursorAcrossEditDuration" : 235200000
                    },
                    "medias" : [
                        {
                          "id" : 76,
                          "_type" : "UnifiedMedia",
                          "video" : 
                              {
                                "id" : 77,
                                "_type" : "ScreenVMFile",
                                "src" : 4,
                                "trackNumber" : 0,
                                "attributes" : {
                                  "ident" : "Rec 8-28-2023-8-43-05-PM"
                                },
                                "parameters" : {
                                  "sourceCrop0" : {
                                    "type" : "double",
                                    "defaultValue" : 0.0,
                                    "interp" : "eioe"
                                  },
                                  "sourceCrop1" : {
                                    "type" : "double",
                                    "defaultValue" : 0.0,
                                    "interp" : "eioe"
                                  },
                                  "sourceCrop2" : {
                                    "type" : "double",
                                    "defaultValue" : 0.0,
                                    "interp" : "eioe"
                                  },
                                  "sourceCrop3" : {
                                    "type" : "double",
                                    "defaultValue" : 0.0,
                                    "interp" : "eioe"
                                  },
                                  "geometryCrop0" : {
                                    "type" : "double",
                                    "defaultValue" : 0.0,
                                    "interp" : "eioe"
                                  },
                                  "geometryCrop1" : {
                                    "type" : "double",
                                    "defaultValue" : 0.0,
                                    "interp" : "eioe"
                                  },
                                  "geometryCrop2" : {
                                    "type" : "double",
                                    "defaultValue" : 0.0,
                                    "interp" : "eioe"
                                  },
                                  "geometryCrop3" : {
                                    "type" : "double",
                                    "defaultValue" : 0.0,
                                    "interp" : "eioe"
                                  },
                                  "cursorScale" : {
                                    "type" : "double",
                                    "defaultValue" : 0.0,
                                    "interp" : "linr"
                                  },
                                  "cursorOpacity" : {
                                    "type" : "double",
                                    "defaultValue" : 0.0,
                                    "interp" : "linr"
                                  },
                                  "smoothCursorAcrossEditDuration" : 235200000
                                },
                                "effects" : [

                                ],
                                "start" : 0,
                                "duration" : 36150240000,
                                "mediaStart" : 0,
                                "mediaDuration" : 36150240000,
                                "scalar" : 1,
                                "animationTracks" : {

                                }
                              },
                          "audio" : 
                              {
                                "id" : 78,
                                "_type" : "AMFile",
                                "src" : 4,
                                "trackNumber" : 1,
                                "attributes" : {
                                  "ident" : "",
                                  "gain" : 1.0,
                                  "mixToMono" : false,
                                  "loudnessNormalization" : true,
                                  "sourceFileOffset" : 0
                                },
                                  "channelNumber" : "0,1",
                                "effects" : [

                                ],
                                "start" : 0,
                                "duration" : 36150240000,
                                "mediaStart" : 0,
                                "mediaDuration" : 36150240000,
                                "scalar" : 1,
                                "animationTracks" : {

                                }
                              }
,
                          "start" : 0,
                          "duration" : 36150240000,
                          "mediaStart" : 0,
                          "mediaDuration" : 42077280000,
                          "scalar" : 1,
                          "metadata" : {
                            "AutoAppliedSmartFocus" : "False",
                            "clipSpeedAttribute" : false
                          }
                        },
                        {
                          "id" : 79,
                          "_type" : "UnifiedMedia",
                          "video" : 
                              {
                                "id" : 80,
                                "_type" : "ScreenVMFile",
                                "src" : 4,
                                "trackNumber" : 0,
                                "attributes" : {
                                  "ident" : "Rec 8-28-2023-8-43-05-PM"
                                },
                                "parameters" : {
                                  "sourceCrop0" : {
                                    "type" : "double",
                                    "defaultValue" : 0.0,
                                    "interp" : "eioe"
                                  },
                                  "sourceCrop1" : {
                                    "type" : "double",
                                    "defaultValue" : 0.0,
                                    "interp" : "eioe"
                                  },
                                  "sourceCrop2" : {
                                    "type" : "double",
                                    "defaultValue" : 0.0,
                                    "interp" : "eioe"
                                  },
                                  "sourceCrop3" : {
                                    "type" : "double",
                                    "defaultValue" : 0.0,
                                    "interp" : "eioe"
                                  },
                                  "geometryCrop0" : {
                                    "type" : "double",
                                    "defaultValue" : 0.0,
                                    "interp" : "eioe"
                                  },
                                  "geometryCrop1" : {
                                    "type" : "double",
                                    "defaultValue" : 0.0,
                                    "interp" : "eioe"
                                  },
                                  "geometryCrop2" : {
                                    "type" : "double",
                                    "defaultValue" : 0.0,
                                    "interp" : "eioe"
                                  },
                                  "geometryCrop3" : {
                                    "type" : "double",
                                    "defaultValue" : 0.0,
                                    "interp" : "eioe"
                                  },
                                  "cursorScale" : {
                                    "type" : "double",
                                    "defaultValue" : 0.0,
                                    "interp" : "linr"
                                  },
                                  "cursorOpacity" : {
                                    "type" : "double",
                                    "defaultValue" : 0.0,
                                    "interp" : "linr"
                                  },
                                  "smoothCursorAcrossEditDuration" : 235200000
                                },
                                "effects" : [

                                ],
                                "start" : 36150240000,
                                "duration" : 5080320000,
                                "mediaStart" : 36996960000,
                                "mediaDuration" : 5080320000,
                                "scalar" : 1,
                                "animationTracks" : {

                                }
                              },
                          "audio" : 
                              {
                                "id" : 81,
                                "_type" : "AMFile",
                                "src" : 4,
                                "trackNumber" : 1,
                                "attributes" : {
                                  "ident" : "",
                                  "gain" : 1.0,
                                  "mixToMono" : false,
                                  "loudnessNormalization" : true,
                                  "sourceFileOffset" : 0
                                },
                                  "channelNumber" : "0,1",
                                "effects" : [

                                ],
                                "start" : 36150240000,
                                "duration" : 5080320000,
                                "mediaStart" : 36996960000,
                                "mediaDuration" : 5080320000,
                                "scalar" : 1,
                                "animationTracks" : {

                                }
                              }
,
                          "start" : 36150240000,
                          "duration" : 5080320000,
                          "mediaStart" : 0,
                          "mediaDuration" : 42077280000,
                          "scalar" : 1,
                          "metadata" : {
                            "AutoAppliedSmartFocus" : "False",
                            "clipSpeedAttribute" : false
                          }
                        }
                    ],
                    "effects" : [

                    ],
                    "start" : 110285280000,
                    "duration" : 10936800000,
                    "mediaStart" : 27777120000,
                    "mediaDuration" : 10936800000,
                    "scalar" : 1,
                    "metadata" : {
                      "AutoAppliedSmartFocus" : "False",
                      "clipSpeedAttribute" : false
                    },
                    "animationTracks" : {

                    }
                  },
                  {
                    "id" : 82,
                    "_type" : "StitchedMedia",
                    "minMediaStart" : 0,
                    "attributes" : {
                      "ident" : "Rec 8-28-2023-8-58-42-PM",
                      "gain" : 1.0,
                      "mixToMono" : false,
                      "loudnessNormalization" : true,
                      "sourceFileOffset" : 0
                    },
                    "parameters" : {
                      "sourceCrop0" : 0.0,
                      "sourceCrop1" : 0.0,
                      "sourceCrop2" : 0.0,
                      "sourceCrop3" : 0.0,
                      "geometryCrop0" : 0.0,
                      "geometryCrop1" : 0.0,
                      "geometryCrop2" : 0.0,
                      "geometryCrop3" : 0.0,
                      "volume" : 1.0,
                      "cursorOpacity" : 1.0,
                      "cursorScale" : 1.2,
                      "smoothCursorAcrossEditDuration" : 235200000
                    },
                    "medias" : [
                        {
                          "id" : 83,
                          "_type" : "UnifiedMedia",
                          "video" : 
                              {
                                "id" : 84,
                                "_type" : "ScreenVMFile",
                                "src" : 5,
                                "trackNumber" : 0,
                                "attributes" : {
                                  "ident" : "Rec 8-28-2023-8-58-42-PM"
                                },
                                "parameters" : {
                                  "sourceCrop0" : {
                                    "type" : "double",
                                    "defaultValue" : 0.0,
                                    "interp" : "eioe"
                                  },
                                  "sourceCrop1" : {
                                    "type" : "double",
                                    "defaultValue" : 0.0,
                                    "interp" : "eioe"
                                  },
                                  "sourceCrop2" : {
                                    "type" : "double",
                                    "defaultValue" : 0.0,
                                    "interp" : "eioe"
                                  },
                                  "sourceCrop3" : {
                                    "type" : "double",
                                    "defaultValue" : 0.0,
                                    "interp" : "eioe"
                                  },
                                  "geometryCrop0" : {
                                    "type" : "double",
                                    "defaultValue" : 0.0,
                                    "interp" : "eioe"
                                  },
                                  "geometryCrop1" : {
                                    "type" : "double",
                                    "defaultValue" : 0.0,
                                    "interp" : "eioe"
                                  },
                                  "geometryCrop2" : {
                                    "type" : "double",
                                    "defaultValue" : 0.0,
                                    "interp" : "eioe"
                                  },
                                  "geometryCrop3" : {
                                    "type" : "double",
                                    "defaultValue" : 0.0,
                                    "interp" : "eioe"
                                  },
                                  "cursorScale" : {
                                    "type" : "double",
                                    "defaultValue" : 0.0,
                                    "interp" : "linr"
                                  },
                                  "cursorOpacity" : {
                                    "type" : "double",
                                    "defaultValue" : 0.0,
                                    "interp" : "linr"
                                  },
                                  "smoothCursorAcrossEditDuration" : 235200000
                                },
                                "effects" : [

                                ],
                                "start" : 0,
                                "duration" : 374532480000,
                                "mediaStart" : 0,
                                "mediaDuration" : 374532480000,
                                "scalar" : 1,
                                "animationTracks" : {

                                }
                              },
                          "audio" : 
                              {
                                "id" : 85,
                                "_type" : "AMFile",
                                "src" : 5,
                                "trackNumber" : 1,
                                "attributes" : {
                                  "ident" : "",
                                  "gain" : 1.0,
                                  "mixToMono" : false,
                                  "loudnessNormalization" : true,
                                  "sourceFileOffset" : 0
                                },
                                  "channelNumber" : "0,1",
                                "effects" : [

                                ],
                                "start" : 0,
                                "duration" : 374532480000,
                                "mediaStart" : 0,
                                "mediaDuration" : 374532480000,
                                "scalar" : 1,
                                "animationTracks" : {

                                }
                              }
,
                          "start" : 0,
                          "duration" : 374532480000,
                          "mediaStart" : 0,
                          "mediaDuration" : 527083200000,
                          "scalar" : 1,
                          "metadata" : {
                            "AutoAppliedSmartFocus" : "False",
                            "clipSpeedAttribute" : false
                          }
                        },
                        {
                          "id" : 86,
                          "_type" : "UnifiedMedia",
                          "video" : 
                              {
                                "id" : 87,
                                "_type" : "ScreenVMFile",
                                "src" : 5,
                                "trackNumber" : 0,
                                "attributes" : {
                                  "ident" : "Rec 8-28-2023-8-58-42-PM"
                                },
                                "parameters" : {
                                  "sourceCrop0" : {
                                    "type" : "double",
                                    "defaultValue" : 0.0,
                                    "interp" : "eioe"
                                  },
                                  "sourceCrop1" : {
                                    "type" : "double",
                                    "defaultValue" : 0.0,
                                    "interp" : "eioe"
                                  },
                                  "sourceCrop2" : {
                                    "type" : "double",
                                    "defaultValue" : 0.0,
                                    "interp" : "eioe"
                                  },
                                  "sourceCrop3" : {
                                    "type" : "double",
                                    "defaultValue" : 0.0,
                                    "interp" : "eioe"
                                  },
                                  "geometryCrop0" : {
                                    "type" : "double",
                                    "defaultValue" : 0.0,
                                    "interp" : "eioe"
                                  },
                                  "geometryCrop1" : {
                                    "type" : "double",
                                    "defaultValue" : 0.0,
                                    "interp" : "eioe"
                                  },
                                  "geometryCrop2" : {
                                    "type" : "double",
                                    "defaultValue" : 0.0,
                                    "interp" : "eioe"
                                  },
                                  "geometryCrop3" : {
                                    "type" : "double",
                                    "defaultValue" : 0.0,
                                    "interp" : "eioe"
                                  },
                                  "cursorScale" : {
                                    "type" : "double",
                                    "defaultValue" : 0.0,
                                    "interp" : "linr"
                                  },
                                  "cursorOpacity" : {
                                    "type" : "double",
                                    "defaultValue" : 0.0,
                                    "interp" : "linr"
                                  },
                                  "smoothCursorAcrossEditDuration" : 235200000
                                },
                                "effects" : [

                                ],
                                "start" : 374532480000,
                                "duration" : 7879200000,
                                "mediaStart" : 379612800000,
                                "mediaDuration" : 7879200000,
                                "scalar" : 1,
                                "animationTracks" : {

                                }
                              },
                          "audio" : 
                              {
                                "id" : 88,
                                "_type" : "AMFile",
                                "src" : 5,
                                "trackNumber" : 1,
                                "attributes" : {
                                  "ident" : "",
                                  "gain" : 1.0,
                                  "mixToMono" : false,
                                  "loudnessNormalization" : true,
                                  "sourceFileOffset" : 0
                                },
                                  "channelNumber" : "0,1",
                                "effects" : [

                                ],
                                "start" : 374532480000,
                                "duration" : 7879200000,
                                "mediaStart" : 379612800000,
                                "mediaDuration" : 7879200000,
                                "scalar" : 1,
                                "animationTracks" : {

                                }
                              }
,
                          "start" : 374532480000,
                          "duration" : 7879200000,
                          "mediaStart" : 0,
                          "mediaDuration" : 527083200000,
                          "scalar" : 1,
                          "metadata" : {
                            "AutoAppliedSmartFocus" : "False",
                            "clipSpeedAttribute" : false
                          }
                        },
                        {
                          "id" : 89,
                          "_type" : "UnifiedMedia",
                          "video" : 
                              {
                                "id" : 90,
                                "_type" : "ScreenVMFile",
                                "src" : 5,
                                "trackNumber" : 0,
                                "attributes" : {
                                  "ident" : "Rec 8-28-2023-8-58-42-PM"
                                },
                                "parameters" : {
                                  "sourceCrop0" : {
                                    "type" : "double",
                                    "defaultValue" : 0.0,
                                    "interp" : "eioe"
                                  },
                                  "sourceCrop1" : {
                                    "type" : "double",
                                    "defaultValue" : 0.0,
                                    "interp" : "eioe"
                                  },
                                  "sourceCrop2" : {
                                    "type" : "double",
                                    "defaultValue" : 0.0,
                                    "interp" : "eioe"
                                  },
                                  "sourceCrop3" : {
                                    "type" : "double",
                                    "defaultValue" : 0.0,
                                    "interp" : "eioe"
                                  },
                                  "geometryCrop0" : {
                                    "type" : "double",
                                    "defaultValue" : 0.0,
                                    "interp" : "eioe"
                                  },
                                  "geometryCrop1" : {
                                    "type" : "double",
                                    "defaultValue" : 0.0,
                                    "interp" : "eioe"
                                  },
                                  "geometryCrop2" : {
                                    "type" : "double",
                                    "defaultValue" : 0.0,
                                    "interp" : "eioe"
                                  },
                                  "geometryCrop3" : {
                                    "type" : "double",
                                    "defaultValue" : 0.0,
                                    "interp" : "eioe"
                                  },
                                  "cursorScale" : {
                                    "type" : "double",
                                    "defaultValue" : 0.0,
                                    "interp" : "linr"
                                  },
                                  "cursorOpacity" : {
                                    "type" : "double",
                                    "defaultValue" : 0.0,
                                    "interp" : "linr"
                                  },
                                  "smoothCursorAcrossEditDuration" : 235200000
                                },
                                "effects" : [

                                ],
                                "start" : 382411680000,
                                "duration" : 14747040000,
                                "mediaStart" : 389632320000,
                                "mediaDuration" : 14747040000,
                                "scalar" : 1,
                                "animationTracks" : {

                                }
                              },
                          "audio" : 
                              {
                                "id" : 91,
                                "_type" : "AMFile",
                                "src" : 5,
                                "trackNumber" : 1,
                                "attributes" : {
                                  "ident" : "",
                                  "gain" : 1.0,
                                  "mixToMono" : false,
                                  "loudnessNormalization" : true,
                                  "sourceFileOffset" : 0
                                },
                                  "channelNumber" : "0,1",
                                "effects" : [

                                ],
                                "start" : 382411680000,
                                "duration" : 14747040000,
                                "mediaStart" : 389632320000,
                                "mediaDuration" : 14747040000,
                                "scalar" : 1,
                                "animationTracks" : {

                                }
                              }
,
                          "start" : 382411680000,
                          "duration" : 14747040000,
                          "mediaStart" : 0,
                          "mediaDuration" : 527083200000,
                          "scalar" : 1,
                          "metadata" : {
                            "AutoAppliedSmartFocus" : "False",
                            "clipSpeedAttribute" : false
                          }
                        },
                        {
                          "id" : 92,
                          "_type" : "UnifiedMedia",
                          "video" : 
                              {
                                "id" : 93,
                                "_type" : "ScreenVMFile",
                                "src" : 5,
                                "trackNumber" : 0,
                                "attributes" : {
                                  "ident" : "Rec 8-28-2023-8-58-42-PM"
                                },
                                "parameters" : {
                                  "sourceCrop0" : {
                                    "type" : "double",
                                    "defaultValue" : 0.0,
                                    "interp" : "eioe"
                                  },
                                  "sourceCrop1" : {
                                    "type" : "double",
                                    "defaultValue" : 0.0,
                                    "interp" : "eioe"
                                  },
                                  "sourceCrop2" : {
                                    "type" : "double",
                                    "defaultValue" : 0.0,
                                    "interp" : "eioe"
                                  },
                                  "sourceCrop3" : {
                                    "type" : "double",
                                    "defaultValue" : 0.0,
                                    "interp" : "eioe"
                                  },
                                  "geometryCrop0" : {
                                    "type" : "double",
                                    "defaultValue" : 0.0,
                                    "interp" : "eioe"
                                  },
                                  "geometryCrop1" : {
                                    "type" : "double",
                                    "defaultValue" : 0.0,
                                    "interp" : "eioe"
                                  },
                                  "geometryCrop2" : {
                                    "type" : "double",
                                    "defaultValue" : 0.0,
                                    "interp" : "eioe"
                                  },
                                  "geometryCrop3" : {
                                    "type" : "double",
                                    "defaultValue" : 0.0,
                                    "interp" : "eioe"
                                  },
                                  "cursorScale" : {
                                    "type" : "double",
                                    "defaultValue" : 0.0,
                                    "interp" : "linr"
                                  },
                                  "cursorOpacity" : {
                                    "type" : "double",
                                    "defaultValue" : 0.0,
                                    "interp" : "linr"
                                  },
                                  "smoothCursorAcrossEditDuration" : 235200000
                                },
                                "effects" : [

                                ],
                                "start" : 397158720000,
                                "duration" : 8232000000,
                                "mediaStart" : 406637280000,
                                "mediaDuration" : 8232000000,
                                "scalar" : 1,
                                "animationTracks" : {

                                }
                              },
                          "audio" : 
                              {
                                "id" : 94,
                                "_type" : "AMFile",
                                "src" : 5,
                                "trackNumber" : 1,
                                "attributes" : {
                                  "ident" : "",
                                  "gain" : 1.0,
                                  "mixToMono" : false,
                                  "loudnessNormalization" : true,
                                  "sourceFileOffset" : 0
                                },
                                  "channelNumber" : "0,1",
                                "effects" : [

                                ],
                                "start" : 397158720000,
                                "duration" : 8232000000,
                                "mediaStart" : 406637280000,
                                "mediaDuration" : 8232000000,
                                "scalar" : 1,
                                "animationTracks" : {

                                }
                              }
,
                          "start" : 397158720000,
                          "duration" : 8232000000,
                          "mediaStart" : 0,
                          "mediaDuration" : 527083200000,
                          "scalar" : 1,
                          "metadata" : {
                            "AutoAppliedSmartFocus" : "False",
                            "clipSpeedAttribute" : false
                          }
                        },
                        {
                          "id" : 95,
                          "_type" : "UnifiedMedia",
                          "video" : 
                              {
                                "id" : 96,
                                "_type" : "ScreenVMFile",
                                "src" : 5,
                                "trackNumber" : 0,
                                "attributes" : {
                                  "ident" : "Rec 8-28-2023-8-58-42-PM"
                                },
                                "parameters" : {
                                  "sourceCrop0" : {
                                    "type" : "double",
                                    "defaultValue" : 0.0,
                                    "interp" : "eioe"
                                  },
                                  "sourceCrop1" : {
                                    "type" : "double",
                                    "defaultValue" : 0.0,
                                    "interp" : "eioe"
                                  },
                                  "sourceCrop2" : {
                                    "type" : "double",
                                    "defaultValue" : 0.0,
                                    "interp" : "eioe"
                                  },
                                  "sourceCrop3" : {
                                    "type" : "double",
                                    "defaultValue" : 0.0,
                                    "interp" : "eioe"
                                  },
                                  "geometryCrop0" : {
                                    "type" : "double",
                                    "defaultValue" : 0.0,
                                    "interp" : "eioe"
                                  },
                                  "geometryCrop1" : {
                                    "type" : "double",
                                    "defaultValue" : 0.0,
                                    "interp" : "eioe"
                                  },
                                  "geometryCrop2" : {
                                    "type" : "double",
                                    "defaultValue" : 0.0,
                                    "interp" : "eioe"
                                  },
                                  "geometryCrop3" : {
                                    "type" : "double",
                                    "defaultValue" : 0.0,
                                    "interp" : "eioe"
                                  },
                                  "cursorScale" : {
                                    "type" : "double",
                                    "defaultValue" : 0.0,
                                    "interp" : "linr"
                                  },
                                  "cursorOpacity" : {
                                    "type" : "double",
                                    "defaultValue" : 0.0,
                                    "interp" : "linr"
                                  },
                                  "smoothCursorAcrossEditDuration" : 235200000
                                },
                                "effects" : [

                                ],
                                "start" : 405390720000,
                                "duration" : 2116800000,
                                "mediaStart" : 415292640000,
                                "mediaDuration" : 2116800000,
                                "scalar" : 1,
                                "animationTracks" : {

                                }
                              },
                          "audio" : 
                              {
                                "id" : 97,
                                "_type" : "AMFile",
                                "src" : 5,
                                "trackNumber" : 1,
                                "attributes" : {
                                  "ident" : "",
                                  "gain" : 1.0,
                                  "mixToMono" : false,
                                  "loudnessNormalization" : true,
                                  "sourceFileOffset" : 0
                                },
                                  "channelNumber" : "0,1",
                                "effects" : [

                                ],
                                "start" : 405390720000,
                                "duration" : 2116800000,
                                "mediaStart" : 415292640000,
                                "mediaDuration" : 2116800000,
                                "scalar" : 1,
                                "animationTracks" : {

                                }
                              }
,
                          "start" : 405390720000,
                          "duration" : 2116800000,
                          "mediaStart" : 0,
                          "mediaDuration" : 527083200000,
                          "scalar" : 1,
                          "metadata" : {
                            "AutoAppliedSmartFocus" : "False",
                            "clipSpeedAttribute" : false
                          }
                        },
                        {
                          "id" : 98,
                          "_type" : "UnifiedMedia",
                          "video" : 
                              {
                                "id" : 99,
                                "_type" : "ScreenVMFile",
                                "src" : 5,
                                "trackNumber" : 0,
                                "attributes" : {
                                  "ident" : "Rec 8-28-2023-8-58-42-PM"
                                },
                                "parameters" : {
                                  "sourceCrop0" : {
                                    "type" : "double",
                                    "defaultValue" : 0.0,
                                    "interp" : "eioe"
                                  },
                                  "sourceCrop1" : {
                                    "type" : "double",
                                    "defaultValue" : 0.0,
                                    "interp" : "eioe"
                                  },
                                  "sourceCrop2" : {
                                    "type" : "double",
                                    "defaultValue" : 0.0,
                                    "interp" : "eioe"
                                  },
                                  "sourceCrop3" : {
                                    "type" : "double",
                                    "defaultValue" : 0.0,
                                    "interp" : "eioe"
                                  },
                                  "geometryCrop0" : {
                                    "type" : "double",
                                    "defaultValue" : 0.0,
                                    "interp" : "eioe"
                                  },
                                  "geometryCrop1" : {
                                    "type" : "double",
                                    "defaultValue" : 0.0,
                                    "interp" : "eioe"
                                  },
                                  "geometryCrop2" : {
                                    "type" : "double",
                                    "defaultValue" : 0.0,
                                    "interp" : "eioe"
                                  },
                                  "geometryCrop3" : {
                                    "type" : "double",
                                    "defaultValue" : 0.0,
                                    "interp" : "eioe"
                                  },
                                  "cursorScale" : {
                                    "type" : "double",
                                    "defaultValue" : 0.0,
                                    "interp" : "linr"
                                  },
                                  "cursorOpacity" : {
                                    "type" : "double",
                                    "defaultValue" : 0.0,
                                    "interp" : "linr"
                                  },
                                  "smoothCursorAcrossEditDuration" : 235200000
                                },
                                "effects" : [

                                ],
                                "start" : 407507520000,
                                "duration" : 2046240000,
                                "mediaStart" : 418750080000,
                                "mediaDuration" : 2046240000,
                                "scalar" : 1,
                                "animationTracks" : {

                                }
                              },
                          "audio" : 
                              {
                                "id" : 100,
                                "_type" : "AMFile",
                                "src" : 5,
                                "trackNumber" : 1,
                                "attributes" : {
                                  "ident" : "",
                                  "gain" : 1.0,
                                  "mixToMono" : false,
                                  "loudnessNormalization" : true,
                                  "sourceFileOffset" : 0
                                },
                                  "channelNumber" : "0,1",
                                "effects" : [

                                ],
                                "start" : 407507520000,
                                "duration" : 2046240000,
                                "mediaStart" : 418750080000,
                                "mediaDuration" : 2046240000,
                                "scalar" : 1,
                                "animationTracks" : {

                                }
                              }
,
                          "start" : 407507520000,
                          "duration" : 2046240000,
                          "mediaStart" : 0,
                          "mediaDuration" : 527083200000,
                          "scalar" : 1,
                          "metadata" : {
                            "AutoAppliedSmartFocus" : "False",
                            "clipSpeedAttribute" : false
                          }
                        },
                        {
                          "id" : 101,
                          "_type" : "UnifiedMedia",
                          "video" : 
                              {
                                "id" : 102,
                                "_type" : "ScreenVMFile",
                                "src" : 5,
                                "trackNumber" : 0,
                                "attributes" : {
                                  "ident" : "Rec 8-28-2023-8-58-42-PM"
                                },
                                "parameters" : {
                                  "sourceCrop0" : {
                                    "type" : "double",
                                    "defaultValue" : 0.0,
                                    "interp" : "eioe"
                                  },
                                  "sourceCrop1" : {
                                    "type" : "double",
                                    "defaultValue" : 0.0,
                                    "interp" : "eioe"
                                  },
                                  "sourceCrop2" : {
                                    "type" : "double",
                                    "defaultValue" : 0.0,
                                    "interp" : "eioe"
                                  },
                                  "sourceCrop3" : {
                                    "type" : "double",
                                    "defaultValue" : 0.0,
                                    "interp" : "eioe"
                                  },
                                  "geometryCrop0" : {
                                    "type" : "double",
                                    "defaultValue" : 0.0,
                                    "interp" : "eioe"
                                  },
                                  "geometryCrop1" : {
                                    "type" : "double",
                                    "defaultValue" : 0.0,
                                    "interp" : "eioe"
                                  },
                                  "geometryCrop2" : {
                                    "type" : "double",
                                    "defaultValue" : 0.0,
                                    "interp" : "eioe"
                                  },
                                  "geometryCrop3" : {
                                    "type" : "double",
                                    "defaultValue" : 0.0,
                                    "interp" : "eioe"
                                  },
                                  "cursorScale" : {
                                    "type" : "double",
                                    "defaultValue" : 0.0,
                                    "interp" : "linr"
                                  },
                                  "cursorOpacity" : {
                                    "type" : "double",
                                    "defaultValue" : 0.0,
                                    "interp" : "linr"
                                  },
                                  "smoothCursorAcrossEditDuration" : 235200000
                                },
                                "effects" : [

                                ],
                                "start" : 409553760000,
                                "duration" : 846720000,
                                "mediaStart" : 421784160000,
                                "mediaDuration" : 846720000,
                                "scalar" : 1,
                                "animationTracks" : {

                                }
                              },
                          "audio" : 
                              {
                                "id" : 103,
                                "_type" : "AMFile",
                                "src" : 5,
                                "trackNumber" : 1,
                                "attributes" : {
                                  "ident" : "",
                                  "gain" : 1.0,
                                  "mixToMono" : false,
                                  "loudnessNormalization" : true,
                                  "sourceFileOffset" : 0
                                },
                                  "channelNumber" : "0,1",
                                "effects" : [

                                ],
                                "start" : 409553760000,
                                "duration" : 846720000,
                                "mediaStart" : 421784160000,
                                "mediaDuration" : 846720000,
                                "scalar" : 1,
                                "animationTracks" : {

                                }
                              }
,
                          "start" : 409553760000,
                          "duration" : 846720000,
                          "mediaStart" : 0,
                          "mediaDuration" : 527083200000,
                          "scalar" : 1,
                          "metadata" : {
                            "AutoAppliedSmartFocus" : "False",
                            "clipSpeedAttribute" : false
                          }
                        },
                        {
                          "id" : 104,
                          "_type" : "UnifiedMedia",
                          "video" : 
                              {
                                "id" : 105,
                                "_type" : "ScreenVMFile",
                                "src" : 5,
                                "trackNumber" : 0,
                                "attributes" : {
                                  "ident" : "Rec 8-28-2023-8-58-42-PM"
                                },
                                "parameters" : {
                                  "sourceCrop0" : {
                                    "type" : "double",
                                    "defaultValue" : 0.0,
                                    "interp" : "eioe"
                                  },
                                  "sourceCrop1" : {
                                    "type" : "double",
                                    "defaultValue" : 0.0,
                                    "interp" : "eioe"
                                  },
                                  "sourceCrop2" : {
                                    "type" : "double",
                                    "defaultValue" : 0.0,
                                    "interp" : "eioe"
                                  },
                                  "sourceCrop3" : {
                                    "type" : "double",
                                    "defaultValue" : 0.0,
                                    "interp" : "eioe"
                                  },
                                  "geometryCrop0" : {
                                    "type" : "double",
                                    "defaultValue" : 0.0,
                                    "interp" : "eioe"
                                  },
                                  "geometryCrop1" : {
                                    "type" : "double",
                                    "defaultValue" : 0.0,
                                    "interp" : "eioe"
                                  },
                                  "geometryCrop2" : {
                                    "type" : "double",
                                    "defaultValue" : 0.0,
                                    "interp" : "eioe"
                                  },
                                  "geometryCrop3" : {
                                    "type" : "double",
                                    "defaultValue" : 0.0,
                                    "interp" : "eioe"
                                  },
                                  "cursorScale" : {
                                    "type" : "double",
                                    "defaultValue" : 0.0,
                                    "interp" : "linr"
                                  },
                                  "cursorOpacity" : {
                                    "type" : "double",
                                    "defaultValue" : 0.0,
                                    "interp" : "linr"
                                  },
                                  "smoothCursorAcrossEditDuration" : 235200000
                                },
                                "effects" : [

                                ],
                                "start" : 410400480000,
                                "duration" : 3081120000,
                                "mediaStart" : 423171840000,
                                "mediaDuration" : 3081120000,
                                "scalar" : 1,
                                "animationTracks" : {

                                }
                              },
                          "audio" : 
                              {
                                "id" : 106,
                                "_type" : "AMFile",
                                "src" : 5,
                                "trackNumber" : 1,
                                "attributes" : {
                                  "ident" : "",
                                  "gain" : 1.0,
                                  "mixToMono" : false,
                                  "loudnessNormalization" : true,
                                  "sourceFileOffset" : 0
                                },
                                  "channelNumber" : "0,1",
                                "effects" : [

                                ],
                                "start" : 410400480000,
                                "duration" : 3081120000,
                                "mediaStart" : 423171840000,
                                "mediaDuration" : 3081120000,
                                "scalar" : 1,
                                "animationTracks" : {

                                }
                              }
,
                          "start" : 410400480000,
                          "duration" : 3081120000,
                          "mediaStart" : 0,
                          "mediaDuration" : 527083200000,
                          "scalar" : 1,
                          "metadata" : {
                            "AutoAppliedSmartFocus" : "False",
                            "clipSpeedAttribute" : false
                          }
                        },
                        {
                          "id" : 107,
                          "_type" : "UnifiedMedia",
                          "video" : 
                              {
                                "id" : 108,
                                "_type" : "ScreenVMFile",
                                "src" : 5,
                                "trackNumber" : 0,
                                "attributes" : {
                                  "ident" : "Rec 8-28-2023-8-58-42-PM"
                                },
                                "parameters" : {
                                  "sourceCrop0" : {
                                    "type" : "double",
                                    "defaultValue" : 0.0,
                                    "interp" : "eioe"
                                  },
                                  "sourceCrop1" : {
                                    "type" : "double",
                                    "defaultValue" : 0.0,
                                    "interp" : "eioe"
                                  },
                                  "sourceCrop2" : {
                                    "type" : "double",
                                    "defaultValue" : 0.0,
                                    "interp" : "eioe"
                                  },
                                  "sourceCrop3" : {
                                    "type" : "double",
                                    "defaultValue" : 0.0,
                                    "interp" : "eioe"
                                  },
                                  "geometryCrop0" : {
                                    "type" : "double",
                                    "defaultValue" : 0.0,
                                    "interp" : "eioe"
                                  },
                                  "geometryCrop1" : {
                                    "type" : "double",
                                    "defaultValue" : 0.0,
                                    "interp" : "eioe"
                                  },
                                  "geometryCrop2" : {
                                    "type" : "double",
                                    "defaultValue" : 0.0,
                                    "interp" : "eioe"
                                  },
                                  "geometryCrop3" : {
                                    "type" : "double",
                                    "defaultValue" : 0.0,
                                    "interp" : "eioe"
                                  },
                                  "cursorScale" : {
                                    "type" : "double",
                                    "defaultValue" : 0.0,
                                    "interp" : "linr"
                                  },
                                  "cursorOpacity" : {
                                    "type" : "double",
                                    "defaultValue" : 0.0,
                                    "interp" : "linr"
                                  },
                                  "smoothCursorAcrossEditDuration" : 235200000
                                },
                                "effects" : [

                                ],
                                "start" : 413481600000,
                                "duration" : 1952160000,
                                "mediaStart" : 427546560000,
                                "mediaDuration" : 1952160000,
                                "scalar" : 1,
                                "animationTracks" : {

                                }
                              },
                          "audio" : 
                              {
                                "id" : 109,
                                "_type" : "AMFile",
                                "src" : 5,
                                "trackNumber" : 1,
                                "attributes" : {
                                  "ident" : "",
                                  "gain" : 1.0,
                                  "mixToMono" : false,
                                  "loudnessNormalization" : true,
                                  "sourceFileOffset" : 0
                                },
                                  "channelNumber" : "0,1",
                                "effects" : [

                                ],
                                "start" : 413481600000,
                                "duration" : 1952160000,
                                "mediaStart" : 427546560000,
                                "mediaDuration" : 1952160000,
                                "scalar" : 1,
                                "animationTracks" : {

                                }
                              }
,
                          "start" : 413481600000,
                          "duration" : 1952160000,
                          "mediaStart" : 0,
                          "mediaDuration" : 527083200000,
                          "scalar" : 1,
                          "metadata" : {
                            "AutoAppliedSmartFocus" : "False",
                            "clipSpeedAttribute" : false
                          }
                        },
                        {
                          "id" : 110,
                          "_type" : "UnifiedMedia",
                          "video" : 
                              {
                                "id" : 111,
                                "_type" : "ScreenVMFile",
                                "src" : 5,
                                "trackNumber" : 0,
                                "attributes" : {
                                  "ident" : "Rec 8-28-2023-8-58-42-PM"
                                },
                                "parameters" : {
                                  "sourceCrop0" : {
                                    "type" : "double",
                                    "defaultValue" : 0.0,
                                    "interp" : "eioe"
                                  },
                                  "sourceCrop1" : {
                                    "type" : "double",
                                    "defaultValue" : 0.0,
                                    "interp" : "eioe"
                                  },
                                  "sourceCrop2" : {
                                    "type" : "double",
                                    "defaultValue" : 0.0,
                                    "interp" : "eioe"
                                  },
                                  "sourceCrop3" : {
                                    "type" : "double",
                                    "defaultValue" : 0.0,
                                    "interp" : "eioe"
                                  },
                                  "geometryCrop0" : {
                                    "type" : "double",
                                    "defaultValue" : 0.0,
                                    "interp" : "eioe"
                                  },
                                  "geometryCrop1" : {
                                    "type" : "double",
                                    "defaultValue" : 0.0,
                                    "interp" : "eioe"
                                  },
                                  "geometryCrop2" : {
                                    "type" : "double",
                                    "defaultValue" : 0.0,
                                    "interp" : "eioe"
                                  },
                                  "geometryCrop3" : {
                                    "type" : "double",
                                    "defaultValue" : 0.0,
                                    "interp" : "eioe"
                                  },
                                  "cursorScale" : {
                                    "type" : "double",
                                    "defaultValue" : 0.0,
                                    "interp" : "linr"
                                  },
                                  "cursorOpacity" : {
                                    "type" : "double",
                                    "defaultValue" : 0.0,
                                    "interp" : "linr"
                                  },
                                  "smoothCursorAcrossEditDuration" : 235200000
                                },
                                "effects" : [

                                ],
                                "start" : 415433760000,
                                "duration" : 3057600000,
                                "mediaStart" : 430510080000,
                                "mediaDuration" : 3057600000,
                                "scalar" : 1,
                                "animationTracks" : {

                                }
                              },
                          "audio" : 
                              {
                                "id" : 112,
                                "_type" : "AMFile",
                                "src" : 5,
                                "trackNumber" : 1,
                                "attributes" : {
                                  "ident" : "",
                                  "gain" : 1.0,
                                  "mixToMono" : false,
                                  "loudnessNormalization" : true,
                                  "sourceFileOffset" : 0
                                },
                                  "channelNumber" : "0,1",
                                "effects" : [

                                ],
                                "start" : 415433760000,
                                "duration" : 3057600000,
                                "mediaStart" : 430510080000,
                                "mediaDuration" : 3057600000,
                                "scalar" : 1,
                                "animationTracks" : {

                                }
                              }
,
                          "start" : 415433760000,
                          "duration" : 3057600000,
                          "mediaStart" : 0,
                          "mediaDuration" : 527083200000,
                          "scalar" : 1,
                          "metadata" : {
                            "AutoAppliedSmartFocus" : "False",
                            "clipSpeedAttribute" : false
                          }
                        },
                        {
                          "id" : 113,
                          "_type" : "UnifiedMedia",
                          "video" : 
                              {
                                "id" : 114,
                                "_type" : "ScreenVMFile",
                                "src" : 5,
                                "trackNumber" : 0,
                                "attributes" : {
                                  "ident" : "Rec 8-28-2023-8-58-42-PM"
                                },
                                "parameters" : {
                                  "sourceCrop0" : {
                                    "type" : "double",
                                    "defaultValue" : 0.0,
                                    "interp" : "eioe"
                                  },
                                  "sourceCrop1" : {
                                    "type" : "double",
                                    "defaultValue" : 0.0,
                                    "interp" : "eioe"
                                  },
                                  "sourceCrop2" : {
                                    "type" : "double",
                                    "defaultValue" : 0.0,
                                    "interp" : "eioe"
                                  },
                                  "sourceCrop3" : {
                                    "type" : "double",
                                    "defaultValue" : 0.0,
                                    "interp" : "eioe"
                                  },
                                  "geometryCrop0" : {
                                    "type" : "double",
                                    "defaultValue" : 0.0,
                                    "interp" : "eioe"
                                  },
                                  "geometryCrop1" : {
                                    "type" : "double",
                                    "defaultValue" : 0.0,
                                    "interp" : "eioe"
                                  },
                                  "geometryCrop2" : {
                                    "type" : "double",
                                    "defaultValue" : 0.0,
                                    "interp" : "eioe"
                                  },
                                  "geometryCrop3" : {
                                    "type" : "double",
                                    "defaultValue" : 0.0,
                                    "interp" : "eioe"
                                  },
                                  "cursorScale" : {
                                    "type" : "double",
                                    "defaultValue" : 0.0,
                                    "interp" : "linr"
                                  },
                                  "cursorOpacity" : {
                                    "type" : "double",
                                    "defaultValue" : 0.0,
                                    "interp" : "linr"
                                  },
                                  "smoothCursorAcrossEditDuration" : 235200000
                                },
                                "effects" : [

                                ],
                                "start" : 418491360000,
                                "duration" : 1317120000,
                                "mediaStart" : 433802880000,
                                "mediaDuration" : 1317120000,
                                "scalar" : 1,
                                "animationTracks" : {

                                }
                              },
                          "audio" : 
                              {
                                "id" : 115,
                                "_type" : "AMFile",
                                "src" : 5,
                                "trackNumber" : 1,
                                "attributes" : {
                                  "ident" : "",
                                  "gain" : 1.0,
                                  "mixToMono" : false,
                                  "loudnessNormalization" : true,
                                  "sourceFileOffset" : 0
                                },
                                  "channelNumber" : "0,1",
                                "effects" : [

                                ],
                                "start" : 418491360000,
                                "duration" : 1317120000,
                                "mediaStart" : 433802880000,
                                "mediaDuration" : 1317120000,
                                "scalar" : 1,
                                "animationTracks" : {

                                }
                              }
,
                          "start" : 418491360000,
                          "duration" : 1317120000,
                          "mediaStart" : 0,
                          "mediaDuration" : 527083200000,
                          "scalar" : 1,
                          "metadata" : {
                            "AutoAppliedSmartFocus" : "False",
                            "clipSpeedAttribute" : false
                          }
                        },
                        {
                          "id" : 116,
                          "_type" : "UnifiedMedia",
                          "video" : 
                              {
                                "id" : 117,
                                "_type" : "ScreenVMFile",
                                "src" : 5,
                                "trackNumber" : 0,
                                "attributes" : {
                                  "ident" : "Rec 8-28-2023-8-58-42-PM"
                                },
                                "parameters" : {
                                  "sourceCrop0" : {
                                    "type" : "double",
                                    "defaultValue" : 0.0,
                                    "interp" : "eioe"
                                  },
                                  "sourceCrop1" : {
                                    "type" : "double",
                                    "defaultValue" : 0.0,
                                    "interp" : "eioe"
                                  },
                                  "sourceCrop2" : {
                                    "type" : "double",
                                    "defaultValue" : 0.0,
                                    "interp" : "eioe"
                                  },
                                  "sourceCrop3" : {
                                    "type" : "double",
                                    "defaultValue" : 0.0,
                                    "interp" : "eioe"
                                  },
                                  "geometryCrop0" : {
                                    "type" : "double",
                                    "defaultValue" : 0.0,
                                    "interp" : "eioe"
                                  },
                                  "geometryCrop1" : {
                                    "type" : "double",
                                    "defaultValue" : 0.0,
                                    "interp" : "eioe"
                                  },
                                  "geometryCrop2" : {
                                    "type" : "double",
                                    "defaultValue" : 0.0,
                                    "interp" : "eioe"
                                  },
                                  "geometryCrop3" : {
                                    "type" : "double",
                                    "defaultValue" : 0.0,
                                    "interp" : "eioe"
                                  },
                                  "cursorScale" : {
                                    "type" : "double",
                                    "defaultValue" : 0.0,
                                    "interp" : "linr"
                                  },
                                  "cursorOpacity" : {
                                    "type" : "double",
                                    "defaultValue" : 0.0,
                                    "interp" : "linr"
                                  },
                                  "smoothCursorAcrossEditDuration" : 235200000
                                },
                                "effects" : [

                                ],
                                "start" : 419808480000,
                                "duration" : 9431520000,
                                "mediaStart" : 437330880000,
                                "mediaDuration" : 9431520000,
                                "scalar" : 1,
                                "animationTracks" : {

                                }
                              },
                          "audio" : 
                              {
                                "id" : 118,
                                "_type" : "AMFile",
                                "src" : 5,
                                "trackNumber" : 1,
                                "attributes" : {
                                  "ident" : "",
                                  "gain" : 1.0,
                                  "mixToMono" : false,
                                  "loudnessNormalization" : true,
                                  "sourceFileOffset" : 0
                                },
                                  "channelNumber" : "0,1",
                                "effects" : [

                                ],
                                "start" : 419808480000,
                                "duration" : 9431520000,
                                "mediaStart" : 437330880000,
                                "mediaDuration" : 9431520000,
                                "scalar" : 1,
                                "animationTracks" : {

                                }
                              }
,
                          "start" : 419808480000,
                          "duration" : 9431520000,
                          "mediaStart" : 0,
                          "mediaDuration" : 527083200000,
                          "scalar" : 1,
                          "metadata" : {
                            "AutoAppliedSmartFocus" : "False",
                            "clipSpeedAttribute" : false
                          }
                        },
                        {
                          "id" : 119,
                          "_type" : "UnifiedMedia",
                          "video" : 
                              {
                                "id" : 120,
                                "_type" : "ScreenVMFile",
                                "src" : 5,
                                "trackNumber" : 0,
                                "attributes" : {
                                  "ident" : "Rec 8-28-2023-8-58-42-PM"
                                },
                                "parameters" : {
                                  "sourceCrop0" : {
                                    "type" : "double",
                                    "defaultValue" : 0.0,
                                    "interp" : "eioe"
                                  },
                                  "sourceCrop1" : {
                                    "type" : "double",
                                    "defaultValue" : 0.0,
                                    "interp" : "eioe"
                                  },
                                  "sourceCrop2" : {
                                    "type" : "double",
                                    "defaultValue" : 0.0,
                                    "interp" : "eioe"
                                  },
                                  "sourceCrop3" : {
                                    "type" : "double",
                                    "defaultValue" : 0.0,
                                    "interp" : "eioe"
                                  },
                                  "geometryCrop0" : {
                                    "type" : "double",
                                    "defaultValue" : 0.0,
                                    "interp" : "eioe"
                                  },
                                  "geometryCrop1" : {
                                    "type" : "double",
                                    "defaultValue" : 0.0,
                                    "interp" : "eioe"
                                  },
                                  "geometryCrop2" : {
                                    "type" : "double",
                                    "defaultValue" : 0.0,
                                    "interp" : "eioe"
                                  },
                                  "geometryCrop3" : {
                                    "type" : "double",
                                    "defaultValue" : 0.0,
                                    "interp" : "eioe"
                                  },
                                  "cursorScale" : {
                                    "type" : "double",
                                    "defaultValue" : 0.0,
                                    "interp" : "linr"
                                  },
                                  "cursorOpacity" : {
                                    "type" : "double",
                                    "defaultValue" : 0.0,
                                    "interp" : "linr"
                                  },
                                  "smoothCursorAcrossEditDuration" : 235200000
                                },
                                "effects" : [

                                ],
                                "start" : 429240000000,
                                "duration" : 893760000,
                                "mediaStart" : 447679680000,
                                "mediaDuration" : 893760000,
                                "scalar" : 1,
                                "animationTracks" : {

                                }
                              },
                          "audio" : 
                              {
                                "id" : 121,
                                "_type" : "AMFile",
                                "src" : 5,
                                "trackNumber" : 1,
                                "attributes" : {
                                  "ident" : "",
                                  "gain" : 1.0,
                                  "mixToMono" : false,
                                  "loudnessNormalization" : true,
                                  "sourceFileOffset" : 0
                                },
                                  "channelNumber" : "0,1",
                                "effects" : [

                                ],
                                "start" : 429240000000,
                                "duration" : 893760000,
                                "mediaStart" : 447679680000,
                                "mediaDuration" : 893760000,
                                "scalar" : 1,
                                "animationTracks" : {

                                }
                              }
,
                          "start" : 429240000000,
                          "duration" : 893760000,
                          "mediaStart" : 0,
                          "mediaDuration" : 527083200000,
                          "scalar" : 1,
                          "metadata" : {
                            "AutoAppliedSmartFocus" : "False",
                            "clipSpeedAttribute" : false
                          }
                        },
                        {
                          "id" : 122,
                          "_type" : "UnifiedMedia",
                          "video" : 
                              {
                                "id" : 123,
                                "_type" : "ScreenVMFile",
                                "src" : 5,
                                "trackNumber" : 0,
                                "attributes" : {
                                  "ident" : "Rec 8-28-2023-8-58-42-PM"
                                },
                                "parameters" : {
                                  "sourceCrop0" : {
                                    "type" : "double",
                                    "defaultValue" : 0.0,
                                    "interp" : "eioe"
                                  },
                                  "sourceCrop1" : {
                                    "type" : "double",
                                    "defaultValue" : 0.0,
                                    "interp" : "eioe"
                                  },
                                  "sourceCrop2" : {
                                    "type" : "double",
                                    "defaultValue" : 0.0,
                                    "interp" : "eioe"
                                  },
                                  "sourceCrop3" : {
                                    "type" : "double",
                                    "defaultValue" : 0.0,
                                    "interp" : "eioe"
                                  },
                                  "geometryCrop0" : {
                                    "type" : "double",
                                    "defaultValue" : 0.0,
                                    "interp" : "eioe"
                                  },
                                  "geometryCrop1" : {
                                    "type" : "double",
                                    "defaultValue" : 0.0,
                                    "interp" : "eioe"
                                  },
                                  "geometryCrop2" : {
                                    "type" : "double",
                                    "defaultValue" : 0.0,
                                    "interp" : "eioe"
                                  },
                                  "geometryCrop3" : {
                                    "type" : "double",
                                    "defaultValue" : 0.0,
                                    "interp" : "eioe"
                                  },
                                  "cursorScale" : {
                                    "type" : "double",
                                    "defaultValue" : 0.0,
                                    "interp" : "linr"
                                  },
                                  "cursorOpacity" : {
                                    "type" : "double",
                                    "defaultValue" : 0.0,
                                    "interp" : "linr"
                                  },
                                  "smoothCursorAcrossEditDuration" : 235200000
                                },
                                "effects" : [

                                ],
                                "start" : 430133760000,
                                "duration" : 823200000,
                                "mediaStart" : 449749440000,
                                "mediaDuration" : 823200000,
                                "scalar" : 1,
                                "animationTracks" : {

                                }
                              },
                          "audio" : 
                              {
                                "id" : 124,
                                "_type" : "AMFile",
                                "src" : 5,
                                "trackNumber" : 1,
                                "attributes" : {
                                  "ident" : "",
                                  "gain" : 1.0,
                                  "mixToMono" : false,
                                  "loudnessNormalization" : true,
                                  "sourceFileOffset" : 0
                                },
                                  "channelNumber" : "0,1",
                                "effects" : [

                                ],
                                "start" : 430133760000,
                                "duration" : 823200000,
                                "mediaStart" : 449749440000,
                                "mediaDuration" : 823200000,
                                "scalar" : 1,
                                "animationTracks" : {

                                }
                              }
,
                          "start" : 430133760000,
                          "duration" : 823200000,
                          "mediaStart" : 0,
                          "mediaDuration" : 527083200000,
                          "scalar" : 1,
                          "metadata" : {
                            "AutoAppliedSmartFocus" : "False",
                            "clipSpeedAttribute" : false
                          }
                        },
                        {
                          "id" : 125,
                          "_type" : "UnifiedMedia",
                          "video" : 
                              {
                                "id" : 126,
                                "_type" : "ScreenVMFile",
                                "src" : 5,
                                "trackNumber" : 0,
                                "attributes" : {
                                  "ident" : "Rec 8-28-2023-8-58-42-PM"
                                },
                                "parameters" : {
                                  "sourceCrop0" : {
                                    "type" : "double",
                                    "defaultValue" : 0.0,
                                    "interp" : "eioe"
                                  },
                                  "sourceCrop1" : {
                                    "type" : "double",
                                    "defaultValue" : 0.0,
                                    "interp" : "eioe"
                                  },
                                  "sourceCrop2" : {
                                    "type" : "double",
                                    "defaultValue" : 0.0,
                                    "interp" : "eioe"
                                  },
                                  "sourceCrop3" : {
                                    "type" : "double",
                                    "defaultValue" : 0.0,
                                    "interp" : "eioe"
                                  },
                                  "geometryCrop0" : {
                                    "type" : "double",
                                    "defaultValue" : 0.0,
                                    "interp" : "eioe"
                                  },
                                  "geometryCrop1" : {
                                    "type" : "double",
                                    "defaultValue" : 0.0,
                                    "interp" : "eioe"
                                  },
                                  "geometryCrop2" : {
                                    "type" : "double",
                                    "defaultValue" : 0.0,
                                    "interp" : "eioe"
                                  },
                                  "geometryCrop3" : {
                                    "type" : "double",
                                    "defaultValue" : 0.0,
                                    "interp" : "eioe"
                                  },
                                  "cursorScale" : {
                                    "type" : "double",
                                    "defaultValue" : 0.0,
                                    "interp" : "linr"
                                  },
                                  "cursorOpacity" : {
                                    "type" : "double",
                                    "defaultValue" : 0.0,
                                    "interp" : "linr"
                                  },
                                  "smoothCursorAcrossEditDuration" : 235200000
                                },
                                "effects" : [

                                ],
                                "start" : 430956960000,
                                "duration" : 3810240000,
                                "mediaStart" : 451301760000,
                                "mediaDuration" : 3810240000,
                                "scalar" : 1,
                                "animationTracks" : {

                                }
                              },
                          "audio" : 
                              {
                                "id" : 127,
                                "_type" : "AMFile",
                                "src" : 5,
                                "trackNumber" : 1,
                                "attributes" : {
                                  "ident" : "",
                                  "gain" : 1.0,
                                  "mixToMono" : false,
                                  "loudnessNormalization" : true,
                                  "sourceFileOffset" : 0
                                },
                                  "channelNumber" : "0,1",
                                "effects" : [

                                ],
                                "start" : 430956960000,
                                "duration" : 3810240000,
                                "mediaStart" : 451301760000,
                                "mediaDuration" : 3810240000,
                                "scalar" : 1,
                                "animationTracks" : {

                                }
                              }
,
                          "start" : 430956960000,
                          "duration" : 3810240000,
                          "mediaStart" : 0,
                          "mediaDuration" : 527083200000,
                          "scalar" : 1,
                          "metadata" : {
                            "AutoAppliedSmartFocus" : "False",
                            "clipSpeedAttribute" : false
                          }
                        },
                        {
                          "id" : 128,
                          "_type" : "UnifiedMedia",
                          "video" : 
                              {
                                "id" : 129,
                                "_type" : "ScreenVMFile",
                                "src" : 5,
                                "trackNumber" : 0,
                                "attributes" : {
                                  "ident" : "Rec 8-28-2023-8-58-42-PM"
                                },
                                "parameters" : {
                                  "sourceCrop0" : {
                                    "type" : "double",
                                    "defaultValue" : 0.0,
                                    "interp" : "eioe"
                                  },
                                  "sourceCrop1" : {
                                    "type" : "double",
                                    "defaultValue" : 0.0,
                                    "interp" : "eioe"
                                  },
                                  "sourceCrop2" : {
                                    "type" : "double",
                                    "defaultValue" : 0.0,
                                    "interp" : "eioe"
                                  },
                                  "sourceCrop3" : {
                                    "type" : "double",
                                    "defaultValue" : 0.0,
                                    "interp" : "eioe"
                                  },
                                  "geometryCrop0" : {
                                    "type" : "double",
                                    "defaultValue" : 0.0,
                                    "interp" : "eioe"
                                  },
                                  "geometryCrop1" : {
                                    "type" : "double",
                                    "defaultValue" : 0.0,
                                    "interp" : "eioe"
                                  },
                                  "geometryCrop2" : {
                                    "type" : "double",
                                    "defaultValue" : 0.0,
                                    "interp" : "eioe"
                                  },
                                  "geometryCrop3" : {
                                    "type" : "double",
                                    "defaultValue" : 0.0,
                                    "interp" : "eioe"
                                  },
                                  "cursorScale" : {
                                    "type" : "double",
                                    "defaultValue" : 0.0,
                                    "interp" : "linr"
                                  },
                                  "cursorOpacity" : {
                                    "type" : "double",
                                    "defaultValue" : 0.0,
                                    "interp" : "linr"
                                  },
                                  "smoothCursorAcrossEditDuration" : 235200000
                                },
                                "effects" : [

                                ],
                                "start" : 434767200000,
                                "duration" : 5927040000,
                                "mediaStart" : 455488320000,
                                "mediaDuration" : 5927040000,
                                "scalar" : 1,
                                "animationTracks" : {

                                }
                              },
                          "audio" : 
                              {
                                "id" : 130,
                                "_type" : "AMFile",
                                "src" : 5,
                                "trackNumber" : 1,
                                "attributes" : {
                                  "ident" : "",
                                  "gain" : 1.0,
                                  "mixToMono" : false,
                                  "loudnessNormalization" : true,
                                  "sourceFileOffset" : 0
                                },
                                  "channelNumber" : "0,1",
                                "effects" : [

                                ],
                                "start" : 434767200000,
                                "duration" : 5927040000,
                                "mediaStart" : 455488320000,
                                "mediaDuration" : 5927040000,
                                "scalar" : 1,
                                "animationTracks" : {

                                }
                              }
,
                          "start" : 434767200000,
                          "duration" : 5927040000,
                          "mediaStart" : 0,
                          "mediaDuration" : 527083200000,
                          "scalar" : 1,
                          "metadata" : {
                            "AutoAppliedSmartFocus" : "False",
                            "clipSpeedAttribute" : false
                          }
                        },
                        {
                          "id" : 131,
                          "_type" : "UnifiedMedia",
                          "video" : 
                              {
                                "id" : 132,
                                "_type" : "ScreenVMFile",
                                "src" : 5,
                                "trackNumber" : 0,
                                "attributes" : {
                                  "ident" : "Rec 8-28-2023-8-58-42-PM"
                                },
                                "parameters" : {
                                  "sourceCrop0" : {
                                    "type" : "double",
                                    "defaultValue" : 0.0,
                                    "interp" : "eioe"
                                  },
                                  "sourceCrop1" : {
                                    "type" : "double",
                                    "defaultValue" : 0.0,
                                    "interp" : "eioe"
                                  },
                                  "sourceCrop2" : {
                                    "type" : "double",
                                    "defaultValue" : 0.0,
                                    "interp" : "eioe"
                                  },
                                  "sourceCrop3" : {
                                    "type" : "double",
                                    "defaultValue" : 0.0,
                                    "interp" : "eioe"
                                  },
                                  "geometryCrop0" : {
                                    "type" : "double",
                                    "defaultValue" : 0.0,
                                    "interp" : "eioe"
                                  },
                                  "geometryCrop1" : {
                                    "type" : "double",
                                    "defaultValue" : 0.0,
                                    "interp" : "eioe"
                                  },
                                  "geometryCrop2" : {
                                    "type" : "double",
                                    "defaultValue" : 0.0,
                                    "interp" : "eioe"
                                  },
                                  "geometryCrop3" : {
                                    "type" : "double",
                                    "defaultValue" : 0.0,
                                    "interp" : "eioe"
                                  },
                                  "cursorScale" : {
                                    "type" : "double",
                                    "defaultValue" : 0.0,
                                    "interp" : "linr"
                                  },
                                  "cursorOpacity" : {
                                    "type" : "double",
                                    "defaultValue" : 0.0,
                                    "interp" : "linr"
                                  },
                                  "smoothCursorAcrossEditDuration" : 235200000
                                },
                                "effects" : [

                                ],
                                "start" : 440694240000,
                                "duration" : 9760800000,
                                "mediaStart" : 461885760000,
                                "mediaDuration" : 9760800000,
                                "scalar" : 1,
                                "animationTracks" : {

                                }
                              },
                          "audio" : 
                              {
                                "id" : 133,
                                "_type" : "AMFile",
                                "src" : 5,
                                "trackNumber" : 1,
                                "attributes" : {
                                  "ident" : "",
                                  "gain" : 1.0,
                                  "mixToMono" : false,
                                  "loudnessNormalization" : true,
                                  "sourceFileOffset" : 0
                                },
                                  "channelNumber" : "0,1",
                                "effects" : [

                                ],
                                "start" : 440694240000,
                                "duration" : 9760800000,
                                "mediaStart" : 461885760000,
                                "mediaDuration" : 9760800000,
                                "scalar" : 1,
                                "animationTracks" : {

                                }
                              }
,
                          "start" : 440694240000,
                          "duration" : 9760800000,
                          "mediaStart" : 0,
                          "mediaDuration" : 527083200000,
                          "scalar" : 1,
                          "metadata" : {
                            "AutoAppliedSmartFocus" : "False",
                            "clipSpeedAttribute" : false
                          }
                        },
                        {
                          "id" : 134,
                          "_type" : "UnifiedMedia",
                          "video" : 
                              {
                                "id" : 135,
                                "_type" : "ScreenVMFile",
                                "src" : 5,
                                "trackNumber" : 0,
                                "attributes" : {
                                  "ident" : "Rec 8-28-2023-8-58-42-PM"
                                },
                                "parameters" : {
                                  "sourceCrop0" : {
                                    "type" : "double",
                                    "defaultValue" : 0.0,
                                    "interp" : "eioe"
                                  },
                                  "sourceCrop1" : {
                                    "type" : "double",
                                    "defaultValue" : 0.0,
                                    "interp" : "eioe"
                                  },
                                  "sourceCrop2" : {
                                    "type" : "double",
                                    "defaultValue" : 0.0,
                                    "interp" : "eioe"
                                  },
                                  "sourceCrop3" : {
                                    "type" : "double",
                                    "defaultValue" : 0.0,
                                    "interp" : "eioe"
                                  },
                                  "geometryCrop0" : {
                                    "type" : "double",
                                    "defaultValue" : 0.0,
                                    "interp" : "eioe"
                                  },
                                  "geometryCrop1" : {
                                    "type" : "double",
                                    "defaultValue" : 0.0,
                                    "interp" : "eioe"
                                  },
                                  "geometryCrop2" : {
                                    "type" : "double",
                                    "defaultValue" : 0.0,
                                    "interp" : "eioe"
                                  },
                                  "geometryCrop3" : {
                                    "type" : "double",
                                    "defaultValue" : 0.0,
                                    "interp" : "eioe"
                                  },
                                  "cursorScale" : {
                                    "type" : "double",
                                    "defaultValue" : 0.0,
                                    "interp" : "linr"
                                  },
                                  "cursorOpacity" : {
                                    "type" : "double",
                                    "defaultValue" : 0.0,
                                    "interp" : "linr"
                                  },
                                  "smoothCursorAcrossEditDuration" : 235200000
                                },
                                "effects" : [

                                ],
                                "start" : 450455040000,
                                "duration" : 776160000,
                                "mediaStart" : 472446240000,
                                "mediaDuration" : 776160000,
                                "scalar" : 1,
                                "animationTracks" : {

                                }
                              },
                          "audio" : 
                              {
                                "id" : 136,
                                "_type" : "AMFile",
                                "src" : 5,
                                "trackNumber" : 1,
                                "attributes" : {
                                  "ident" : "",
                                  "gain" : 1.0,
                                  "mixToMono" : false,
                                  "loudnessNormalization" : true,
                                  "sourceFileOffset" : 0
                                },
                                  "channelNumber" : "0,1",
                                "effects" : [

                                ],
                                "start" : 450455040000,
                                "duration" : 776160000,
                                "mediaStart" : 472446240000,
                                "mediaDuration" : 776160000,
                                "scalar" : 1,
                                "animationTracks" : {

                                }
                              }
,
                          "start" : 450455040000,
                          "duration" : 776160000,
                          "mediaStart" : 0,
                          "mediaDuration" : 527083200000,
                          "scalar" : 1,
                          "metadata" : {
                            "AutoAppliedSmartFocus" : "False",
                            "clipSpeedAttribute" : false
                          }
                        },
                        {
                          "id" : 137,
                          "_type" : "UnifiedMedia",
                          "video" : 
                              {
                                "id" : 138,
                                "_type" : "ScreenVMFile",
                                "src" : 5,
                                "trackNumber" : 0,
                                "attributes" : {
                                  "ident" : "Rec 8-28-2023-8-58-42-PM"
                                },
                                "parameters" : {
                                  "sourceCrop0" : {
                                    "type" : "double",
                                    "defaultValue" : 0.0,
                                    "interp" : "eioe"
                                  },
                                  "sourceCrop1" : {
                                    "type" : "double",
                                    "defaultValue" : 0.0,
                                    "interp" : "eioe"
                                  },
                                  "sourceCrop2" : {
                                    "type" : "double",
                                    "defaultValue" : 0.0,
                                    "interp" : "eioe"
                                  },
                                  "sourceCrop3" : {
                                    "type" : "double",
                                    "defaultValue" : 0.0,
                                    "interp" : "eioe"
                                  },
                                  "geometryCrop0" : {
                                    "type" : "double",
                                    "defaultValue" : 0.0,
                                    "interp" : "eioe"
                                  },
                                  "geometryCrop1" : {
                                    "type" : "double",
                                    "defaultValue" : 0.0,
                                    "interp" : "eioe"
                                  },
                                  "geometryCrop2" : {
                                    "type" : "double",
                                    "defaultValue" : 0.0,
                                    "interp" : "eioe"
                                  },
                                  "geometryCrop3" : {
                                    "type" : "double",
                                    "defaultValue" : 0.0,
                                    "interp" : "eioe"
                                  },
                                  "cursorScale" : {
                                    "type" : "double",
                                    "defaultValue" : 0.0,
                                    "interp" : "linr"
                                  },
                                  "cursorOpacity" : {
                                    "type" : "double",
                                    "defaultValue" : 0.0,
                                    "interp" : "linr"
                                  },
                                  "smoothCursorAcrossEditDuration" : 235200000
                                },
                                "effects" : [

                                ],
                                "start" : 451231200000,
                                "duration" : 3622080000,
                                "mediaStart" : 473810400000,
                                "mediaDuration" : 3622080000,
                                "scalar" : 1,
                                "animationTracks" : {

                                }
                              },
                          "audio" : 
                              {
                                "id" : 139,
                                "_type" : "AMFile",
                                "src" : 5,
                                "trackNumber" : 1,
                                "attributes" : {
                                  "ident" : "",
                                  "gain" : 1.0,
                                  "mixToMono" : false,
                                  "loudnessNormalization" : true,
                                  "sourceFileOffset" : 0
                                },
                                  "channelNumber" : "0,1",
                                "effects" : [

                                ],
                                "start" : 451231200000,
                                "duration" : 3622080000,
                                "mediaStart" : 473810400000,
                                "mediaDuration" : 3622080000,
                                "scalar" : 1,
                                "animationTracks" : {

                                }
                              }
,
                          "start" : 451231200000,
                          "duration" : 3622080000,
                          "mediaStart" : 0,
                          "mediaDuration" : 527083200000,
                          "scalar" : 1,
                          "metadata" : {
                            "AutoAppliedSmartFocus" : "False",
                            "clipSpeedAttribute" : false
                          }
                        },
                        {
                          "id" : 140,
                          "_type" : "UnifiedMedia",
                          "video" : 
                              {
                                "id" : 141,
                                "_type" : "ScreenVMFile",
                                "src" : 5,
                                "trackNumber" : 0,
                                "attributes" : {
                                  "ident" : "Rec 8-28-2023-8-58-42-PM"
                                },
                                "parameters" : {
                                  "sourceCrop0" : {
                                    "type" : "double",
                                    "defaultValue" : 0.0,
                                    "interp" : "eioe"
                                  },
                                  "sourceCrop1" : {
                                    "type" : "double",
                                    "defaultValue" : 0.0,
                                    "interp" : "eioe"
                                  },
                                  "sourceCrop2" : {
                                    "type" : "double",
                                    "defaultValue" : 0.0,
                                    "interp" : "eioe"
                                  },
                                  "sourceCrop3" : {
                                    "type" : "double",
                                    "defaultValue" : 0.0,
                                    "interp" : "eioe"
                                  },
                                  "geometryCrop0" : {
                                    "type" : "double",
                                    "defaultValue" : 0.0,
                                    "interp" : "eioe"
                                  },
                                  "geometryCrop1" : {
                                    "type" : "double",
                                    "defaultValue" : 0.0,
                                    "interp" : "eioe"
                                  },
                                  "geometryCrop2" : {
                                    "type" : "double",
                                    "defaultValue" : 0.0,
                                    "interp" : "eioe"
                                  },
                                  "geometryCrop3" : {
                                    "type" : "double",
                                    "defaultValue" : 0.0,
                                    "interp" : "eioe"
                                  },
                                  "cursorScale" : {
                                    "type" : "double",
                                    "defaultValue" : 0.0,
                                    "interp" : "linr"
                                  },
                                  "cursorOpacity" : {
                                    "type" : "double",
                                    "defaultValue" : 0.0,
                                    "interp" : "linr"
                                  },
                                  "smoothCursorAcrossEditDuration" : 235200000
                                },
                                "effects" : [

                                ],
                                "start" : 454853280000,
                                "duration" : 399840000,
                                "mediaStart" : 477714720000,
                                "mediaDuration" : 399840000,
                                "scalar" : 1,
                                "animationTracks" : {

                                }
                              },
                          "audio" : 
                              {
                                "id" : 142,
                                "_type" : "AMFile",
                                "src" : 5,
                                "trackNumber" : 1,
                                "attributes" : {
                                  "ident" : "",
                                  "gain" : 1.0,
                                  "mixToMono" : false,
                                  "loudnessNormalization" : true,
                                  "sourceFileOffset" : 0
                                },
                                  "channelNumber" : "0,1",
                                "effects" : [

                                ],
                                "start" : 454853280000,
                                "duration" : 399840000,
                                "mediaStart" : 477714720000,
                                "mediaDuration" : 399840000,
                                "scalar" : 1,
                                "animationTracks" : {

                                }
                              }
,
                          "start" : 454853280000,
                          "duration" : 399840000,
                          "mediaStart" : 0,
                          "mediaDuration" : 527083200000,
                          "scalar" : 1,
                          "metadata" : {
                            "AutoAppliedSmartFocus" : "False",
                            "clipSpeedAttribute" : false
                          }
                        },
                        {
                          "id" : 143,
                          "_type" : "UnifiedMedia",
                          "video" : 
                              {
                                "id" : 144,
                                "_type" : "ScreenVMFile",
                                "src" : 5,
                                "trackNumber" : 0,
                                "attributes" : {
                                  "ident" : "Rec 8-28-2023-8-58-42-PM"
                                },
                                "parameters" : {
                                  "sourceCrop0" : {
                                    "type" : "double",
                                    "defaultValue" : 0.0,
                                    "interp" : "eioe"
                                  },
                                  "sourceCrop1" : {
                                    "type" : "double",
                                    "defaultValue" : 0.0,
                                    "interp" : "eioe"
                                  },
                                  "sourceCrop2" : {
                                    "type" : "double",
                                    "defaultValue" : 0.0,
                                    "interp" : "eioe"
                                  },
                                  "sourceCrop3" : {
                                    "type" : "double",
                                    "defaultValue" : 0.0,
                                    "interp" : "eioe"
                                  },
                                  "geometryCrop0" : {
                                    "type" : "double",
                                    "defaultValue" : 0.0,
                                    "interp" : "eioe"
                                  },
                                  "geometryCrop1" : {
                                    "type" : "double",
                                    "defaultValue" : 0.0,
                                    "interp" : "eioe"
                                  },
                                  "geometryCrop2" : {
                                    "type" : "double",
                                    "defaultValue" : 0.0,
                                    "interp" : "eioe"
                                  },
                                  "geometryCrop3" : {
                                    "type" : "double",
                                    "defaultValue" : 0.0,
                                    "interp" : "eioe"
                                  },
                                  "cursorScale" : {
                                    "type" : "double",
                                    "defaultValue" : 0.0,
                                    "interp" : "linr"
                                  },
                                  "cursorOpacity" : {
                                    "type" : "double",
                                    "defaultValue" : 0.0,
                                    "interp" : "linr"
                                  },
                                  "smoothCursorAcrossEditDuration" : 235200000
                                },
                                "effects" : [

                                ],
                                "start" : 455253120000,
                                "duration" : 705600000,
                                "mediaStart" : 478396800000,
                                "mediaDuration" : 705600000,
                                "scalar" : 1,
                                "animationTracks" : {

                                }
                              },
                          "audio" : 
                              {
                                "id" : 145,
                                "_type" : "AMFile",
                                "src" : 5,
                                "trackNumber" : 1,
                                "attributes" : {
                                  "ident" : "",
                                  "gain" : 1.0,
                                  "mixToMono" : false,
                                  "loudnessNormalization" : true,
                                  "sourceFileOffset" : 0
                                },
                                  "channelNumber" : "0,1",
                                "effects" : [

                                ],
                                "start" : 455253120000,
                                "duration" : 705600000,
                                "mediaStart" : 478396800000,
                                "mediaDuration" : 705600000,
                                "scalar" : 1,
                                "animationTracks" : {

                                }
                              }
,
                          "start" : 455253120000,
                          "duration" : 705600000,
                          "mediaStart" : 0,
                          "mediaDuration" : 527083200000,
                          "scalar" : 1,
                          "metadata" : {
                            "AutoAppliedSmartFocus" : "False",
                            "clipSpeedAttribute" : false
                          }
                        },
                        {
                          "id" : 146,
                          "_type" : "UnifiedMedia",
                          "video" : 
                              {
                                "id" : 147,
                                "_type" : "ScreenVMFile",
                                "src" : 5,
                                "trackNumber" : 0,
                                "attributes" : {
                                  "ident" : "Rec 8-28-2023-8-58-42-PM"
                                },
                                "parameters" : {
                                  "sourceCrop0" : {
                                    "type" : "double",
                                    "defaultValue" : 0.0,
                                    "interp" : "eioe"
                                  },
                                  "sourceCrop1" : {
                                    "type" : "double",
                                    "defaultValue" : 0.0,
                                    "interp" : "eioe"
                                  },
                                  "sourceCrop2" : {
                                    "type" : "double",
                                    "defaultValue" : 0.0,
                                    "interp" : "eioe"
                                  },
                                  "sourceCrop3" : {
                                    "type" : "double",
                                    "defaultValue" : 0.0,
                                    "interp" : "eioe"
                                  },
                                  "geometryCrop0" : {
                                    "type" : "double",
                                    "defaultValue" : 0.0,
                                    "interp" : "eioe"
                                  },
                                  "geometryCrop1" : {
                                    "type" : "double",
                                    "defaultValue" : 0.0,
                                    "interp" : "eioe"
                                  },
                                  "geometryCrop2" : {
                                    "type" : "double",
                                    "defaultValue" : 0.0,
                                    "interp" : "eioe"
                                  },
                                  "geometryCrop3" : {
                                    "type" : "double",
                                    "defaultValue" : 0.0,
                                    "interp" : "eioe"
                                  },
                                  "cursorScale" : {
                                    "type" : "double",
                                    "defaultValue" : 0.0,
                                    "interp" : "linr"
                                  },
                                  "cursorOpacity" : {
                                    "type" : "double",
                                    "defaultValue" : 0.0,
                                    "interp" : "linr"
                                  },
                                  "smoothCursorAcrossEditDuration" : 235200000
                                },
                                "effects" : [

                                ],
                                "start" : 455958720000,
                                "duration" : 6185760000,
                                "mediaStart" : 479596320000,
                                "mediaDuration" : 6185760000,
                                "scalar" : 1,
                                "animationTracks" : {

                                }
                              },
                          "audio" : 
                              {
                                "id" : 148,
                                "_type" : "AMFile",
                                "src" : 5,
                                "trackNumber" : 1,
                                "attributes" : {
                                  "ident" : "",
                                  "gain" : 1.0,
                                  "mixToMono" : false,
                                  "loudnessNormalization" : true,
                                  "sourceFileOffset" : 0
                                },
                                  "channelNumber" : "0,1",
                                "effects" : [

                                ],
                                "start" : 455958720000,
                                "duration" : 6185760000,
                                "mediaStart" : 479596320000,
                                "mediaDuration" : 6185760000,
                                "scalar" : 1,
                                "animationTracks" : {

                                }
                              }
,
                          "start" : 455958720000,
                          "duration" : 6185760000,
                          "mediaStart" : 0,
                          "mediaDuration" : 527083200000,
                          "scalar" : 1,
                          "metadata" : {
                            "AutoAppliedSmartFocus" : "False",
                            "clipSpeedAttribute" : false
                          }
                        },
                        {
                          "id" : 149,
                          "_type" : "UnifiedMedia",
                          "video" : 
                              {
                                "id" : 150,
                                "_type" : "ScreenVMFile",
                                "src" : 5,
                                "trackNumber" : 0,
                                "attributes" : {
                                  "ident" : "Rec 8-28-2023-8-58-42-PM"
                                },
                                "parameters" : {
                                  "sourceCrop0" : {
                                    "type" : "double",
                                    "defaultValue" : 0.0,
                                    "interp" : "eioe"
                                  },
                                  "sourceCrop1" : {
                                    "type" : "double",
                                    "defaultValue" : 0.0,
                                    "interp" : "eioe"
                                  },
                                  "sourceCrop2" : {
                                    "type" : "double",
                                    "defaultValue" : 0.0,
                                    "interp" : "eioe"
                                  },
                                  "sourceCrop3" : {
                                    "type" : "double",
                                    "defaultValue" : 0.0,
                                    "interp" : "eioe"
                                  },
                                  "geometryCrop0" : {
                                    "type" : "double",
                                    "defaultValue" : 0.0,
                                    "interp" : "eioe"
                                  },
                                  "geometryCrop1" : {
                                    "type" : "double",
                                    "defaultValue" : 0.0,
                                    "interp" : "eioe"
                                  },
                                  "geometryCrop2" : {
                                    "type" : "double",
                                    "defaultValue" : 0.0,
                                    "interp" : "eioe"
                                  },
                                  "geometryCrop3" : {
                                    "type" : "double",
                                    "defaultValue" : 0.0,
                                    "interp" : "eioe"
                                  },
                                  "cursorScale" : {
                                    "type" : "double",
                                    "defaultValue" : 0.0,
                                    "interp" : "linr"
                                  },
                                  "cursorOpacity" : {
                                    "type" : "double",
                                    "defaultValue" : 0.0,
                                    "interp" : "linr"
                                  },
                                  "smoothCursorAcrossEditDuration" : 235200000
                                },
                                "effects" : [

                                ],
                                "start" : 462144480000,
                                "duration" : 9125760000,
                                "mediaStart" : 502692960000,
                                "mediaDuration" : 9125760000,
                                "scalar" : 1,
                                "animationTracks" : {

                                }
                              },
                          "audio" : 
                              {
                                "id" : 151,
                                "_type" : "AMFile",
                                "src" : 5,
                                "trackNumber" : 1,
                                "attributes" : {
                                  "ident" : "",
                                  "gain" : 1.0,
                                  "mixToMono" : false,
                                  "loudnessNormalization" : true,
                                  "sourceFileOffset" : 0
                                },
                                  "channelNumber" : "0,1",
                                "effects" : [

                                ],
                                "start" : 462144480000,
                                "duration" : 9125760000,
                                "mediaStart" : 502692960000,
                                "mediaDuration" : 9125760000,
                                "scalar" : 1,
                                "animationTracks" : {

                                }
                              }
,
                          "start" : 462144480000,
                          "duration" : 9125760000,
                          "mediaStart" : 0,
                          "mediaDuration" : 527083200000,
                          "scalar" : 1,
                          "metadata" : {
                            "AutoAppliedSmartFocus" : "False",
                            "clipSpeedAttribute" : false
                          }
                        },
                        {
                          "id" : 152,
                          "_type" : "UnifiedMedia",
                          "video" : 
                              {
                                "id" : 153,
                                "_type" : "ScreenVMFile",
                                "src" : 5,
                                "trackNumber" : 0,
                                "attributes" : {
                                  "ident" : "Rec 8-28-2023-8-58-42-PM"
                                },
                                "parameters" : {
                                  "sourceCrop0" : {
                                    "type" : "double",
                                    "defaultValue" : 0.0,
                                    "interp" : "eioe"
                                  },
                                  "sourceCrop1" : {
                                    "type" : "double",
                                    "defaultValue" : 0.0,
                                    "interp" : "eioe"
                                  },
                                  "sourceCrop2" : {
                                    "type" : "double",
                                    "defaultValue" : 0.0,
                                    "interp" : "eioe"
                                  },
                                  "sourceCrop3" : {
                                    "type" : "double",
                                    "defaultValue" : 0.0,
                                    "interp" : "eioe"
                                  },
                                  "geometryCrop0" : {
                                    "type" : "double",
                                    "defaultValue" : 0.0,
                                    "interp" : "eioe"
                                  },
                                  "geometryCrop1" : {
                                    "type" : "double",
                                    "defaultValue" : 0.0,
                                    "interp" : "eioe"
                                  },
                                  "geometryCrop2" : {
                                    "type" : "double",
                                    "defaultValue" : 0.0,
                                    "interp" : "eioe"
                                  },
                                  "geometryCrop3" : {
                                    "type" : "double",
                                    "defaultValue" : 0.0,
                                    "interp" : "eioe"
                                  },
                                  "cursorScale" : {
                                    "type" : "double",
                                    "defaultValue" : 0.0,
                                    "interp" : "linr"
                                  },
                                  "cursorOpacity" : {
                                    "type" : "double",
                                    "defaultValue" : 0.0,
                                    "interp" : "linr"
                                  },
                                  "smoothCursorAcrossEditDuration" : 235200000
                                },
                                "effects" : [

                                ],
                                "start" : 471270240000,
                                "duration" : 1952160000,
                                "mediaStart" : 525131040000,
                                "mediaDuration" : 1952160000,
                                "scalar" : 1,
                                "animationTracks" : {

                                }
                              },
                          "audio" : 
                              {
                                "id" : 154,
                                "_type" : "AMFile",
                                "src" : 5,
                                "trackNumber" : 1,
                                "attributes" : {
                                  "ident" : "",
                                  "gain" : 1.0,
                                  "mixToMono" : false,
                                  "loudnessNormalization" : true,
                                  "sourceFileOffset" : 0
                                },
                                  "channelNumber" : "0,1",
                                "effects" : [

                                ],
                                "start" : 471270240000,
                                "duration" : 1952160000,
                                "mediaStart" : 525131040000,
                                "mediaDuration" : 1952160000,
                                "scalar" : 1,
                                "animationTracks" : {

                                }
                              }
,
                          "start" : 471270240000,
                          "duration" : 1952160000,
                          "mediaStart" : 0,
                          "mediaDuration" : 527083200000,
                          "scalar" : 1,
                          "metadata" : {
                            "AutoAppliedSmartFocus" : "False",
                            "clipSpeedAttribute" : false
                          }
                        }
                    ],
                    "effects" : [

                    ],
                    "start" : 121222080000,
                    "duration" : 124679520000,
                    "mediaStart" : 347860800000,
                    "mediaDuration" : 124679520000,
                    "scalar" : 1,
                    "metadata" : {
                      "AutoAppliedSmartFocus" : "False",
                      "clipSpeedAttribute" : false
                    },
                    "animationTracks" : {

                    }
                  }
                ]
              },
              {
                "trackIndex" : 2,
                "medias" : [
                  {
                    "id" : 155,
                    "_type" : "IMFile",
                    "src" : 9,
                    "trackNumber" : 0,
                    "trimStartSum" : 0,
                    "attributes" : {
                      "ident" : "Code Spell Checker (Time 0_00_19;11)"
                    },
                    "parameters" : {
                      "translation0" : -1139.02439024392,
                      "translation1" : 104.878048780487,
                      "sourceCrop0" : 0.0,
                      "sourceCrop1" : 0.0,
                      "sourceCrop2" : 0.0,
                      "sourceCrop3" : 0.0,
                      "geometryCrop0" : 0.0,
                      "geometryCrop1" : 0.0,
                      "geometryCrop2" : 0.0,
                      "geometryCrop3" : 0.0
                    },
                    "effects" : [

                    ],
                    "start" : 0,
                    "duration" : 13147680000,
                    "mediaStart" : 0,
                    "mediaDuration" : 1,
                    "scalar" : 1,
                    "metadata" : {
                      "clipSpeedAttribute" : false,
                      "default-height" : 2160.0,
                      "default-translation0" : 0.0,
                      "default-translation1" : 0.0,
                      "default-translation2" : 0.0,
                      "default-width" : 3840.0
                    },
                    "animationTracks" : {

                    }
                  }
                ]
              },
              {
                "trackIndex" : 3,
                "medias" : [
                  {
                    "id" : 156,
                    "_type" : "StitchedMedia",
                    "minMediaStart" : 0,
                    "attributes" : {
                      "ident" : "Rec 8-28-2023-9-35-48-PM",
                      "gain" : 1.0,
                      "mixToMono" : false,
                      "loudnessNormalization" : true,
                      "sourceFileOffset" : 0
                    },
                    "parameters" : {
                      "volume" : 1.0,
                      "smoothCursorAcrossEditDuration" : 0
                    },
                    "medias" : [
                        {
                          "id" : 157,
                          "_type" : "AMFile",
                          "src" : 6,
                          "trackNumber" : 0,
                          "attributes" : {
                            "ident" : "Rec 8-28-2023-9-35-48-PM",
                            "gain" : 1.0,
                            "mixToMono" : false,
                            "loudnessNormalization" : true,
                            "sourceFileOffset" : 0
                          },
                            "channelNumber" : "0,1",
                          "effects" : [

                          ],
                          "start" : 0,
                          "duration" : 339111360000,
                          "mediaStart" : 0,
                          "mediaDuration" : 339111360000,
                          "scalar" : 1,
                          "metadata" : {
                            "clipSpeedAttribute" : false
                          },
                          "animationTracks" : {

                          }
                        },
                        {
                          "id" : 158,
                          "_type" : "AMFile",
                          "src" : 6,
                          "trackNumber" : 0,
                          "attributes" : {
                            "ident" : "Rec 8-28-2023-9-35-48-PM",
                            "gain" : 1.0,
                            "mixToMono" : false,
                            "loudnessNormalization" : true,
                            "sourceFileOffset" : 0
                          },
                            "channelNumber" : "0,1",
                          "effects" : [

                          ],
                          "start" : 339111360000,
                          "duration" : 22179360000,
                          "mediaStart" : 339534720000,
                          "mediaDuration" : 22179360000,
                          "scalar" : 1,
                          "metadata" : {
                            "clipSpeedAttribute" : false
                          },
                          "animationTracks" : {

                          }
                        }
                    ],
                    "effects" : [

                    ],
                    "start" : 0,
                    "duration" : 13147680000,
                    "mediaStart" : 327186720000,
                    "mediaDuration" : 13147680000,
                    "scalar" : 1,
                    "metadata" : {
                      "clipSpeedAttribute" : false
                    },
                    "animationTracks" : {

                    }
                  }
                ]
              },
              {
                "trackIndex" : 4,
                "medias" : [
                  {
                    "id" : 159,
                    "_type" : "StitchedMedia",
                    "minMediaStart" : 0,
                    "attributes" : {
                      "ident" : "Rec 8-28-2023-8-58-42-PM",
                      "gain" : 1.0,
                      "mixToMono" : false,
                      "loudnessNormalization" : true,
                      "sourceFileOffset" : 0
                    },
                    "parameters" : {
                      "sourceCrop0" : 0.0,
                      "sourceCrop1" : 0.0,
                      "sourceCrop2" : 0.0,
                      "sourceCrop3" : 0.0,
                      "geometryCrop0" : 0.0,
                      "geometryCrop1" : 0.0,
                      "geometryCrop2" : 0.0,
                      "geometryCrop3" : 0.0,
                      "volume" : 0.0,
                      "cursorOpacity" : 1.0,
                      "cursorScale" : 1.2,
                      "smoothCursorAcrossEditDuration" : 235200000
                    },
                    "medias" : [
                        {
                          "id" : 160,
                          "_type" : "UnifiedMedia",
                          "video" : 
                              {
                                "id" : 161,
                                "_type" : "ScreenVMFile",
                                "src" : 5,
                                "trackNumber" : 0,
                                "attributes" : {
                                  "ident" : "Rec 8-28-2023-8-58-42-PM"
                                },
                                "parameters" : {
                                  "sourceCrop0" : {
                                    "type" : "double",
                                    "defaultValue" : 0.0,
                                    "interp" : "eioe"
                                  },
                                  "sourceCrop1" : {
                                    "type" : "double",
                                    "defaultValue" : 0.0,
                                    "interp" : "eioe"
                                  },
                                  "sourceCrop2" : {
                                    "type" : "double",
                                    "defaultValue" : 0.0,
                                    "interp" : "eioe"
                                  },
                                  "sourceCrop3" : {
                                    "type" : "double",
                                    "defaultValue" : 0.0,
                                    "interp" : "eioe"
                                  },
                                  "geometryCrop0" : {
                                    "type" : "double",
                                    "defaultValue" : 0.0,
                                    "interp" : "eioe"
                                  },
                                  "geometryCrop1" : {
                                    "type" : "double",
                                    "defaultValue" : 0.0,
                                    "interp" : "eioe"
                                  },
                                  "geometryCrop2" : {
                                    "type" : "double",
                                    "defaultValue" : 0.0,
                                    "interp" : "eioe"
                                  },
                                  "geometryCrop3" : {
                                    "type" : "double",
                                    "defaultValue" : 0.0,
                                    "interp" : "eioe"
                                  },
                                  "cursorScale" : {
                                    "type" : "double",
                                    "defaultValue" : 0.0,
                                    "interp" : "linr"
                                  },
                                  "cursorOpacity" : {
                                    "type" : "double",
                                    "defaultValue" : 0.0,
                                    "interp" : "linr"
                                  },
                                  "smoothCursorAcrossEditDuration" : 235200000
                                },
                                "effects" : [

                                ],
                                "start" : 0,
                                "duration" : 154314720000,
                                "mediaStart" : 0,
                                "mediaDuration" : 154314720000,
                                "scalar" : 1,
                                "animationTracks" : {

                                }
                              },
                          "audio" : 
                              {
                                "id" : 162,
                                "_type" : "AMFile",
                                "src" : 5,
                                "trackNumber" : 1,
                                "attributes" : {
                                  "ident" : "",
                                  "gain" : 1.0,
                                  "mixToMono" : false,
                                  "loudnessNormalization" : true,
                                  "sourceFileOffset" : 0
                                },
                                  "channelNumber" : "0,1",
                                "effects" : [

                                ],
                                "start" : 0,
                                "duration" : 154314720000,
                                "mediaStart" : 0,
                                "mediaDuration" : 154314720000,
                                "scalar" : 1,
                                "animationTracks" : {

                                }
                              }
,
                          "start" : 0,
                          "duration" : 154314720000,
                          "mediaStart" : 0,
                          "mediaDuration" : 527083200000,
                          "scalar" : 1,
                          "metadata" : {
                            "AutoAppliedSmartFocus" : "False",
                            "clipSpeedAttribute" : false
                          }
                        },
                        {
                          "id" : 163,
                          "_type" : "UnifiedMedia",
                          "video" : 
                              {
                                "id" : 164,
                                "_type" : "ScreenVMFile",
                                "src" : 5,
                                "trackNumber" : 0,
                                "attributes" : {
                                  "ident" : "Rec 8-28-2023-8-58-42-PM"
                                },
                                "parameters" : {
                                  "sourceCrop0" : {
                                    "type" : "double",
                                    "defaultValue" : 0.0,
                                    "interp" : "eioe"
                                  },
                                  "sourceCrop1" : {
                                    "type" : "double",
                                    "defaultValue" : 0.0,
                                    "interp" : "eioe"
                                  },
                                  "sourceCrop2" : {
                                    "type" : "double",
                                    "defaultValue" : 0.0,
                                    "interp" : "eioe"
                                  },
                                  "sourceCrop3" : {
                                    "type" : "double",
                                    "defaultValue" : 0.0,
                                    "interp" : "eioe"
                                  },
                                  "geometryCrop0" : {
                                    "type" : "double",
                                    "defaultValue" : 0.0,
                                    "interp" : "eioe"
                                  },
                                  "geometryCrop1" : {
                                    "type" : "double",
                                    "defaultValue" : 0.0,
                                    "interp" : "eioe"
                                  },
                                  "geometryCrop2" : {
                                    "type" : "double",
                                    "defaultValue" : 0.0,
                                    "interp" : "eioe"
                                  },
                                  "geometryCrop3" : {
                                    "type" : "double",
                                    "defaultValue" : 0.0,
                                    "interp" : "eioe"
                                  },
                                  "cursorScale" : {
                                    "type" : "double",
                                    "defaultValue" : 0.0,
                                    "interp" : "linr"
                                  },
                                  "cursorOpacity" : {
                                    "type" : "double",
                                    "defaultValue" : 0.0,
                                    "interp" : "linr"
                                  },
                                  "smoothCursorAcrossEditDuration" : 235200000
                                },
                                "effects" : [

                                ],
                                "start" : 154314720000,
                                "duration" : 7714560000,
                                "mediaStart" : 166215840000,
                                "mediaDuration" : 7714560000,
                                "scalar" : 1,
                                "animationTracks" : {

                                }
                              },
                          "audio" : 
                              {
                                "id" : 165,
                                "_type" : "AMFile",
                                "src" : 5,
                                "trackNumber" : 1,
                                "attributes" : {
                                  "ident" : "",
                                  "gain" : 1.0,
                                  "mixToMono" : false,
                                  "loudnessNormalization" : true,
                                  "sourceFileOffset" : 0
                                },
                                  "channelNumber" : "0,1",
                                "effects" : [

                                ],
                                "start" : 154314720000,
                                "duration" : 7714560000,
                                "mediaStart" : 166215840000,
                                "mediaDuration" : 7714560000,
                                "scalar" : 1,
                                "animationTracks" : {

                                }
                              }
,
                          "start" : 154314720000,
                          "duration" : 7714560000,
                          "mediaStart" : 0,
                          "mediaDuration" : 527083200000,
                          "scalar" : 1,
                          "metadata" : {
                            "AutoAppliedSmartFocus" : "False",
                            "clipSpeedAttribute" : false
                          }
                        },
                        {
                          "id" : 166,
                          "_type" : "UnifiedMedia",
                          "video" : 
                              {
                                "id" : 167,
                                "_type" : "ScreenVMFile",
                                "src" : 5,
                                "trackNumber" : 0,
                                "attributes" : {
                                  "ident" : "Rec 8-28-2023-8-58-42-PM"
                                },
                                "parameters" : {
                                  "sourceCrop0" : {
                                    "type" : "double",
                                    "defaultValue" : 0.0,
                                    "interp" : "eioe"
                                  },
                                  "sourceCrop1" : {
                                    "type" : "double",
                                    "defaultValue" : 0.0,
                                    "interp" : "eioe"
                                  },
                                  "sourceCrop2" : {
                                    "type" : "double",
                                    "defaultValue" : 0.0,
                                    "interp" : "eioe"
                                  },
                                  "sourceCrop3" : {
                                    "type" : "double",
                                    "defaultValue" : 0.0,
                                    "interp" : "eioe"
                                  },
                                  "geometryCrop0" : {
                                    "type" : "double",
                                    "defaultValue" : 0.0,
                                    "interp" : "eioe"
                                  },
                                  "geometryCrop1" : {
                                    "type" : "double",
                                    "defaultValue" : 0.0,
                                    "interp" : "eioe"
                                  },
                                  "geometryCrop2" : {
                                    "type" : "double",
                                    "defaultValue" : 0.0,
                                    "interp" : "eioe"
                                  },
                                  "geometryCrop3" : {
                                    "type" : "double",
                                    "defaultValue" : 0.0,
                                    "interp" : "eioe"
                                  },
                                  "cursorScale" : {
                                    "type" : "double",
                                    "defaultValue" : 0.0,
                                    "interp" : "linr"
                                  },
                                  "cursorOpacity" : {
                                    "type" : "double",
                                    "defaultValue" : 0.0,
                                    "interp" : "linr"
                                  },
                                  "smoothCursorAcrossEditDuration" : 235200000
                                },
                                "effects" : [

                                ],
                                "start" : 162029280000,
                                "duration" : 8443680000,
                                "mediaStart" : 180539520000,
                                "mediaDuration" : 8443680000,
                                "scalar" : 1,
                                "animationTracks" : {

                                }
                              },
                          "audio" : 
                              {
                                "id" : 168,
                                "_type" : "AMFile",
                                "src" : 5,
                                "trackNumber" : 1,
                                "attributes" : {
                                  "ident" : "",
                                  "gain" : 1.0,
                                  "mixToMono" : false,
                                  "loudnessNormalization" : true,
                                  "sourceFileOffset" : 0
                                },
                                  "channelNumber" : "0,1",
                                "effects" : [

                                ],
                                "start" : 162029280000,
                                "duration" : 8443680000,
                                "mediaStart" : 180539520000,
                                "mediaDuration" : 8443680000,
                                "scalar" : 1,
                                "animationTracks" : {

                                }
                              }
,
                          "start" : 162029280000,
                          "duration" : 8443680000,
                          "mediaStart" : 0,
                          "mediaDuration" : 527083200000,
                          "scalar" : 1,
                          "metadata" : {
                            "AutoAppliedSmartFocus" : "False",
                            "clipSpeedAttribute" : false
                          }
                        },
                        {
                          "id" : 169,
                          "_type" : "UnifiedMedia",
                          "video" : 
                              {
                                "id" : 170,
                                "_type" : "ScreenVMFile",
                                "src" : 5,
                                "trackNumber" : 0,
                                "attributes" : {
                                  "ident" : "Rec 8-28-2023-8-58-42-PM"
                                },
                                "parameters" : {
                                  "sourceCrop0" : {
                                    "type" : "double",
                                    "defaultValue" : 0.0,
                                    "interp" : "eioe"
                                  },
                                  "sourceCrop1" : {
                                    "type" : "double",
                                    "defaultValue" : 0.0,
                                    "interp" : "eioe"
                                  },
                                  "sourceCrop2" : {
                                    "type" : "double",
                                    "defaultValue" : 0.0,
                                    "interp" : "eioe"
                                  },
                                  "sourceCrop3" : {
                                    "type" : "double",
                                    "defaultValue" : 0.0,
                                    "interp" : "eioe"
                                  },
                                  "geometryCrop0" : {
                                    "type" : "double",
                                    "defaultValue" : 0.0,
                                    "interp" : "eioe"
                                  },
                                  "geometryCrop1" : {
                                    "type" : "double",
                                    "defaultValue" : 0.0,
                                    "interp" : "eioe"
                                  },
                                  "geometryCrop2" : {
                                    "type" : "double",
                                    "defaultValue" : 0.0,
                                    "interp" : "eioe"
                                  },
                                  "geometryCrop3" : {
                                    "type" : "double",
                                    "defaultValue" : 0.0,
                                    "interp" : "eioe"
                                  },
                                  "cursorScale" : {
                                    "type" : "double",
                                    "defaultValue" : 0.0,
                                    "interp" : "linr"
                                  },
                                  "cursorOpacity" : {
                                    "type" : "double",
                                    "defaultValue" : 0.0,
                                    "interp" : "linr"
                                  },
                                  "smoothCursorAcrossEditDuration" : 235200000
                                },
                                "effects" : [

                                ],
                                "start" : 170472960000,
                                "duration" : 17992800000,
                                "mediaStart" : 229155360000,
                                "mediaDuration" : 17992800000,
                                "scalar" : 1,
                                "animationTracks" : {

                                }
                              },
                          "audio" : 
                              {
                                "id" : 171,
                                "_type" : "AMFile",
                                "src" : 5,
                                "trackNumber" : 1,
                                "attributes" : {
                                  "ident" : "",
                                  "gain" : 1.0,
                                  "mixToMono" : false,
                                  "loudnessNormalization" : true,
                                  "sourceFileOffset" : 0
                                },
                                  "channelNumber" : "0,1",
                                "effects" : [

                                ],
                                "start" : 170472960000,
                                "duration" : 17992800000,
                                "mediaStart" : 229155360000,
                                "mediaDuration" : 17992800000,
                                "scalar" : 1,
                                "animationTracks" : {

                                }
                              }
,
                          "start" : 170472960000,
                          "duration" : 17992800000,
                          "mediaStart" : 0,
                          "mediaDuration" : 527083200000,
                          "scalar" : 1,
                          "metadata" : {
                            "AutoAppliedSmartFocus" : "False",
                            "clipSpeedAttribute" : false
                          }
                        },
                        {
                          "id" : 172,
                          "_type" : "UnifiedMedia",
                          "video" : 
                              {
                                "id" : 173,
                                "_type" : "ScreenVMFile",
                                "src" : 5,
                                "trackNumber" : 0,
                                "attributes" : {
                                  "ident" : "Rec 8-28-2023-8-58-42-PM"
                                },
                                "parameters" : {
                                  "sourceCrop0" : {
                                    "type" : "double",
                                    "defaultValue" : 0.0,
                                    "interp" : "eioe"
                                  },
                                  "sourceCrop1" : {
                                    "type" : "double",
                                    "defaultValue" : 0.0,
                                    "interp" : "eioe"
                                  },
                                  "sourceCrop2" : {
                                    "type" : "double",
                                    "defaultValue" : 0.0,
                                    "interp" : "eioe"
                                  },
                                  "sourceCrop3" : {
                                    "type" : "double",
                                    "defaultValue" : 0.0,
                                    "interp" : "eioe"
                                  },
                                  "geometryCrop0" : {
                                    "type" : "double",
                                    "defaultValue" : 0.0,
                                    "interp" : "eioe"
                                  },
                                  "geometryCrop1" : {
                                    "type" : "double",
                                    "defaultValue" : 0.0,
                                    "interp" : "eioe"
                                  },
                                  "geometryCrop2" : {
                                    "type" : "double",
                                    "defaultValue" : 0.0,
                                    "interp" : "eioe"
                                  },
                                  "geometryCrop3" : {
                                    "type" : "double",
                                    "defaultValue" : 0.0,
                                    "interp" : "eioe"
                                  },
                                  "cursorScale" : {
                                    "type" : "double",
                                    "defaultValue" : 0.0,
                                    "interp" : "linr"
                                  },
                                  "cursorOpacity" : {
                                    "type" : "double",
                                    "defaultValue" : 0.0,
                                    "interp" : "linr"
                                  },
                                  "smoothCursorAcrossEditDuration" : 235200000
                                },
                                "effects" : [

                                ],
                                "start" : 188465760000,
                                "duration" : 1952160000,
                                "mediaStart" : 247994880000,
                                "mediaDuration" : 1952160000,
                                "scalar" : 1,
                                "animationTracks" : {

                                }
                              },
                          "audio" : 
                              {
                                "id" : 174,
                                "_type" : "AMFile",
                                "src" : 5,
                                "trackNumber" : 1,
                                "attributes" : {
                                  "ident" : "",
                                  "gain" : 1.0,
                                  "mixToMono" : false,
                                  "loudnessNormalization" : true,
                                  "sourceFileOffset" : 0
                                },
                                  "channelNumber" : "0,1",
                                "effects" : [

                                ],
                                "start" : 188465760000,
                                "duration" : 1952160000,
                                "mediaStart" : 247994880000,
                                "mediaDuration" : 1952160000,
                                "scalar" : 1,
                                "animationTracks" : {

                                }
                              }
,
                          "start" : 188465760000,
                          "duration" : 1952160000,
                          "mediaStart" : 0,
                          "mediaDuration" : 527083200000,
                          "scalar" : 1,
                          "metadata" : {
                            "AutoAppliedSmartFocus" : "False",
                            "clipSpeedAttribute" : false
                          }
                        },
                        {
                          "id" : 175,
                          "_type" : "UnifiedMedia",
                          "video" : 
                              {
                                "id" : 176,
                                "_type" : "ScreenVMFile",
                                "src" : 5,
                                "trackNumber" : 0,
                                "attributes" : {
                                  "ident" : "Rec 8-28-2023-8-58-42-PM"
                                },
                                "parameters" : {
                                  "sourceCrop0" : {
                                    "type" : "double",
                                    "defaultValue" : 0.0,
                                    "interp" : "eioe"
                                  },
                                  "sourceCrop1" : {
                                    "type" : "double",
                                    "defaultValue" : 0.0,
                                    "interp" : "eioe"
                                  },
                                  "sourceCrop2" : {
                                    "type" : "double",
                                    "defaultValue" : 0.0,
                                    "interp" : "eioe"
                                  },
                                  "sourceCrop3" : {
                                    "type" : "double",
                                    "defaultValue" : 0.0,
                                    "interp" : "eioe"
                                  },
                                  "geometryCrop0" : {
                                    "type" : "double",
                                    "defaultValue" : 0.0,
                                    "interp" : "eioe"
                                  },
                                  "geometryCrop1" : {
                                    "type" : "double",
                                    "defaultValue" : 0.0,
                                    "interp" : "eioe"
                                  },
                                  "geometryCrop2" : {
                                    "type" : "double",
                                    "defaultValue" : 0.0,
                                    "interp" : "eioe"
                                  },
                                  "geometryCrop3" : {
                                    "type" : "double",
                                    "defaultValue" : 0.0,
                                    "interp" : "eioe"
                                  },
                                  "cursorScale" : {
                                    "type" : "double",
                                    "defaultValue" : 0.0,
                                    "interp" : "linr"
                                  },
                                  "cursorOpacity" : {
                                    "type" : "double",
                                    "defaultValue" : 0.0,
                                    "interp" : "linr"
                                  },
                                  "smoothCursorAcrossEditDuration" : 235200000
                                },
                                "effects" : [

                                ],
                                "start" : 190417920000,
                                "duration" : 540960000,
                                "mediaStart" : 258273120000,
                                "mediaDuration" : 540960000,
                                "scalar" : 1,
                                "animationTracks" : {

                                }
                              },
                          "audio" : 
                              {
                                "id" : 177,
                                "_type" : "AMFile",
                                "src" : 5,
                                "trackNumber" : 1,
                                "attributes" : {
                                  "ident" : "",
                                  "gain" : 1.0,
                                  "mixToMono" : false,
                                  "loudnessNormalization" : true,
                                  "sourceFileOffset" : 0
                                },
                                  "channelNumber" : "0,1",
                                "effects" : [

                                ],
                                "start" : 190417920000,
                                "duration" : 540960000,
                                "mediaStart" : 258273120000,
                                "mediaDuration" : 540960000,
                                "scalar" : 1,
                                "animationTracks" : {

                                }
                              }
,
                          "start" : 190417920000,
                          "duration" : 540960000,
                          "mediaStart" : 0,
                          "mediaDuration" : 527083200000,
                          "scalar" : 1,
                          "metadata" : {
                            "AutoAppliedSmartFocus" : "False",
                            "clipSpeedAttribute" : false
                          }
                        },
                        {
                          "id" : 178,
                          "_type" : "UnifiedMedia",
                          "video" : 
                              {
                                "id" : 179,
                                "_type" : "ScreenVMFile",
                                "src" : 5,
                                "trackNumber" : 0,
                                "attributes" : {
                                  "ident" : "Rec 8-28-2023-8-58-42-PM"
                                },
                                "parameters" : {
                                  "sourceCrop0" : {
                                    "type" : "double",
                                    "defaultValue" : 0.0,
                                    "interp" : "eioe"
                                  },
                                  "sourceCrop1" : {
                                    "type" : "double",
                                    "defaultValue" : 0.0,
                                    "interp" : "eioe"
                                  },
                                  "sourceCrop2" : {
                                    "type" : "double",
                                    "defaultValue" : 0.0,
                                    "interp" : "eioe"
                                  },
                                  "sourceCrop3" : {
                                    "type" : "double",
                                    "defaultValue" : 0.0,
                                    "interp" : "eioe"
                                  },
                                  "geometryCrop0" : {
                                    "type" : "double",
                                    "defaultValue" : 0.0,
                                    "interp" : "eioe"
                                  },
                                  "geometryCrop1" : {
                                    "type" : "double",
                                    "defaultValue" : 0.0,
                                    "interp" : "eioe"
                                  },
                                  "geometryCrop2" : {
                                    "type" : "double",
                                    "defaultValue" : 0.0,
                                    "interp" : "eioe"
                                  },
                                  "geometryCrop3" : {
                                    "type" : "double",
                                    "defaultValue" : 0.0,
                                    "interp" : "eioe"
                                  },
                                  "cursorScale" : {
                                    "type" : "double",
                                    "defaultValue" : 0.0,
                                    "interp" : "linr"
                                  },
                                  "cursorOpacity" : {
                                    "type" : "double",
                                    "defaultValue" : 0.0,
                                    "interp" : "linr"
                                  },
                                  "smoothCursorAcrossEditDuration" : 235200000
                                },
                                "effects" : [

                                ],
                                "start" : 190958880000,
                                "duration" : 5503680000,
                                "mediaStart" : 259378560000,
                                "mediaDuration" : 5503680000,
                                "scalar" : 1,
                                "animationTracks" : {

                                }
                              },
                          "audio" : 
                              {
                                "id" : 180,
                                "_type" : "AMFile",
                                "src" : 5,
                                "trackNumber" : 1,
                                "attributes" : {
                                  "ident" : "",
                                  "gain" : 1.0,
                                  "mixToMono" : false,
                                  "loudnessNormalization" : true,
                                  "sourceFileOffset" : 0
                                },
                                  "channelNumber" : "0,1",
                                "effects" : [

                                ],
                                "start" : 190958880000,
                                "duration" : 5503680000,
                                "mediaStart" : 259378560000,
                                "mediaDuration" : 5503680000,
                                "scalar" : 1,
                                "animationTracks" : {

                                }
                              }
,
                          "start" : 190958880000,
                          "duration" : 5503680000,
                          "mediaStart" : 0,
                          "mediaDuration" : 527083200000,
                          "scalar" : 1,
                          "metadata" : {
                            "AutoAppliedSmartFocus" : "False",
                            "clipSpeedAttribute" : false
                          }
                        },
                        {
                          "id" : 181,
                          "_type" : "UnifiedMedia",
                          "video" : 
                              {
                                "id" : 182,
                                "_type" : "ScreenVMFile",
                                "src" : 5,
                                "trackNumber" : 0,
                                "attributes" : {
                                  "ident" : "Rec 8-28-2023-8-58-42-PM"
                                },
                                "parameters" : {
                                  "sourceCrop0" : {
                                    "type" : "double",
                                    "defaultValue" : 0.0,
                                    "interp" : "eioe"
                                  },
                                  "sourceCrop1" : {
                                    "type" : "double",
                                    "defaultValue" : 0.0,
                                    "interp" : "eioe"
                                  },
                                  "sourceCrop2" : {
                                    "type" : "double",
                                    "defaultValue" : 0.0,
                                    "interp" : "eioe"
                                  },
                                  "sourceCrop3" : {
                                    "type" : "double",
                                    "defaultValue" : 0.0,
                                    "interp" : "eioe"
                                  },
                                  "geometryCrop0" : {
                                    "type" : "double",
                                    "defaultValue" : 0.0,
                                    "interp" : "eioe"
                                  },
                                  "geometryCrop1" : {
                                    "type" : "double",
                                    "defaultValue" : 0.0,
                                    "interp" : "eioe"
                                  },
                                  "geometryCrop2" : {
                                    "type" : "double",
                                    "defaultValue" : 0.0,
                                    "interp" : "eioe"
                                  },
                                  "geometryCrop3" : {
                                    "type" : "double",
                                    "defaultValue" : 0.0,
                                    "interp" : "eioe"
                                  },
                                  "cursorScale" : {
                                    "type" : "double",
                                    "defaultValue" : 0.0,
                                    "interp" : "linr"
                                  },
                                  "cursorOpacity" : {
                                    "type" : "double",
                                    "defaultValue" : 0.0,
                                    "interp" : "linr"
                                  },
                                  "smoothCursorAcrossEditDuration" : 235200000
                                },
                                "effects" : [

                                ],
                                "start" : 196462560000,
                                "duration" : 7267680000,
                                "mediaStart" : 265540800000,
                                "mediaDuration" : 7267680000,
                                "scalar" : 1,
                                "animationTracks" : {

                                }
                              },
                          "audio" : 
                              {
                                "id" : 183,
                                "_type" : "AMFile",
                                "src" : 5,
                                "trackNumber" : 1,
                                "attributes" : {
                                  "ident" : "",
                                  "gain" : 1.0,
                                  "mixToMono" : false,
                                  "loudnessNormalization" : true,
                                  "sourceFileOffset" : 0
                                },
                                  "channelNumber" : "0,1",
                                "effects" : [

                                ],
                                "start" : 196462560000,
                                "duration" : 7267680000,
                                "mediaStart" : 265540800000,
                                "mediaDuration" : 7267680000,
                                "scalar" : 1,
                                "animationTracks" : {

                                }
                              }
,
                          "start" : 196462560000,
                          "duration" : 7267680000,
                          "mediaStart" : 0,
                          "mediaDuration" : 527083200000,
                          "scalar" : 1,
                          "metadata" : {
                            "AutoAppliedSmartFocus" : "False",
                            "clipSpeedAttribute" : false
                          }
                        },
                        {
                          "id" : 184,
                          "_type" : "UnifiedMedia",
                          "video" : 
                              {
                                "id" : 185,
                                "_type" : "ScreenVMFile",
                                "src" : 5,
                                "trackNumber" : 0,
                                "attributes" : {
                                  "ident" : "Rec 8-28-2023-8-58-42-PM"
                                },
                                "parameters" : {
                                  "sourceCrop0" : {
                                    "type" : "double",
                                    "defaultValue" : 0.0,
                                    "interp" : "eioe"
                                  },
                                  "sourceCrop1" : {
                                    "type" : "double",
                                    "defaultValue" : 0.0,
                                    "interp" : "eioe"
                                  },
                                  "sourceCrop2" : {
                                    "type" : "double",
                                    "defaultValue" : 0.0,
                                    "interp" : "eioe"
                                  },
                                  "sourceCrop3" : {
                                    "type" : "double",
                                    "defaultValue" : 0.0,
                                    "interp" : "eioe"
                                  },
                                  "geometryCrop0" : {
                                    "type" : "double",
                                    "defaultValue" : 0.0,
                                    "interp" : "eioe"
                                  },
                                  "geometryCrop1" : {
                                    "type" : "double",
                                    "defaultValue" : 0.0,
                                    "interp" : "eioe"
                                  },
                                  "geometryCrop2" : {
                                    "type" : "double",
                                    "defaultValue" : 0.0,
                                    "interp" : "eioe"
                                  },
                                  "geometryCrop3" : {
                                    "type" : "double",
                                    "defaultValue" : 0.0,
                                    "interp" : "eioe"
                                  },
                                  "cursorScale" : {
                                    "type" : "double",
                                    "defaultValue" : 0.0,
                                    "interp" : "linr"
                                  },
                                  "cursorOpacity" : {
                                    "type" : "double",
                                    "defaultValue" : 0.0,
                                    "interp" : "linr"
                                  },
                                  "smoothCursorAcrossEditDuration" : 235200000
                                },
                                "effects" : [

                                ],
                                "start" : 203730240000,
                                "duration" : 1999200000,
                                "mediaStart" : 273984480000,
                                "mediaDuration" : 1999200000,
                                "scalar" : 1,
                                "animationTracks" : {

                                }
                              },
                          "audio" : 
                              {
                                "id" : 186,
                                "_type" : "AMFile",
                                "src" : 5,
                                "trackNumber" : 1,
                                "attributes" : {
                                  "ident" : "",
                                  "gain" : 1.0,
                                  "mixToMono" : false,
                                  "loudnessNormalization" : true,
                                  "sourceFileOffset" : 0
                                },
                                  "channelNumber" : "0,1",
                                "effects" : [

                                ],
                                "start" : 203730240000,
                                "duration" : 1999200000,
                                "mediaStart" : 273984480000,
                                "mediaDuration" : 1999200000,
                                "scalar" : 1,
                                "animationTracks" : {

                                }
                              }
,
                          "start" : 203730240000,
                          "duration" : 1999200000,
                          "mediaStart" : 0,
                          "mediaDuration" : 527083200000,
                          "scalar" : 1,
                          "metadata" : {
                            "AutoAppliedSmartFocus" : "False",
                            "clipSpeedAttribute" : false
                          }
                        },
                        {
                          "id" : 187,
                          "_type" : "UnifiedMedia",
                          "video" : 
                              {
                                "id" : 188,
                                "_type" : "ScreenVMFile",
                                "src" : 5,
                                "trackNumber" : 0,
                                "attributes" : {
                                  "ident" : "Rec 8-28-2023-8-58-42-PM"
                                },
                                "parameters" : {
                                  "sourceCrop0" : {
                                    "type" : "double",
                                    "defaultValue" : 0.0,
                                    "interp" : "eioe"
                                  },
                                  "sourceCrop1" : {
                                    "type" : "double",
                                    "defaultValue" : 0.0,
                                    "interp" : "eioe"
                                  },
                                  "sourceCrop2" : {
                                    "type" : "double",
                                    "defaultValue" : 0.0,
                                    "interp" : "eioe"
                                  },
                                  "sourceCrop3" : {
                                    "type" : "double",
                                    "defaultValue" : 0.0,
                                    "interp" : "eioe"
                                  },
                                  "geometryCrop0" : {
                                    "type" : "double",
                                    "defaultValue" : 0.0,
                                    "interp" : "eioe"
                                  },
                                  "geometryCrop1" : {
                                    "type" : "double",
                                    "defaultValue" : 0.0,
                                    "interp" : "eioe"
                                  },
                                  "geometryCrop2" : {
                                    "type" : "double",
                                    "defaultValue" : 0.0,
                                    "interp" : "eioe"
                                  },
                                  "geometryCrop3" : {
                                    "type" : "double",
                                    "defaultValue" : 0.0,
                                    "interp" : "eioe"
                                  },
                                  "cursorScale" : {
                                    "type" : "double",
                                    "defaultValue" : 0.0,
                                    "interp" : "linr"
                                  },
                                  "cursorOpacity" : {
                                    "type" : "double",
                                    "defaultValue" : 0.0,
                                    "interp" : "linr"
                                  },
                                  "smoothCursorAcrossEditDuration" : 235200000
                                },
                                "effects" : [

                                ],
                                "start" : 205729440000,
                                "duration" : 3551520000,
                                "mediaStart" : 276477600000,
                                "mediaDuration" : 3551520000,
                                "scalar" : 1,
                                "animationTracks" : {

                                }
                              },
                          "audio" : 
                              {
                                "id" : 189,
                                "_type" : "AMFile",
                                "src" : 5,
                                "trackNumber" : 1,
                                "attributes" : {
                                  "ident" : "",
                                  "gain" : 1.0,
                                  "mixToMono" : false,
                                  "loudnessNormalization" : true,
                                  "sourceFileOffset" : 0
                                },
                                  "channelNumber" : "0,1",
                                "effects" : [

                                ],
                                "start" : 205729440000,
                                "duration" : 3551520000,
                                "mediaStart" : 276477600000,
                                "mediaDuration" : 3551520000,
                                "scalar" : 1,
                                "animationTracks" : {

                                }
                              }
,
                          "start" : 205729440000,
                          "duration" : 3551520000,
                          "mediaStart" : 0,
                          "mediaDuration" : 527083200000,
                          "scalar" : 1,
                          "metadata" : {
                            "AutoAppliedSmartFocus" : "False",
                            "clipSpeedAttribute" : false
                          }
                        },
                        {
                          "id" : 190,
                          "_type" : "UnifiedMedia",
                          "video" : 
                              {
                                "id" : 191,
                                "_type" : "ScreenVMFile",
                                "src" : 5,
                                "trackNumber" : 0,
                                "attributes" : {
                                  "ident" : "Rec 8-28-2023-8-58-42-PM"
                                },
                                "parameters" : {
                                  "sourceCrop0" : {
                                    "type" : "double",
                                    "defaultValue" : 0.0,
                                    "interp" : "eioe"
                                  },
                                  "sourceCrop1" : {
                                    "type" : "double",
                                    "defaultValue" : 0.0,
                                    "interp" : "eioe"
                                  },
                                  "sourceCrop2" : {
                                    "type" : "double",
                                    "defaultValue" : 0.0,
                                    "interp" : "eioe"
                                  },
                                  "sourceCrop3" : {
                                    "type" : "double",
                                    "defaultValue" : 0.0,
                                    "interp" : "eioe"
                                  },
                                  "geometryCrop0" : {
                                    "type" : "double",
                                    "defaultValue" : 0.0,
                                    "interp" : "eioe"
                                  },
                                  "geometryCrop1" : {
                                    "type" : "double",
                                    "defaultValue" : 0.0,
                                    "interp" : "eioe"
                                  },
                                  "geometryCrop2" : {
                                    "type" : "double",
                                    "defaultValue" : 0.0,
                                    "interp" : "eioe"
                                  },
                                  "geometryCrop3" : {
                                    "type" : "double",
                                    "defaultValue" : 0.0,
                                    "interp" : "eioe"
                                  },
                                  "cursorScale" : {
                                    "type" : "double",
                                    "defaultValue" : 0.0,
                                    "interp" : "linr"
                                  },
                                  "cursorOpacity" : {
                                    "type" : "double",
                                    "defaultValue" : 0.0,
                                    "interp" : "linr"
                                  },
                                  "smoothCursorAcrossEditDuration" : 235200000
                                },
                                "effects" : [

                                ],
                                "start" : 209280960000,
                                "duration" : 5150880000,
                                "mediaStart" : 284074560000,
                                "mediaDuration" : 5150880000,
                                "scalar" : 1,
                                "animationTracks" : {

                                }
                              },
                          "audio" : 
                              {
                                "id" : 192,
                                "_type" : "AMFile",
                                "src" : 5,
                                "trackNumber" : 1,
                                "attributes" : {
                                  "ident" : "",
                                  "gain" : 1.0,
                                  "mixToMono" : false,
                                  "loudnessNormalization" : true,
                                  "sourceFileOffset" : 0
                                },
                                  "channelNumber" : "0,1",
                                "effects" : [

                                ],
                                "start" : 209280960000,
                                "duration" : 5150880000,
                                "mediaStart" : 284074560000,
                                "mediaDuration" : 5150880000,
                                "scalar" : 1,
                                "animationTracks" : {

                                }
                              }
,
                          "start" : 209280960000,
                          "duration" : 5150880000,
                          "mediaStart" : 0,
                          "mediaDuration" : 527083200000,
                          "scalar" : 1,
                          "metadata" : {
                            "AutoAppliedSmartFocus" : "False",
                            "clipSpeedAttribute" : false
                          }
                        },
                        {
                          "id" : 193,
                          "_type" : "UnifiedMedia",
                          "video" : 
                              {
                                "id" : 194,
                                "_type" : "ScreenVMFile",
                                "src" : 5,
                                "trackNumber" : 0,
                                "attributes" : {
                                  "ident" : "Rec 8-28-2023-8-58-42-PM"
                                },
                                "parameters" : {
                                  "sourceCrop0" : {
                                    "type" : "double",
                                    "defaultValue" : 0.0,
                                    "interp" : "eioe"
                                  },
                                  "sourceCrop1" : {
                                    "type" : "double",
                                    "defaultValue" : 0.0,
                                    "interp" : "eioe"
                                  },
                                  "sourceCrop2" : {
                                    "type" : "double",
                                    "defaultValue" : 0.0,
                                    "interp" : "eioe"
                                  },
                                  "sourceCrop3" : {
                                    "type" : "double",
                                    "defaultValue" : 0.0,
                                    "interp" : "eioe"
                                  },
                                  "geometryCrop0" : {
                                    "type" : "double",
                                    "defaultValue" : 0.0,
                                    "interp" : "eioe"
                                  },
                                  "geometryCrop1" : {
                                    "type" : "double",
                                    "defaultValue" : 0.0,
                                    "interp" : "eioe"
                                  },
                                  "geometryCrop2" : {
                                    "type" : "double",
                                    "defaultValue" : 0.0,
                                    "interp" : "eioe"
                                  },
                                  "geometryCrop3" : {
                                    "type" : "double",
                                    "defaultValue" : 0.0,
                                    "interp" : "eioe"
                                  },
                                  "cursorScale" : {
                                    "type" : "double",
                                    "defaultValue" : 0.0,
                                    "interp" : "linr"
                                  },
                                  "cursorOpacity" : {
                                    "type" : "double",
                                    "defaultValue" : 0.0,
                                    "interp" : "linr"
                                  },
                                  "smoothCursorAcrossEditDuration" : 235200000
                                },
                                "effects" : [

                                ],
                                "start" : 214431840000,
                                "duration" : 1223040000,
                                "mediaStart" : 290072160000,
                                "mediaDuration" : 1223040000,
                                "scalar" : 1,
                                "animationTracks" : {

                                }
                              },
                          "audio" : 
                              {
                                "id" : 195,
                                "_type" : "AMFile",
                                "src" : 5,
                                "trackNumber" : 1,
                                "attributes" : {
                                  "ident" : "",
                                  "gain" : 1.0,
                                  "mixToMono" : false,
                                  "loudnessNormalization" : true,
                                  "sourceFileOffset" : 0
                                },
                                  "channelNumber" : "0,1",
                                "effects" : [

                                ],
                                "start" : 214431840000,
                                "duration" : 1223040000,
                                "mediaStart" : 290072160000,
                                "mediaDuration" : 1223040000,
                                "scalar" : 1,
                                "animationTracks" : {

                                }
                              }
,
                          "start" : 214431840000,
                          "duration" : 1223040000,
                          "mediaStart" : 0,
                          "mediaDuration" : 527083200000,
                          "scalar" : 1,
                          "metadata" : {
                            "AutoAppliedSmartFocus" : "False",
                            "clipSpeedAttribute" : false
                          }
                        },
                        {
                          "id" : 196,
                          "_type" : "UnifiedMedia",
                          "video" : 
                              {
                                "id" : 197,
                                "_type" : "ScreenVMFile",
                                "src" : 5,
                                "trackNumber" : 0,
                                "attributes" : {
                                  "ident" : "Rec 8-28-2023-8-58-42-PM"
                                },
                                "parameters" : {
                                  "sourceCrop0" : {
                                    "type" : "double",
                                    "defaultValue" : 0.0,
                                    "interp" : "eioe"
                                  },
                                  "sourceCrop1" : {
                                    "type" : "double",
                                    "defaultValue" : 0.0,
                                    "interp" : "eioe"
                                  },
                                  "sourceCrop2" : {
                                    "type" : "double",
                                    "defaultValue" : 0.0,
                                    "interp" : "eioe"
                                  },
                                  "sourceCrop3" : {
                                    "type" : "double",
                                    "defaultValue" : 0.0,
                                    "interp" : "eioe"
                                  },
                                  "geometryCrop0" : {
                                    "type" : "double",
                                    "defaultValue" : 0.0,
                                    "interp" : "eioe"
                                  },
                                  "geometryCrop1" : {
                                    "type" : "double",
                                    "defaultValue" : 0.0,
                                    "interp" : "eioe"
                                  },
                                  "geometryCrop2" : {
                                    "type" : "double",
                                    "defaultValue" : 0.0,
                                    "interp" : "eioe"
                                  },
                                  "geometryCrop3" : {
                                    "type" : "double",
                                    "defaultValue" : 0.0,
                                    "interp" : "eioe"
                                  },
                                  "cursorScale" : {
                                    "type" : "double",
                                    "defaultValue" : 0.0,
                                    "interp" : "linr"
                                  },
                                  "cursorOpacity" : {
                                    "type" : "double",
                                    "defaultValue" : 0.0,
                                    "interp" : "linr"
                                  },
                                  "smoothCursorAcrossEditDuration" : 235200000
                                },
                                "effects" : [

                                ],
                                "start" : 215654880000,
                                "duration" : 2845920000,
                                "mediaStart" : 292330080000,
                                "mediaDuration" : 2845920000,
                                "scalar" : 1,
                                "animationTracks" : {

                                }
                              },
                          "audio" : 
                              {
                                "id" : 198,
                                "_type" : "AMFile",
                                "src" : 5,
                                "trackNumber" : 1,
                                "attributes" : {
                                  "ident" : "",
                                  "gain" : 1.0,
                                  "mixToMono" : false,
                                  "loudnessNormalization" : true,
                                  "sourceFileOffset" : 0
                                },
                                  "channelNumber" : "0,1",
                                "effects" : [

                                ],
                                "start" : 215654880000,
                                "duration" : 2845920000,
                                "mediaStart" : 292330080000,
                                "mediaDuration" : 2845920000,
                                "scalar" : 1,
                                "animationTracks" : {

                                }
                              }
,
                          "start" : 215654880000,
                          "duration" : 2845920000,
                          "mediaStart" : 0,
                          "mediaDuration" : 527083200000,
                          "scalar" : 1,
                          "metadata" : {
                            "AutoAppliedSmartFocus" : "False",
                            "clipSpeedAttribute" : false
                          }
                        },
                        {
                          "id" : 199,
                          "_type" : "UnifiedMedia",
                          "video" : 
                              {
                                "id" : 200,
                                "_type" : "ScreenVMFile",
                                "src" : 5,
                                "trackNumber" : 0,
                                "attributes" : {
                                  "ident" : "Rec 8-28-2023-8-58-42-PM"
                                },
                                "parameters" : {
                                  "sourceCrop0" : {
                                    "type" : "double",
                                    "defaultValue" : 0.0,
                                    "interp" : "eioe"
                                  },
                                  "sourceCrop1" : {
                                    "type" : "double",
                                    "defaultValue" : 0.0,
                                    "interp" : "eioe"
                                  },
                                  "sourceCrop2" : {
                                    "type" : "double",
                                    "defaultValue" : 0.0,
                                    "interp" : "eioe"
                                  },
                                  "sourceCrop3" : {
                                    "type" : "double",
                                    "defaultValue" : 0.0,
                                    "interp" : "eioe"
                                  },
                                  "geometryCrop0" : {
                                    "type" : "double",
                                    "defaultValue" : 0.0,
                                    "interp" : "eioe"
                                  },
                                  "geometryCrop1" : {
                                    "type" : "double",
                                    "defaultValue" : 0.0,
                                    "interp" : "eioe"
                                  },
                                  "geometryCrop2" : {
                                    "type" : "double",
                                    "defaultValue" : 0.0,
                                    "interp" : "eioe"
                                  },
                                  "geometryCrop3" : {
                                    "type" : "double",
                                    "defaultValue" : 0.0,
                                    "interp" : "eioe"
                                  },
                                  "cursorScale" : {
                                    "type" : "double",
                                    "defaultValue" : 0.0,
                                    "interp" : "linr"
                                  },
                                  "cursorOpacity" : {
                                    "type" : "double",
                                    "defaultValue" : 0.0,
                                    "interp" : "linr"
                                  },
                                  "smoothCursorAcrossEditDuration" : 235200000
                                },
                                "effects" : [

                                ],
                                "start" : 218500800000,
                                "duration" : 11195520000,
                                "mediaStart" : 299644800000,
                                "mediaDuration" : 11195520000,
                                "scalar" : 1,
                                "animationTracks" : {

                                }
                              },
                          "audio" : 
                              {
                                "id" : 201,
                                "_type" : "AMFile",
                                "src" : 5,
                                "trackNumber" : 1,
                                "attributes" : {
                                  "ident" : "",
                                  "gain" : 1.0,
                                  "mixToMono" : false,
                                  "loudnessNormalization" : true,
                                  "sourceFileOffset" : 0
                                },
                                  "channelNumber" : "0,1",
                                "effects" : [

                                ],
                                "start" : 218500800000,
                                "duration" : 11195520000,
                                "mediaStart" : 299644800000,
                                "mediaDuration" : 11195520000,
                                "scalar" : 1,
                                "animationTracks" : {

                                }
                              }
,
                          "start" : 218500800000,
                          "duration" : 11195520000,
                          "mediaStart" : 0,
                          "mediaDuration" : 527083200000,
                          "scalar" : 1,
                          "metadata" : {
                            "AutoAppliedSmartFocus" : "False",
                            "clipSpeedAttribute" : false
                          }
                        },
                        {
                          "id" : 202,
                          "_type" : "UnifiedMedia",
                          "video" : 
                              {
                                "id" : 203,
                                "_type" : "ScreenVMFile",
                                "src" : 5,
                                "trackNumber" : 0,
                                "attributes" : {
                                  "ident" : "Rec 8-28-2023-8-58-42-PM"
                                },
                                "parameters" : {
                                  "sourceCrop0" : {
                                    "type" : "double",
                                    "defaultValue" : 0.0,
                                    "interp" : "eioe"
                                  },
                                  "sourceCrop1" : {
                                    "type" : "double",
                                    "defaultValue" : 0.0,
                                    "interp" : "eioe"
                                  },
                                  "sourceCrop2" : {
                                    "type" : "double",
                                    "defaultValue" : 0.0,
                                    "interp" : "eioe"
                                  },
                                  "sourceCrop3" : {
                                    "type" : "double",
                                    "defaultValue" : 0.0,
                                    "interp" : "eioe"
                                  },
                                  "geometryCrop0" : {
                                    "type" : "double",
                                    "defaultValue" : 0.0,
                                    "interp" : "eioe"
                                  },
                                  "geometryCrop1" : {
                                    "type" : "double",
                                    "defaultValue" : 0.0,
                                    "interp" : "eioe"
                                  },
                                  "geometryCrop2" : {
                                    "type" : "double",
                                    "defaultValue" : 0.0,
                                    "interp" : "eioe"
                                  },
                                  "geometryCrop3" : {
                                    "type" : "double",
                                    "defaultValue" : 0.0,
                                    "interp" : "eioe"
                                  },
                                  "cursorScale" : {
                                    "type" : "double",
                                    "defaultValue" : 0.0,
                                    "interp" : "linr"
                                  },
                                  "cursorOpacity" : {
                                    "type" : "double",
                                    "defaultValue" : 0.0,
                                    "interp" : "linr"
                                  },
                                  "smoothCursorAcrossEditDuration" : 235200000
                                },
                                "effects" : [

                                ],
                                "start" : 229696320000,
                                "duration" : 329280000,
                                "mediaStart" : 320883360000,
                                "mediaDuration" : 329280000,
                                "scalar" : 1,
                                "animationTracks" : {

                                }
                              },
                          "audio" : 
                              {
                                "id" : 204,
                                "_type" : "AMFile",
                                "src" : 5,
                                "trackNumber" : 1,
                                "attributes" : {
                                  "ident" : "",
                                  "gain" : 1.0,
                                  "mixToMono" : false,
                                  "loudnessNormalization" : true,
                                  "sourceFileOffset" : 0
                                },
                                  "channelNumber" : "0,1",
                                "effects" : [

                                ],
                                "start" : 229696320000,
                                "duration" : 329280000,
                                "mediaStart" : 320883360000,
                                "mediaDuration" : 329280000,
                                "scalar" : 1,
                                "animationTracks" : {

                                }
                              }
,
                          "start" : 229696320000,
                          "duration" : 329280000,
                          "mediaStart" : 0,
                          "mediaDuration" : 527083200000,
                          "scalar" : 1,
                          "metadata" : {
                            "AutoAppliedSmartFocus" : "False",
                            "clipSpeedAttribute" : false
                          }
                        },
                        {
                          "id" : 205,
                          "_type" : "UnifiedMedia",
                          "video" : 
                              {
                                "id" : 206,
                                "_type" : "ScreenVMFile",
                                "src" : 5,
                                "trackNumber" : 0,
                                "attributes" : {
                                  "ident" : "Rec 8-28-2023-8-58-42-PM"
                                },
                                "parameters" : {
                                  "sourceCrop0" : {
                                    "type" : "double",
                                    "defaultValue" : 0.0,
                                    "interp" : "eioe"
                                  },
                                  "sourceCrop1" : {
                                    "type" : "double",
                                    "defaultValue" : 0.0,
                                    "interp" : "eioe"
                                  },
                                  "sourceCrop2" : {
                                    "type" : "double",
                                    "defaultValue" : 0.0,
                                    "interp" : "eioe"
                                  },
                                  "sourceCrop3" : {
                                    "type" : "double",
                                    "defaultValue" : 0.0,
                                    "interp" : "eioe"
                                  },
                                  "geometryCrop0" : {
                                    "type" : "double",
                                    "defaultValue" : 0.0,
                                    "interp" : "eioe"
                                  },
                                  "geometryCrop1" : {
                                    "type" : "double",
                                    "defaultValue" : 0.0,
                                    "interp" : "eioe"
                                  },
                                  "geometryCrop2" : {
                                    "type" : "double",
                                    "defaultValue" : 0.0,
                                    "interp" : "eioe"
                                  },
                                  "geometryCrop3" : {
                                    "type" : "double",
                                    "defaultValue" : 0.0,
                                    "interp" : "eioe"
                                  },
                                  "cursorScale" : {
                                    "type" : "double",
                                    "defaultValue" : 0.0,
                                    "interp" : "linr"
                                  },
                                  "cursorOpacity" : {
                                    "type" : "double",
                                    "defaultValue" : 0.0,
                                    "interp" : "linr"
                                  },
                                  "smoothCursorAcrossEditDuration" : 235200000
                                },
                                "effects" : [

                                ],
                                "start" : 230025600000,
                                "duration" : 205588320000,
                                "mediaStart" : 321494880000,
                                "mediaDuration" : 205588320000,
                                "scalar" : 1,
                                "animationTracks" : {

                                }
                              },
                          "audio" : 
                              {
                                "id" : 207,
                                "_type" : "AMFile",
                                "src" : 5,
                                "trackNumber" : 1,
                                "attributes" : {
                                  "ident" : "",
                                  "gain" : 1.0,
                                  "mixToMono" : false,
                                  "loudnessNormalization" : true,
                                  "sourceFileOffset" : 0
                                },
                                  "channelNumber" : "0,1",
                                "effects" : [

                                ],
                                "start" : 230025600000,
                                "duration" : 205588320000,
                                "mediaStart" : 321494880000,
                                "mediaDuration" : 205588320000,
                                "scalar" : 1,
                                "animationTracks" : {

                                }
                              }
,
                          "start" : 230025600000,
                          "duration" : 205588320000,
                          "mediaStart" : 0,
                          "mediaDuration" : 527083200000,
                          "scalar" : 1,
                          "metadata" : {
                            "AutoAppliedSmartFocus" : "False",
                            "clipSpeedAttribute" : false
                          }
                        }
                    ],
                    "effects" : [

                    ],
                    "start" : 6773760000,
                    "duration" : 1905120000,
                    "mediaStart" : 188065920000,
                    "mediaDuration" : 1905120000,
                    "scalar" : 1,
                    "metadata" : {
                      "AutoAppliedSmartFocus" : "False",
                      "clipSpeedAttribute" : false
                    },
                    "animationTracks" : {

                    }
                  },
                  {
                    "id" : 208,
                    "_type" : "IMFile",
                    "src" : 10,
                    "trackNumber" : 0,
                    "trimStartSum" : 964320000,
                    "attributes" : {
                      "ident" : "Code Spell Checker (Time 0_05_23;18)"
                    },
                    "parameters" : {
                      "sourceCrop0" : 0.0,
                      "sourceCrop1" : 0.0,
                      "sourceCrop2" : 0.0,
                      "sourceCrop3" : 0.0,
                      "geometryCrop0" : 0.0,
                      "geometryCrop1" : 0.0,
                      "geometryCrop2" : 0.0,
                      "geometryCrop3" : 0.0
                    },
                    "effects" : [

                    ],
                    "start" : 10584000000,
                    "duration" : 2563680000,
                    "mediaStart" : 0,
                    "mediaDuration" : 1,
                    "scalar" : 1,
                    "metadata" : {
                      "clipSpeedAttribute" : false
                    },
                    "animationTracks" : {

                    }
                  }
                ]
              },
              {
                "trackIndex" : 5,
                "medias" : [
                  {
                    "id" : 209,
                    "_type" : "StitchedMedia",
                    "minMediaStart" : 0,
                    "attributes" : {
                      "ident" : "VID_20230828_212740",
                      "gain" : 1.0,
                      "mixToMono" : false,
                      "loudnessNormalization" : true,
                      "sourceFileOffset" : 0
                    },
                    "parameters" : {
                      "translation0" : 1251.21951219512,
                      "translation1" : 96.3414634146341,
                      "sourceCrop0" : 0.0,
                      "sourceCrop1" : 0.0,
                      "sourceCrop2" : 0.0,
                      "sourceCrop3" : 0.0,
                      "geometryCrop0" : 0.0,
                      "geometryCrop1" : 192.682926829268,
                      "geometryCrop2" : 0.0,
                      "geometryCrop3" : 0.0,
                      "volume" : 0.0,
                      "smoothCursorAcrossEditDuration" : 0
                    },
                    "medias" : [
                        {
                          "id" : 210,
                          "_type" : "UnifiedMedia",
                          "video" : 
                              {
                                "id" : 211,
                                "_type" : "VMFile",
                                "src" : 7,
                                "trackNumber" : 0,
                                "attributes" : {
                                  "ident" : "VID_20230828_212740"
                                },
                                "parameters" : {
                                  "sourceCrop0" : 0.0,
                                  "sourceCrop1" : 0.0,
                                  "sourceCrop2" : 0.0,
                                  "sourceCrop3" : 0.0,
                                  "geometryCrop0" : 0.0,
                                  "geometryCrop1" : 0.0,
                                  "geometryCrop2" : 0.0,
                                  "geometryCrop3" : 0.0
                                },
                                "effects" : [

                                ],
                                "start" : 0,
                                "duration" : 320930400000,
                                "mediaStart" : 0,
                                "mediaDuration" : 320930400000,
                                "scalar" : 1,
                                "animationTracks" : {

                                }
                              },
                          "audio" : 
                              {
                                "id" : 212,
                                "_type" : "AMFile",
                                "src" : 7,
                                "trackNumber" : 1,
                                "attributes" : {
                                  "ident" : "",
                                  "gain" : 1.0,
                                  "mixToMono" : false,
                                  "loudnessNormalization" : true,
                                  "sourceFileOffset" : 0
                                },
                                  "channelNumber" : "0,1",
                                "effects" : [

                                ],
                                "start" : 0,
                                "duration" : 320930400000,
                                "mediaStart" : 0,
                                "mediaDuration" : 320930400000,
                                "scalar" : 1,
                                "animationTracks" : {

                                }
                              }
,
                          "start" : 0,
                          "duration" : 320930400000,
                          "mediaStart" : 0,
                          "mediaDuration" : 341275200000,
                          "scalar" : 1,
                          "metadata" : {
                            "clipSpeedAttribute" : false
                          }
                        },
                        {
                          "id" : 213,
                          "_type" : "UnifiedMedia",
                          "video" : 
                              {
                                "id" : 214,
                                "_type" : "VMFile",
                                "src" : 7,
                                "trackNumber" : 0,
                                "attributes" : {
                                  "ident" : "VID_20230828_212740"
                                },
                                "parameters" : {
                                  "sourceCrop0" : 0.0,
                                  "sourceCrop1" : 0.0,
                                  "sourceCrop2" : 0.0,
                                  "sourceCrop3" : 0.0,
                                  "geometryCrop0" : 0.0,
                                  "geometryCrop1" : 0.0,
                                  "geometryCrop2" : 0.0,
                                  "geometryCrop3" : 0.0
                                },
                                "effects" : [

                                ],
                                "start" : 320930400000,
                                "duration" : 19921440000,
                                "mediaStart" : 321353760000,
                                "mediaDuration" : 19921440000,
                                "scalar" : 1,
                                "animationTracks" : {

                                }
                              },
                          "audio" : 
                              {
                                "id" : 215,
                                "_type" : "AMFile",
                                "src" : 7,
                                "trackNumber" : 1,
                                "attributes" : {
                                  "ident" : "",
                                  "gain" : 1.0,
                                  "mixToMono" : false,
                                  "loudnessNormalization" : true,
                                  "sourceFileOffset" : 0
                                },
                                  "channelNumber" : "0,1",
                                "effects" : [

                                ],
                                "start" : 320930400000,
                                "duration" : 19921440000,
                                "mediaStart" : 321353760000,
                                "mediaDuration" : 19921440000,
                                "scalar" : 1,
                                "animationTracks" : {

                                }
                              }
,
                          "start" : 320930400000,
                          "duration" : 19921440000,
                          "mediaStart" : 0,
                          "mediaDuration" : 341275200000,
                          "scalar" : 1,
                          "metadata" : {
                            "clipSpeedAttribute" : false
                          }
                        }
                    ],
                    "effects" : [
                        {
                          "effectName" : "Border",
                          "bypassed" : false,
                          "category" : "categoryVisualEffects",
                          "parameters" : {
                            "enabled" : 1,
                            "color-red" : 0.00784313725490196,
                            "color-green" : 0.254901960784314,
                            "color-blue" : 0.6,
                            "color-alpha" : 1.0,
                            "width" : 10.0
                          },
                          "metadata" : {
                            "default-Border_color-alpha" : 1.0,
                            "default-Border_color-blue" : 1.0,
                            "default-Border_color-green" : 1.0,
                            "default-Border_color-red" : 1.0,
                            "default-Border_width" : 1.0,
                            "presetName" : "Border"
                          }
                        },
                        {
                          "effectName" : "RoundCorners",
                          "bypassed" : false,
                          "category" : "categoryVisualEffects",
                          "parameters" : {
                            "radius" : 20.0,
                            "top-left" : 1.0,
                            "top-right" : 1.0,
                            "bottom-left" : 1.0,
                            "bottom-right" : 1.0
                          },
                          "metadata" : {
                            "presetName" : "Corner Rounding"
                          }
                        },
                        {
                          "effectName" : "DropShadow",
                          "bypassed" : false,
                          "category" : "categoryVisualEffects",
                          "parameters" : {
                            "angle" : 5.49779,
                            "enabled" : 1,
                            "offset" : 10.0,
                            "blur" : 10.0,
                            "opacity" : 0.4,
                            "color-red" : 0.1216,
                            "color-green" : 0.1216,
                            "color-blue" : 0.1216,
                            "color-alpha" : 1.0
                          },
                          "metadata" : {
                            "presetName" : "Drop Shadow"
                          }
                        }
                    ],
                    "start" : 0,
                    "duration" : 13147680000,
                    "mediaStart" : 309005760000,
                    "mediaDuration" : 13147680000,
                    "scalar" : 1,
                    "metadata" : {
                      "clipSpeedAttribute" : false,
                      "default-geometryCrop1" : 0.0,
                      "default-height" : 1920.0,
                      "default-translation0" : 0.0,
                      "default-translation1" : 0.0,
                      "default-translation2" : 0.0,
                      "default-width" : 1080.0
                    },
                    "animationTracks" : {

                    }
                  }
                ]
              },
              {
                "trackIndex" : 6,
                "medias" : [
                  {
                    "id" : 216,
                    "_type" : "Group",
                    "parameters" : {
                      "translation0" : 185.755632195004,
                      "translation1" : 55.3087009033139,
                      "scale0" : 2.02428813312998,
                      "scale1" : 2.02428813312998,
                      "sourceCrop0" : 0.0,
                      "sourceCrop1" : 0.0,
                      "sourceCrop2" : 0.0,
                      "sourceCrop3" : 0.0,
                      "geometryCrop0" : 0.0,
                      "geometryCrop1" : 856.945586059504,
                      "geometryCrop2" : 809.600526056216,
                      "geometryCrop3" : 14.2035180009862,
                      "volume" : 1.0
                    },
                    "tracks" : [
                      {
                        "trackIndex" : 0,
                        "medias" : [
                          {
                            "id" : 217,
                            "_type" : "Callout",
                            "def" : {
                                "kind" : "remix",
                                "shape" : "shape-rectangle",
                                "style" : "bold",
                                "fill-color-blue" : {
                                  "type" : "double",
                                  "defaultValue" : 0.0,
                                  "keyframes" : [
                                    {
                                      "endTime" : 352800000,
                                      "time" : 0,
                                      "value" : 0.0,
                                      "interp" : "eioe",
                                      "duration" : 352800000
                                    },
                                    {
                                      "endTime" : 1176000000,
                                      "time" : 1058400000,
                                      "value" : 0.0,
                                      "interp" : "linr",
                                      "duration" : 117600000
                                    },
                                    {
                                      "endTime" : 1293600000,
                                      "time" : 1176000000,
                                      "value" : 0.0,
                                      "interp" : "linr",
                                      "duration" : 117600000
                                    },
                                    {
                                      "endTime" : 5174400000,
                                      "time" : 5056800000,
                                      "value" : 0.0,
                                      "interp" : "linr",
                                      "duration" : 117600000
                                    },
                                    {
                                      "endTime" : 5292000000,
                                      "time" : 5174400000,
                                      "value" : 0.0,
                                      "interp" : "linr",
                                      "duration" : 117600000
                                    },
                                    {
                                      "endTime" : 5644800000,
                                      "time" : 5468400000,
                                      "value" : 0.0,
                                      "interp" : "eioe",
                                      "duration" : 176400000
                                    }
                                  ]
                                },
                                "fill-color-green" : {
                                  "type" : "double",
                                  "defaultValue" : 0.611764705882353,
                                  "keyframes" : [
                                    {
                                      "endTime" : 352800000,
                                      "time" : 0,
                                      "value" : 0.611764705882353,
                                      "interp" : "eioe",
                                      "duration" : 352800000
                                    },
                                    {
                                      "endTime" : 1176000000,
                                      "time" : 1058400000,
                                      "value" : 0.611764705882353,
                                      "interp" : "linr",
                                      "duration" : 117600000
                                    },
                                    {
                                      "endTime" : 1293600000,
                                      "time" : 1176000000,
                                      "value" : 0.611764705882353,
                                      "interp" : "linr",
                                      "duration" : 117600000
                                    },
                                    {
                                      "endTime" : 5174400000,
                                      "time" : 5056800000,
                                      "value" : 0.611764705882353,
                                      "interp" : "linr",
                                      "duration" : 117600000
                                    },
                                    {
                                      "endTime" : 5292000000,
                                      "time" : 5174400000,
                                      "value" : 0.611764705882353,
                                      "interp" : "linr",
                                      "duration" : 117600000
                                    },
                                    {
                                      "endTime" : 5644800000,
                                      "time" : 5468400000,
                                      "value" : 0.611764705882353,
                                      "interp" : "eioe",
                                      "duration" : 176400000
                                    }
                                  ]
                                },
                                "fill-color-opacity" : 1.0,
                                "fill-color-red" : {
                                  "type" : "double",
                                  "defaultValue" : 0.752941176470588,
                                  "keyframes" : [
                                    {
                                      "endTime" : 352800000,
                                      "time" : 0,
                                      "value" : 0.752941176470588,
                                      "interp" : "eioe",
                                      "duration" : 352800000
                                    },
                                    {
                                      "endTime" : 1176000000,
                                      "time" : 1058400000,
                                      "value" : 0.752941176470588,
                                      "interp" : "linr",
                                      "duration" : 117600000
                                    },
                                    {
                                      "endTime" : 1293600000,
                                      "time" : 1176000000,
                                      "value" : 0.752941176470588,
                                      "interp" : "linr",
                                      "duration" : 117600000
                                    },
                                    {
                                      "endTime" : 5174400000,
                                      "time" : 5056800000,
                                      "value" : 0.752941176470588,
                                      "interp" : "linr",
                                      "duration" : 117600000
                                    },
                                    {
                                      "endTime" : 5292000000,
                                      "time" : 5174400000,
                                      "value" : 0.752941176470588,
                                      "interp" : "linr",
                                      "duration" : 117600000
                                    },
                                    {
                                      "endTime" : 5644800000,
                                      "time" : 5468400000,
                                      "value" : 0.752941176470588,
                                      "interp" : "eioe",
                                      "duration" : 176400000
                                    }
                                  ]
                                },
                                "height" : {
                                  "type" : "double",
                                  "defaultValue" : 1.0,
                                  "keyframes" : [
                                    {
                                      "endTime" : 352800000,
                                      "time" : 0,
                                      "value" : 119.002203361022,
                                      "interp" : "eioe",
                                      "duration" : 352800000
                                    },
                                    {
                                      "endTime" : 1176000000,
                                      "time" : 1058400000,
                                      "value" : 119.00220489502,
                                      "interp" : "linr",
                                      "duration" : 117600000
                                    },
                                    {
                                      "endTime" : 5644800000,
                                      "time" : 5468400000,
                                      "value" : 1.0,
                                      "interp" : "eioe",
                                      "duration" : 176400000
                                    }
                                  ]
                                },
                                "stroke-color-blue" : 1.0,
                                "stroke-color-green" : 1.0,
                                "stroke-color-opacity" : 1.0,
                                "stroke-color-red" : 1.0,
                                "stroke-width" : 0.0,
                                "width" : {
                                  "type" : "double",
                                  "defaultValue" : 9.00221252441406,
                                  "keyframes" : [
                                    {
                                      "endTime" : 352800000,
                                      "time" : 0,
                                      "value" : 9.00221251672069,
                                      "interp" : "eioe",
                                      "duration" : 352800000
                                    },
                                    {
                                      "endTime" : 1176000000,
                                      "time" : 1058400000,
                                      "value" : 236.919793455974,
                                      "interp" : "linr",
                                      "duration" : 117600000
                                    },
                                    {
                                      "endTime" : 1293600000,
                                      "time" : 1176000000,
                                      "value" : 9.42157070417124,
                                      "interp" : "linr",
                                      "duration" : 117600000
                                    },
                                    {
                                      "endTime" : 5174400000,
                                      "time" : 5056800000,
                                      "value" : 246.724888796805,
                                      "interp" : "linr",
                                      "duration" : 117600000
                                    },
                                    {
                                      "endTime" : 5292000000,
                                      "time" : 5174400000,
                                      "value" : 9.9165670950714,
                                      "interp" : "linr",
                                      "duration" : 117600000
                                    },
                                    {
                                      "endTime" : 5644800000,
                                      "time" : 5468400000,
                                      "value" : 9.91656684875488,
                                      "interp" : "eioe",
                                      "duration" : 176400000
                                    }
                                  ]
                                },
                                "fill-style" : "solid",
                                "stroke-style" : "solid"
                            },
                            "attributes" : {
                              "ident" : "",
                              "autoRotateText" : true
                            },
                            "parameters" : {
                              "translation0" : {
                                "type" : "double",
                                "defaultValue" : -425.0,
                                "keyframes" : [
                                  {
                                    "endTime" : 352800000,
                                    "time" : 0,
                                    "value" : -425.0,
                                    "interp" : "eioe",
                                    "duration" : 352800000
                                  },
                                  {
                                    "endTime" : 1176000000,
                                    "time" : 1058400000,
                                    "value" : -538.95879046578,
                                    "interp" : "linr",
                                    "duration" : 117600000
                                  },
                                  {
                                    "endTime" : 1293600000,
                                    "time" : 1176000000,
                                    "value" : -908.738998378257,
                                    "interp" : "linr",
                                    "duration" : 117600000
                                  },
                                  {
                                    "endTime" : 5174400000,
                                    "time" : 5056800000,
                                    "value" : -790.087339368801,
                                    "interp" : "linr",
                                    "duration" : 117600000
                                  },
                                  {
                                    "endTime" : 5292000000,
                                    "time" : 5174400000,
                                    "value" : -424.958292773993,
                                    "interp" : "linr",
                                    "duration" : 117600000
                                  },
                                  {
                                    "endTime" : 5644800000,
                                    "time" : 5468400000,
                                    "value" : -424.958292773993,
                                    "interp" : "eioe",
                                    "duration" : 176400000
                                  }
                                ]
                              },
                              "translation1" : {
                                "type" : "double",
                                "defaultValue" : -484.00110244751,
                                "keyframes" : [
                                  {
                                    "endTime" : 352800000,
                                    "time" : 0,
                                    "value" : -425.0,
                                    "interp" : "eioe",
                                    "duration" : 352800000
                                  },
                                  {
                                    "endTime" : 1176000000,
                                    "time" : 1058400000,
                                    "value" : -425.0,
                                    "interp" : "linr",
                                    "duration" : 117600000
                                  },
                                  {
                                    "endTime" : 1293600000,
                                    "time" : 1176000000,
                                    "value" : -425.0,
                                    "interp" : "linr",
                                    "duration" : 117600000
                                  },
                                  {
                                    "endTime" : 5174400000,
                                    "time" : 5056800000,
                                    "value" : -425.0,
                                    "interp" : "linr",
                                    "duration" : 117600000
                                  },
                                  {
                                    "endTime" : 5292000000,
                                    "time" : 5174400000,
                                    "value" : -425.0,
                                    "interp" : "linr",
                                    "duration" : 117600000
                                  },
                                  {
                                    "endTime" : 5644800000,
                                    "time" : 5468400000,
                                    "value" : -484.00110244751,
                                    "interp" : "eioe",
                                    "duration" : 176400000
                                  }
                                ]
                              },
                              "sourceCrop0" : 0.0,
                              "sourceCrop1" : 0.0,
                              "sourceCrop2" : 0.0,
                              "sourceCrop3" : 0.0,
                              "geometryCrop0" : 0.0,
                              "geometryCrop1" : 0.0,
                              "geometryCrop2" : 0.0,
                              "geometryCrop3" : 0.0
                            },
                            "effects" : [
                                {
                                  "effectName" : "MotionBlur",
                                  "bypassed" : false,
                                  "category" : "categoryVisualEffects",
                                  "parameters" : {
                                    "intensity" : {
                                      "type" : "double",
                                      "defaultValue" : 1.0,
                                      "uiHints" : {
                                        "userInterfaceType" : 0,
                                        "unitType" : 0
                                      },
                                      "keyframes" : [
                                        {
                                          "endTime" : 352800000,
                                          "time" : 0,
                                          "value" : 2.0,
                                          "interp" : "eioe",
                                          "duration" : 352800000
                                        },
                                        {
                                          "endTime" : 1176000000,
                                          "time" : 1058400000,
                                          "value" : 2.0,
                                          "interp" : "linr",
                                          "duration" : 117600000
                                        }
                                      ]
                                    }
                                  }
                                }
                            ],
                            "start" : 0,
                            "duration" : 5644800000,
                            "mediaStart" : 0,
                            "mediaDuration" : 5644800000,
                            "scalar" : 1,
                            "metadata" : {
                              "AppliedThemeId" : "",
                              "clipSpeedAttribute" : false,
                              "effectApplied" : "MotionBlur",
                              "lockAspectRatio" : false
                            },
                            "animationTracks" : {
                              "visual" : [
                                {
                                  "endTime" : 352800000,
                                  "duration" : 352800000,
                                  "range" : [ 0, 352800000],
                                  "interp" : "eioe"
                                },
                                {
                                  "endTime" : 1176000000,
                                  "duration" : 117600000,
                                  "range" : [ 1058400000, 117600000],
                                  "interp" : "linr"
                                },
                                {
                                  "endTime" : 1293600000,
                                  "duration" : 117600000,
                                  "range" : [ 1176000000, 117600000],
                                  "interp" : "linr"
                                },
                                {
                                  "endTime" : 5174400000,
                                  "duration" : 117600000,
                                  "range" : [ 5056800000, 117600000],
                                  "interp" : "linr"
                                },
                                {
                                  "endTime" : 5292000000,
                                  "duration" : 117600000,
                                  "range" : [ 5174400000, 117600000],
                                  "interp" : "linr"
                                },
                                {
                                  "endTime" : 5644800000,
                                  "duration" : 176400000,
                                  "range" : [ 5468400000, 176400000],
                                  "interp" : "eioe"
                                }
                              ]
                            }
                          }
                        ],
                          "ident" : "Bar",
                          "audioMuted" : false,
                          "videoHidden" : false,
                          "magnetic" : false,
                          "matte" : 0,
                          "solo" : false,
                          "metadata" : {
                            "IsLocked" : "False",
                            "WinTrackHeight" : "56",
                            "trackHeight" : "54"
                          }
                      },
                      {
                        "trackIndex" : 1,
                        "medias" : [
                          {
                            "id" : 218,
                            "_type" : "Group",
                            "parameters" : {
                              "translation0" : -657.442705539166,
                              "translation1" : -425.080053988446,
                              "sourceCrop0" : 0.0,
                              "sourceCrop1" : 0.0,
                              "sourceCrop2" : 0.0,
                              "sourceCrop3" : 0.0,
                              "geometryCrop0" : 0.0,
                              "geometryCrop1" : 0.0,
                              "geometryCrop2" : 0.0,
                              "geometryCrop3" : 0.0,
                              "volume" : 1.0
                            },
                            "tracks" : [
                              {
                                "trackIndex" : 0,
                                "medias" : [
                                  {
                                    "id" : 219,
                                    "_type" : "Callout",
                                    "def" : {
                                        "kind" : "remix",
                                        "shape" : "text",
                                        "style" : "bold",
                                        "enable-ligatures" : 1.0,
                                        "height" : 59.4263344957075,
                                        "line-spacing" : 0.0,
                                        "width" : 464.903936427043,
                                        "word-wrap" : 1.0,
                                        "horizontal-alignment" : "left",
                                        "resize-behavior" : "resizeText",
                                        "text" : "Houssem Dellai",
                                        "vertical-alignment" : "center",
                                        "font" : {
                                          "color-blue" : 1.0,
                                          "color-green" : 1.0,
                                          "color-red" : 1.0,
                                          "size" : 70.0,
                                          "tracking" : 0.0,
                                          "name" : "Source Sans Pro",
                                          "weight" : "Semi Bold"
                                        },
                                        "textAttributes" : {
                                          "type" : "textAttributeList",
                                          "keyframes" : [
                                            {
                                              "endTime" : 0,
                                              "time" : 0,
                                              "value" : [{"name":"fontName","rangeEnd":14,"rangeStart":0,"value":"Source Sans Pro","valueType":"string"},{"name":"strikethrough","rangeEnd":14,"rangeStart":0,"value":0,"valueType":"int"},{"name":"kerning","rangeEnd":14,"rangeStart":0,"value":0.0,"valueType":"double"},{"name":"underline","rangeEnd":14,"rangeStart":0,"value":0,"valueType":"int"},{"name":"fontItalic","rangeEnd":14,"rangeStart":0,"value":0,"valueType":"int"},{"name":"fontWeight","rangeEnd":14,"rangeStart":0,"value":600,"valueType":"int"},{"name":"fontSize","rangeEnd":14,"rangeStart":0,"value":40.0,"valueType":"double"},{"name":"fgColor","rangeEnd":14,"rangeStart":0,"value":"(18,161,12,255)","valueType":"color"}],
                                              "duration" : 0
                                            }
                                          ]
                                        }
                                    },
                                    "attributes" : {
                                      "ident" : "",
                                      "autoRotateText" : true
                                    },
                                    "parameters" : {
                                      "translation0" : -0.0240158932396071,
                                      "translation1" : -29.6331132594084,
                                      "sourceCrop0" : 0.0,
                                      "sourceCrop1" : 0.0,
                                      "sourceCrop2" : 0.0,
                                      "sourceCrop3" : 0.0,
                                      "geometryCrop0" : 0.0,
                                      "geometryCrop1" : 0.0,
                                      "geometryCrop2" : 0.0,
                                      "geometryCrop3" : 0.0
                                    },
                                    "effects" : [

                                    ],
                                    "start" : 0,
                                    "duration" : 5292000000,
                                    "mediaStart" : 0,
                                    "mediaDuration" : 5292000000,
                                    "scalar" : 1,
                                    "metadata" : {
                                      "AppliedThemeId" : "",
                                      "clipSpeedAttribute" : false,
                                      "effectApplied" : "none",
                                      "lockAspectRatio" : true
                                    },
                                    "animationTracks" : {

                                    }
                                  }
                                ],
                                  "ident" : "Bottom Text",
                                  "audioMuted" : false,
                                  "videoHidden" : false,
                                  "magnetic" : false,
                                  "matte" : 0,
                                  "solo" : false,
                                  "metadata" : {
                                    "IsLocked" : "False",
                                    "WinTrackHeight" : "56",
                                    "trackHeight" : "54"
                                  }
                              },
                              {
                                "trackIndex" : 1,
                                "medias" : [
                                  {
                                    "id" : 220,
                                    "_type" : "Callout",
                                    "def" : {
                                        "kind" : "remix",
                                        "shape" : "text",
                                        "style" : "bold",
                                        "enable-ligatures" : 1.0,
                                        "height" : 81.8960863530912,
                                        "line-spacing" : 0.0,
                                        "width" : 464.837379291852,
                                        "word-wrap" : 1.0,
                                        "horizontal-alignment" : "left",
                                        "resize-behavior" : "resizeText",
                                        "text" : "Code Spell Checker",
                                        "vertical-alignment" : "center",
                                        "font" : {
                                          "color-blue" : 1.0,
                                          "color-green" : 1.0,
                                          "color-red" : 1.0,
                                          "size" : 96.0,
                                          "tracking" : 0.0,
                                          "name" : "Source Sans Pro",
                                          "weight" : "Semi Bold"
                                        },
                                        "textAttributes" : {
                                          "type" : "textAttributeList",
                                          "keyframes" : [
                                            {
                                              "endTime" : 0,
                                              "time" : 0,
                                              "value" : [{"name":"strikethrough","rangeEnd":18,"rangeStart":0,"value":0,"valueType":"int"},{"name":"kerning","rangeEnd":18,"rangeStart":0,"value":0.0,"valueType":"double"},{"name":"fontWeight","rangeEnd":18,"rangeStart":0,"value":600,"valueType":"int"},{"name":"fontName","rangeEnd":18,"rangeStart":0,"value":"Source Sans Pro","valueType":"string"},{"name":"underline","rangeEnd":18,"rangeStart":0,"value":0,"valueType":"int"},{"name":"fontSize","rangeEnd":18,"rangeStart":0,"value":55.0,"valueType":"double"},{"name":"fontItalic","rangeEnd":18,"rangeStart":0,"value":0,"valueType":"int"},{"name":"fgColor","rangeEnd":18,"rangeStart":0,"value":"(181,0,159,255)","valueType":"color"}],
                                              "duration" : 0
                                            }
                                          ]
                                        }
                                    },
                                    "attributes" : {
                                      "ident" : "",
                                      "autoRotateText" : true
                                    },
                                    "parameters" : {
                                      "translation0" : 0.0240158932396071,
                                      "translation1" : 18.6331132594083,
                                      "sourceCrop0" : 0.0,
                                      "sourceCrop1" : 0.0,
                                      "sourceCrop2" : 0.0,
                                      "sourceCrop3" : 0.0,
                                      "geometryCrop0" : 0.0,
                                      "geometryCrop1" : 0.0,
                                      "geometryCrop2" : 0.0,
                                      "geometryCrop3" : 0.0
                                    },
                                    "effects" : [

                                    ],
                                    "start" : 0,
                                    "duration" : 5292000000,
                                    "mediaStart" : 0,
                                    "mediaDuration" : 5292000000,
                                    "scalar" : 1,
                                    "metadata" : {
                                      "AppliedThemeId" : "",
                                      "clipSpeedAttribute" : false,
                                      "effectApplied" : "none",
                                      "lockAspectRatio" : true
                                    },
                                    "animationTracks" : {

                                    }
                                  }
                                ],
                                  "ident" : "Top Text",
                                  "audioMuted" : false,
                                  "videoHidden" : false,
                                  "magnetic" : false,
                                  "matte" : 0,
                                  "solo" : false,
                                  "metadata" : {
                                    "IsLocked" : "False",
                                    "WinTrackHeight" : "56",
                                    "trackHeight" : "54"
                                  }
                              }
                            ],
                            "attributes" : {
                              "ident" : "Text",
                              "widthAttr" : 465.0,
                              "heightAttr" : 119.0,
                              "gain" : 1.0,
                              "mixToMono" : false,
                              "assetProperties" : [
                                {
                                  "type" : 0,
                                  "name" : "Text",
                                  "objects" : [ 220 ],
                                  "themeMappings" :  {
                                    "font-color" : "foreground-1"
                                  }
                                },
                                {
                                  "type" : 0,
                                  "name" : "Text",
                                  "objects" : [ 219 ],
                                  "themeMappings" :  {
                                    "font-color" : "foreground-1"
                                  }
                                }
                              ]
                            },
                            "effects" : [

                            ],
                            "start" : 0,
                            "duration" : 5292000000,
                            "mediaStart" : 0.0,
                            "mediaDuration" : 5292000000.0,
                            "scalar" : 1,
                            "metadata" : {
                              "clipSpeedAttribute" : false,
                              "effectApplied" : "none",
                              "isOpen" : false,
                              "lockAspectRatio" : true
                            },
                            "animationTracks" : {

                            }
                          }
                        ],
                          "ident" : "Text",
                          "audioMuted" : false,
                          "videoHidden" : false,
                          "magnetic" : false,
                          "matte" : 0,
                          "solo" : false,
                          "metadata" : {
                            "IsLocked" : "False",
                            "WinTrackHeight" : "56",
                            "trackHeight" : "54"
                          }
                      },
                      {
                        "trackIndex" : 2,
                        "medias" : [
                          {
                            "id" : 221,
                            "_type" : "Callout",
                            "def" : {
                                "kind" : "remix",
                                "shape" : "shape-rectangle",
                                "style" : "bold",
                                "fill-color-blue" : {
                                  "type" : "double",
                                  "defaultValue" : 0.0,
                                  "keyframes" : [
                                    {
                                      "endTime" : 1176000000,
                                      "time" : 1058400000,
                                      "value" : 0.0,
                                      "interp" : "linr",
                                      "duration" : 117600000
                                    },
                                    {
                                      "endTime" : 1293600000,
                                      "time" : 1176000000,
                                      "value" : 0.0,
                                      "interp" : "linr",
                                      "duration" : 117600000
                                    },
                                    {
                                      "endTime" : 5174400000,
                                      "time" : 5056800000,
                                      "value" : 0.0,
                                      "interp" : "linr",
                                      "duration" : 117600000
                                    },
                                    {
                                      "endTime" : 5292000000,
                                      "time" : 5174400000,
                                      "value" : 0.0,
                                      "interp" : "linr",
                                      "duration" : 117600000
                                    }
                                  ]
                                },
                                "fill-color-green" : {
                                  "type" : "double",
                                  "defaultValue" : 0.611764705882353,
                                  "keyframes" : [
                                    {
                                      "endTime" : 1176000000,
                                      "time" : 1058400000,
                                      "value" : 0.611764705882353,
                                      "interp" : "linr",
                                      "duration" : 117600000
                                    },
                                    {
                                      "endTime" : 1293600000,
                                      "time" : 1176000000,
                                      "value" : 0.611764705882353,
                                      "interp" : "linr",
                                      "duration" : 117600000
                                    },
                                    {
                                      "endTime" : 5174400000,
                                      "time" : 5056800000,
                                      "value" : 0.611764705882353,
                                      "interp" : "linr",
                                      "duration" : 117600000
                                    },
                                    {
                                      "endTime" : 5292000000,
                                      "time" : 5174400000,
                                      "value" : 0.611764705882353,
                                      "interp" : "linr",
                                      "duration" : 117600000
                                    }
                                  ]
                                },
                                "fill-color-opacity" : 1.0,
                                "fill-color-red" : {
                                  "type" : "double",
                                  "defaultValue" : 0.752941176470588,
                                  "keyframes" : [
                                    {
                                      "endTime" : 1176000000,
                                      "time" : 1058400000,
                                      "value" : 0.752941176470588,
                                      "interp" : "linr",
                                      "duration" : 117600000
                                    },
                                    {
                                      "endTime" : 1293600000,
                                      "time" : 1176000000,
                                      "value" : 0.752941176470588,
                                      "interp" : "linr",
                                      "duration" : 117600000
                                    },
                                    {
                                      "endTime" : 5174400000,
                                      "time" : 5056800000,
                                      "value" : 0.752941176470588,
                                      "interp" : "linr",
                                      "duration" : 117600000
                                    },
                                    {
                                      "endTime" : 5292000000,
                                      "time" : 5174400000,
                                      "value" : 0.752941176470588,
                                      "interp" : "linr",
                                      "duration" : 117600000
                                    }
                                  ]
                                },
                                "height" : 119.501106262207,
                                "stroke-color-blue" : 1.0,
                                "stroke-color-green" : 1.0,
                                "stroke-color-opacity" : 1.0,
                                "stroke-color-red" : 1.0,
                                "stroke-width" : 0.0,
                                "width" : {
                                  "type" : "double",
                                  "defaultValue" : 9.50109785371205,
                                  "keyframes" : [
                                    {
                                      "endTime" : 1176000000,
                                      "time" : 1058400000,
                                      "value" : 237.418681132256,
                                      "interp" : "linr",
                                      "duration" : 117600000
                                    },
                                    {
                                      "endTime" : 1293600000,
                                      "time" : 1176000000,
                                      "value" : 493.449780081618,
                                      "interp" : "linr",
                                      "duration" : 117600000
                                    },
                                    {
                                      "endTime" : 5174400000,
                                      "time" : 5056800000,
                                      "value" : 246.724888996791,
                                      "interp" : "linr",
                                      "duration" : 117600000
                                    },
                                    {
                                      "endTime" : 5292000000,
                                      "time" : 5174400000,
                                      "value" : 9.9165618376752,
                                      "interp" : "linr",
                                      "duration" : 117600000
                                    }
                                  ]
                                },
                                "fill-style" : "solid",
                                "stroke-style" : "solid"
                            },
                            "attributes" : {
                              "ident" : "",
                              "autoRotateText" : true
                            },
                            "parameters" : {
                              "translation0" : {
                                "type" : "double",
                                "defaultValue" : -424.750557205467,
                                "keyframes" : [
                                  {
                                    "endTime" : 1176000000,
                                    "time" : 1058400000,
                                    "value" : -538.70934884474,
                                    "interp" : "linr",
                                    "duration" : 117600000
                                  },
                                  {
                                    "endTime" : 1293600000,
                                    "time" : 1176000000,
                                    "value" : -666.724895929006,
                                    "interp" : "linr",
                                    "duration" : 117600000
                                  },
                                  {
                                    "endTime" : 5174400000,
                                    "time" : 5056800000,
                                    "value" : -543.362456394198,
                                    "interp" : "linr",
                                    "duration" : 117600000
                                  },
                                  {
                                    "endTime" : 5292000000,
                                    "time" : 5174400000,
                                    "value" : -424.958295296434,
                                    "interp" : "linr",
                                    "duration" : 117600000
                                  }
                                ]
                              },
                              "translation1" : {
                                "type" : "double",
                                "defaultValue" : -425.249448102868,
                                "keyframes" : [
                                  {
                                    "endTime" : 1176000000,
                                    "time" : 1058400000,
                                    "value" : -425.249448102868,
                                    "interp" : "linr",
                                    "duration" : 117600000
                                  },
                                  {
                                    "endTime" : 1293600000,
                                    "time" : 1176000000,
                                    "value" : -425.249448102868,
                                    "interp" : "linr",
                                    "duration" : 117600000
                                  },
                                  {
                                    "endTime" : 5174400000,
                                    "time" : 5056800000,
                                    "value" : -425.249448102868,
                                    "interp" : "linr",
                                    "duration" : 117600000
                                  },
                                  {
                                    "endTime" : 5292000000,
                                    "time" : 5174400000,
                                    "value" : -425.249448102868,
                                    "interp" : "linr",
                                    "duration" : 117600000
                                  }
                                ]
                              },
                              "sourceCrop0" : 0.0,
                              "sourceCrop1" : 0.0,
                              "sourceCrop2" : 0.0,
                              "sourceCrop3" : 0.0,
                              "geometryCrop0" : 0.0,
                              "geometryCrop1" : 0.0,
                              "geometryCrop2" : 0.0,
                              "geometryCrop3" : 0.0
                            },
                            "effects" : [
                                {
                                  "effectName" : "MediaMatte",
                                  "bypassed" : false,
                                  "category" : "categoryVisualEffects",
                                  "parameters" : {
                                    "matteMode" : 1,
                                    "intensity" : 1.0,
                                    "trackDepth" : 10002
                                  }
                                },
                                {
                                  "effectName" : "MotionBlur",
                                  "bypassed" : false,
                                  "category" : "categoryVisualEffects",
                                  "parameters" : {
                                    "intensity" : 1.0
                                  }
                                }
                            ],
                            "start" : 0,
                            "duration" : 5292000000,
                            "mediaStart" : 0,
                            "mediaDuration" : 5292000000,
                            "scalar" : 1,
                            "metadata" : {
                              "AppliedThemeId" : "",
                              "clipSpeedAttribute" : false,
                              "effectApplied" : "MotionBlur",
                              "lockAspectRatio" : true
                            },
                            "animationTracks" : {
                              "visual" : [
                                {
                                  "endTime" : 1176000000,
                                  "duration" : 117600000,
                                  "range" : [ 1058400000, 117600000],
                                  "interp" : "linr"
                                },
                                {
                                  "endTime" : 1293600000,
                                  "duration" : 117600000,
                                  "range" : [ 1176000000, 117600000],
                                  "interp" : "linr"
                                },
                                {
                                  "endTime" : 5174400000,
                                  "duration" : 117600000,
                                  "range" : [ 5056800000, 117600000],
                                  "interp" : "linr"
                                },
                                {
                                  "endTime" : 5292000000,
                                  "duration" : 117600000,
                                  "range" : [ 5174400000, 117600000],
                                  "interp" : "linr"
                                }
                              ]
                            }
                          }
                        ],
                          "ident" : "Matte",
                          "audioMuted" : false,
                          "videoHidden" : false,
                          "magnetic" : false,
                          "matte" : 0,
                          "solo" : false,
                          "metadata" : {
                            "IsLocked" : "False",
                            "WinTrackHeight" : "56",
                            "trackHeight" : "54"
                          }
                      }
                    ],
                    "attributes" : {
                      "ident" : "Corner Title Wipe",
                      "widthAttr" : 1920.0,
                      "heightAttr" : 1080.0,
                      "gain" : 1.0,
                      "mixToMono" : false,
                      "assetProperties" : [
                        {
                          "type" : 0,
                          "name" : "Top Text",
                          "objects" : [ 220 ],
                          "themeMappings" :  {
                            "font-color" : "foreground-1"
                          }
                        },
                        {
                          "type" : 0,
                          "name" : "Bottom Text",
                          "objects" : [ 219 ],
                          "themeMappings" :  {
                            "font-color" : "foreground-1"
                          }
                        },
                        {
                          "type" : 1,
                          "name" : "Line Wipe",
                          "objects" : [ 217, 221 ],
                          "themeMappings" :  {
                            "fill" : "background-1"
                          }
                        }
                      ]
                    },
                    "effects" : [

                    ],
                    "start" : 611520000,
                    "duration" : 5644800000,
                    "mediaStart" : 0.0,
                    "mediaDuration" : 5644800000.0,
                    "scalar" : 1,
                    "metadata" : {
                      "AppliedThemeId" : "",
                      "clipSpeedAttribute" : false,
                      "default-anchor0" : 0.0,
                      "default-anchor1" : 0.0,
                      "default-anchor2" : 0.0,
                      "default-geometryCrop1" : 0.0,
                      "default-geometryCrop2" : 0.0,
                      "default-geometryCrop3" : 0.0,
                      "default-height" : 1080.0,
                      "default-rotation0" : 0.0,
                      "default-rotation1" : 0.0,
                      "default-rotation2" : 0.0,
                      "default-scale0" : 1.0,
                      "default-scale1" : 1.0,
                      "default-scale2" : 1.0,
                      "default-shear0" : 0.0,
                      "default-shear1" : 0.0,
                      "default-shear2" : 0.0,
                      "default-translation0" : 0.0,
                      "default-translation1" : 0.0,
                      "default-translation2" : 0.0,
                      "default-width" : 1920.0,
                      "effectApplied" : "none",
                      "isOpen" : false
                    },
                    "animationTracks" : {

                    }
                  }
                ]
              },
              {
                "trackIndex" : 7,
                "medias" : [
                  {
                    "id" : 222,
                    "_type" : "UnifiedMedia",
                    "video" : 
                        {
                          "id" : 223,
                          "_type" : "VMFile",
                          "src" : 11,
                          "trackNumber" : 0,
                          "attributes" : {
                            "ident" : "Code Spell Checker - video with silence_ALTERED"
                          },
                          "parameters" : {
                            "sourceCrop0" : {
                              "type" : "double",
                              "defaultValue" : 0.0,
                              "interp" : "eioe"
                            },
                            "sourceCrop1" : {
                              "type" : "double",
                              "defaultValue" : 0.0,
                              "interp" : "eioe"
                            },
                            "sourceCrop2" : {
                              "type" : "double",
                              "defaultValue" : 0.0,
                              "interp" : "eioe"
                            },
                            "sourceCrop3" : {
                              "type" : "double",
                              "defaultValue" : 0.0,
                              "interp" : "eioe"
                            },
                            "geometryCrop0" : {
                              "type" : "double",
                              "defaultValue" : 0.0,
                              "interp" : "eioe"
                            },
                            "geometryCrop1" : {
                              "type" : "double",
                              "defaultValue" : 0.0,
                              "interp" : "eioe"
                            },
                            "geometryCrop2" : {
                              "type" : "double",
                              "defaultValue" : 0.0,
                              "interp" : "eioe"
                            },
                            "geometryCrop3" : {
                              "type" : "double",
                              "defaultValue" : 0.0,
                              "interp" : "eioe"
                            }
                          },
                          "effects" : [

                          ],
                          "start" : 13147680000,
                          "duration" : 447162240000,
                          "mediaStart" : 0,
                          "mediaDuration" : 447162240000,
                          "scalar" : 1,
                          "animationTracks" : {

                          }
                        },
                    "audio" : 
                        {
                          "id" : 224,
                          "_type" : "AMFile",
                          "src" : 11,
                          "trackNumber" : 1,
                          "attributes" : {
                            "ident" : "",
                            "gain" : 1.0,
                            "mixToMono" : false,
                            "loudnessNormalization" : true,
                            "sourceFileOffset" : 0
                          },
                            "channelNumber" : "0,1",
                          "effects" : [

                          ],
                          "start" : 13147680000,
                          "duration" : 447162240000,
                          "mediaStart" : 0,
                          "mediaDuration" : 447162240000,
                          "scalar" : 1,
                          "animationTracks" : {

                          }
                        }
,
                    "start" : 13147680000,
                    "duration" : 447162240000,
                    "mediaStart" : 0,
                    "mediaDuration" : 447162240000,
                    "scalar" : 1,
                    "metadata" : {
                      "clipSpeedAttribute" : false
                    }
                  }
                ]
              }            ]
          }
        }
      ]
    },
    "trackAttributes" : [
      {
        "ident" : "",
        "audioMuted" : true,
        "videoHidden" : true,
        "magnetic" : false,
        "matte" : 0,
        "solo" : false,
        "metadata" : {
          "IsLocked" : "False",
          "WinTrackHeight" : "56"
        }
      },
      {
        "ident" : "",
        "audioMuted" : true,
        "videoHidden" : true,
        "magnetic" : false,
        "matte" : 0,
        "solo" : false,
        "metadata" : {
          "IsLocked" : "False",
          "WinTrackHeight" : "56"
        }
      },
      {
        "ident" : "",
        "audioMuted" : false,
        "videoHidden" : false,
        "magnetic" : false,
        "matte" : 0,
        "solo" : false,
        "metadata" : {
          "IsLocked" : "False",
          "WinTrackHeight" : "56"
        }
      },
      {
        "ident" : "",
        "audioMuted" : false,
        "videoHidden" : false,
        "magnetic" : false,
        "matte" : 0,
        "solo" : false,
        "metadata" : {
          "IsLocked" : "False",
          "WinTrackHeight" : "56"
        }
      },
      {
        "ident" : "",
        "audioMuted" : false,
        "videoHidden" : false,
        "magnetic" : false,
        "matte" : 0,
        "solo" : false,
        "metadata" : {
          "IsLocked" : "False",
          "WinTrackHeight" : "56"
        }
      },
      {
        "ident" : "",
        "audioMuted" : false,
        "videoHidden" : false,
        "magnetic" : false,
        "matte" : 0,
        "solo" : false,
        "metadata" : {
          "IsLocked" : "False",
          "WinTrackHeight" : "56"
        }
      },
      {
        "ident" : "",
        "audioMuted" : false,
        "videoHidden" : false,
        "magnetic" : false,
        "matte" : 0,
        "solo" : false,
        "metadata" : {
          "IsLocked" : "False",
          "WinTrackHeight" : "56"
        }
      },
      {
        "ident" : "",
        "audioMuted" : false,
        "videoHidden" : false,
        "magnetic" : false,
        "matte" : 0,
        "solo" : false,
        "metadata" : {
          "IsLocked" : "False",
          "WinTrackHeight" : "56"
        }
      }
    ],
    "captionAttributes" : {
      "enabled" : true,
      "fontName" : "Arial",
      "fontSize" : 128,
      "backgroundColor" : [ 0, 0, 0, 191],
      "foregroundColor" : [ 255, 255, 255, 255],
      "lang" : "en",
      "alignment" : 0,
      "defaultFontSize" : true,
      "opacity" : 0.5,
      "backgroundEnabled" : true,
      "backgroundOnlyAroundText" : true
    },
    "gain" : 1.0,
    "legacyAttenuateAudioMix" : false,
    "backgroundColor" : [ 242, 242, 242, 255]
  },
  "metadata" : {
    "AutoSaveFile" : "C:\\Users\\hodellai\\AppData\\Local\\TechSmith\\Camtasia Studio\\22.0\\Auto-Saves\\Code Spell Checkera2ea6b.autosave.tscproj",
    "CanvasZoom" : 34,
    "Date" : "2023-08-28 04:09:51 PM",
    "IsAutoSave" : false,
    "IsStandalone" : true,
    "Language" : "ENU",
    "ProfileName" : "",
    "ProjectDimensionsChanged" : "1",
    "ProjectThumbnail" : "iVBORw0KGgoAAAANSUhEUgAAAoAAAAFoCAYAAADHMkpRAAAAAXNSR0IArs4c6QAAAARnQU1BAACx\r\njwv8YQUAAAAJcEhZcwAAEnQAABJ0Ad5mH3gAAP+lSURBVHhe7J0FeFVH+v+3uGuI3uTemytxd3d3\r\nIYSEGE5CEhxCcEIgSHCXlhYKdW9pKdUtu3V32678Vrpbd/v+33dOTnITLjTt0i7lP3mez3Ny54yf\r\nOTPf0fM7+oNEIpFIJBKJ5P8rrBpKJBKJRCKRSC5frBpKJBKJRCKRSC5frBpKJBKJRCKRSC5frBpK\r\nJBKJRCKRSC5frBpKJBKJRCKRSC5frBpKJBKJRCKRSC5frBpKJBKJRCKRSC5frBpKJBKJRCKRSC5f\r\nrBpKJBKJRCKRSC5frBpKJBKJRCKRSC5frBpKJBKJRCKRSC5frBpKJBKJRCKRSC5frBpKJBKJRCKR\r\nSC5frBpKJBKJRCKRSC5frBpKJBKJRCKRSC5frBpKJBKJRCKRSC5frBpKJBKJRCKRSC5frBpKJBKJ\r\nRCKRSC5frBpKJBKJRCKRSC5frBpKJBKJRCKRSC5frBpKJBKJRCKRSC5frBpKJBKJRCKRSC5frBpK\r\nJBKJRCKRSC5frBpKJBKJRCKRSC5frBpKJBKJRCKRSC5frBpKJBKJRCKRSC5frBpKJBKJRCKRSC5f\r\nrBpKJBKJRCKRSC5frBpKJBKJRCKRSC5frBpKJBKJRCKRSC5frBpKJBKJRCKRSC5frBpKJBKJRCKR\r\nSC5frBpKJBKJRCKRSC5frBpKJBKJRCKRSC5frBpKJBKJRCKRSC5frBpKJBKJRCKRSC5frBpeglzR\r\nQXfzPn364ndXnGs+xicMbg3rYK5bgxF60zn3f01sfMPhWb8W7rVrMULnbtWOJQPH2kKTWoLhejf6\r\nfQWusJK+/59xyKiAbsY6uJQ2ot/AQcJshEcwXKauhsvkFRjqojzvPpR3o/2iYROdhT79h3bz43Ki\r\n76BhsInKwki3QPH7ih73fy1sEkvgOGkZ7HNnou+AYf+zePSk/0hbjIrMxWAnt4sXpyt6adaJtXe4\r\nX7ffHLd+9K737dOnRzx//vt/xRX9iX7Cv1/jeQz1TMLIrMUYllGPviNsrNqRSCSXDFYNL1kGjBgN\r\nbXYF/NfsQ8iV9yLqxO8RdvVDCNxxA9zqVmK4wUfY01XUI/mvQPKfAIeU3HP8+TVxLW9E2rtA6lsU\r\nl6QLx6VP//4I238Xkl8B4u97E8OczcL8igs2Lv9/4b/zFGKeBSJvewsDho8UZs7FMxH5NBD1xLew\r\njc0UZnYxmQh96H2Env0SpulruvlxOaFvbEfQg58j5Pa/Y5RflFU7vwZurXfD5/7v4HPVaxgwbKxV\r\nO782ffoNhmHFDTDf8inc9j2LQXZaq/Z+DiPNIXCqWAuHilaMCs22aseS0V5RcJq4CvblazDSPVaY\r\nsSgb6OKGMblzYN9wFRybb4bTirtgu+gkbKZvwciAtHP8OR+KyLsCQ9xjMHr8UjjMOQa7pbfCYelt\r\ncJx7HOPKWjDcJ/EX7VDal6yE48H/YNzOd9FPo9TFEonkksWq4SWJNqcMyadeRvqbQMbbQCaJqgwS\r\neFlEOv2fToLPd8VOYVdXNgvJJLhSXvsBdkl55/j1a6KZOAspr5IYffkb2CZcuKHoP3wE4u57A/Gv\r\nAUkvfoUxvuEd9+QooIrPtjsQ+cR3CLnxZRIaI4SZpmg6wkn8hf/hS9jEZAgzfUkDokgURjwF+LVe\r\n282Py4W+v+sD7/Y74PfId/B/9DvYJZdZtWedrjI10MYeQ+0cLe79VK6Acc1t8LnnM3gfeg79hl8a\r\nArDfkFHw3PcUPG77GO43/R1D3cKs2vupsNgaZg6G2/X/gOnWz6HfeD+u6Nffql0VQ9P1MNz8BVyv\r\n/ScGmzge/WA/cTl0h9+A9sSHMF6nYLjuY+iu+wi6Gz+GftVNVmc4rDFU4w7HeVfC+fBf4HjNh3A+\r\n9jE0134MpxMKzic+gcvmP6LvwCFW3V8M7Ccsg+bg3+Gw7XX0d/K2akcikVwyWDW8xLgCHnPWIP2t\r\nr8UoWjqJv5TH/obwQ6fg03oIgW1HEX3sDLJf+AwBaw4IN7qyWqSySHwdcEjI6eHfr4szCcAkEoCJ\r\nJADtehEXh8R8hO26E8aKRvyuXx+rdv5/xnfHHSTsvkfILa9g0LCOEUASgFFPfouoP34Bm44RwAEj\r\nx8F9/mb4rr0Kw1x5evQKEkxK423p32+dUR4kRNZcBe201eg3aJRVO+djmJ0WHquuhc+tb8J58gqr\r\ndnqLW8tt8L/3c/hc+SIJwEtn+m9MWCbcm4/DNq8Wv+s70Kqdn8MVV/SFvuV2mG74AG7H/oKhRmUK\r\n3hoD7Y0wHnkb+hs+hMvq20UZHDdxMUw3/gcuJ/8Jw5XvQjvvGtiMb8LowvlwrG6DfsNDZPdG/K5P\r\n96ni7ij1A4/safc8R6Lvfeiv+TecD74Ju+U3w3b6NthM2QKHuVdCu/0ZOG99En0G/XLLIRwmrIH2\r\nyAfQ7H4LAzRSAEoklzhWDS8pTNXzkPPOD0h58wekvfg53BpWYPA4l24NeR9itNkL9hGp4re+vFaM\r\nCmYJAfjj0zO/JD9VAKpw+q7oS//L6d9u+O28E9HP/ICwW1/tEoDFMxBDojDmia8wrkMAqnSWk8t0\r\nLaXle6DQ+3SOdA9D2On/IOThL+A0+b+bJndvvR2B938Bn6teQr9LZAqYp0S7/+5+/7/FLncuvG7+\r\nGOZbPoR9yQKrdhjb1Ckw3vgRDDe/j7FZkzFwhA3Mh1+F4bp/w3ToNYzwjRd1GKPGsd+gERhuDqY6\r\n4Pwji2x/sLMnDPtehO74v6A//g84zz2KgTpfsfaP7Yh6hOg/0gajQtPRd4CybvaXwKm0BdorP4Lz\r\nnrcxUApAieRSx6rhJcMInRnpz/wTWW8Cma9+Defcis57V/yuL/r+rp+gZ0Wvn1SHjPfIzRuAfWKX\r\nABwwcgwG2zhQJfjjvWCejh08zgEDRoyxer8n/QcPw6Cx4zDIxg59OjYnMM5ls5BCQjTpte8pLudf\r\nAygq/h4iRVmvc75RwCswcLQNBo+1xRUXHCWghqLvIAweYys2mFzBG2c6713If+v0GzoMQyiNgyjs\r\nvh2bKy7UsPYdMITyxV6MyJ17n8O/otvz43V9g8n//h3TuwILERyw527EvQBE3Pk6BnWsAXQZPxOx\r\nz/+A2Ke/gW2c+ry70qXkbQcWZmq8+wwYTPloTw3z6M773emKX9/BIzFoDJWL4b0rFxdCTXeffgPp\r\n2dhTmVNG8CyFANOf4sXPrm9/pVxZxt3SHvun0GXWZ+AQKif07EfZod/AwZ3mzHCjH0Lu/QeCHvkK\r\nmsmrut2zfCZ9+vYT78FATvewUSJ+lnYZj423IfChL+B3zStWp4DVNF1xRc9NDlSm6Fn3H0PxGzq8\r\n00yseyV6rn/tR3k0gOz2Hz66M46Wce1O9zKghKu6UVHd9iGRZIcBo+n9vYDosmSwxh1ex9+D+baP\r\nYdx4N/qe5z00LDsJ0y0fwO2at6hO0WOMOQjeN/ydhOMn0C1Slif0zJMuOH7W09eX6gdt0zEYbvgP\r\nzCf+AacZ2yi/Lhz3rnAs/CQ3LNr7jrKn6xiyY1lHWKcPlcWBI8bRc+D3QMlnp9JV0B79N5z3vYmB\r\nJEy77HeFxRuEBrC7buFYT59EIvlFsWp4yRC4ZCMy/wJk/wnwW7XFqh1r6CfNFgKQ1wqOi0nFcK0Z\r\nEbuvR+rZ95D6+D8Qe+cLMFbUk91zxc8oT18Eb7wSSQ++itQn/oGkR99G6IFbYBMaL+73rKjHBoYh\r\nYNPViD31MhIf+wuSz5L/d78Iz7qV4r62fCbSeNqaRKx9Un43t/rSGYg+egaxx87Aa+YSYeY1fy0i\r\nrr4fQRsPo99gRWCZK6Yjkswi9t6OQbZajAuKQfiRu5Hw8DtIfPhPiDz+MBzilLVvlvTp0x+uE2Yg\r\n5uRZJD/0ZyQ8+hdEH7sf4yISYBuRhpArH0Lk4dOwIf96uu2JjX8MAtquRszdryDhkf9DzEPvIfK2\r\np2GqmCPuDxrniKCdNyH0yBm4ltWRWR8YaxYh5uZnkHDmPcTe+w4Cdt+M0YGWGxW68n9caDKCtl6H\r\n2HteQ9yDf0XEXa/Dt/UqjDB1H0kI3EsC8CUSgHdbCMASSuMLPyDm2a9hF6uI7FFe/gjYexcCDp6G\r\nQ/J4YdZv0BD4rtqPoP33wWPuRmqwB8IwoRbhJx5H9H1/Qsyd78C75SiGOpy7WYDz3WP+ZoTd9AKi\r\nTlHa73wD3msOYZC9DsapKxC09wz8Ww4LYdLTrSVus1sQuO8+eK/i5zsKTrlTEXzVWYTf8TYCb3kD\r\n5kU7MWikIqCGG33h03oSQbe8jsDb30HwlU/CJWeGuKeWQ31xA/x33wu/jddjqL1WCC1mqM4D5gXb\r\nEHjNEwi97U2E3krujz8F4/TlGK53h2/b9QjadRohpz9A4IOfwf/4C/BquwU+226FbVi68HuEORjG\r\nuo3wP/B7BN34JvxvfQO+J5+Hx+qTGN5jPZ3XptsRSELS/8Sr6NcRf4aFgmHednhsuhdeW+7A2OCu\r\nsjY6MAEea06Qm5fgfeO78L36OZiWHMIwvZdip48ybd+XBLJdegU8KH6+x16E/w3vwu/4q/DaehdG\r\nuQd1+mcN/ZSVJE7vgmH+AbFjmvPNJbcanmRmWnUtBozVYqRXDNzW3QK/Y6/B99rX4NZ+rxgtY/fn\r\nF2bKPdc1N8Hrrs/hc/3fMMK1I94WDHbQwfvaN+F25wfQrVDE3kh3f3jf/C8SgCQctzxAwr67MO8t\r\nw9yj4H7ybzDe8D5c2x+iTmjvlgCoorfvwBEYlz4V2hW3wLDrcej3Pw/97ifo920YkzDJQgizfdXN\r\nUNgVzIN+w/3Q73kK2j0vQLPoehLDXnAsbYL+xL+hP/wWBrgoAlDNv4E2ethPWgXnDY/AZddL0G1/\r\nFs5NN2BkSJa4L5FIfnWsGl4S9B0wEEn3vID0PwPpL32MkWYf0RioDdz5YLeuJO5YOKa++S3MjSuR\r\n9Ye3UfhXnhL+BtkkDHl6OIf8daua3S1Mp8wCpD/7T2T9jUcPv0fKH+j/l79ALtnNeOkTaLKKu9k3\r\nTWtG2iufiTiy4Mx6/VtkvPot8v4OJNz3krCjK5sp1i2msgBM7tqQ4hSbgsyXPkMWxTPp/lcx1MVD\r\nmIdf8wDSKPz4R/7Uucs1eM0uZJJZyvOfwFTXgpwXPkUm+Zfy0ldIfx1IfoN48WOMC0/o9J/FX1DL\r\nATEKmkKkvvk9kl74HCksRp/5EMG7b0Lya2ROv53SSzvdWcMldxKSnvlUbKxJe/kbxJEAjD37AdJJ\r\nmEceulvYGeHihuTnPkUS5a1X2zXwXXtI7H7mzSzJL36NJIpnIoWX/PjfSYAmdfitNCr66nrhNpHi\r\nGffUZ4g681f6/TniyU3cg3/CGO+QDvtdAjDy7jcwcIQqAGci5sUOARinCEC7yGQkvvS98ENbPVeY\r\nDRgyDAl3viym5IOPPgrPpbuQTv/HP/EFYp75GlHPfidGF8OveRQDhnWN8A3XGBB94/OIfx4kNIHo\r\nZ75CxBOfIZb9ufYphJDIiibzkNPviNEp1Z01/PedQjTFP/g2EhpzNyPh6W8R+cfPEfEU+fn4l4h6\r\n7jv4bDqBUR6RiLyHBP7T3yHy958h8gmy94evEPv4F3DOrOz0z3PRVsQ9B8Q+/CkJO6XRHRMYh4h7\r\n/oLwpyktf/wSwXf/GUF3v0f+f43gE8/BJjgBMU98jbDHv0HAAx8h6MyHCHv0c0Q++QMiKR3OeVNx\r\nRb+hiLjhdeF3xCMfIuT2vyDkrr8i5PdfIvTsd/T/nzHKHN7ZwHtuugPBj36NgJOvod+ILgForF2H\r\niN9/g9DHIcQdj3ayuaakHiH3/gchZ79F8D3vk4B6i/LvQ4Q++h2CbngTI9xDhb0BfYbBfdFehDz4\r\nCQIe+Qb+d/0LPte9jaDb/4EQ8tMhu7ozLGt4bDqFwEepA3nsFfQbqpQXUz2J2ke+hs9tf4OmbBFC\r\nya/Qe79EwF0fwe/+z+B9+nP4307l1DtBSZ+V5QMsovjeOBKmPnd/BN+7P4NjiVLOLLHNqoY33fe8\r\n50OMTpkozPoNGw63vX+E5+2fwOO2j6BdtAuDx9h3uuEjjK6w0jntiWbSMrjf8SHcb/sQ4/K66jKO\r\nl7W6keF3ju8PsnGBsYVE8M0fwnTrJzCQiDRe+zcYbvoPXG/5BMabPoB2/v6O2ZIO8UcdUuemYzDd\r\n9DFcbyB31/0H+uMkZG/6hMTg09A13wjDiX/BePRdDNQqHbd+xFBTMPQ7/gDXGz+E6/H/g/OuV6E9\r\n9C60130AwzX/wOjs7vWwRCL5VbBqeEkw1FmHzBc+RBYJt4S7n8WAfoPR34o9axgqG5BNgin9ja9I\r\nKH2NmOOnMS40AcM9gxG2eh/y3gHySLxk3/8GiQJlqnGsVyAyX/xACLL4m89ibEA0Bo1ywFjvQCTe\r\n+IgQjmln/4yhtk7CvragEtlvfYeMt75H9pP/gNfsZoz1j8BIjyAYSyYjeN1uYU8/aRYy3lWOgVEF\r\n4DCtJ9JI4LF5xtm/YrRHl8AJv+o00ims+AffRP8OARi4cjfSKM4pL5Pge5kaJxKEo73DMco7GOHt\r\nVyODhGcK3Q87cE+nP66l0yhulAev/oDE02/DJX8Shrv5YmxUKkKvfECMSCa/+AXSyK1jSlGnu54M\r\nGmWLpAfeRsIbJLDuepnEWzoGjXXCYDsX2CVkw33STGFvOAvAJz9CMsUx/vH3kfDYX6AnIT7cI5Ty\r\nMg7+m48h+aXvkEiiKeamZzpHKxyTckjIfoYkEof+22/AcIM3Boywg11YEuLufkWIwvBjj3WOkgTu\r\nuwfx5EfUvW9i0AjFD+2EmUggs4QXv4NdvLLO0i4imUTkF0gisaWt5NFeEhODhyH+theR8CzH8WNE\r\nP/QeXCZMwRCjD+xishB+6zOIeuZLxL1IIqhQGWnjacjgHTeQPz8g/tnPEbztJtiEJlGjFgBN3mTE\r\nn3oP8U+TcHv6M4SeovI02lZxdx4C9txFYvMbRP/hIyQ8+Bc4j5+FIa7+cCyoQeTpPyGMxGDko58g\r\n+t6/Iezk07CJyMAwk78Qi1FnPxZiMezoH9CvIz+8FmxG0tPfU1r+g+FaD9G4+x+8H3HPfIeoe96D\r\nbWopiVInMcU8NiAGhopGDHVwgVPqBBimr0D4Qx+TQPsKPhuvo3IwAS4kWEZozCTiHCjfH4dp5loS\r\nY4Hk3hGDbTXQ1zQj5KFPSAB/B+/mIyI8jofn5tsRdpYE5slX0L9j2YRDdgUiH/wQUb//Fj5tN3cu\r\nvbCJy0PYgx8j5NEv4bnuWnofvIQbm4AEBB97GoEkGL33PChE0LjoXIQ8/DmCHvoCxhVXYgh1lAaM\r\ntMUQRyOc8qfDNihO+GkNjpt72x0IeOgb+FzzHPpaCMCAh74kYfYfBN71D7g2bqbnGUrlIBTmpfvh\r\nd9/HJAS/hvuqm8k+iZ8e09Aq7P+gcVr4nXwbfqe+hnnzKfyuY4kF32ORaFx7A7xPfQbP4y9gwNiu\r\nzsHo8HQE3PIXeN79Ibzu+RjeR1+GU/VqDLTXd9pRhJdKV7gq2hXXkgD8CD43/p8YrVXMrdu1pE9/\r\nEqBrboX37Z/C/aZ/wWXOLgzzTsYAXRBGhmfBdeM9MNz8b5hInDpNWt7pzqFqNYlFEm03vg/XllMY\r\nFZSF/roAjAzNhXHTAzDd8E+4nfg73K95D4Nc/ISbAaOc4Lr9LLn5mETgUxgemIJ+wx0w0MENznMP\r\nQ3/yA7hf+R6GuQZ0hiORSH4VrBpeEtj6+CPvza+Q/X8kGI6dEr1X7k1as9sTY1UjcsldDgmp5NMv\r\nYoDFrsQ+fQYi4fYnkUf3cl/7AiPdlJ5qxI5rkUVukp/5O4brjJ32mbF+Ich6/Uvhp7FkqmjIUh98\r\nWxxBk/X8x7CLVKaLLOEDXfnqWlkn7PFIm118Nvr064eY6x9C1p/J7Uufw4nMFDdKzzzy6Glk0r3E\r\nh97oXBMWuGov0sgPFowhm4902FcYSA1n0oNvIJXuJf7+z9Q4jhTnn8Xf/izSWAA+/QHG+kZ3c9Of\r\nRG/sTWeR9sb3SH/rGxIDhd3uWzLK3R/JL3wuRv98lrQLM2UkoQuO93AXE1Ke/BCpL3+N9Bc+gV2P\r\nKek+VwxA+OFTQryl8IaYKOWMs+iTjyKNxGjMrU+j31CLdX+EU8YEJL3yvRhFtAlRzk4LPnAKia8D\r\n0affwuCRSv7oSmeKEcakl7+HfYcAtI9MRsoLX1JYJACrugRgwu2vIOH575D03OdwSFdGdDn+wg25\r\njX/+K8SSG9/WQ8JsrF8kkkncJbzwA0KPnD7nGA2ePo87+2/EPPcVIu57+0cFYNCeuxH7zLckJr+G\r\nfnL3jQOGKQsQ8+w3iHjye0Q99gF1Jroaxf6UfyFX/wGRT3+DmIf+jqEagzD3WtROZfYHRD/ybwzV\r\numHg0OGIvuN1RFMYAdtv6XRvjRHGAMQ88hFinwZ0M7oaes6PvoOGY6iTrpt9Fb99pxH25HcIvOYs\r\niYkBwsxn652Ievx7hN3wmsijUV4RiLz3L4j4w9cIPfQwBo+yF/6y/eCDDyH88R/gfxUJ2cFd6/4Y\r\nB+qMhD3yhRCZI7xC4FzWgODHvkQoCcaRvorYE9PCBPunPDvra9b4nsfGOxD06DfwvfZ59OvYNGSq\r\n34zAh79B4ENfwbxkb6ddvvYfNhoBx56H75mv4Hftq/Q+/fiGFnPzUQTc9xm8b3sPQztGYZnBjgb4\r\n3vgOfE9/BuOi/R3m/J4rIm1saA58jzwJXxKcnqc+p+sn8D7xJpxK5tM7PKgjfVyPnCvqeC2vsf1e\r\nuN/1CXxOvIshdq4d935cANrElMHrzg/hQTgv2C3ykutWNQ8G2GhgPPi0EHteR16hMu1InQgHeFz1\r\nKow3fwC3PU9iyGinTvvMQFsDzPtfgMcN/4HHsT9jcIcAdBy/BO63fEEC+D2M9FOeX2c4o+xg3Pu8\r\nOB7HqXJdp18SieRXwarhJYG9byDy3lIEYNzVdwkzXvTc0541jFUNQqzl/Q3wnNnUYc4LtJWGImj5\r\nNnEv752vqQGPIIE4AumPvycEYMi+m9CXKt8BQ0ah/9CR1EANwyBbDVIeeQe5/wAC1uyBbVQKCkik\r\n5f0VCFy7S/ipTAnxAncFtSJmASimkN8FHBLzELxmJwoo7Ix3voNxIq+VUypEhqd+Iq8+I6avkx5+\r\nE/07RrgCV+0Ro4IZb34P27BEYdaPwmD7/H/o7huQQWGkP/cBhtk7YoTZBxkvfUlhUHq2XSfsiHCu\r\nYHfKQnVzzTxk0v2Mt76FU9r5RwCH2Lkg9Q//ILFIcaI8cEnJQ/8Bw7rsdIyOqAKQz2mMPHpGpKfT\r\nTgea3ElIfu1bMfpomrIQI13NSHvuI6SSeHObu0GsOeo/ZLgQav36D8IocyASn/iPmOJ2q54n/Ag+\r\neC+SWDDe/7aFAJylTIO/8gPsE5QpYIfIFKS/9A3SSHDqqhuEmRgBJAGYSAIv+vbn0b/jSAzlmVGD\r\nbeOIuIf+irjXgKj9t4l7rtMXCvtJL3wHh8xJwoxRp9TYXfChBxD70veIPP222HCh2rFG0L57xIaV\r\nmEf+SXlmFu7Vw3ltAiKR+uQnSHqWytmO24WZUi4Utx7Ne8QUdMwfPxE7eNlMCMBnSQA++m8M03nQ\r\nO9JXrGmMIQEYSWlxKZqCvkMU4dOTUSSwYh/7SBysbahdLcw4L/p05Idqr8/AgRg0zh5j3X1gH5sN\r\n/yMPkgD8EkE3vUCiXcnDgB13I/opEsnXvYzhrj4IPvEkYh7/BuG3vo6hOq/OvBru7o9oEnM8/ayb\r\nuYbM+4q1rv1JCPalZz7CGIjQU/9E2Nlv4Vw4HbYJhQgnERnxyKfw2XwTRhh4lNNylK17mizhe948\r\nMvkYieETL3YKQHPDZgQ/+i2Cz1A++neIEv4CRx/lObivugbBD3+N8Nv/jGGOP354tE38eATc/xEC\r\nHvwEmuLaTnP7nOnwo7QGnP4IYyMyOuLKYXD9oHQQeTSTN+B4n3wBgfd9BL97Pif7n8Gj9RYq3+q0\r\nsBIvS/r07Qv37afhce/n8Lv+PQy2UzoEvRGAxgV74H33h/C+6R8YalRmH/pRueFzJdV4aapXweOO\r\nj+Fx+wcYHZiC0aEZ8Lr9IzL7EI4Tm0Ra+tJzYPp01Cm6mVvhzXZO8gigl7Bjbrsb5js+gnnLQ/Ru\r\nj0U/6ljwsx5A1wH9h0G/5jaYyY1xDXdWLryZTSKRXFSsGl4SjHR1R+ZrnyGHxFLa3U+RIBhAFQ1V\r\nbueZjrHEWD0beSTWckhIOaYp624s8ZjdLARg/nskqIIiMcLkjqy3vkDWu98j+wUSMY+9g+zf/wlZ\r\nj72LrN+/g8yzf0bWm9+ItX3he0/CfVo98un/XBKATimWo2ddwk/FUFWHIgor683vEHPiQeS8+TUy\r\nScyZ563vsKuM/Kn2I4+dUUYiH31H7P5ksyASnRkUVtpLn2C4WelZi0a6Iy8CNh5BLqU14/lPSbBp\r\n4JiYJcQfr9HzmKqOMikVu3rVFVYih+5nvvP9BQUgN9ze9SvElDnHO5fSkXjXM/CoW0GCybnT3nAt\r\nCUASc1lkx2/tXiVNYjqsK0/GBkUj9eVvxHS49/w1cIjPEGIw8aVvkfjY35B8/6tIPv068QaS76Pr\r\nmbeV6WFKi9uSNuFHyMF7kExuYu+3GAHko3bIz6TXWAAqI4AOUcnIeOVbZJC41NUoG1W44Ym/82Wx\r\nKzvs6kfFjkkl77kRo8Z4hA1i73tD3I+kcNiNz7oDiCVBGPv4hyQ+um9IUZ+b39abxOHd0aff+VEB\r\nGHjgXsS8QuGfeosaf94JSeYdAnCkexASSAAm0n3PJXuEGceL4f/dGlsR89IPiHvyU4zy7BCATSQA\r\neQPM2fcxrGMTglNmKRKe+ByxzwEJz5AIu+1FeMzZjGFaZZ2pyhgSgPF/+ETYM3YIQMvnNZru+y7f\r\nj/Drn0X0Q/9G/DNfI/6l7xBBcQx9/DOE3sKjaooADNp1F6Ke/gahd76DoEMPIfLJrxBz319hE6hs\r\nnlKxS8xH1B+/Q9gjHyLy7rcRctOLxMsIv/EVQfCtbyH0kY/I/Xcw1G1Av75D4b+bxOUfv0YoEX3m\r\nHwjccg/skktxRb+BYvSKsQzDEr8ttyCKxGTIyZc6R5jd5mxB6NnvEXDvfzDE1fccN6Ylu0g0foHI\r\nu/6KYecZBbVkwOhxCLjxDQQ8+iU8tt1Bz1TZPOG14VYEPPQVfI8+i4FDR18wngNJYOsqFpGopvy7\r\n7xOEPPgNPFpOXPAYGI+2O+F376cIuONfGGa+8GYYFR459Nx6L7zvpbhe+RzlifIO9WRsYil87/4c\r\nvvd8Coe0Ctjn1cLv7q/gfdeHGBOubNwQO7o74N+aymXwupsE4I1/xiCdJ3WsR8Pz0LMw3fIvuJ14\r\nB977noHv/qeIJ+BDV599L8Htur/AdPt/SMw+JjYMWcZBIpH8olg1vCTg6c+0s39CDomhotepF0rC\r\nR2ksz7XbE5OFALRP6b5xgzHXNiG3QwCOC4zAGE9f5Lz7NbL/9APSX/kYqc/8H9KfeR/pz/5LbAph\r\n0p78K7Keex/hGw7Bd94KFJL/LLrGRSkjcgrdxR9jqK5DAaWBN6SkPvo3IaJ4V7P79EUiPdy4q0KC\r\niTp+Rox6Jj/6bqcADCZBxaIw/eVPMcKsTAuyAPxdH8VNQNsh5LEAfOFzIQC12RNF2nkk0VQ2q9Nv\r\nBSWOusIKMTKZ/e4P0KSdm0cqHDcecdEVViH+rqeQ9fa3yCQxytPUyQ+/DYdYZSqXBWDq84oA9F2z\r\nS7jj0SjL0dBxwXHIeI1E2btkZ95aOKcViB3SyTzN++S/kXD2/5D4h78TfP0/JNHvpIffRerj/4RH\r\nozJFGXb4FFJJEMY/8I4VAfj9uQLwDUCvCsAhw5B06nUhQCOO/4EawwEdea8IwIEjx5EAfF0IwIiD\r\n9wo3wdtPinWICX/8D4Zrui8NUJ+b//abkChGJd/FwFE/MgJ46BTiWIBSPHiEV0wHqgLQLRDxT5AA\r\nfJXKx2J1ZLkrHHPjOhKA3wsBONJT2STh1bQVybwBhgWgoWukbVxkOkKPPIqkp74Vm31440vCI+/B\r\nNb9r08QYr1ASgJ8i7nkqJ3XqOYBKY26XUICEx/6FhJd4OcLfqONzCsbmA3CeNA+hVz6C6Ke/JQFI\r\nAkIVgDvvRNRTXyPo/r8j+u6/IuapLxF++j1KU3dhokkvR/QT5PaxjxB2/58QfvebiLj7HRKDChF3\r\nv4Wo219D9Kn3xCYrdtOfnovb7FbE3fkmEp7izT68cedLBO64TYxMWvrfk4D2W0m8f08i9lX0VwXg\r\n3HaE/uEHiusHGOqqdKgsMS3ZIb4qE3X333olABlD0z4En/0a4ff8DUOczPQeOiPw9ncR+MjX0NUr\r\nJxioI/Y9UZ8vM9wYBt9rnoX/6U8QduYTjAvvfq6lJTpKR+ADnyPk/k/hVNSxZvU8Yaj07TcAfrsf\r\nhs/938D90FNiZ7Q1e6Njikggf42A+76AY2YNtCXzEHjqGyEARwYodR6PXKvwbxaA3qc+hectf8UQ\r\nrTsGjbSBz9Wvw+uOD+B9/XvwOvo6PK9+jXi1g9fgftWLcL/6FRjX3ykFoETy62LV8JIhYvsx5P8L\r\nGE9iK6xVWasjYBF4ASForpmNAnLHI3QOqd2PXmHc6xaLEbwCEki2wdEYpjMi683PxBRvyJZjoqEY\r\nOFZDvXINNTDOGGRD/491xEAbJ/QbMAhudYtQSP7nkyjTFag7MrnhVBpPS4xVdWLkkKdwNQVTEXP8\r\nfmTT75x3voEuv2N0sqMCZaKvPYMcikfKY38Cf/uYzULX7kMehZXzCgtAdQSQ3HTkQSAJwHweZXzx\r\nMwyx18A5tQDjWdxR+r3qlZEdpfFhlDgaKuuRQ/d5c4smQzkmxSoW+dx/4HA4xaYjcvtRZL36lRhh\r\nTP3jn8XB3MOc9J0CMGDdYWGfp5TU9U6MS3aFEH9sh6fpbaOSkE5ijHdJu09fTvk+RpyxN2iMfXfG\r\n2mJAxxlxEVfeK3Zc8/E3qgDU81mLJApT3uCzFlUBmIJMEoS8W9p1ctcu4OR73xQbaiKu/SMJQHUE\r\nUMkTHgGMP/0GUknwdQrAjVcrO62f/Ryj3NWF9t0JPXQaKZSO2Afe+9ERwOAj9yCB4hRx32udU/xq\r\noz3SPZAE2ydIIcHmvnhHpxsVt7nrEf8KCbmneARQ+Uyg99JtSCGRFvvHf2OoOkLZUZ549GiMfzR8\r\nm3eS0HsfKSQUU5/6CKP9FLdjvIKR9PinSCT3XQLwd2KaLurGp5BEYQVf/QgJmu4iyLv1asS+QO/k\r\n7S+Cz4Vks6DddyH6eRJVN78E25g8JD3wVyQ89z2ib30RQx3U6UkSlrE5JGC/RsQzX5MwX0Fh2ZBo\r\ndqZ8o3dstBMGjban61gMHGMj1qpajpoNtnGBc+4UhF79AAlyivezP8Bn7TWd963hv+12xPBu6Fve\r\noPKl5Lfn/O0kVr9H2EP/sioA3Zp2IfKJbxB16v8wTGO5KeP88Gad4Ec/RPjZr+CYWwGHjHKEP0aC\r\n8IF/Y1RApLCjLBNRBJ8lYpSXnhnD9hxL6xHy8JcIe/hb6CqV46GsYRdbjNAHP0fw/Z8h+PCTGDhM\r\nOWtTzAycUz92lAkq615b70TAA1/D/7rXKZ97fgJQseeQMxMBp79B4H2fwiY2F5rCOhKlX8HvXhKl\r\n0QXCTpcA7KhT6raTm6/gfevfxLT/wMEj4H3Vc8KN28ZT1Kl3RH8+a5De8f70nPlwaoanwfvzOu2O\r\n9Eskkl8Fq4aXDPbhiSj68/dCyPExLm5VjefYUStR/r9fx3SJefJsFL6vCDSHtHO/BOIxe6EQcAXk\r\np21YrDggN+v3bwuhlnrqObFRo6cbSxzjMsX6Px5ljL1SWaulcG4FZqysQz6PFpJAs4vLwlA7HTLP\r\nviNGNvNe+QiacPVIFIXoa+9H7j8pHme7BGBYyz5lyvnVT8T6PjZT08wEbzyEQrqf/fKnGOrogjEe\r\nvih882tlR/N1D4pGVJlG7BKoUYdvRzaLRELTsRniQqgNlRquz8I2pJIQYzGnScoTwpMFIK8rTLz1\r\nKXF2m+K2K0+CdhwXojGHxJJ9aDKGa1yR9tyHSHmXhMbuGzrDUOJqnYirTonRx6RH3sWQkUr+uJbX\r\nik0yaW99D4ekDgEYnYIsEnJZFB/9FFUADkfKfW8gncwirz1LAlA9RFzJl/4jxiLlgXdEGiIP3SfM\r\nvGa3CBHJayCNNcpaQktYIGSc/acYNYx76M8kXi58DEyXAHxdHGqsmCt5NNLDHynPfCIEp2fT1k43\r\nKp7z28SRPsnPfEriTREVPsu2i6NsEh7/AMNdu6aoe0436vInI/WFH8RooHHqQmE2xisISU98LNY4\r\nGmerU8C/w3C9G5LOfijM9RWKXfW586HQocfPIvLF7xF+Fx+togjAwL33IIbsh596TRzh5JxTQQLt\r\nSySQ6Aw/+mDnsTojdJ5I4Cne57+Df9txYXYh1HAtxcGAwaMRes1DiHzmW0Tc9S4Gj7J2yLiC3447\r\nEP0cidXbSAB2xMFr4Q6xRjL8kX/0EIBKGO5Ld5Pf3yHqNN2nMtp1//z0GzKWBNUzCH38G3huvBVe\r\nbTeJo2+CD/8BfcSB6ey3IgAHDB6C/v2U0S5+TmzGqM9MWzEXkY99i7DHqJNYuViYWaP/oNEIOPJH\r\nhDz4JSIe+AieKw+RWfczBTvzT6Ckz7VuIwIfYuH4b9h2nJHZE4+1J+B/5isE3vF3DHE0wSYmH373\r\nfwy/M5/DNG+bhb+Kn3w+oNf+x8RmGJ/b/g+DXX2FHbdNt4vRTL8TL4jOnfp+q2m2DPNCnXqJRHLR\r\nsWp4SRGydjdK/k1ijQTU+L9Qr739MGwDIzFo1BgxpTeYRICN2RsBc5fBf/Yi4YZHAIUAJFHkmKYI\r\nAkvc67sEoF2EcnZeSMsuMWrIZgHLt4iRPks3Qxw0MGbloe8VA8Si9dR7nhECMPev38N70TL0pwpQ\r\ntTtw2GjoEpR1MobKWhRQPFgwOnasF9REpaL4jc/FOsTMJ/+CUSb/TrcXFoA8AqisWbKsPFUBmPPy\r\nZxju4io2U6SeelYcoZP33g/wmckbKBSRw4vuzSSI8v/6AzJJMPF5iBcSgMOd9HAMiUe/jopexTxj\r\nAdLILe9wdojJIAHoTALjIyHCckkU+s5d1c2NbnwNcl7/Uow4xvGxPpRfnIboo6eECE1/7UsYq+rP\r\nEX+jXN2gSezaZR1x9N5zBKB+khUBSHnMX5BRBKCygYQFYNp9ryH7XSDq2kfFd1YtBSB/7SL5wbeQ\r\nxfcPK2sAbYJiSWB9KXYepzz2JsYFdB3ZM2DYWITuvQnZfLbiKz90CMALjwCGkADkNY1RZ94gAajE\r\nX0UIwGdJAJLI81q6rds9xnNem9jZnfzsZxjtGSHMfJftEAIw8QkSgHpP9KeyqYlIpTKg7M5VcUjM\r\nQdILXyCZ0uHacS7iaM9ApDz9GeJfJjG262RnmRpp9ETyHz9A4ks/wG9d913nrhWzkPDy54h6nsXX\r\nq10jgB0CMOLe1zGgQ9h6zGklP75GwktfIqD9WvQl8chhhOy5F7EkDBMe/xi6El6i0L1sDdMZYEdl\r\niv+39Q3BMGe3bve5DAfvvwdRz32PiNvfusAXXH6HgF13IcaaAHz2O0Q88k+rI4DuzXsQ9RMFIOMx\r\ndwNin/oOYff9C1H3/h/Cn/gW+slLxb0rfscdIqVjaRMQjbCdN8I+OpfEq5Moh2w+oH9/2IQmIuSm\r\n1xD66BeIePQT2IR0ne1pjXHhyYg88z6CeWPNI5/An/J2TFwuBo51woBBIzFw8EgMtdXDLmWCGFXm\r\nzVUj3IIQSmkLeojsX/eC+J50V4fhCjjmT0XQ6f8g6BFeh3i9MOPZD16fGHjmIwTd9TfYdhy4zvTt\r\nOxiGWesR8MCH8D/1Pvzp/hCT0lF1zp+J8DNfIvD+T+C+/MrOzzeq9B8yEk5R2SSguRx1LwcSieQX\r\nxarhJUW/AQMRs+tKTCARWESCSwi7975BxhN/Qfoj1FjTtejNL1D+GVXy7VcJN6ZqEl2qAEw9VwB6\r\nkFBkAcibM+wjlEXqw5wMyP7j28gldzwSmHbv8whp3U1icCPC99yA/Jf+jcx7n4T6jU3HqHjkv/GR\r\nmK7N+fv3SHvwJYTuuB5h208g+/dvIuO+Z4U9U1UdCkjQ8SimKgAZ94oZKP7Lt2KUMuU09Y7HOQjz\r\n6Gsf7BCA75EgUY6gCGvZjUIyy3v9c6q8FQHIQkkdPQjeeBD5dD/jlU8wXKc0WPq8crEukEcBc//8\r\nPeJufBRBm48j+ZYnUfTu14i99SwJlx/EOkDnzBLhxhpjAyJR9NrniL32DLwXtsJ9djPCth5Fzisf\r\niZHN5PteoMp7NDXSBqS/9CkyWYid/QuK3/4Kcbf9Ef4kTqOvPYXcNz5FHoWVR+b2Hc+E424bFEPC\r\n9SMlru9+g4STZxCwYid8mrci/MDNKHztE4TsPCbsc5qjjp0RaxATH/lT5zmAhorZYhc0Ty/bJysN\r\nk1N0KrLf+kEIVMOU+cKMj0hJO/2aMIs6+ftOAajsfKX7JCRSHnhd3I+5SjngmgnefBVSKH48zZvy\r\n9D8RuO8WBGw+hrRH3kHGY++RoH0BqW+SoHn0Txg45kcE4JWnkEzxjH7gTfTrOMia84GvIz38kPL8\r\npyIc76U7u7ljvOdtEgIw9QUSgF7KJpCA5TuVHdpPvY9hWrM4hib90b8h8rrfw3PBehhmLIXf8t1I\r\nevjPyujhY/8koaiMFPKnC3kqPeHlryncjxF66BSCt94I15xJiDr+e3G2YtLzXyB0983wbGgh0XUH\r\nks/+FZH3vik2ssTczQJQ6fiE7L8XySQAo069i4HDbUSa+vYbjKDtN5AI/AbJL34D96W88el3GOMb\r\ngcSz/xKHd8eRAOVRUbfFm0hAbYLfthvEOZLeG5XRQVPDaiT8/u/wXXcVXKc1wThrBYIO3oG4Zz5H\r\nEoXHX2dhe+cjZNfdiOdDuu94tVMAei4gAfjcd0h4+B8Y1m0TiCJAPJftJf/peT7wbwx37r0AtPGL\r\nQtzvP0H42S8Q9sdPEfnwPzHCqKxdFmt2OzoaYwPjEP08T9t/hajb3kLAwYfgveuUOFA86sF/k/sv\r\nEUNC0mfVUVzRRx1JPz9OWZWIOPNPRJ39GhGPfYXwxz4hwfsuQo8/Jza/hN35F0Q+/j0Cbn9TTMty\r\nWTdMXoyw33+IwEcp/+9+B+7rT0K/aA+8d96DsAc+QMjZrxB08nkMcTZ3hqOrWozIR79E0Bk+8/J9\r\neLXdDP3CffA9+AeE3vUX+Ox9EH4kEAPu+RuGGX1EOLzb13fbPQh++CsEnPkQPkf/CP38PdBPb4Pr\r\nwt3wvfoFhN3wHvpb+XygRCL5RbFqeMnB60zMVfXIfPQ1FJNgKvyA+AgoZj4ExpOYK3zh3+KTaWzf\r\nvaYOE8hOEYlGp/Sur2+oeNcvQTHdLyfR5BTZ1cMe4xmAtDvPYjyFUcT+fgqUEBM+pt9/+oYa0o7P\r\n0XVsvnCKSiJB8TKKSTCOZ/ufKG7Y76iDtwo7bjX1KPwPUEBiyTllfEdjoLjnL3ywW05Pyo0PYMDQ\r\nYYi57n4UkF8ZT/2l8wyy8PV7MJ7sFLzzNUa6q2sAqYHtmDIJ3XwExZTWnDdIIOq6Kmz3afOQ99qn\r\nYmST48D5Vfin7+AxfRFcS6ahkNKZT8JGk37+NYBj3H2R//LnKOH8pHxgPzithSS4km98CKM7BCl/\r\nbi/z5c+EIPbbcADmqQvFpppCsptHYfOxPJlP/hOuRTWK35SH6qgDryvMPPOaEIgszDmu/Ozy6P/s\r\nFz8mgde1kSXuWsofem6ZZ1kAKiM/5krKY8pHHr11TFGet1NMivCPwzVNU0aGWQCmP/iaMIu7kaeA\r\neZcyC8ArlMaK/Et/5G2x8zz+2OlOYTZguB0JiRuQSeKLRx9zKCxeL5r+8LviIOIwEkhiXeLv/yR2\r\nhLKb8xF19T1ibWbyo2+g/0hlU4IaziiPQBLx34gvy/guU3YBKyjCxHdBG3LepTx55XOM9lEEYPDK\r\n3WJjUeoLH5KwM4tz7BJPv4GMDvGfTmHxl2V4VDH2judhF9X9E2eGmrniizIsOtkfHtXWF1RjjF8k\r\nkh78s1gPyVP9vKEo7blPxVE+gZuOiXWbsSQE+3YIwLDDp8WGm4T7SQRTuVWf7YAx9oi48UmxnjD5\r\n9a+o7Clr2myjkpF42wtiAwuPrsaTfwnvkB324+z7cC5Vzm7UV89DMglR/oINf2WGz7tkIZv0+Afw\r\nXrYNfUhgXGjkKHLfPUijsKPueafzXE3vxdvF9HbiHz7AcMO5I4A+K/eJA8STHvsYI5xN59w/H30H\r\nDBaHZ8c9/T1iSECG7LuP8vncMwqH0zsaed2ziD77KWKfpc4ZH+3zIuXnc9QxeOJzsSnGdXYr+vby\r\n024MP6/AbXeQgPwPIp74ChFPfodIPiD86R8Q9fjXCL//XzAtPyhEuXBDdYdzyXQE3foawv/wOaKe\r\n/B4RT1En+qlvEf4QCbX2W6lDoWx6Ujd5XNF3AIwN60lsvo9QPt+Rwgh5mtzc/VfYxOXDY1YrInmH\r\n9/3vk/D17aznBto4wLPlBELu/4jEKd3/IxD4OLk7S8L8zOdwW3EcffoP7iyTEonkV8Gq4SVL/+Ej\r\n4BiTBi8SNn6LV8OXcJ85D5rkPAwZ59Jpb5ijMxxJVDiR3UE2567JGqHR0b0MEnCpYgrZ8l6/AUPE\r\nZ9q86xfDr2ktvOY0Q1c4CaNcO47QYNHF54V1iK/+Q0ZT+Lnwmr2I7K+B16yFcCD3ypQGx0VLv1Ph\r\nEJ2EIWPsRCWnVoz9Bg2DQ2QSHKkxdI5Lx7AxNmJHsiO5twuJRJ9+yprGUQZv2JOZPYlVPiePzdiP\r\nPh1xGGXyEdOwTuEUbufBukqlPcrkBY+pcyiv1sJjynyM9lB2ZbrNmI8iElgsmuzjzr/TsA+JpJHu\r\nwTBMnArfuWvgv3Ad3KbNgV14vDisVrXHAjCLhEku+em/8YAwG+MZBPOURnjWL6c8rMEQO4sz1TpE\r\ntMpAapxd0grg2bgEvgtXw7NuMZwzx2NI5zlsysjrWE8/ystkcXxP3/5K/gx10FD6U0QeDxqjCLCB\r\no8aR2KE8i07H8A4/eFp0XGAM7KlcjPMJ6Vh0r2xUYcHCjRB/Jo3d2HgHdjynjsbvir5iY4ln3VL4\r\nzlkLbeEUDOz4skPMiYeFQEp8+M3Os+bOxxgvf9jT8x5H8e/TX0mT2vANHDIK9mH07CNTSchbTnsq\r\ncRihdYd9RBLswhIwYJgiDkbr3Smd2bAhd/0HK2HzV1lc8ipgpri6z10Fw9T5YvOFeuSHGp4oQ8To\r\ngBiYpiyAR8NyuJZNo3dJ2Vk7lPKNN9h4zFkFU1UjRhgUsT/a5A27iESMDYgS59HxCOpojzCMi0iF\r\nTUCs2GkqRqc7hMMQB2fYRtAzC0+CfVCUuM/mg4YPF2djuk1bDLf61TBOXgSH1CIMse8qJ1zex4XE\r\nwTipFuaGVZSmZXCmTgR/MUa1cyEBONY9iMJNE5thrqD85rSP0HkocQ1LxoDBighXEfddPWETkYKx\r\nIZSnHd8PtrRzIficQtvQRPG1mOEu6q5xZeTPEg53tFc0HHNrYJiyGKZZy6GvmAfbhFwM6vjaUG9R\r\n48ebMUaaguCUVw3XKUtgYD8rF8AurVRsyvjd7zjfKS4W9dcgGyfYJxfCWL1EfCfaeUItRvlEkV9K\r\n2RT2qeyrYTGjvMLgUjYXuukr4Zg/HYMdFJE8QmPA2OBEKk9JYqRRsa++P30wxicc+tLZ0E1phqZm\r\nIewzJ2GYKYTio7zHPyWfJRLJf41VQ8kF4Erqkq+oOir3CxF95FbkvU8C8PUvMZIaPGt2fgo8qpH9\r\n2hfIJz8DN3VfN2ZJ125k6/cvDr+0/10Ms3NGxpP/J85pjD5+xqqdS4vuefNTy/KvWfY5LBao5w+T\r\nxaeyscL6/XP5NeOv8OuVxZ/OrxM3zvNfP98lEsmPYNVQchkw3N4Rg86zO1KfX4WCd78Wo3WJNz1s\r\n0dv/+QzXuXUTgFzhixE0EqO/5cqfR7FGuRrE9Ne59/ohtG2/+KwfH9PjPq37p90k/z2qeFA263QJ\r\nvi4z6+4klw78rNTRZkus2ZVIJL8aVg0llwEeVVOR98Q78FuyHk5p4+EQlQZt7gSEbz2Cgre/Fhtk\r\nit8DHBPOPSfx58BrD3Ne/wIF/waCOkYA1fPIuAHoaf+3gSIwEo7ejKRbzsJtciPs4zJgH50Kc9kM\r\nxJ08g9z3vhNH/KSdfgkDR3d9c1pyseFnwdP1qvj7LZer///o+dzks5NI/udYNZRcBpgqpmPCl8rG\r\nFN4gUvw+xEaOYt7QQtf81z6C20Q+1+7c9Uk/hxF6N+T/6TsUfwqEbj2qmPdiKvrSRtkkEnviXhR+\r\nARRwvv0TYsPJeJ4+p3zl/9NOvYixbsqXOSQSiUQi+Q1g1VDym6cvBtvq4DlzIeKuvBlp9z6JjEde\r\nRdqZFxF7/Wn4LlqFEab/ft2fJcMcNEg+fg/Sbv8jfGYqu24vD/pgjH8E/Ja3IfHEaaSefhHpD7yK\r\nxLufRsSBm2Eom47+w5XjRS7t9V4SiUQikXRi1VDym4dH9brECO8m5i8E8JmK3e39klwuYqj7CGl/\r\nysMBAweLQ40tzSUSiUQi+Q1h1VAikUgkEolEcvli1VAikUgkEolEcvli1VAikUgkEolEcvli1VAi\r\nkUgkEolEcvli1VAikUgkEolEcvli1VAikUgkEolEcvli1VAikUgkEolEcvli1VAikUgkEolEcvli\r\n1VAikUgkEolEcvli1VAikUgkEolEcvli1VAikUgkEolEcvli1VAikUgkEolEcvli1VAikUgkEolE\r\ncvli1VAikUgkEolEcvli1VAikUgkEolEcvli1VAikUgkEolEcvli1VAikUgkEolEcvli1VAikUgk\r\nEolEcvli1VAikUgkEolEcvli1VAikUgkEolEcvli1VDSC4YPHw47OzvY2tr+5uF02Nvbw8nJCa6u\r\nrjAYDJJfAZ1OC41GI5FIJJKfgLOzM4YOHWq1bZb0GquGkl4wZswYasB10Gq1v3lcXFwEJpMJvr6+\r\n8PNTsPxfcrHxg5eXF8xms0QikUh+Au7u7hg5cqTVtlnSa6waSnoBC0BL8fRbh3tUPCrl4+PTDW9v\r\nb3h4eHTCv3vakfw8OD+NRqMQ3hKJRPJbgmeL9Hp9N6zVZ9yu9LTHZj3t/RRYBEoB+F9j1VDSC0aP\r\nHm1VALKQ0micxZV/W9phM9VcsacMZau/L2Te046luTX4Pk/p9jRjv3v+r/7ml9fX11KkeCM8PBzF\r\nxcWC3NxcYcbw6KClmGF33d3+OCwmeyMoVb97+q+OUCrxUX5b3lftWLpT3Vj6x1dv7674KObW46X4\r\np4Rp7f5PgQWgtcpNIpFILnWSk5ORk5Mj4LYhIyPjnE4t/x8QECDsZGdnd9qNjIz8r0SgFIAXBauG\r\nkl7QUwAajK4KBurdGLknRJj0ZKdLBHLBZYHBwosLP08Durm5CTvcmxL+dJjzi8MCjn+rYbA/PO3s\r\n6ekpBITqryoGLa/sX1hYWDczfmnYHa/5U/737rzv4uIs4mcpory8PDFhwgTMmDEDmZmZaG9vx9q1\r\na88RbewmJCQEgYGBFm69zrFnCd/jdAYFBV3QHuPt7QV/fz+EhoYI8abaV4Uci9SAAH/xv2JfEXLB\r\nwUHkrsucUQScj7gXGhqKiIhwYcbx5SubsV+quequy72PiAtXYD3v/VSkAJRIJL81uE3itqWxsRHx\r\n8fFYsWKFEH9TpkwRIo9H+FS73A6xeX5+PiZNmoQFC+YL4VhfXy/aPkt/fwpSAF4UrBpKeoGlAOTF\r\n/P5+HggJdEeQPwkrLz0CfI3w8TbQC6DYYdHX1tYmmDVrFhYvXoyWlhbExsYKMXHixAkh+ObOnYuN\r\nGzdiy5Yt4kW5+uqrxUvm4OCAw4cPo6SkBHv27MG0adPEi8j+sijkK7947Iejo6MQRZs2bRL/q+Gz\r\nyGG/Y2JiRNjsL5urAtFk4hHA7gKQw0tJSRFhpaenCwHI8VJFKF8LCwtRVFQk0qIKv9TUVBEHtsN+\r\nspnqN//P4o8rEfaLBZ5qRw1bdcf+JSQkoKysTIQRHR3deV8VhhUVFSQkA8X/7AfHqaCgQIjXpKQk\r\nsquEzX6pa++4QmI7ZWUT6beniEt5eZkw40qsqqqq064ab/6fw+A4TJzI7pS0WsZdtdsbpACUSCS/\r\nNbgt4DaL60hub7g947aD63KuVy0FINvltorrRW4fJk0qF+0NDypcqP5jgWd57YkUgBcFq4aSXmAp\r\nALVaZ4SS8CvPDEEZEROgR35iIAI8SQDyTk8SVyy0tm3bJl6WpUuXYs2aNfQCVYoXhHtDhw4dIoGV\r\nhoULFwoxwi8YC7jrrrsOzc3NSExMxJkzZ1BZWSn8YRHH4m7ixFIhFnl0bt26deJ+bW0tNm/ehF27\r\ndpFwtBdxZHinb1RUFJ5++mkSTZNgY2PTmQZGmQLuEjD8go4fPx5paWlCVPFLxwKJhaAqAFn4TJ8+\r\nXbz8LChZpLGbOXPmiOF+FmHc82PzysoK8VudTmahlZqaIsxYULForK6uFmKPRWd8fJwY5Zs6daoY\r\nKfTwcBdikOPO/rF9tss9TA6L3SYnJ4meJecDxzMsLFTcV/3kcEpLS8VvFq5cYbF9jiPnMf/PwrWh\r\noYEEYbmIH9vn/3Nzczqnw2tqakQalHRVivA53zl+LAzVPLwQUgBKJJLfGqoArKmpFu0H13vcZnE9\r\nzXWyweDaaZdHAKdOnSJmh7hu5HqWzWbO7C4Aue3x9PTA7NmzRce7vn62mL3hepjbGMtpZUYKwIuC\r\nVUNJL+g2AkgCMNjfHdF+ZoR60f/ezgj3MyDQywxXvTI6xz0lFmQHDhwQgoJH0lgM8tTp9ddfJ+5t\r\n3rxZCEAWICxGeLSQR+pY2O3evQurV68WwmPfvn1C3PCoIA/D80u1YcMGMdrF/vP/vO6ChSLb4Tiq\r\nU8DsF4sf9pvDUUcAzycAWeywcOJdVyyOWPCoApBfTBZmLABZWEZERAhxy2KQBRMLLO7p8ZUrAU4T\r\nizT2g804HiyeWLTxSCP7w1MJbMYVCseFR/a4YuH4cHiTJ08W92bMmC7MuVLhPKmrqxNCMjo6SsSN\r\np2q558lmqlBbsGCB8JvD5is/B44Tp4394Phzmnm6m+0XFxeJConvsV0Oj+9zvPk5cb5wBcV5xL1h\r\nDkcdCewNUgBKJJLfGiwAub7nOo8HIbie5bqbhSAPZhiNhs6ROxZ706Yp9TcPWnDdycuNZs6cabX+\r\n4zqf2xm+sh/sTvXLEikALwpWDSW9oNsIIBVoTzcjvM0GeJr19L8OHiY9vNxNJA61Qnwx8+bNE+KE\r\nRdLKlSuwfPlyzJ8/XwhBLvRNTU3CjMUZCzXuZbHAy8vLE1PGPF3Jo2s7d+4UbvgF5PssWFgAsX2e\r\nQmb/2f3q1avEqJ8qAHlkKi4uToz8sXDj9W4XEoDcI2MBxeKMX3j2nwWYpQBkMx5hY/HJo2kcP44P\r\nCyy+8vQsCzwWSewH+8X2eCSOyc/PE9MCiuAqFqKU7bCY4h4gx5nTzwJMEWaKcOTROHbP4oxHElkE\r\nsxue7g0ODhYjleyG80gVfXyfhak6pawIwARREbEQ5Hs8ksfx4MqK48ThsN88uslu+P748cXiHofL\r\n6eMRUhaLLEylAJRIJJczLAB5RI871Fw38nXJksWiLeLOP99X7fJ0MNer3HnmzvSyZcvEDA7/b+mn\r\nijrS1/PaEykALwpWDSW9oOcmEFXkKXT9Vu8zbJ/NeM0evySqAGAzVYhxj4nN2S73rlQ3fJ//Z7jw\r\nswDjdRf8gqnmKuyPm5u5838V9odHIvl/vlqKP4Zftu4ixVsIHx61Y6HDQor/Z+FoKXRYqLGgVAUb\r\ni0heK6feU0UlXxl1s4hqzqOVPYUTTwPwlc3ZT3bDfvFvxb6yno9hM75a+qP+zxUUj+ypfrE5Tyuz\r\nXxxHdSMJh8H3OBzL+LK5mgaG7ah+8W81DuwHw/d6ixSAEonktwi3FVzn8wAAd9q5juV2jduvnvZ4\r\ncIPtcAdZ2XgXIerP84m73iAF4EXBqqGkF/QUgL2BBZilSGMBxrC5el/F0o36vzVUvyz9UK8/5rYn\r\nPQUgiyMWgTwSyGKF4elSFkWW9vhlZizNLkRv7KqCSrXLx7T0tHM+2A3Hka88GqgKNb6ymSrm1N/d\r\n3Xb365dECkCJRPJbhdsLS6xN1ar2WBhaYjlK+HOQAvCiYNVQ0gt+jgC81Om5C/jnjGpdaqgCzzId\r\nl0q6WExz5WitgpNIJBKJdVgAjhgxwmrbLOk1Vg0lveByFIAsRiwFoOSXg/OZRwClAJRIJJILw/Wk\r\nJWzG3+O31jZLeo1VQ0kv+K0IQGcrZueDh+bVqV7JL4/ZrOyS4+kQiUQikZyLOjPl66ust1bXe/Pn\r\nWK21zZJeY9VQ0gsuJQGotWKmmju5aKBxcYbORUti0BkaJ+VgaMZZ2wVvzXe54JpBZzj32DTSE94N\r\nzThTWNbuizAEXWYcn5+6VlEikUgklz/cNvBGRz6lgY/d4l3GfOIEnzfI6+ettc2SXmPVUNILLpYA\r\n7LkRpPewoNPAkeKgdbYSD2fe6WuE3uwHnauZ7Ghg0BnhE5EMrd5MdjTQOdmTPfaH3OsNMHoF0v86\r\nutcjLhw3uu/qHUJiUn/ufUKrc4HB2R5ujvbQatgP/oQd+ctuRdp4N7MdiUg7xT7FT6t1hW9ELFyM\r\nxg47HWFZ+HuOaOz0z9KOBT3vi/8vYJ+5kH3LexKJRCL51eB2kWdJ+OguFn4sBFUxKAXgf41VQ0kv\r\nuBgCkAt3WGg4KiurxJA2F2hr9nrCI3Z2ThpEFDXCL6kA8SVzoOk43kXHwopEnUZrRnzNJpQsvw6F\r\nDe0wmr2gMwcgs343/e8DR3s7+CaMR2R2FextbWEKSETx0iPQupqgYfFIIsjexYEEH/3vaEf341Gy\r\n9BDdN8OJxCR/3aRbnEjYmcOyULbyJPzC4uFM8XMiganRucJZb4KjkyPcg1ORMn4mHB3sKI7O0Gnd\r\nkT27He6+/pR2RzhqyE8Sp04aEsbOOnLjQPHoyGOyr3FyJvFqgLNOL+LFIpfzkEc2+X9HygNHrZ7C\r\nU76f7ERx0OrIPqeH7DlpHIRdjcZJMSP7TiRWnUmIulCYLhRHPcVXy36QEHYgexx/zg8N3WfRaplm\r\niUQikfxyKAJQLwXgL4NVQ0kvuFgjgEFBoSgrqxCHJKtn9P0YziRUTGHZKGt/BIVr7kDZptPwCAgn\r\nEeMEA4kjvYMGgSnTUbzqOug8/aH3Coar2R9ps9qR0rAXTgYjPOMKMX7TA5i4+QGkVi8R4qx00yMo\r\nWHwVMqatgd47HMk1TXA2eiKxahnMEQUoaXsQeUuuQmbtBjjpSdixiNMpI4aODraIrliL8RvvRVz1\r\nYhKVY+GfWo3xy65FzqyN8AjPQNHKO1Cx/RFk1m2A3iMYCVVrkLVwH0ze3pR2HSJLl2D8yhNIm76O\r\n7ochceoGZM07iLzGbXDUeyCkZCFyll6FlClLhAjkUUW9nsNX8sQ7phCFzVcjd+42uBjdEZw3C+OX\r\nX4+c2dug9QildKyE3uSBmElLKb9iEDZhEdIb91Acr4HJLwIhebNR0HQUWdNWCoHrmViOHEpvev1m\r\nuJrMcOn4rrJEIpFIfh24jeEPGLDwYyHI8FSwFID/NVYNJb3gYglAOzt75OePJwEY2WsBqHEmoReY\r\nhKJVtyCpfj+y5u+DzugGA/WUAoKDSAw5IL6imYTYEoRmTcfEtTfB3ScIpvAsFLedgc7DDy4kAmOn\r\ntyN9djtMnr4wsABsOwXPqFyMX3Uj/KKLMXHZCehMfpiw8gb4xxaiZMMpuIUmI2/VzfCJTRbh8Tl7\r\nWhcNnLVG5C+6Ev5ZM1Cw/Cic3f1Qsv4+cpcDA/3vYnBHaMlSFJLAMvmHQas3wZVHHdffBZ/gULgF\r\npqN03Y3Q+YQiv+kkogoaMWH9aXjGFiN/1W1wC0lCAV0zGtrhFpYCZxc+cNQsPqWn19FzIIFYuvpO\r\nBKdNgNbsDaNfDEpa76BrFDLmXo2okvkUr+tgoLRnNV0Dv8gs5DZdj5iimYimewEJ+chdegOyF+yH\r\nV3gKXFy9UdhyL6IqmyndpxGVXQYH+3EUrvVnIpFIJJKLDwtA/kQof0GKvwqVm5cr/tfp9FbbZkmv\r\nsWoo6QUXSwDa2zugsLDoJ4wAakng2SM0bSqqtjyC8WvvxITma6Aze9E9e2iNrtA4OiA8bzbymg7A\r\nTudJwudWeAVFkjAKQvG6e2HyCyXhOQ4RpauQMnkFnMaNhTEkFeNXXkdCzQvFy29AQOx4FC0/Dp1v\r\nNCa03A3fuFL6fQyOJNzyV95Owi4ZLiREXQ2u0Dm5CAFXs/1R5C65BhU7Hod3QglKSQAafALFlK6T\r\noyN8UqeieP5e2NvZwkmrg7PBG8Wrb4ZfRAK8IgsxceW1sHdyRsb8axAzfg7F+wYSYn7IXU6CMzQJ\r\n+oAkxEzdjPKNp+HuGSA2uXD4vPHExeSLsvVn4BUaCwfHcTAFJmPCujvh5KJHyqy9iJu4BAXLroWr\r\nXzgKVtwO3/BsZC86Ad/oVDiSCHfWaOFKbmKq16OchXBIIia03YeYiXMRmDMF7gGRZKd3Al0ikUgk\r\nFwcWgOrn4+rqalFbPx/LNl0Pv7AMq22zpNdYNZT0goshAHkIm4ey+cPY/E1b3urOZtbsdqGDloSX\r\nyeyHpOpVCM+fjaCEQtg56uCkc4aGhJXGWQu9yRu5i65C7rLjKFpzE3zCU5E17wBK2k6jaN5Wsb3e\r\nL3YSJmy4F1nTVsA9KAnZc3aSkPJG1tw98PSPRt7S65C/9GoUN10FN3JfREKwuPkk0ubuhlavF+vy\r\nxPo7BxfEZExBWuUyaA1uSJ62EaFZVYirXIdJq29BHk/p6rUwBiWgrPUUchu2wkzCMrt2O8o33IMJ\r\nTUfgEZSC1IYrUbTiZmQuOAiTfxxy5+2FnkRiesNemEPTETelFZmLjiK/+bhYxyjCJzhfeJ1eROkK\r\nTGy5HTmN7XD18EfazB0oWXkSBU1Xw+gViszZu1HYfC0JwJvhTmIvhcL3jkyEi6OdGMFMrNmArPlX\r\nIq/5GPRmD8SVrUQR/Z/VuB0eAaFw0cgpYIlEIvk14V3AsbGxYuo3Pj4WyWmFmNXyIDxC8q22zZJe\r\nY9VQ0gsu1gggCzHlYEtjx3o66/a64DDJnlZPIsyd3Jigp//ZzJHd84YG3qmroZ6Ti5mEThz0ngHQ\r\nkR2d2RsaEniuJk9odVoSTXoYvEJg8g6itFD4rmY461zgYDaRfQrLzRtGT3+46MzQkH2tZ6AYCdNQ\r\nODwNrcZJQ2HrDGaKi5EEGf1PIlTvaoSTiys8fSPg4RNG4SkbN3QeQXDzDSM/ScgaPaA3usNE6LUG\r\nOOnNcPOPEZs4eMOFq8EkNoE4kV8a8svg5gevwGixUcSZ4q7kRUe+UHw1zq4w+UTCnaeY6dk4aU1w\r\nCwiHzmgSo3c8TW70DYWG3HN+aCnOnA8sqHkU0WDyovRFwZlErBOJPY1GBzPF3egXSWEalZFGNTyJ\r\nRCKR/OKwAFTXACYmxCMlPRfT1p0hAZhntW2W9BqrhpJecLEEoNjFajGS9VPg9Wi8m9XeUQs7DQse\r\nFoB8j/0i2E+NxREzajjiN8ddS8KI7qujjmKXK5l33Hd2Zrd0T939KuyS8FP964Zqxv46CwEnzidk\r\n+8J/Ja+U8Fg8clzovoiPEr5Ij4X/ary74k/2Ou+fm/dKeGp61PAs7HN6+B79FnY7rirK/a7wO90T\r\nuo7fEolEIvn1YAEYHx/fKQCT0vNQvf5huIXKEcD/EquGkl5wsQTgfwMLKAOREeeEiCANtI6uMLAI\r\ndGEBpIiqX5YuoXS5IwSiRCKRSH5VzhWA+ajeeBZuYYVW22ZJr7FqKOkFF3MEkDd/dI5y9RoeoXPB\r\n/vXj8N1zQ/HvB4ahMsUBzk4sANmvX0Oc/f8jACUSiUTy69NNACYmICklCxPm7IbRN8Zq2yzpNVYN\r\nJb3gYghAFn1msxmRUZHw8HT/SSKQz80L9HfBv/8wBHjmd8DLfXGyxQ52dtbtSyQSiUTyW6PrHMCu\r\ng6BZCDo5OVptmyW9xqqhpBdcLAHIPZu0tDRUVVXAZDKRWe/85NE/vasT7r9qBPDSFSQCB2JRuQPs\r\nHP6309ISiUQikVwsrAnA1JQUMXNmrW2W9BqrhpJecDGngO3s7FBRUQlvLy9o+HNoVuz1hNekOTi4\r\nICdtHB4/NhK3bxkDk9hMIQWgRCKRSC4PrAlAPj7NwcHBatss6TVWDSW94GIJQC7E8YnJyM/LUXac\r\nWrFzPpydnBEeOg7tixzRPEUDLX8r14o9iUQikUh+i5xPANrb21ttmyW9xqqhpBdcDAHIhz5zYa6u\r\nroa3tzdcXfkMP+t2raF1IcGo1SAq0BnebspZdvK4EolEIpFcLsgRwF8Mq4aSXnCx1gDm5+dhwoQJ\r\nKCkpgX+Afy++BNITrfjUGn8Jw/p9iUQikUh+m0gB+Ith1VDSCy7WFDAvZGVY+P2UXcASiUQikVzu\r\ndAlARfxJAXjRsGoo6QUXSwD+XDjsXxN+CXX82TQr9367cD7+r7AWH8nPhcvm5Vc+f1n+2zyTeS75\r\nNeClUfwd4KSkJAELwJSUFDg6ymNg/kusGkp6wf9aAPJLwcfG8HeEVfh7wmz2S2A205Xgq4L5N4+1\r\ndP6aiDylq+UztISfp3I91+1vga6y8t9h6WfPPFKxtMNY80fSHcu8+ql5prrtiTW7vxTdw77Qe/JL\r\nvkM9/ebfPye8ixVHNfyL5d/FQXlHf3qc2J27u5sQfHxcGpOamoqMjAwxY2atbZb0GquGkl5wsQSg\r\no5OT2M3k6OBo9f754NPReeqYh8E19CKI79l29Jgs7am7gnnUiXtMIiy6/pS4q3Z5mlr9Xw3rx/kp\r\ndn9ZxHpJyrNz46/kT/ffXebsjn/zN5HZfZc9a3T5w+Fc2L5ynys6g8Fwzr1zf1s+E/W+5dXSvKfZ\r\n+VDtKqhLEfh/NSwRXse1K/8Ut6p9HiG29OdioXHWiDCUEWj+yo1SDtV4cdjqb7av/u7yQ41rb1DK\r\nB3+T2tJtV3qtc/77Hf5RufkpcRFpE/9T+oV75Xl0t9f9t3BjEQ/lm+BdZupvxR3HqyvPzvXbAgs/\r\nLM0sn4FKl1+/HPxtcvX5cpjdn7UV2A7lIV+t3v8vUMPvmQdsxs/M0vzHEP78RDcM1//29naiXhdl\r\nrTM+3d9fa1g+RzU9ls+552/VDofT3fxCWNYpSh2huLeepz3h8Fxd9WIEkKd91RFAFoHsp7W2WdJr\r\nrBpKesHFEID8ImRnZ2PB/AUoyMs9pzI5H44aFwSFRmDatOliB7GfjzdcNA5w6hB47C/75aihCoFe\r\nQj4x3cmRwsorxNKlzcjJyhR2HRgHtk/iU8ufpHPo+O0kpnbU8LhS8fQJQN2MGXAYZyMqHTZne3yG\r\nIQtK/s1hcvjq/S7B6UAvK4tVpaJinDXKJ/DYPcdDDYvhfOWXm++roo391lB6uLJTw1Piy2GQCOb0\r\nUjq4UlPtW/qp2HfBokWLEBYSSPedRTzV+Aj3HfFl/xT7TkKYc5icR65Gd8RExcDO1lakR42/vUiv\r\ns3DP+cd+OJF/elcTYqOj4GA77pz4OJN9O3omZdWTsWVTG8omllI+UPrILzX/LOOkiohuflAe8T3V\r\nPjeOXfadBXxPeaZKJWxpX/Gf8oB+O5PfDpTOyurpGJ+bTeZK+tg+p1+jcaSG1FlUxBpHOzg7kbmd\r\nLcaX16BsfKHwk/3j/GDU58fm/JvvqeEzan4o8VSuHHe+qnlpS+6yCyZgatUkCssewcHhWNOyEVUT\r\nxsPeZhxCQoKxqmUDqssp7zhd5CY9Kw8zp0ymcCm+FIYaPj8PNXz+reaBJZwP0bFxMOqVfGMzvlrG\r\n15Ke6eH3hMUGx5/Liz3FISo6Hp5GnUiP6p+IDz0PLoP29lxm2K7yjNXwnKis8//h4ZHwcDfDjszY\r\nvWOne0WIq6gNZpf/inDkcNltV/gUV60e9bNr4arr7lbNLzUOHB+1TuGOqpbfRSovjo5a1E6vo3zS\r\niTyzs+V3mMPj8BX7ap6o8eErx6fnb7bHv5XwOuJLv/mqxktNI6fJy8sPofT+2trYwN3NC3W1tXCg\r\ncqi4V+oc1X8t+edCdWVT01IE+nlBS+5FvUf31PAUv5Uyx/UL5zub8bPk8Bg7KnucLvW5ijTwO+Gs\r\nw4xZtfB1Mwr/2E5B8QRs2rQe4cH+ZFfxQ6SP4yPSwO8Ih09lnX5zmGPGjkXRhHIkRUeKcqz4dW75\r\ntITTqnc1YGJ5ObUDUzFrWg2SEmJQQW2Ch7s7bGyVdLD/av7yb44P/29PZhoqC9UVUxARHEzvGj0v\r\nShun29K+EpZSlyjwerx4aLhO5HNnyUyNc1d+KnB6x5FfZRWVGF+cS2ni/NQiMT6GyjHnTc86QXHf\r\n05/zrQHkZ22tbZb0GquGkl5wMQQgF/SAAH8EBYdh644d8KNKyqlH4beGHQmUUnpxN7WRcCibiJ27\r\ndsFNr0VMXCJm19UhJiIUPv7BCAsNhh291JGRkcjMzEV7+zZER8dh1979iIuMQEJ8ElUeM5CVlkIv\r\npB2i6MWeXV+P3NwcUXlz/PjKlZ5vYAT279mFaZNrkJOZLl76EGqc6mbNQGpiHBztbeHt7YMZM+tQ\r\nTg0yVzzp6enCv9TkRBiMRuTl5aO0pAhlkyrg7m4S6a6dNQtpKYmdlYFII129fHwRGxNDYsMBYWFh\r\n8CeR6x8Yilm1s5FN4XNDGxkVhcLCYkyurIS3rx9iqZLghio4JBRhQf6iMlP95MolMTEDi5cshb+v\r\nO1wN7sjOysLECSWYOKkKQYF+lDfRKKMKlfPUhdyGhUUgJzcL06dUw9PbC9Pr5uHo4cMoKiwU8Y+M\r\niBINUElRnhBHkZHRKJlYhoqKcpiMJkyZVY+rjx7GhMICeHp6ispXzVeOk4e3L/YcoGcRFQYTPT8v\r\nyr/pM2ejoqxUCPKgkDBkZGZj5sxp8PbyJHdKmeERX2fyy8PDA9NmzEJVRRnZ18I/IARpaen0DGZS\r\np8AL7hTm5GnTUF4xCXEkRH38AjCdRHxNVTUMBleEhkWjsKgI06bWwGwwISA4BHMWNCMjMVY0ECw+\r\nJkwoRcn48ZQ/PvT8inDdyWtQOakYwUE+9Ix80LCgCTnpfCbXOBgNRkyePI3KSDU1TkYq26HIpWc+\r\nc/o0+FCj5ELCY0JpGWaT+PDzp7LekR8M34uNjaZ8dxSNQ1RUJKUnADMb51P+ZVHDzfa0yMqdgJUL\r\n5sJxnK1ozPPGl2N18yKMGzdOHKVUWzcHE0sKRKPt4+uPLHrGtVQmA/y8qUHS0bMtJ5FbjXTKJz42\r\nqauMOyEuPgFXX3sCDbOmUoMTK8x5d35tbR38fH07RaQKj9pOmjSJns8MBPr6wJPCC6I81OlNiKay\r\nGRUVh6uuPo4FDTOp7PGnqzTIzS+iONYjhMqbv18wSik+BQXFmDi+CAZXPUpKJ2JmXS1CuV4ICsH+\r\nA1eiefE8pKWmCIGbmpZB8ZmNsEASGKJjpcSfyxM3lEX0PGfNbkBsJJUps5ncpdIzn4UUEgf21AAn\r\nJ6egcf4iHL3yEAw6i7qGGnNfKh+FJGCKC4swqXwC9DoNEimfGhvqkRgbRc/YFgmJyWicswDXHDoC\r\nVxdHhNE7Wlc3G/GxMeJ9iybBWzqxHKXFBaKMxVF4U6ZMQXZGGj1XeyrPWSQ+G0SdwJ2g3Lw8jC+Z\r\ngNzsLCFAwvidIv+Sk+JFB1atYzmdnh6eWLFqI3ZsbROd2ICgcOzdf4DK22Sqs7JF/IJDIqiOqEV6\r\nahKcSGSlpuZgyZIl8HFzhQuJVK4LuczXVFeIWRQNn6Agnr8jvPz8EBjgKwSth6c3QkgY+VMdNXt2\r\nPQpz80hwsCCPps56HqZNqaQOoQlbtm6Hr4cZ8YkpJE69YE/PeO36tchKiYUt+RMQFEzPezYKigrg\r\nRHVsNJUJLk/FhXlwpvh4evpiyuQpOHL0GuRRnE3uHpg+bQqqqqrE8+R0dz6jDtTyp6XyEpsQjwP7\r\nD2Nu/QwE+XtjzeYtlP6ZqKyaQnmnQ2hoqHjnyyZMILfOIv7ji0tEPa53dsCqZeuRQu1FCOV7cFCA\r\nKDPVNTWYQfWG2c0s6hrOH4afRUnZJBw7cQIVpSUI8PeDweRO9cd0VFdVwuTaFV++shu/wGDUL1iE\r\nzLRoyj8X5BdMxA3XHUXFpHLq0AVTGvX0DlWIOHt6eYh3hDuylum2JgBT5CaQi4FVQ0kvuFgC0I1e\r\nuKnTZ2BDawtVyHqqFH/cT0fqfZVWTkVj3SwMHzYEq1vbqNHjnudm5OVkY8/OdmRmFaB943o4Uy+9\r\nffMmLFzSjMlU6Y0YPgJz5i7BPKrUj11zDYmZPOwiAenrH4S9hw5hUkkhNTzBVJk7i3WGXKkplWMo\r\nbrzheqo8irF95y5q3GLQvmUr8rMzsW/vLgQGBmL9pq0kLirF5+1cqLFNSU1H2cSJOLhvF/KLxmPf\r\n/t04fPAg2re1o5JE0oa2jRTfTOzavZfEaphohDk8Hn308Q8hf/eJRmrzpjbqNSaitW0LcvJysWMH\r\nhR8agd27DmHBnNlYta4VE0srSAjvFtMFLa0bkJ1CDUiHf0pF74y4hGTsP3glYsMCqWKOxaGDh7F3\r\n72Fs3dIuRo0OHrqSKr8KbNi4CakJcVjXsgkrli/C0uZlVGFWomZ6A66k+LMg8qBKP4oaea5MDx7Y\r\nR4I6Flt3HsSMGdMpHzahICeL7NfhyJGD1BgWCQHIFSLHh/NVrzegce4C3HnXnWhZu1oItzVrWygd\r\n5Vi5ah0J03zMn9+EzRtb0DB3IeaQKGBR405CiqeM7UkkrVy9BtWTSrFk6XJMriojMToH27duIaE6\r\nF/PqazF38VKqaIuxcdt2TK+eBHfvAOTlF2Bj+1aUUiO4YvlGLFk0D8uWr0U1NfieXr5oadtGdieS\r\noBpLzyQaE8sqcctNNyE1KQY5+cU4fu01JDgnIjQkgASrrxiBa5w5WbwPiyi8WSRWG+YsQgOJvIbZ\r\niykPV2LOvCVkpxqZecXYuXsrEilv3cwGMdrC6TFTejRaA5WHDSSGoyncCLRtWIewkCAsaF6O5kWz\r\nqHFXRrGTqEFfNrcBjra2ohOSnkPpWDJfCEAWxHMXLMHK5QswiuJTPXUmdu/YTu9XPZYsnkMNfyma\r\nmhZiVv0ibNmwVrxHShlXnk18AgnAq4+hftY0IUC5YVrWvFSMcm6jd4nFKec9x5nfXQMJABYw9fR8\r\nWlYtRm5JKXV46uDuFYItmzYghvw4ctXVmN8wA3EkbnNyC7GennVecTk2bdyIBXMXYVv7FhzcfxC7\r\ntu1AeHAQMrJJMNfPE/ELCgrE3n1HKP2NSEtKpA5aHJWHDcgtmoBdO7ZB76IhkWUUZYtHW/RUf2Rl\r\n5aBqykzyb5MQayevvZpEfBl2bm5DOHVQtmxpQ1ZeAfbt2UnvlrKUhMukMvo7GXt3bsehQ/ROULzK\r\nJ3GdsgEZWRnYu2sbkhPjyf1GZGXnYS8Jn1B65zeTveycfOzds5sEiD+OHbsJk2uqsJXqnOycPBw9\r\neQKl40vo/j64m13p+aVjwsQqqgcOw8fTHZkZGaIM7dq2WdSF26j85mTnYs+eveSfHzSULhb2XNd6\r\nenph2eqN2LllA/JJ8PkFBOPEDTeggsTNnu27EUqdvrYt25Cbk4NdFJ/Q4EDKg1QcoHc+MsCHnrcD\r\nDhy5EnMbZmPN+vWUjmwSpdTZpPQ70vPPoA4Oi/VwEk2FEyqwaMECtG3cgrzcXBJ67UiiZ9C+dS89\r\njzlYtmI5iqkubGlZT2V+JtasXC4Erw29o8tXLkN6UjTFWU/2t6GQysiGTduQQyI4NJQ6reTu0N6D\r\nVGdEYs2a9fSuT0Ar1Z0ZJHoXL1uFpvmNom7hKVSlzu/eJnB55c6Hhp7/aBsbrFyxFmmJURg3Zgw2\r\nU53Z2FhL6WtHDrUFwVSXFxSWYPeePUihjva69TuxqLEBq9e2oiA3A4vmLkcj1Vkb2lrhQYKvdvZC\r\nrFvTjDgS9hwGLx3gL1SpS1QmlFfg6PHjqKZOqj91eBYtW4npkydh3qJmqqNmitFDfg95jTWLOR+/\r\nQKxcvxF10yaQsLanuJTixLVXUr1UAT8/X5RXcllpQzx1uLgDyR1pXvfHZVpNrzUBGJ+YBDvqUFhr\r\nmyW9xqqhpBdcLAHIFXBUbCxWt7Qgma4sgqzZVeEpXQfq6U6kHl5j3XQSdCOxpnUTahsbcdXRI9R7\r\nrsUmakh9qXFubd2ImdT7X9g4A9XTZmJazSSMGDYM86iRnNs4B2tXNGH40EFYsX4L9UwjMKGMXkaq\r\nQCdXVojePDcuvr4+YrTNNygSG9e3kPshWEIVzhQSoMepIphNIrStrYUaiSxsI6FhP3a0mCLVkcBZ\r\nQIJg7pwGEkEHUDqxDPPqZmDFwsViRGDhkkZcfewa0dvfSJVsbGSUSLuvr6+obOztNVi+vAW1M6eg\r\ndfUy+Pr54+R115OoqMOGDVRhRCdh3dpNCPA0w+TmDgM15HMWLKXGezo2b1gvRid4VMyPevUsCjnv\r\nRo0eg6XL2xBLwiIoOAFLFi4hkdWMispKNNbWo3XDBtjbjUbVtBmoKStB89K1iCOxyGlxd3NDRHQi\r\n1jQ3YcyIEWL6lkfrFs9fgMNHDlPlnYo1qzfDi57n7Mb5GJ+fBe/gcCxbtRyjRgzvfK4+Pj5wpYZC\r\nQ5WjxsUV27fvgJtJD53ZG7u2b4Xd2FGIT81D8+K5JBAXIy8zidy6wJfcsUjhitHNbIKLwQPbyK2j\r\n7RiEx1DFTkK1tm4eygqyxWiZh5sHljStwNpVTVi3bh0C/byRwwJo6VJspMZy2qRJaFq4CnGBviie\r\nUEMCbQqGDR2KkvIpQgDakgAcN84eU2bWY0pFEVXso8Wo3rZNGynudmL0bRw1PtmFE9AwvQajxzmg\r\nfcceeLq6wOQdgo0tq9FQtwBZSbFISMuhRrMeBpMZK1atQeu6tYgMCRRTONz4sqDiKcSFS5ahvX0H\r\n9u7eidUrm2FvY4v4lGw0LZguRlMcHOl3ci6aSPSPG2sjGpTkzDwsXdAIG5txYgQoIj4JK5bOwcgR\r\nwzB5Wh2qyorgERyFFSuWIKuwDLtJaCxfsYIERJaYluOyxmWcR0fGURit6zchkMrUyBGjsWr1eqRS\r\nwzrKVkudqp3wINHKDRs/AzHSHBGNNatWoolE6ua2VcgbPxF1sybD4BaIrZtaYW87FmvWbUBUkC9G\r\nDxuJOVTeiqnRHTbCBi30zq1sWkMdoSmYN2cOlaNlyM7IRvOKlVi4aCkJsS0YM2oEvUMrkBYfQu6H\r\noKxmCo4eOoAG6ry1rKMOI5V5FqQ+Pt6iLvHy8ceKlatJcC/Agb2bqVORiZXLFsLBwRVb1rZhUlUN\r\n5tZWY6ydhgTeRhj1yg5LH3pH7BztqU6ppvqihp7DEurINGJ5SyvqplRhwIDBWLp0JXWE6H1umIUR\r\nY+2waXUrsnLzceL41Zg9azY20TsXGUadwg27oHdwgqe7ByKoXLa0tsLOxp6E5BaEUFnjOmHO3Pk4\r\netVV8HUzwezuhfXU+TUbXOj9SsD1J6+ljkwdNm7YiOiwMEoXlX0/H3pOrqIDVFg8FfXTyjGS6jFv\r\nX8rnrZvhQPXNmpXrUUzi+eqTJ8k91ykbERMdgpEjh2El1RMRJDacHBxJkG2Bn4cXzPR+uJNQ4XeS\r\n6xZ+/mERsfT8N+DY8WNY07IWc+rnkrBfgaFDB6K8ZjpmTq7C6jUbERlMdQrVjW7untizaz9uv+UG\r\nqme8YUvlacw4WzQvX4rEmBD4B4RSR2ALhg8ZhCISvXN59H3qdKpz5pPoP4JCISy3iLakYf5S5Kcl\r\nITI2ERtJLC5auIjKmgHO1JF2dOwa5VXrEBZJPIVsZ+9E5XQdstNiqPw7YfWmdni6GagOq0dFaZGY\r\n3Vi8aAn2UCeDy/zypesR5uVG6ZmFyonFWDivGWfuuhsZ6fEYO3YsgsOjsI465suXN8OX7LlQx5nr\r\nZC73PKvjTp3Eti2b4Uj1vCN12rbt3g29xg7+IbFU764RM0mijqL6kuPKfhaQmK6dOpHe0bHQG81o\r\n37IOTtR5s7Mbh4CAIOokrqe6czWCqRxyJ4/DYtGvppcFIA8qKOIvAYkp6SiubYHJN9pq2yzpNVYN\r\nJb3gYghAJiwsFBER9NK1bqBeVwQcSBhYs6eiCMBxVFlPJ7HWhmnU22+hRiYkMoZ6ebuRlp5C/kSL\r\ndTEFpZPwwJn7qWIORgRVLLt3bEVKchrat7cjPS0LO6nyTExMpkp0K/XG3RAeHY2CovFi2tJAFbKY\r\naiQ6p4D37UZCQiy2UK8/MjyaeukHkJuZhtiYSLJvwo5dezChKB/h4eEkGENI+F2JjIxMXHnlYUws\r\nm4hFDbVYTY3LTOoxz5xVQ/HYQZVSDhLiEmDQ6sSoI1d0IkyqCOIT0/HQQ2dQQmLKWWfEjj17UZSf\r\nJ3qDWhcjNRLbEeLrBT4I29HJHkHhMbjv9BnMJAHDo0M9n098QiIOHjlBldFkSkcOFi9uwpJFK1E1\r\nuYbE6WxqHNqRnJyE9W2bEBsVTj3rDUiODKEGlNcyUYMfFo0Du3chJS4G7t4+2H/4ahRl5+DQ4UPI\r\nSklD69qt8CORM2f+YowvyoXZNwh79+1DUkK8qBA5bWr6OK0ueiN2794DLw8DHJz12E7PobQgF8tI\r\nUPAU2lxuFHJSqJJ3FAKS3al+OJIobNu4GaXji6hRbUbNJB59Woiy8TmwpWc/zs4RK1va0LZ2BSrL\r\nJkDr7Ih1m3egetJErG3biqkkepsXr0VKaBAmVsxAw4zJ1NP3wZoNm7Fl/Rr63wNZ+QW48cQJlBTm\r\nICQ0gPLTQMJiF4rzsqiD4SlEaTOJpN1UDn19/NC0fA2mVVdgWu1cNMycRp2DRSigRi01pxDLl8wh\r\n4eom1titWdeG+bWTRUeB08LPhtcAzV+wCFfu34OtO/ZhfctKuJu9MHfxchzcsxkhISHwpvDmzV+B\r\nAzu2ITw4BF6ePphPaT+4ZztCQ4NJTPqgcV4TDh7YQfZ9MHl6HaWzBP6R8Vi5aglKKqeTANxKz78a\r\nfhR/NWx1pMXWzgFrKf3Tq0opLF9MmToTy5YuRMH4MmwgweVCecjPQI1vxZQZaKHOSdXkqfQuUl5m\r\n5qKNOknVPPK7f4d4B1eubUXjtBoE+vqjuHQiWtesRHZeMYmedWhsWIypU2ZjIQmCpgXLSVzNozLd\r\nitJJ1SJN46iRnUvpWTR3llhTFp+aQZ2sLUhKjkdEeKhYg6VO0fH0ZEpmjhjNLyiagCMH25GWkYWW\r\nlUsovm7YsWEbddJysXnjOkyqnIyTx6+Ca8cUMNcpttRwl9dMRv3smfQcl6ORytK0mdPRvnkjUlJT\r\nKNxtFO988bu0rBrXXXM1wsMixMhfdnqqWOtqdPPHzo174OaihSOV2YDQGGwgIaZx0JIQakcKNd4H\r\nDx5AFsXz2DUkAEn8b9t7EKuaFyKVwvAJCMa+vfupTslELJUTA3WmlGejxJPXpWbklWHb5hZER4TD\r\nLzAU26ksuFD91LpuC1Jik6iO2C/qlEQewaL0JaSkiGn42dVVcDOasJWefzA9C0enrrqGp4EdNY4k\r\n3L1w8613YgEJ8rvuuhXp5HbXzt1UV6aQKNqElIQErFvfjrjwIHofNVTvuKJ901bKz0kkatpI9BpJ\r\n9MZj/6E9mDt7Knzo/d+5c4+Y/m5pbROzAgcOUJ2ZnU3Xq5CRQmJvS7tYUnL02huQl5YMHyrXcVRH\r\nH77yKBLjIuGg0WLdhk0k5hPEMxbPq6MM8signZ0TidX1VP9EUfmld7x9u1gTPr12DqrKi7F1126U\r\nFBRS3bwPBXnZWLWsDRH+fqiaXo8qEoCLqONRUz4ZO3ftQHiQH9XzQYik+nj73r0oLsgQo6ZqeHw1\r\nUR7tPUDPiN5rD3cTVqxrxaTyMjRQZ3U2vfM8zc/1Lj83th8UFET10AZs3bgagYF+os7bu3c3iigv\r\nfLy9qN7wR0xMAjZRx28KdUp5BJHddaWxhwCkujQpIw+zNjwC/6giq22zpNdYNZT0goshALkCys/P\r\nF+v2UhKTOhqkC/vJvT7+ZnBQSAQqKyqocS6CiUfMqHJMz8zGggULMLF0AvXcnOBKDW5uTraIp72j\r\nBjl5BVhAjU1MZDiCgiNx8pprMIuET3R4BHTU054ybSrmzm2gio7XP3WNRPLLqHM1o4pHEObMFoLP\r\n1t5ODMPPm78A1VWTyL2y9m7evAWooHhpKB1F1ODVUiOSkZosvnISTWI3LjIKoWQvwM8TUfTiz5u/\r\nCJNrpojK3vKl5wXnWr1JrEc0Gw3QkOCJjIqh+M0TI4iuJDjjqMJ3M/Dn83jtiYZEmReuOXEcASQK\r\neeRAqYiU/GS/M7MyUV5WjrKJJQgODBYiNpJ6/QGB/ogKi8Lhg/uwhPIvi0QtjzbFRSfAy+wq1mWy\r\nexaaRSVlmE954OvpjuSUVDTQs8vOzIAn9VrjYlJhpHiHUS86wM+fGlVnFJaUY/7cuUIsqSKuE61e\r\nLGY2uOoofY5iumY+pW9SWalY4xdJot7H24OehYUbhtLDo7L+/v4kIqiip/zm/AoLjQQvdndwtIMj\r\nCcr27fswo6YCzc3LsGJxI4ICI4X9ooJ8sueH2IhI+JuM5E8oQgN8KS+iMZEq4epJZfSMKH/oWZWT\r\ncC8rn4Co6EjYU2OTRI3T4oXzEBMVRuEFolzYL0UUNchmKm9cnqbW1ECvNSKcBECAlxkelPZIEpBh\r\nYeH0/OZg6uRqyi96ph0CjOH/w0JDEU/hBJHQjo0MpQYjBGWVVaiaVE4NQBz9DkLFpBoKr4I6DfQ7\r\nIAjllPZKikN8fCylg+NTSZQhMYmea1CoGHUyuHlSJysUDfObSNAtovCn4dC+XdBplfKmbnhigRFI\r\nebiY3hGeHuTlGJNrpqKhvl6sb+VGX4kviwZuDD3Eeq4KagD5nXDRGTB1+ixUV3B8osV76k9pWDS3\r\nEYX0nvOatjKK3xzKg0B/X3oH+T2MIDEXgZiIOHiToOX1epUkzhMovVwmvDx96ZnVoZzeaV5flldY\r\nTO/wPOTn5YpRSMtywSPVNZS2GsrfpMQYeJIgjouOoPi6IikukeKnp/ysRA2ViSQSY6rwZQHoSO8P\r\nr1fjdcORJOYiwqiT42Yi0VeEhQvm03OJgB11hEpLy8Wau9SEJLhQnZKUmoYF8xpRPrEMehczkmIS\r\noae4uFDcTGZP6qzFUF3kIhpvo6sW40srMHPaTGSkpZLAd0MxidUyyr/x4wvpebhSupNFHVVVUQkD\r\nvdd6en91HfFktK6cxsmYNXMG3Cm/eFOSluIeF5cMk6sJUZROrpMmV1dTeK7Iys1DefkkVE4ogaeb\r\nu7BvNhgpvyzrWa3yTrnokZWRTfY8kEEdO1e9FrFx8SI+BdTp0XCnNCGZ6gQefeONaq4kSJIoH52o\r\nLkhGENVxyekZJIjKRaeLR7fDo2JJ4C8gMZUvRrnTqI6up/KUl5MLN5OBOuYJJPwbkUV1k5ebGdnU\r\n6ZpD4fHSHFctbzzRombqNIRHBIslE11xVtBQOmJILPt4GOm+M2KoQ2+k9iA4NAL+vp6IofjOmzNP\r\nTEP7eHlSxzaB6kwDAqj9CKYyGEX1nzvlRwTVNdHULiTQ85yzYK6oI41UJ/PJB5bhOZEgTc3MwhKe\r\npg4JgIenJ+oa5lJ+V1EdruSjWu/yO81T2co7Wkb/R4h1qAnJ6VSHLEJUZCSio2NEm1FTUQ6j0VV0\r\naCzDE+XaigCcve5B+IeXWG2bJb3GqqGkF1ysEUCeBuPRBL5au38+eOpYdcsvCVfmjo729IJR4+/E\r\nO86UnbTqbjKxA43s88iYg4MtiZ5Q1E6fJqa91IZY3R3H9qwJUb4n7lPlzmlne/xbDYOnNfm3mhY2\r\n5/D4N4fBsFvL/y3dW4PvKWKuawebal8IKrqyX7wjdPPmzWLRPodn+Wx4hyvb45E8rXsQNWQOMJgD\r\nqIL3hQM1HjrPULqasGjZOmo0zHDQmqH3i4STvTNcfSKgoYbd1eQJo2cQxtqPg4vRX+wodDZ6w1Hn\r\nLuKk9woW0zGuHiFkn0SbiwlGnygKkyptcxCcyA9e9K7GiRF5SP6o/3M6RJ4R6m/l2SoVak/sKZ0O\r\nej9o9D7UuJtg8AoXz8RA8dS6+mDekvVo2bAHq1Ysw8TK6XB21MGJ0uZsVKaTXb39RUOmM3pBa/Ai\r\nMxLhbsEYZzdO5I/O2QhbR1c4mkPoqoHROwqOWhPsKW1asy/lsy3lZyDlJz1vgzfli5cYrdSaw0gc\r\naKkDEkz+UmNJAsuV8p1HB5yMvrBzpDSRuDcY3SgdXDaVZ8V5YQnHkfOW+bm/GfabRxYmlVegpWUN\r\nFjc1Y9aM6eIe5yM3MOozYXdsV3kHusq86o8l/Gz4Hj8vdqfa598sJnkJArtj/yzfCWVXNcdNiaMY\r\nTbKIP+/UFe4pX1Sz7u7PX1/wPfU+x0+NF++Q5yu7V+LXwz2XKXrGvMtTT+8DTzu6etGVRI6dxgQX\r\n90gStPQeuIdBQ++FXu8Bg3s4PVPKQ3MgbG0dSBBT2XelzhcJNzP5wfWB1o3KkcEdTi7k1iOQOhGO\r\n0JsjSEgYqLx4UFn0JzMH6Oi9YUHlTOXQUedG8dXBncJypY5Mz++bq2kQ6aN8EruTO9LJVyUPlTqC\r\n0ynyhH9b5Me5KGVQzTdl12+Xf2zOdSh3vMTu4g53nfmr5rcaHqHmv+petce/Rfw73Kv32b7lfTUM\r\n/p/LAZdV1UyFzdgPdqv+z+ZK+eoKvzO/2G7nfaXcqebqb2Gf6BmWgMJQ4yg6pgSfmmAZXxWOD/vJ\r\ndhX7Shq4bPNvDpfN2C3vblfT0NMfXqbAwl0cBM0iMDkDuePr4GoIsdo2S3qNVUNJL7hYAvDnwmti\r\neP0S03UQbu8P2mQ3emr4VPe/ZTgNvG6EFx/zM7HMF3GfKhDP8CxEZixCeOEKBKTNQHTeMoTkL0Vw\r\nVj2Ci5sQnD8X4flLEJg9F4F5CxFavBT+6bMQRvYDc+chjO7xfb/0qYguWoWgzDpEFC5FeF4TAjNn\r\nkB/NCCJ/IwqWIyh7HkIz2e0ShJC9sPEr4Z9SQfmtFcKdKzT1+RmNP47yXLsQZp6+8EmdhggKNzSn\r\nESEUx6iiFRSvWQgtWorQvPkIyFuKlIpWROQ0IKRgBUJy6hGQS/EpWozgjNkIm7ASIZTeqMIFFO9F\r\nCMmahaCSJvhmz0I0pTuY3IXnzKe8WIuAjFpEllAaKZzgAnJPaQ/KrhVhhVDeRVI8Qii9/rmN9P8K\r\nkf7w/HmIzKV8zW1AFN33Iz8iJqxDUB7Zp3uePoGUF9qOdHY9T5HGDkxs1pHububqbws3lmbK/11l\r\nnfObywavLeIdveI5dJQRtquWGbbPZcnawcNdqIeJ9/z/t4hZTI0aXA0IiyxHdA49T35HMul5j6fy\r\ny8+bynho4XJE5C6i57icysxsesZUxoqa6R2ZgTh6fwKozIQVLaJywffnILKold6VBnLXjLAcet45\r\nC6icUdlKJ3/JXTiVuwAqc8FU9sKyGyislQjPYD/oXWQ3BQsRFFkMg94VruIdOLcOk1x8usrz//6g\r\nfIbfTw8P986DoPmakpSMNLryUVzW2mZJr7FqKOkF/2sByGEzygviIRbSq/AL82Modt26ufstw2vs\r\nGOW3lXR5+cHHP1Js5nD3i4Cbhxfcvf3gQWYmuu/pH0X2vEiUhMDbN4jsmeEZGA4z+eXhH0ruA2D2\r\n8IR7YKQw8w6IhgeJME9Pf/o/RPjhHRAJN3dvIWy8/YLJPw94B0YJdx4UPj+nnwJPIfGVxQqPUun1\r\nymHIjFanh8GdBJSehLzeBL2bt5h251EWZ50JOoMZLkZ3MqNetVuwmN7Smr3gQubOrkayx6N/Ohjd\r\n/aA1uMPZaCZ7PnB00UDnHiCmC/VGD+hMXnDWusLkQWZk39XoRX57iDWZenLrxPbdSFCRnzpXdzIL\r\nEFNyrhQ3Z+GHO3RmdzhRWdWRHxryS0/x0Bl55yq57SjHPwc1P6zdOx893x9Gzduu/GWz82PptsuP\r\nnvw0P/876Lm4Ul5TWN3jpIbdFRfLOKlX9RkYXL2pPgmghpX8cwsUz5vLjJ7KAB+hY3JXNktwWXOh\r\nZ+2sNYoRPp5CdqVny+VKZ/CkMuAryqKWzagMuBrdSLRTWaIywyOIPBKuN3G58xDlTEdhcfnkzTNa\r\n8pfLo97sC62G08NlvStNEmt0L88XAy5X1sx/bfhd5Y4ZT/+y+FMPg05LSxWjh9baZkmvsWoo6QX/\r\nawHI8JA5ixvepcVCgXdfSc6DEFUk9MT/fKX8sjBTrmymCGT+X1xVOxb3Le910sNfho9r4N98VfD6\r\nyfDxOlzO+Fkzll8L4HWP4reApyjZjnJlM2Ff5wqd2LygEVM/Yu0SoXFW/levCh1li3rWLiTOhJ/C\r\nP54aZLOOcDrMFHuKmRIXSzO60m+ezhTxIP+VuHf5oU79/lxYHOgofdqOtXwXguPAQoJHG3lJQWd+\r\n0j0dCSHLBudC8HSVeh4gp+dCbvieOsVm7f7FojMdHY12z/vng4UDjwJyB0Mx4yM4DEIUimfEZh3P\r\nSn1uPP0npus4DwRK+pSrUg7Y3LJMdpZF9dl3+mtp1lF2hTsLexcJJV9+PG80FHdOo7V7P4fe+8d5\r\nYc28O5yPls9YnVGwtMMIO0TnO93t3rlmKuwfz5hYc9cbOH4908tT5z+lXFrC/llOASs7gRUxyHlr\r\nrW2W9BqrhpJecCkIQG6MeASQxYcylWUxdG7xf0+UKTQLM6PF/5Jew3muYu33fwv7w+JeLWcaJw34\r\nqw5iPQ1VjFwBchnoWk/TtSaNGxQ+OmXm7LkozE6Dk70tNcz8tQ8+uZ8baz2cnXT0P6/R0YjF3S4u\r\nLAS6yrQziTw+WoUP+eYGnr8GwmtM+RgijROv2elYs0a/WfDxmjblay+8xs2JGgIH5OXlgBfxOzlx\r\nA68l94p9ZZMRr72zCI/SwGu1RPrE/e7l3XJ9khKWI4qKJmL6dOXLHyzMOu9TXnEjxgLUwZ79dBAb\r\nkVpb14uvYLA9/roIn7/IG1M4riwM+esdInwKq2f4bJ6WngF3Ek1jx45BZmaOOGCXv+TAa9E4z9Xn\r\nwXHl//kgbz40XHwJokd9wb/V9VRsn81YXHH8eec95wfHnf1RGlVL98r/7JanshcvWSwaSranrrvt\r\nstsF+89uOD6urgbMmzcfbRvW0/NTGv/6+gZs2tQmREBPt+wuJi4OoUGB4ngPf/8AkXe2Fl8HUr8u\r\ndL7w+TmpecRCT8SXn5G65o7yke+LNWgd99X1y7zeTEdxXLNmjdhByuVd5Jd4xmxfcc9pY3PVv3Hj\r\n7DBnTj1CgoPouXbPQ7VMcTiML6UpicQGnyvZ5R+X+470cfzJPj8Xft6Ke8Vtl78KfM/Tw0sciM/+\r\n8fNU7Helr8u+Ul4XzFsEk8EodvKzfXXnL7vj953j2tTUJDZD8NrSjMxM7N6zFykkjjgObG/sWBuU\r\nTpiIHAq351eWnO0cMG/xEuRkZwn7/J5wfEQeUNp4hG37jl3IykgXv9VnxXb4GXAcuA5S42+5BpDv\r\n8Xpr3rjH50oqfttj5qxZKOcvHXU8458C5wGXSykAfxGsGkp6wf9aAHIDkZSSLL6kwbvpVNHhRvDB\r\nugYjrzHTkbjrvn6Gd1opZrzGw43s9BAsPF1Dlb/RoBdYrqWS/Poo52GRuCOB5RMYhLkLFqJ25gyx\r\nMD4sIhILFzdhTv1suNFz9fKlBpka9IUL5omzAqNi4rFi+SrEx0ZQRax83WDOnHmYW18Ls6sRkeEx\r\nmEgVc/OyZWKHHpepzpEIHiXT6jF16hSsam5CZFgIgoMjxZdOmpc3ISEmHHoqP7Pr52A+Na6ebmbx\r\npRbegblgwVx4eXlgfGklbrvlJrrfiNi4WGhdzairq8OC+XM6GnBFNHF4XJlzWhv5TLzFixAU6CvM\r\nuso774qOQlXVZKyg+EaGBopDZhctWY7xhbmwpUaIDzqurKrC8ualiKH08NT19GnTsWThfAQHBsLB\r\n1gHJqVlYt2qpEMfeXr6YTw1uRXkxNVi2CA6NRgX5v7x5OZKio7uFz/+nklg8fuPNWNG8CNnUAOXm\r\nV2D3li0Uh4VIjo+BXueKGTNrxVmLMVFR1GCl4fobbsaq5YupUcwVjZnqH0+7OlMDmZWTh1UrV6Kk\r\nuABanQ4zps/E8qVNiCf/3Dx9xZdLllF6szsabNU9i1XOv4n0PFa1tuLQ4X1kpsXE8mqsJP94Z7qy\r\nkUSxr4TpQvlTg6XLmpGVxQ28E9w8fLFnx1YYKWxuzHnKftfODWKHqhih5XhSvDn/wyMisO/wEWzf\r\ntAETxhchmMrfocMHsHjBfJSVThSbq9IpPUsp/XxAvLqRRk0315fZObmUR7OoDNaLg6xT0jPRvLQZ\r\nhfn0DEmQp6dnY0nTEixobIS/hz+lI4vKoiPSyT9eD1pYUoqmJU3woHdDQx0IzpcZ06di/twG6LXO\r\niE9KFecVllH8nMRJBclY3LQM191wgsqwN6VDHY3kMuVCwiIZSym8Kbwz3csbaze0i7MWp1RVUj1q\r\nFLt2m5cuE4fo8zPLzi2gMt8g3jmdC5XJmDgS302YSXHQ88gavzfkP4tTnp1ZtmwNjh+/BlMn18DL\r\ng4/aihPPc+aMKTBoO0Y8xfNhN65ob9+LJnrHWbAajXpkZGUKMR4bn4TgAF8kJmdixYrV4sgWLpO2\r\nJD4bFzSjlDpa4+gdCAgMJhG5EMePXodJJMS4w8XLQJQw+NxAR9TPpfKYmSoEZBTFZ8nipWhoaBBt\r\nB5+tOW3mPFSXFAnBxoddz6V7tbX1yM3KEF9c4nMiF8yrp2egh6e3vzjXcQnVOX70TldOm4lbbroZ\r\ns2dNR2REGOxI+NZQmZ5YVCSEtBqPnwKPSCsHQUsBeJGxaijpBf9TAUgFn49A2E89v9SkRLH2TR3F\r\n45fYZHCFZ3AsvGNzYXTjQ0NZ8JHQI0HoHZIM76B4Ie746BWf6AK4B0SR6GOxSHY8A+AbXQyf8Ey6\r\nVwSzpx+Zq6KxuziR/LKwMOfPJbm7m2FPDdfqDRvFZ86aV7ViZmUZPDy8kJmdh23bt6EkNwuTZ9Zj\r\nXcsaBAX5i3V4Xl7+4gwu/nTb6DFjsHj5akytKUfjoibUz6jB1GkN2NK2TnyHtGnhHBKJ48ShyFye\r\n+Fun5ZVTxIHMLJ4MehdMnjIXe7a3I7dovGj0axtYjE7DjNlzsHxRoxh1zsrOwdrWjWReiZDIBFx1\r\n5Ig4QsPDwxMzZy/EvIbZqJlWhxby18HeRhxqq56RyFdu8JcsW4WlixtFA8WikKfCbW3HoZ7CaVu3\r\nGjkFE+m6RmwQmFE/D8ub5mPkqDGYUVePrZvWIzOnGK1rV6KcxNDypsUoKa9AuziY2QaJJADXkCDj\r\nQ4X5KKHqmmnY0LoMNmNHkTiahR0b28T3XDe0rBAjn+pUvDPFL5CeRfuBQ6iqnIhgP3+KRzX2bmtH\r\nZl6eOF+PBVQaCRrOjy0kyny8fbB7735MrSxFSGioEAb8TPnzjzx6GhgWjn27d4mjkQL8eCe3Hqmp\r\n6dQAz8bWLRsQm5iNqw7sQxqf2UnPmL/3zXnEz4hHYFLSssV5iRGJ8djUTunOyqPfLSTUorFv7wH4\r\neXrClYS+v7+fInpIoCRRw1leORmHD+whAeYsBOCubVu6BKDJA9u3tXQKQG58+bghFj98cPKq9RvR\r\nROIkIiwMAWEROH7tMaQmp5IfO8XXI7bv3IbEpGQcJhEV6ONBopjD9xdChzdBHT9xLUrHF2Pl8hUo\r\nKihA+85dSCb7B/btEmcBbtqymcp8KHa20+/YFGxrb6ey4YTWrdsQ7O8tDt/ee+CAOP+Tly9cfc0x\r\nTCodL0RzUUEOtuzcgVRK4/49e8RGgU3tW8VRJJu3bkFUuI9IU0BAgJgud3DUYNuO3ZgxuUIckaKn\r\nzvCMxgX07NYikTosBlctwujZ5OcV4PCRQ4inDsbRq65BUU4mVq1dLz5J2bJxK+pmToW/r7eyO5jg\r\nL1zwJgo9lc/Kmpn07DYhMT4a3j5+4txCPupo+Zo2TJxQLI7y4WUevIbT0UmPvXuvROX4QswnUVxW\r\nVoq1mzbDy80kvt5UWpQFM3VaNrTtRn5qohD4LABnz1uK0txM2JLAWkvPJ5fE/5JFa1GZly1G67x8\r\nvOn98xBlgEcZuaPBnQF+5wL8g5CTXYBtO3eT//kYM2YspsyYhyrqkDg560Q+8ldrNrSup47XUqxe\r\n3Yp8Sv/0mXVonD0Fk2rqsam1BWHBlAadC9KycnHk0GFxzI83d/KonHN4eq2y057jwDNW4p3i/FLb\r\ntAvQJQAV8ScF4EXDqqGkF/wvBSB/AzQyLhEb160Tx5HwWUydwoHEn1fsBMTOuhLhpeuQULUHZu8I\r\nGN094Ubizi8iB77ByaLi9wqIRmTZenjHT4KHT4j4lqN3Qjniak/CL76UKIdXIB9i7AUP3zCYqPHh\r\nRt5o7i5UJL8MLBa4cWAB7qQ34fDVx7GYGt/5JOAKqDdeM70W8xfMRVv7NlRNGE/Pxh0LFjeJ43DC\r\nggMwaqQNKqbMQvmEAiEAtx04gpVL5mLO/AWYQKJlyrQ5KM3Pop6+PczU4PM0lJubWXQYbEl8Na1a\r\ng/z0ZIweNVp8aWPylDmYTI3WOBJPWp0BG7fvxxpqFBrmzkflxCKUkdBqblokvkwzr34K7By1JGQ2\r\nU8PoQO/LGKzftAMb1qxA/Zx5mD6lEs5O9kLQcDp5CokPIV+zchmWrliFFc1zRRy4IeX7LAZra+eg\r\nOC8JWpMndrRvhoPNWMSmZmPpggbxiUMWTuUkkJ31Hti4vhVLly3Hls3rMKu+AbPrZpBoGofYhDTy\r\neyHGUXpYBPKo3+pVTZRXw1FRMQvTS6nzExyCtvWrxbdb+TlwHPi9429wN1Pawvy9MHLEcOSPn4y6\r\nygoYSOhtWL8W0TFxdF2DusaF2LZhPWzGjMZKajjDAt3FtBzXFzxNyyND/A5nFkzAqqULMGr4cNiR\r\nwA0n95s3rCNhvQDbt5JoSM5DMwlmPoZox9atMGh5PZRB5BnnR/WUWkybXApHEhob21rFl2mmVFdg\r\nwJDhaGndjLhwPgOQj1Oh8Jwc4R8Ugo0bWzF11mxceWgvDPS89fxFGRJHfG4oN6gaEmzt7WvhynUb\r\nCSyOM4sHboS5DEwlwT0xO43yeziCw6Oxfv062Nu50HNdj5LCEhJkV2PGjFloaloizuPUuuhF+DzC\r\nxR3M7ds3w0CdT/Y3MSkd1157AjOmz8CiRfMxkcrP8uVNGEHldkPrBhKASeKrRg62dmjZxALQCyPG\r\njkPL+vXiC0C8MWXrtm2i7DprNYiOTcTJkyfFCOOSxYuRXzgBrSSIhw8bhnX0PGIifEl0uIj0cPh8\r\n/E4UhdG6jsTNiuV0zxFp+ROwsH6m+HqPi9YVy1euFt87P3joCNK4zqX4ONuORc2MenE+ZWBIONau\r\nWUNlaDncqZPNwp6fD29c4DIdn5CJlfSMhw8dDL+AEBK0mzB6+FAUlE5GQwN1ckigeVD+sCDVOBvQ\r\ntmEr3J3oXZhYhbraGVhBaTXrdZjdSPlOAnDwsOGY3bBMfGGH3Y61sUVt42IUZqSSYNNi++4dVJbs\r\nMKt2ISYV5IlRWf6mL79DavuhCEGeXnZCbf1cLJg3B5tICFeWFFO5HoGaKfUo43MmSSyvXb5cfJml\r\nqmISpXM1dmzeKtqckIhYtFEnib8FPH/REiozWxAR7C/O3NyycTNsbUaLEWaevhdTxR1hM2r9pv7+\r\nMbjsdX0JRArAi4hVQ0kv+F8KQK5kjPSi7dm7BxXUYKmNKL9UPKoXU7kNXnFl0DnaIXbKAURPOwLP\r\nyHxETFwvjlgIyJ6L2Jq9CEyvRdjEFkRNvwbBWbNh0mngl0gCsOEGeMcWk4DcgICsWsRM3Y/QCWug\r\np4pWjCZyWHJE8FeBR8D01FvnLxc0LV+NBQ2zUJDLh8h6YcPmHZgxbRLad+7BpJLxCKUGnw++3U6/\r\n87KTERkZj517DmLbZnqOAX6YQY3I0kVzUZCTAw8S9dNmNKKiiCp6B15vxNOFvIifr7wOyxYFxaXY\r\ntmUTigqLKB4+qK6ux7SJZbCne/bUyEyb1YCVzc0UVg58qEe/dOU6zK+fgXVtWzGvbjIJOAe0b92O\r\nGVNrEEJCdlL1VLRSQ1mQm43Q4GCqwJXNKVymea1Q44JFWL54PgnANdRozhMiRzRWBN+fNWsOVixt\r\nQO2cOWiYWQN/X1+sWLsBxw7vQ2xUNKomz8Tq5Uswc3YDGmfVIKegQAgjXocYFhZM9gOwYvlaXH30\r\niPiYPH9ZZNGSZiFaUlLiSMBOw4yyMgSEhWPDujUkAHltZdcUJgvA+c0r0Uyimw9TzyuqwOyaGrj7\r\nBaGlZTWKSyvRvrkFs2bPxfaNbeDP1S1oXi2+HZuQkNjpj0gTNV6+/mHYt38PyidOQExMDLIpv3eR\r\nQGCBtp2/+JGUi2VzG6F1NWF7+1YxwqJ+nYengxNTMsl8AxrnL8LBffsQF58kRgrLKiaLTgCLELHJ\r\nR9gnMUL29+7ZSc9hMo4e2g9vsxFTp9fh+htvwsSJ40UHr2ryDFx/wzHxOUhueLmRVePNz6CU/G4n\r\ncZyWmoKwyFhsIGHl5KjDxpZNJLCisG3nTkwoLkRaWopwL9LaAS872bFjMwlCE/ibr+5ePthJ9stK\r\nJyAjLQO+AUHiixRTp83EdSeuRWRAOHbt2oMpk6fimmv5c2teyCsuwcnrTmJu3XQqwyQ2KF/cPd1g\r\nT+WWz+rcun0HyssnIiMjQ/i/Y/du8m8KpfEGRIZ4i3Vpanq4/mZ7hUUlOHLkCHw9TYiIS8E+ElEF\r\nOdniU3MHDl8pDo+/+qprkEwCnb+0UkqdoE1btiEyLFSsmcvLz8ehI1ciOMAffFiz6j9Pm/Ph7Pxs\r\nigrz4Unv0CbqrNVUlaONBC2PlPJzVOw7k1s9dmzbj5rSMrS2tSEmOhzL17Zg9szpOHL0KhRnp4qD\r\n2Pfvvwbrli+ld9KD/EjBXurYbVi7WowM83fRZ5D9o8eOoyhHEYBq/nOcunCGA8WvffsuzJhShW27\r\nD6CM3pfo6Fh6JvuwjToukfROrVq6FI11s1FTXYmlSxdi2dKVlPe1WEbvaAWV2xCqc3Jy8tG+jfKl\r\nMFuc97h3zwFUV5SJNZc8WyVEoAXW43N+pAD8xbBqKOkF//s1gBoxOlQyvlj0sFUBaNIbEV64DKGl\r\nLXALSSEBeBDRVbsQkFmPmGlXI7C0FaGT2hFDwtBAIiK8rA1pK56Ed1QRCUBnBCVVIXryIZh8IhBb\r\nvR+e0SVIan4M/gWLYfD0g9knCO7egXDzDqDw5PrAXxohAKkC5CldXrNZWjYJFeUV4qsG/v5BqKgg\r\nwR4XKz6kHxkVhcmTa5CZmU4VrCNVwBHUwGUhMyOTGgdqnHR6FI2fiMrKavj4+MLDyxtePBoiRNi5\r\n8DqmzMxM8VWFAGpcPPnsQXLDU11iuktvQDE1njWVVQjw86WG2FvEJ5HEjq8Xf2rNCcHBIWJ9VVRE\r\nGBw1LsilRqa6uqpTAHJZVncDmygukyaVk7hIFlNqlo2EvZ0tamsbsX5tE7Kz0sV0qJenJzLTM5CR\r\nkoxACr9m6kxsWrcaBdnp0Dvbw4H8T6f4V1VVICI0CB4kQDLT0pFO9sNDgsVRP6kUFouZiPAQeHh4\r\nw8edpy21CA6ixqtHI8Xiy+zpJb4dnU4NP3/pwpcadQO9c0FBAWI38fiSEvFVh0ASA7yRxOzuKb7s\r\nkZqa2i09olGk+PFXY6bQM+PPpDlpdSgmEchf7+GvnJhI0AT4kb8uOsqv0HPi40gNYC6J+ezsDCU8\r\nel6Jyemoqq6BH4lbbiAt7fOmh7y8XBQW5COU0sfLRvh7wenpaUhOjIPBaEZKaiblRzo1sEliVMoy\r\nzvy/3tUVJdTZKKDn6Ep1ThDVQSySg+h5cpkIC4uk8lKD/JwsUT9auueGnD8pqNez+NKLUcfgkBAq\r\nD9XIJ5HOn2NLoIa+sKAYWzdvRzCVh9jYRAqPp9AjYXDVIzYhjuKWSM8wEUYDhU/PUa+n8kNhcfoD\r\nAoLFF4sKCwtFHkdFx2MCCcywsDASxIogtUxPVlYGPZ8K6ixR+SSx5ERxyMrKQvmE8eJTcvz1odLS\r\nUhJ7QXCj/Dm0/xCm1VQiIiISTtQJSqe8qq6qJvfhYpRV9VuF45SamkZhTIKH2QQfeg+5/POXWFgg\r\ndrerEV/14PvxcXyIvD38KT38ZRv+Eg+PdEZHRpNYTkdWWhq83emdp85KOv3OoPfA08NN1Bfl5eWI\r\niiL7VCdYprcn/P4FBYXQO1tJ+Rwr1jyGhFCdkZ6NbBLk/lT2/P386F30gp8X1zd+og4qLy8TZc6F\r\nxGt4VBxqaqbSO5kJHZVfLpM85T518mSE8DtEv3sKwJ+KFIC/GFYNJb3gfy0AGe49ci+fpzS6RIOR\r\nGjYfcbBv5JT9SJxyGL6RJYgpb0VwPvUa4yrgFZ4J/8xGROUvQEDKDHgnTER0xlSqUM3wDk5CYOx4\r\naHUmhKRMRnhqDQISJiGcBGRIyjQExFfCP34i/OPKyb4cBfyl4QqdyxlXolyZKzv2HIQY4AqQ/+ep\r\nHL7HgsPezk5MPXH54PvKrkvevcfueRRH2dXHDRPf7/r0kir8ujcYYhegnT1V5NRr74DjIip18k/c\r\nF/4pgpH/V3ZsKqf+84iI2BVMceNpoK5dvj3ECa9JEunrct91n+JK4iV9/CTkT10Cc2AW3IIz4Etl\r\n0sXkC6+kWugC01A0ZQEKpjRjnM4HITlzofVLgFt4ETyjJsHgEYagrAXQmsPhFV0Gr7B8mPzi4JNW\r\nB3tDAPkxC6aARLiHZiEwswEak48QFd3iSHD6OY78ZQ1lJ7Yihrkx52dgR4222FHckV5eA8UjmZYb\r\nOFQ4D3lEitfz8WffRP7w8+TnJfzjZ6jkN9vr6Z7tc/6zUHByUp65o6Oy8/Kc/O2A7bPQUTbgsH0n\r\nRfhwnDt+89dr2J+ebhlRhig89kctc2yuihm+Ks9QiU9PWGApZUwp05xupczaU/jKSCV/LaSivAqe\r\nZncy5123/KUVJT6cj2yX48xxsSaiOHyOH/svdvFyfDg/e5RtvdkPGq9I+KXOhMY9CL5p02GOyIfW\r\nJ4H+b4DRKwrBdHX1iYMpmERzxlxMqV2AsAwqd+4h8KQ60CO2msoKCSWyp3H3E++EZRiMA6eJ4qC8\r\ns8o7zPHqaY9R46t+ucXZie0ru4zV/ObywenncsfljP9nMx5NV9Ovfiawp/894XIldvVy+WP3XB75\r\n+XP+Ulyd6TeXFeUUAB491Qr/+Rkoz0+JH6dR2ZnesbOaR+/JPtuxFu5PgQUgrwGUu4AvOlYNJb3g\r\nUhCA/ILzoceKAOwYjTO7igXcZr1GTAe7+UVA7+5FvWeq8AjuNZtdyZ7Y9MFfAjGLdYNmusdTNPxt\r\nXbPBmfxxI7sauqeje4TBRJDgI/ed9BArkosPb5L4dcoZNxY/3mD8T6ByrjO4ITh9Bjwji6kTMwHB\r\nmXVCrIUXLoIxLA/+qZPhl1RF/6cjrHgBzEFpCCKB6B9PQiK6AmH5i+FOIjEibz58YisRlFKDwLwG\r\nGAIzEJS3BF7USQpKnQJfwhCaQwJyFrR6gwjbapzOAx+KzEJKNI70vzU7vwyX6LP7WSjr81zExgFF\r\nVFi39/NhceIVnoKI/DlwC0pBUEEj/S6ETzKVi6zpZJaO8KKlMIVkIzS9lsrGbJhCs+nebLqXjNCc\r\nBuo4l8IragLCChZQh6IQ7v6J5K/18CQ/HykAfzGsGkp6waUhAF3g5s6HEpMA5F3AhNlEAo4FoNEN\r\nbgQLNzZXPqHlSqKChZuCq1mB75mNRrLfhdlogNGsUzDpYeD1f+wv4Ub3GLYj+aXg43nMYu2dWs64\r\nwutaM2S9TPwY7EfXqN+59/5b/y1hEcQNLftr7f5PguIkDhvmkUwNf6SeR5AcKC0ucKR7fEyOi0ar\r\n/O/iCBceEWM7ZFfj5CK+WKLX2EMrDsXm0RGKl4sODhpn4caBzJ1EGMromJM4E5HfMR616X38hQDs\r\nEH7q9Zem63kp31m1HBXr+t37ZypGcOzVA7yt22HE4eGUN5ajPCx+f2p4lqju2c9z61fl27LiXjfz\r\nnwmlj0ebeTewxlkHHZUTR7qKb1vziBqFJeB8IPh/XjfHZcaJyl1XeaR4kTnXx9bEKseZ89PyufSW\r\nC5c9Dut/2wb9GkgB+Ith1VDSC/73ApAbOxJ07j5w8wmB3jMYeq9guHqFCPReodBZoBXXEIHW4qr+\r\nbw3L+4p7ya8D53cYNJ5R8PKn/Kdyxo0QH1/Ba2F4ZFBtnPn6Yw21CtvjtYCenu7nuGd4tJHP2uJN\r\nRWrDo96z9OPHfnPjzOcU8hSVr7e32CBiaUdFfOSfwtFaiIWe/vWEG9meDe357fMIknq4tWLHmv/n\r\nc8/mvEMzJCRE/M/vO/Oj7uk3p03NAzFVZ2HnQu5ZJKgbY3qD4pZEiosTNZRGxMbFIyxMWS+oNpwh\r\noUFkz57sdQ9XTY/l/+wfrwfjdW9cDnrGlcsFm4lRTlezOL5GqyGx1HFf62pEeHgEXLVdYkfY7+HP\r\nedEbEBEZCaNesd/llo+kMSPQN4CEvDP0ZHY+EfhjYSl+8lVPcY1GbHQsjDoX8lcHjdaIkIgosd6Q\r\nOxBchnjak+H//fz4CBk+JJvLVveDzC39V/Oa88vPzw9lZWWIpHRZE3RdaexuzrBbXgNs/T7Hw7Uj\r\nbl3mPe329L/n70sdKQB/MawaSnrB/1oAcu/bRWcSFZI+NAs2EWUYF1EOm8hKjI2sEoyJqMbI0BqM\r\nDq8m8yrJbwy7iAr4RKaLaXpe0xQdHY1de/ajOD9bWQfl6Cg2//A3XVk4KOJBGbGy1tDwQbtNzWsx\r\npapEWaNDZsp5ZXrhf2hoCDZv242pVeWwtbUV/nPly265rPNvPsaE4Sk6Do/dKsd8KN/snDdvHjWe\r\nrkL08NrButkLMb9xhlgHZxkXbiD5HL95c+aIxeccb9U/ThOvYepuX2m4+B7vRGe7ajrZjOOj/lb8\r\n4vR3b6T5HqdDsa+45ysLatVtp3u6cnp5Q8D8+fNF/vAntPjK6VTjy/6ye3XklK+8S56FrTP9r2dh\r\nRXY4H9lvts8HtXezT+nne7z2atq0GYiMCu30+0LwOi3+EgSfUcej9CwAJ02ZgQN79kLvZAf+9N3k\r\nyZOxa/eWznR190P5zUKP08trEUNCorBzZ7s4AJjPalPjzPDataKSUmSnJdPztEVweDjWt7bA0CFQ\r\nOM6ePv5Y19oKs6syWsdm6rEoPcPn++potGrX5O6FlpZ18HI3UnzsKP8LUDy+QJRXL28/bFmzifxy\r\nJQFIfpyTHqWcqsL13PQqawg5LlzuNRqt2OR06OCViAj0h4sjCUu9CWtaWuDvr2yicXLUUHk3kn0q\r\n41o92ta3ia97KIcan1v/K89TOeKEyzCnafOWdtTU1FgXgBRHji/Hu+fIPIvU9evWISjAn+53veN8\r\nj9fqOTppqf4PQl1dgwiX/fbx9UV9XR3sO9aUqvFh//kZ80YV/p/f4XPicokiBeAvhlVDSS/4XwpA\r\nrti4Fzq7vhG1s+rgFJKHUZEk9KKYaoWIGjhFlSF2fA7ckidgdFgNicJqgq81JA5JIPKVzJQrM9ni\r\n/55mbI9hd9bcqPfV/1V7kp9N2CQk5FWjfcceRIeHiU+O1TY0YmJxLmzG2SI3twCbN64XR1JER4Wj\r\nYc58eJgNiI5PwrSaKlH5szhUyylPB+YVFCMpPkoIsvj4BCxb1owNbW2IDA8Vh8CWVU9H3eQKjCMx\r\n0DB3Ltq3tWPTxjbU1taK0cdNbevQ1r4DCXFRCAuPxIbWdVi+bKnYkV5bV497Tt2BtWtWIi01VQjA\r\n1LQ85GQqx11wHLgyF42dxgUzZ9bhzOl7qZFrQUZaGkLDIrBpw3ps3LYD+Tnp1Pg6CPtCPFGDFxgY\r\nhKVNi7Fx4xakpSQgI78IrS2rsXXrTmRlpKKyZgoSYqNgJEE6Z04jCS8e1dJTHnBj5yi+YrB82XKs\r\nbmlFdnoKklLSyP1atLdvozwtQkVFNVIS4uBqdENjY4M4OmftulbU1c6EAwmewOAQrFqzGq0kcPjc\r\nOm8SJPxZso2bt6KsdDyi4xKxbt0abNrcjqpJZSidUIZt7ZspzzaiZe1qEg6eWLJkMVavXYfSkkKE\r\nREajdd1atG3cjKlTapCZkY07b78LO3dtIcEw2WoDzXnH+cH/8yHA/BWLA4cOIi8ng/KbRKrJG9so\r\nfKOzIhYMlJb2LWuVr1T0cG8weWDFsiZ6/ptJNNTC198fK1a24sD+XeLYEpOZhDnZY/vsFx9lc/zk\r\njTh6cB9m1c5CED2vkydPYAPlET8X3k1eR2VwHYkWk5Y7Is7iyy4ta9eI3d2dZYDKJG9ayKXnl0XP\r\ngT8rl0pp56+BTJ5eR/mxAe4GLcJCw3DVVcdx7Ngh0VHw8w/GtUeuE+Vl9apVMOqVNIld8qJMacSO\r\n61Wr1oivbbh2jCKq33p2dNAgO7+AyssWzJ83XyyN4bMN16xcj7jgIDhRflZXT8XmzZvg5+0OO3sn\r\npGbmYjt/7WXREriR8Fu3YROCgsPRtHhxx85rjcgf4b+TC2qqq0UZXte6Xhx9NHnqLNxw3XWYVF5O\r\n5clfTCN32qf3MTs3DytWrEQrCUs/b09xnztBHG/eNb9t125sofdvc/tWBNHzmTVrFjxMBhSVThQ7\r\n4JfT87rnzruxrLkJ8SSSlq1cjXvuuFO8kyEhQcgvLKI6ohVtm7YikETttKm1WE9luH3HLoSHhYip\r\naw7rUobzSwrAXwSrhpJe8L8dAaTeLcG9fz7WwzGsEKOF4FIYFVENTXQpbjykx7fPDcarpxwQRZXr\r\nSBKBNiQsxkZUwi27Ho6J08lsEkaFV5JgJNFIYm40CcPRdF/xr5r8IlFJok6YESND2T7bYTO2o7op\r\nJ/NJ5F8ZmVUSFSIukp8PC3q9fxzGV05F09x6jBo9CvXzGlFSlE09fB22bd8BXy835BVOQPOiehJs\r\ni1E+PhdzFi9FaVHu/2PvP4MtO9bsQIxkD83rB6AKVXW9O+dc77333nvvvffee+99+ULBPzz0a8Pu\r\n9/o1zXAUIVIjksNmcIbsYYSkkEIx/zmhUFCKoThL38p9d9WpiwPgAqh6hW6cHyv23rnT55eZK92X\r\napYiPDxMzQDosyH6TAFP+AUEBKGqqhrHZ+fo7awXmb6LxvYe9LfX454Qrt3jY0xIxz45Ma6utNo7\r\nOEBCVBgSMvKxsbyI0rJKPLw8R2Iclxwd4BMYgtOLPQQGeII3GyjSIeHwJCPDZhx4K4SfH28lcIWX\r\nTxDOT9mxBajThsvrO8jPTENQZBzOj4/g6mSvlqWpsoaE0cvTG2VCTBZX17E4PYzmwXH0dbciLT0f\r\nq3NjKCiuVHoOi6VOzEwMCCGygbePtyKntvLeNzqJZekoa5tbcHm0h4aWTszPjElHmYLdpRUUFpRg\r\nZX4aeSXVWJimImobpGXnqVku+3t3kJyWgWfPHsDb0ws9fV0Yn54RolclRCoAZ0f7qGvuEgI1h+Cw\r\nCBwISeT9vOMTQ0KIVzC7tICe3j7VGReXlOH5k0vkV9djb2sVvgGhOFPKmF2FLG0KmU1XtyfoeabP\r\n+vCd+32ZhyxDH/8QHOxuo1D821iag4OtpNc3VAjgIYyuRjhJ3vv4huBECKCHQfODs6e8XYbko6q+\r\nDbMSPwchPsdCCDLTEjE0PIuLs30hFzli10s6X6NaAuesmaOU0eDEDNpra1T5hUfH49HDB/ASInUi\r\ng5AQLy+4+wbi8uICgR4m8CrBR48fo62F16qRhLuKXLiLfxHqtGtxRQMmh/uEjI0qRcdVFcVwcvMQ\r\nAnyC8EAfFa92IVBDAy0wuRlEbsLw9PKplKkX9kQ24yMDlRxzhoyzaJxx4/J1s5DAzz77BSJD/YQc\r\navFXpNckfj+4j4hw7ZpBg7Shjg6S58v7QgDDFBkyGN1l0HOOpOhQODhLHTu/lHeJr8gw94VuSz49\r\nlDRXlhao2TTmKeWLVy/6+IfhUuTZ4OyA7oExjPS1C8mtxieffIry0jKEBAeBN3Do+clyDYuMRmVt\r\nPR4/+wilORlqTyLLh7PUDs5u2L98gKS4SDS0dWOgqxXbu/sI8jKgd3IGFcX5UgapON7bh5e7UW05\r\niEqQ7/0DeAs5Nnn540zi6yOEsaqhHZNDvdhcP0Vheipa+4bQ3lovA5urE9JX7cOPEVYC+MZg0dCK\r\nG+BtEkAnJzvEJybj8vIYKanpQgDLhaRx1kgjDu9GNyOuulCRP/zbvw381d/C0ko0fj+yXQhgE24L\r\n6UtqkxF0Xj8cUtpgT1UG6R1qhtAmoRmuGV24G9+M96JqYcjqhY28341vVHZrp04QXDYOh+ROOKa2\r\nq5lEx5R22CQ3w7t4BBWzh1fxIAl8ldBY8d1AAmgISkJpbQtmRvpw6/YtDI2PoLpCCKCzOy4uLuEp\r\nHXtabhFWFyYQEhYtMvEAR0cHqqPnkhJnEyzJKZcyV9a20NXajPnldQx01yoC2NTei4GOBthIh7e0\r\nvoKuAXYUbUqB8vHpKUL8fBAWl4L9rXU42tuoi+4fPHyEmrJCOEvneXK+L8SPBym4/OmslkC5h1EP\r\nl/FRnbEQCKPRRzqoY+m83GBjY4vt/VOkSGfnFSBE8vBY7S1T11ZJJ04y0Cud1vTkMDr6h7EyPSKd\r\n2DDKS/KQnJKF7aVpOEqHfSgd8P3LUyTERqqOjWGRjHLJcmxuFWtL8ygtLUZ6aopKa2drLYKCErC/\r\nuqXy6/DkDA+FwCSLe17IH5uUiq2NNdgJAUzNyMTG6izs7Z1x795dTMwtobokV8I14fBQCGBLF3q7\r\n2+HvHyr5s4uxiQm0d7ZhamQAU3MzGBobl3TtoLS4APnS2edU1GBytBfuXsHq5g9He3ssSTwyk2Nw\r\nz8ZGdcpcqqQOOz3/mB6CqjuKy2rxh19+gd2dHfzy80/A+6A9vEOEjJ7A6MJZO2chS+L3yQbc3YSs\r\nSDlQFrj8x1tQGtv7FEnhLS2cdY0I8kNqdoWQ6yG8f+d9RfIYJu2zDKkIu2d4Eo1lxbh9+31ExCZi\r\nXwioo70rDnePEOLjDgeDp4R3KgTQCBcZgPj6+2FgdFxI5YHSr8hlU8oA1bvExKfho+fPlRLmDz/8\r\nGEmxobCxc8ChkP/wAG/Y2thJnnZisKsBd2Xw4y8E63z7GHZODtg52Ed8VLAizWq/npA5zwBfkcUH\r\nyM/LxtPnTxEdHqiWWE3uJrXP1N3LB5cPHwr5MqjZaW5ToFxtrxwhKTxUyYu9ELCt/WMkRIrfQvh4\r\nlV+Ajw9sbe3h6GrA7tklHjx6iKrSQrUEr8s092EGBkfi7OQItu/fEtkaRH9Xm9oneSQDNWchvG4u\r\nAiGAzE+64969w5NLVFSUYl+eZbmZyk+tzspgTcJbPzyCp5C5+uZu5d/WzgH8PVwwvrSK4sIsBIZE\r\n42hvV+TzngojODIex7t7sLtzWwigH84v78PF0QEFpbWYFjlcmdtBTHAgmnv60dHWqBS6k3ByYPFj\r\nJYFWAvjGYNHQihvg7RJARxlFxuDxgwu0dXTDIbriFQJ4K6YZ7pmV+A9/bg/8+7+F//yv/h5KWnLw\r\nTlSbkLwmvBtZh/rpM7QtXGD3o1/j+JNfY+nBL9Gzeh+r97/AzOmnGN5+ipqpA8yffYaJ3afoX3uM\r\n/Y//DF/8k/8ezbNnqB4/xMknv0Ht6L64/424/xLdG4/x6W//OVzTe3A75iYzgLRjxdfhVmwT4vLq\r\nsXt4gMiwQCEuVXj89DHOTg8RHRur9ovt7Wxh/+AQ6UlxuP3+Pdx//AkWp/pVB29pj5IOEsCx8XFs\r\nrq/i4PgUVeU5yMzIlw7vMR7dv1CX9A8ODaCxuRV1VTXo7R1EbV0zDvf2sbN/qJQpU5nthJCcvYMj\r\nFORkK4KwuraGzc0VdUMCCQiv6yIsxYGX8XMJend7C1npmcgtKMbp0SF2hNDUVFW+6GAJEob6hkYc\r\n7O9gQ8hVf1cnGhqakZ+bjdj4DIwNd+Od994RkjWJTz64r5aPX4blomacEpLTcXR4iLGxUdWZ8Oq5\r\n2ppKdePDpJAzLge2d/Xh6GBPiAH3w0Vje2cXH3/0Eepra9XhhPGxYVBHHmdqEpPScH5yrJb7Olob\r\nkV5Qipamevh4B2NK8rZTOuz6Osm79nYMDQ5LJ5aK44NdTI6PoUSIa0J2hpRhK0weflhcmIWTpLeh\r\nqUXNijZIWu2EDJWUlOKTTz6RTpAHEbgkrHXSnN0dGp1AVpp2JdiIxL+oqABT04v4xSefYqh/QJ0g\r\nnxOS+tmnH2F4qB8GKky+cs/OMygkTIjnIdbW1sXdjKTZFumZ+Rjo6xGS+3LPpk4MHCTNOXkF6v7i\r\nzs5OREZFY2Z6SvLCWZ4zSmHw6Pi0iu/MxDj8fHzR29+PyelZtXROUqP7x/B9fUPwWMhUTl4uPnhy\r\nH4F+nujpn8AnH38mRGUWXkJoOdB9/OA+hgb6ERIcgaXJFXHrgqn5BXXdoetVntA/Lx9vdRPK7MwM\r\nzi/OEXxNmbiDyEBPX5/I0B76JI0cJHVLefOWj62VBQQG+Ev59+OjTz7D1uqy2tva3NItMrMv5dev\r\nZh4nZxcRGhEr9U7bNqHNAjIMxsEVM3Pz2FpbVtsCQoODxQ9/LC2vqJlIPf06nIUAcsZ3eWlW4nsf\r\n6SnJL5bJ6R+VKm9u7WB5YQHb2zsI8vfBqJTz9tYmzu4/QmZauhBzXhN4iqX5JURHRcHVYBL5PZQB\r\n2xzCI0PRPzCmtmmwjkZFRogcTCJSiH5VXT0qKksUsX306DGamhvUHk/z+P1YYCWAbwwWDa24Ad72\r\nIRAKf4B/AKJkFO4YU/UKAeTS7c8jWtHZH4+//GN7PD70we3IetyJ5/68JrwTUSuk7kPMHX+Mmokj\r\njB9+ivjGWWw9+RX2PvwjeGa2Yv/pH+Liiz+HS2IjFoQQHnz4p4iunsLA5iOk1k1j9uBDPP7lP8L6\r\n5Rdonz1C6+wxutceYWzzsfL/ZjOAtKPDMgn66YLL8C0ISi6Bt6+fIhwenl7w9PZSy12c1aIM8KaN\r\nAD9/uAiZysgqwOXDB4gOFftXy65fD+2UaKR0Glxu4gyPh4en+C1heHIJl7M+2l4lbkDnna5qySos\r\nHEGBgYpAcnaKG9u5TKsvI3G/XUxMzIuN+JbDfgnOdsQJmeWNJFzC480DXNKjio3rdukfl898vH3g\r\nJp0n46zHj2mJio5WZLakIFfF77p7Kq3lwYZYCY+dO93Snat0zNosjmaP5lpa3JSeTerHJPhP2b+y\r\nx86aF9vzVhMXJwcVH6N0yK5UKSJ+uhmd5GmESdzwwAuXw30lX+LjoqXuSv64aWVgkLw1SVhqplTC\r\n5YxMSLDkgaTRZPRQRE4jGa+mh8upihQKuNzOwxE8tewt5cdwjEYqifeTcvJWS+FfISAiP8wHlpf+\r\nzX2TjNPXlR1V5ISEhiI8PPxl/om5NmulHcCgPPHJf7QXK/7zvyU/DWKuzVRrbam3jx98vHwQ6O0H\r\nk9pHyFO0IYiWcje5mYRISf5KnnKplvmq8lnc0W89PQyTYWuyoUEPj3vsmL8REVr8vUWWKMc+vpI/\r\nRgM8JJ+8JO7+Ej73FrIehYVp9lmWPGjDmVHGm3ca89pEvWz09HHGlumnW30PKgm8eTx0+1wKpkxz\r\nr+71/OE39ynGxcTC28tD5Jd7ek1C7KIkfM5qihuRKS+RzVixoy8rs/7GxPDmE3fJEzdECVGnnPKf\r\nXk5K7gwMww1+vgFil9tEXob9YwLjaiWAbwQWDa24Ad42ASS4Z8XDyx9OsdVmBJDPVrwb3Y6UqkLs\r\nbYWjcygR70U14W48/zXhvchG1I0fo37qEFmtK6gdO0RY2Sjaly5x8cvfYuXBF2iYOEBhzzqWzj9D\r\ny9wZqoQoBhT0o2xoG8ObzzB/8hk2H32J1rlT5HQtI797GVnda1gU+6bsfrUf8KuEz4rvAi4Be0Zl\r\nwUnN5ElHKU9e+E7dd5oM8GQpZ9KcVQPe1tmNhKRY9X1dViyBHYxO3NS3dGR8/zrQDhtdwtw9v83/\r\nc3+Z/v1N0OuP7h+/9bC+rm7pYfGGDSeBfnKSZjU1tSguLjabRXkVJEDK7VV45qD5172bQ3erfzP9\r\neh6a45X4CbjcqKuF4e0N2syVpFfKkERbqY25eqr/KhySAu3AzPUTzV+N59X3VVhu8q2uW3vh5qvu\r\nr+e/7gdn2Mz9vg7aN8+H608denlaym8d5u7U01WIu4sQZ2fmhZAmiTNJDvPD4CLpEXLNdNGc2wv0\r\nU9Z6mAxLl0n6xzhclyX+UzesXDNX8XUT+XIVIsxwpM4xv3Q/aUdTuaLnJePMcLS4K0gcdHnQ7TFf\r\nLcWD0OOsp/869LD1/3y+/LZk9tXv6//4NMc3hf9jgJUAvjFYNLTiBvgxEEDqqfL2CYBzDJeAr5EH\r\ngU1iE0KKy+CUWok7Mddm5GIbryDm+jO6HjPnv4Apq1tIYq2QyAbxowXvidtbPOgh7nhgRDtIovlz\r\nW7kn5H/Mld8JrbitZhuvvl+AZuanhK34JmgEMBvOqmNimX+1E38J/YoydlRvWS7fEjjrZ2nmz4q/\r\nflAnuN+iHL/NsK14FVYC+MZg0dCKG+B1EkCOvijMlv59I3QCGFupyMJ13Ipvw62YTiFuVNUiJM2C\r\nnetwyujG7cQO3Epo1xB/9bzC+/KtQ//3voTzvpA+4jbDFLPbgrviH/EyXN2t2H9hZoVlME/b4RWd\r\nA2eDjNK/lQBaYYUVVvzNg5UAvjFYNLTiBnhdBJDkj/syuDfJ0v9vgosL98z4wxieCYfwPDiG58Mx\r\nLBcOodny1OAUmiXPHDgI7MOJbLH7Euqb9q7gEJIhbr4ezvL/BWim7GeahZepzJzl6ay+NTgq5FxB\r\n/7bia3GVd35hCXDlAQBV5pQ3KwG0wgorfjqwEsA3BouGVtwAr4sAcn9GRWUFuru7v/M+DNrnpmdu\r\n/OZtCtRFxaenfpes0RNuru5wM/DOX94DTLhbgHYXsBU/LvBGiaCgINUAamVuJYBWWGHFTwtWAvjG\r\nYNHQihvgdRBAkj+eoiwtLUFtbYOYfU8C6OsLLyoi5Qk2L+0Up6fJE7kJBmyP2qGx3AUeL8gf//Nq\r\nJiGIHtr7t4FXIVkyt+LNg3f3vtzMr8NKAK2wwoqfBqwE8I3BoqEVN8APJYAkbyRqvCMyOjpWPb29\r\nX97YcBPoBJBQpO8KJncvxIZ44P/yp+8B/+Hv4D//25+jtcIFRgNnCKmmwQvx8YkIDAxW5I4nSAma\r\nE9ffkxJThFj6fMVcV49hxZuCp1KxosmZOSzLgxVWWGHF3zRYCeAbg0VDK26A10EASdyKigpRXFSK\r\n0dERpbuJQm3JviV8HQE0GL1RmO6N//I/vIv/7V/9beDf/x1sTzjBzZX2OPvnKRUoWym6JUJDw9WT\r\n+qA44xQbGw8/vwB1VRjNCwqKFFkkUfX3D0RFRTVKS8vFH84ovgzXitcPjQBaLn8rrLDCir/psBLA\r\nNwaLhlbcAK9jCZgEjjrLuMRHAf++S8DXCSAV+gb4mPBPHr4P/Iffw//jn/x95CQaYTRpBJDKRJua\r\nWtDe3on5+UV1efrI8Bh6evowOzuP7u5e9PUNYGxsAsPDo+jvH1QYH5/EyMiYeg4NjlgJ4O8AL2cA\r\nLcuAFVZYYcXfZFgJ4BuDRUMrboDXdQhEx3eZ+dOhE0DuAbxOHNzcPNFS7oA/PL6Lg3EbuLqR/GlL\r\ni7xblWRvcHAYFRVV6j0lJQ2TE9OKAHLWjyRPfx8bnVBkMCkpRRHDttYOFBeXqtPL18O14vXCSgCt\r\nsMKKnzKsBPCNwaKhFTfA6yaA3wffRABNJi9kJBlxNO+Mrko7GLl3TxFAd/lnRGFhEUpKSpCami7v\r\nxUL0YlBaWoHl5VU165efX4jSknJ1DVJ5eSXK5F9ERBSKikqkAmagra1D/NL2qVnx5mAlgFZYYcVP\r\nGVYC+MZg0dCKG+DHTgB5PyRVifh6aSphvNQdrzxZqql+4fIt73vlaWDtRDBJo7ta/vXx8VPLxOr0\r\nrzrwodnh3kHaIfh9PUwrXj+sBNAKK6z4KcNKAN8YLBpacQO8LgJIIeY+QKqEsfTfEtTdl+LO3s7u\r\nawngS5jP0pEA8vn15I2XmFsyt+LtwJwA6ntGr8vD7wqUVcbB0r+bgvcYuzi/lPU3nR7Gl/FmneH9\r\nvPrdweb/v0vdc5L4/tA8eJNgWphevn/XtFnC9/FDD5/Q3WuKzF8/bnrv9e8Oblp+qbueLf3/3YL5\r\nz7u5Lf17E1B17TWn3UoA3xgsGlpxA7wOAkgBjoqKQk5OrhJq7qmzZO86XKTRi4iMVAqkqf/v5gTw\r\n2+FBBcQWzK14O+ANMbzflrLChjA1NRV2drbqW3Ws0sDzXQft2snAgO/8x/uBCderi/71b75flyuS\r\nMf2/TnT0b6Kurh4ZGRnKfz1s/R/fv81/Ozt7lFXWoK2xRuJprzomNup6Wq7b19PDgY55evT00c43\r\nffM9NzcXfX19sLtng+LSUuTm5ODu3bvKXyrZXllZUUrY9TuEtfyzf+GfOezlX2JSCjxNxlfsM35O\r\nZqTWHJp/Ep+r9Dk4SB6bfTPP+Z9Ppk/PB9Vpy7deJq+EZ6/lP7/NYW/vgOjoOAQG+ePevXuIjY1D\r\nS3OzSq9GtN1ehGfJPcPX/GfZOKo8YNuyuLgIrhjw2/w/3Wj+8VtkTL77+gaxsbGuVhdon3pJFxcX\r\npF25ci/2X6ZHI0vMjxf+Ob3MDz1eOuie0Nw5qsHq8PAIHMzyh/6Zu+fTPP/MoafXQfKNdvitpcfu\r\nhf0X7sUOv3X/zcPjf4Jxs3d0xdTUDBJjolQZsxy1/1+1z3eamYN+MD91+8pPscv6wm+9DhCUD/rB\r\nuDAP+Y8DHM2+1mawT0lLT4Gd+Ofs/GodtXTo8GX42n9+U2aZZr6b2+VNVC/LyQW24q6tsw9RIQGw\r\nsbFRYX1TfK8Pxr4OVgL4xmDR0Iob4HUQQFaGiooKJCYmITg4WAm6JXvXwQqUX1WP/8P/8Z8jJSkW\r\nnkICrxMHL4EHbwAx8iYQ6u7jzB6JonWG768L2Imy0WtubICHuwktHT345aefob6mEiHBfohPiIe3\r\nEPyw8GhEhAQjNDQMBXn5GBkcRGhwENylrDs6e9DU1AB3gxs8vHzR3taGgf5e+Pv6qMaZ8kQ1M24G\r\nhpWN1qYm1NTWIUM6DT//IHT19KKzowNG6XRHJqZRWlyIsLBwJCQkwNVoQHNrKzrbW4UUmWASGWtp\r\nacHQYD8C/f1UA613AnynjA+PTKCkOEcRgYLicvzhH/wSXeI+Lj5e1QfdDZ8REeEoFdI2NDiAECFr\r\nLm5G8b8V/f198PPzh6ubhyKlY8NDCA8NhrObATU1NRgbHUZkeJgiHzzoVF9VAZs7d9DY1SeEb1lI\r\nSi9Cw4JVp8Q0b24sSQfPDsmAyspK+d+NwED/r8Q/MSkJzz/7DONDQ8hOSxfS54ya6mqMyne45D1J\r\nIGe6aF/lq6u7xL8M4xKf5MQ42Dm4oKiI6RlEZFiodIL2SBZCOTE2gfy8PPj6BSIhOhyuUhbxqSlK\r\nn2d6WiY62tolzwrgKB1xQWGhpGkIcTJwdDKb2WH8IiOj8ODBYywtzUkHmY7UjCxcnJ+it7sHGalJ\r\nsLV3RFZWNgaHhxEfH/ei81bpE3j6eCMnN0+VeV5OlhAYR1RX12FS8tck5W8U+cmUwWpvTx/y8nIV\r\nKUhJScHQ0LB0ykmKKLh7+ePs9AT+0iY5uZhQUlEp6RuCu8iYweSBzKxcdHZ2S74UK/uJiQnifkgG\r\nFulSHo4iV4lKI0FFZZmk6eUAx0nIS2hkDMIiwmBraw9/Pz8ZOKfjwaPH6OvuQnl5mRB0e8TExir/\r\n8nJz4OLsJuWbida2FklHtRAQkS/OTik/XeDh7S+DgnLU19WKHDeJzHqL3GeJ+1HJ7yIpP4OQpwy0\r\ntLagrqEBrs72ks5UlX+lZWWKrMbExWOgrx8N8j8iPBxJqVmYnZtDVKjIj5MRqSkZ4ncLGpsaxb3I\r\ndFSMyFcP6hvrER0TLTJ/NUN6lc7A4BD0y4Cls71N1Uv/gADJ735UMf7OjtKem9AmdXhQZNhf5Dsy\r\nKhaFhQUY7O+Bnw8vA/BVA5r6ump4iN32rn784rOPUFdbjaDAACHNvujs6hCZ6Fb1Q5NVyjjJtRN8\r\nfP3VgKlD8szdzUnkOloGUYUYEJkNYx2TOOpxZZ+SkpIq6RTyKX1XorRHS5v7GBsbljC64ONBzRPu\r\naGzvQmt7u8THgKioZJRWVKFP6nCgr7fKk2/rR60E8I3BoqEVN8DrIYDOKCktkU6nXBrk+KvKaNmu\r\nOUgAc8rrcP7wEnMLk9JR6Dd8aMSBhz28jZ6YaHDEf/vJHdxftEGwnyfcPfzlv0YAOaL/LrN9tPtN\r\n9q0zh68fzNPo6GjcvzhDZVkhKupb8dkHH6GmrAgBvp7Y3NlGXGQEGlp60FpThf6BYZwfHaKzexBj\r\n0mCPTMygtaUBc/MraK6vRGNrO7a3t5GcEAdPd6OStwDpYDiLbDD64vLyKU6PT7B3eIBlIRG+voFC\r\n0kqxub2P1toatPeJv2Nj2N/ZQnBoKDr6BlTHMzIyjqG+NlTX1uPo6EgGJfHw8ng5A8Qw2Mn5C2mb\r\nmV/F9MSQdOJ2yMkvxeeffojmhhrExMQoQuLn56u2NXCWkyfPDyUuza1dWJqbks6sF+Mjw2hp61Kz\r\nSgUFpXgohCcjJQle7gZk5RXgyZMnSE9Nho+kiYOgwcEJLM9P4c7tW6jrHsC55GVNXTO2tlZhZ3NX\r\nCEga1tdmYXPvjpCORiwtL6JROuednU2Jj72Ki5+QDcY/Vuro+YcfYrC3G8mx8aiU9C4vzKKyohrn\r\nJydCGLT0+gv55cxPfFwqPvzwY2RnpsHP24S0zELsSpmV0/7xHoJCQvHo/iUKhfyxcy0qqsTc+ACM\r\nPv7YOjqAf1AEfvXlH6JayNDp0T4KC4qwt7OL0pJKPBBiZxCCQDkJlI6d8QsLj8Dp2UPMzYwpopIo\r\n5PHzzz9GRVklzg4PERuTgMPjY+QXluLB/Qs1qOAMEYk5iVG0kMJf/eoLFBeViSw8EELkIXbL8PTi\r\nPjwkrNC4RHz+5S9RIiT29PxckfbDoxPk5efjwcP7CJR8cjR64+hgDwGe7kKGjcgTu8+ePYC3hOUX\r\nGIovvvwDlJVX4Pz0AWIionEs+ZYv7h8/OFV5cPnomZCpeoSHhyhSws6fM7UkqOU1jYqc8/akxoYm\r\nDEteffzJL1Ar+XN+fonYyEjsi/wWFBTgweUpEuOT8fHzXwhJr8S5pCcmMkTaTxdJr/gnspmUkS3y\r\n8giPhEQeHB8KSSpFbGySDMpr8KHIUXREJD785GMZEFVLPM8RGx2mZKBEyOYHTx9J+cZhW/IzNycb\r\nH3/6KVKTUxAZm4D7Dx8iOz1eBhVGPH/2KZpEno7F/7TkBKzvHcsgLRvPPvxIyHaukCcXlT4O9jiD\r\ntrC+g9mJUcTHRsFR4ri2uYu6qips7RygID9XiNgoJsdGZOCQBIPkyeLSDvY2FjAk9aKnvQOzM4to\r\naKzF2soqWoTY1jQ046MPH0qaimSw6Inh4SmsirwnSjqYtySZQZIfDN9RZGhtcwu1daWYmZlDe1Mt\r\nurvGcHl2KgPJXsxMTamZO25LYf/hLWRxf3cbSSI3iSlpWFtdxrLEc2ZyDNPS5jTUlKGzbwidMqAY\r\nnphEX2c7pqZXMD83g9GJKfR3tcPB1lbVsW+6C99KAN8YLBpacQO8rj2ArEjsYJqbm6XRC1dCbcne\r\nS7jBUUa6BTVNGBzoQXffMPx8/V4hDkaTN9Li3PCf/vt31E0g+J9/hvFeGeW5aTOArOzZ2dkIlU6c\r\naWAnQDAu/McKxycJiP7OSsolF/0/7dKN/s5O3koCXy+Yr4mJiXj88AFqKwrgHRiGHekg7r33cyEv\r\nd7AhZCAqJFAa+U60VVUIARxFdXmBkA9X+PmH4vHTDzA/NY6FxXW0NFQKoQjB+voGNtZWESruKGuU\r\nPS7PmUx+WFrakAZ/CHUii4szM9LRl8kAYwE7h+cYbGtGa1c//uIf/1M0Vpfh9u3bODx/iPXlWUzO\r\nLGCgu1UtF/IU+e72FiLDQxUpYTpoTrJpY3NPSFoppkYGcO/uPZFHTxzsb8Poqi0L0Q7tUs5IAEeG\r\nJ4QU5cPgEYBD6Wg2pXOJDvGHk5uXEK5T+EsHNDe7gD35lxwfq066T09PS6e0gzQhhXfv3RMCnYaF\r\n6TG8/+47aOodRK0QZUcXT+nUTuDsYIsY6fBXlqdxS/5PTK7g5PQIo6PjQpqnpa45qbhQ9lX8pYOe\r\n3tpFZKg/br97C3PL68jJSMbduw44l07S35uDLA+Vp1weMwkZGhkZxdHhPjLTE9HaPoAnjy8wMDSI\r\nJfG/uLJG8nlSwv59yY87KCmuxNRwL5w8fLCxvyMkOxY7a5uwt7kthNYdLe2d+ECIyYiU8+rqqio3\r\nygjzjLNa9+7ZYmh0FgVZyXj3nXeRmpkr4czAzsFN/JGOXQjUR598pHR6bm1tau6kTWHnS1mIS04S\r\n4jCDn//sHSH9R0iIDsEdO2ccbO3D3dkRkYnJWF5bws9//nOsrm8qPaIfffIZenr7sLm1hfCgQNg4\r\nGbG/twsfo5vap2xrL+6FvLobDQgIDsfe/i7spNPfWNlDpZDDz3/xpcSnB/vbG4gIC0FRWY2QpVN0\r\nCVlgnrsZ3FTb4iLkOj45DQdCoH/x+RfY2dxBVX0NtrbFP5GrtdVdVAqx/fiXvxL/+rGztYHMtCzs\r\nbhzA2d4Oi+tbSEuMknzirJq/8jstKwczQiKnhOw0d3SjvbVWiNS40nX6yeNnSImNEdnfg7OjA+Ym\r\nl5CZmoTewREMj47i4w+fIEVIye7xfcyIzC0tL8Pd5I53br+PafEvMyVWZNpNBktHauZxSuzkZqVK\r\nnT0UmZ3C2vqKGiywPSeBp2YGDoBIpJh/89Pj8AsIxkef/hKTo8NYWV9DaWkR9o8uEeLrjjt37uGe\r\nrQ1m5jaQJ7Ll7GpAcFCYEMuPMSkEbGV5A/WVpVLnA6WsF8T+LThInYqKjpHvDawsLalyZz74Sf4a\r\njSJLnl44OT+SeN9GfGIGludm0d4xgfqyYiGHzgiWeJKUU755T7mzmxGbQvqeyCDsUAZ+w4MyQFta\r\nR2xEEEor29Db2YSd4wdYWZzF9NyiEMomjI/PICc5GplFFRgdHoC9DATZRrCOfbWv02AlgG8MFg2t\r\nuAFeFwHkaIrEj0sIekNsyd5LGODgaIuSukYhgB3w8vGHj1+wqpAacaCiZyGASUb8p/+zEMB/83vA\r\n//gOFvpdpcJqdthpZGZmIElGkWVlZSgsLFRLbRxZc48Zl8G4xBckjQeX1Dg72dnZqZYGIiIilBuS\r\nx7y8PPVOuzs7OzJ6jlV+a/Gw4oeCeRkZGYmHQgBrakqlwwjCo4ePkSPk3dPDhLmlVXS2tUijfYmm\r\niiqRh0lUVZWo/Up2Do5YXl3DQG+XNJjp0tn7ICwsDCkpmTgV8lRTW66WQNkBcFbEw8MXa0I2+mVA\r\n0dTWgcWpGawLaegWYreyuY3hjnb09Y+hq70LJwf7SE/mUhuVgo8q/wOkU+VMUnJyBg4OjtDWVq/t\r\n+xGZZRiU65CQYCwuruDB/ftqZtPZ2RVnQpyqqipV3PSlMJIne3shgCMTGBjoQ2tHL4b6u9HfO4Lx\r\nkUG0Mn4z8wgQApiclIx5IUPjAwPqxDo7ivmFRcxMTsDkEyRkbgYfPHqE+MhQNHZ1Scc6g5amdsxO\r\nTqvl88GhUXzw/APEJ8RKPBqxubkrHU0GoqK0W3m0+Ggz89xHNbe6haHeVkSGhKKhsVk62kVUVDUI\r\nMdmCQTpH3T7BjpJLpINCGtbXhUBk5gsZPBH/08T/SIRFRuHJo4fIy+WtPOHIzMhSedskefzw0SWC\r\nQ+Kxv7YLV7t7sLWzQ1p6luTXmer8zFcMXsRPCGpP/xCWZsaV/xnZ+UK0FqTeuwsR2RdSnIyz81Nk\r\nZWUhITHmlbhyuTc2IUVk6UQt0x4dHiLAzxPllfX45adfoKqoALGJ6Tg6OxbilI3DgwM1A3h5eYn8\r\nvFyV75TXkspa/OKLL4R8lMHD3UPahwr86pdfqlnMqIhIHIk7zo5ubZ0hRcru/METlBTkKzLFAWSS\r\nmJWUVOEjKRNPLyEZKn5c4naU9jEAf/YnfypEYwi//bO/UG3Y3tGBag+3Ng+QwfhfPkZxcbHkewK8\r\n/QJwtHcCV2cHrEr7lCoEkMvmTC/JVnp2DpamhjErg5zWniEMD/XgwZMP1JLqpx98hOTYOOzJQMHg\r\n5ozV2TUU5mTi/NmHKCwowCfPnyA9I10GQU+wODsncS4SkuqClLRcPHv2ASbGelX5H+0dC/l1VQMp\r\nzuDtH15gcWEeZeWlitjo+a+XI9tg1qfnTx+r9nltaw8tjU1q761RBt8z88uYHOpV+UXyODe3isKs\r\nNNgJSXWSOr+9uYlOqau078PZaCF3j588Rm5ujiJZbE8okw8ePJDBVdGLvX3sy7gitbu7h7q6aiGp\r\ns2iuqRUiPoKmMrYV3BPKLQNaXJW8yaBtd/9UBgjreP7RZxjraMKkDIoSYqJQUduH3vZG9I9MYXqk\r\nV8h4Enykfs7OLaEgMxpZ5UK2R8de7F3U88ASrATwjcGioRU3wOsggHqFJ5FSyzDfSv4IrdEIDglH\r\ndFS4NJLe8PXzl85PJw5c4vVWe//uL93Df/m3P8O/+uxdhAe4qdkJngBmhSKh6+3tlc5pEEsyGuQM\r\n5KiMbJeWFtUSysQElT+PqU30NB8Y6EdjYyMWpCGbm5uTznlEbQ4ncaVffA8JCbHOAr5GsENlw1dc\r\nUny1J81VyoZ7wAYVmQqRgcNgf79qyIMDApUuRy5vqcZU4Ovrh56eHjUjwoEG/eLsRl1dnQwS3F5p\r\ndKn2Jz4uXvkRGhaB2OhYhIeFCyHsQYkMDsJEPiMioqUTlgGLkP+01ES1H6m1tU3FJ1wGBpRlzng1\r\nNDRK/LUlZt1/ynZ4RLgQ2VrU1taqzo2zfpzhHBkZVgOPlxvKhQByBnB0EsdHh2gUGXOXzs9k9BBi\r\n2Y7urk61vMs9b9zv1dTSAi/JKw5K+N3R0QE/H2+1xFpTU6cGMakpSQgKDUOPyDz3QZKcBAcGoVb+\r\n1VTXCOlJk/i6yXe9OlhAkkZCqsdHT0Og+DE81I9iGTS5yP96iVt3bz9CggJeqb/KruQ5B02dnV2q\r\nXJyc3IQQVWJE/Oeyp72jC7IyszAmdYnfrq5GtDS3iJ+NKl9IylPik2BwclDlyf1iRUXFEr9hVebX\r\n2wvmt7ePL/p6uqWMa1W7EBsTIyTKDYkJQhjkmZefJ/k9hPLyErFvFl/uZxMC9dGnH0t82xEbFQU3\r\ng6va61ZVVYPC/AJEJ2Xg2Scfor2zQwh8FByl/NKkUx6S+FRVVWkEsLRM7bcrE5nlvePULVorZVBW\r\nVgIfb28kJSTCTeKRnJQOg9GAxORUjEp+UCa4usA2ZmBgSOQrVduvx/iJfZYNFdjnZGfB28tTHebx\r\n9hHCmJwgdpyUknrOMsaL/8yf5uZGuAsBSpJ081RqfGK8hP/yrnU+/USWY6MjEBMbjbCIKIRJncor\r\nKFJ76HKEYHi7+4j/KeLeFfEx3G/rgazcPNVu5mSmizzH4P7T56gsL8fp6Rnq66uRmpap5K22uhKB\r\nIhMJ8QkwSHhxsdy/GIn7j56guqYKuzIQ6OjoFGJl97IMpDxZrmxbi4uLVH0ICAqW/BhQ9ZgEzl3a\r\n+W4pH8aRA5jYmDgE+/sq8sk0BYnMMX5EkJA/OxmEcYmeecI+hsSQ9ZWDfIPBTYVJd+zLlPur8Oqk\r\nPNzkOyIiVmQ7ROxJnrmyPF6t0wmS72wPuI89MiQIUUKafaRuhgZFIjosEh6ePiJP0kYM9CJK2pOo\r\nmFiRS094s726GmTp/n0drATwjcGioRU3wOuaAaQQs6O5SUXQwDBJArVDJGwUuG/qJXHQ9gIaDJ5o\r\nKHLB5ZIDlnvtZBTrpjpN7Z8BXV1dajM9Z/46pUHnLB4JH4kcCeD4+Lj6zpGGVmtQm6Wzb31xarK0\r\ntEQ1JOyouCl5cnJSzWRaCeDrBWeF2RHojbSjjPT1UbuTdGycZdNP7CoZkiflRG/Q2QHoM32UF7p9\r\nOfP3Uq5on/85C8AN8tqTJwK1E4888KDLqQpb3ukH/SJ0c/37uv8E3ej/+U4zpo1h6P69sCthVlXV\r\nChFIUScKaUbCYicdpn4iUo+fCl/cXg+f9vVvbth3kU6M+6yYJyosgaO88xQp/7NuqVO69pLeq/hd\r\nBw96cDaO5IdLe/SL35bs6/HT0sf6zdPDLAOe0pT4yDdnpPhfnfqVes2wGR/ln5AeZ8kf7vUiCSEJ\r\nYllo9l+SZXPoadaW1DUVU9ppTYavyQ9JB5/m7ngAgCSotb0Nd+/elv8sD+43Zn4xDfYIlgFAY1sL\r\n7t29q9JmEDLAwzzMU4ZHf5R9iR+/eYiC6WVaVTzEvrPkg4Htl7gnmdDK39z916WP7Z4WfxIRRyHF\r\nmn8O0rZpeU3/mG90r2RA3LFuKHO6Y5mb+cn8ZLnTT7oj7CWuKnzGx9mgykcj35p86vHjoSF3d28s\r\nra1hZmYaa+sbQsYitfomeeAo5cj852llLR4STxmUc6l4ZnoKy2ubSJC2U5WzWZx0/ykHDE9PD8E0\r\n0kyXaaUOTP7zyfqr13n9P+PNsPmuu2d8NP/1OqLlie5el1n9PwcdHEBo+W+5TlO2mc96G0HiaBB3\r\nzD/Gzd5B4k+iy/8iZ07098rudf8swUoA3xgsGlpxA7wuAvhDwArKPUpqT8Y14sCRYkyYESNdRhRk\r\nuMDDnQSQ5JCKnd3Vci1JH5cE+M59NiRzJICcIeISHTcnc2TP5Sa+c5aCdrnsS/U1tE9z2uXI0roE\r\n/Pphrgfwpwa9w7P0z4rXD42waJ2ypXynGcvkuvlPFXp+cBDOwxTfRmhon8SX9klqNFJs2a4VL2El\r\ngG8MFg2tuAF+7ASQRM/DIwBGg7eQP68r8sflYW2GkESNSy76kzN3fJaXl6vNyTqR40EPbjbnu25f\r\nM9OWk3mCVHdrJX+vH99GANmhWOqs3xRUJ/Y7DO+H4IfG9cec1tdCxL4mfd+Ubkuy+F3i8mPNz++C\r\n6/nzbWm6/v+6eyu+GVYC+MZg0dCKG+DHQgC1JWDLBJCET10Jp951XLf3KkjkLJlb8XZAAmhe3q/M\r\nMsh3gJS9h9j7XXQomrz5w8fb43fWgX11KfDrwThR+S7ziDeOmDx9RPaNaknKkn1CXz6/bs6ZGaPU\r\nHw8vSavrzZaqXgcY92/NW2l3WO8t/rshmD43kwd8vb0kf15NH8PX48BO9psIHjvnm81Sc4nRBH9v\r\nfxivvl/iut3fDfRtNDzc4ODIvXhUxP/N8aE8csBLWPp/HVxi5lWcXMZ3dLHOnn4fWAngG4NFQytu\r\ngB8DAeR+EZ0AajNyr5IHEgOTicvB3078rPhxgkvs3L/p6uQMLynrltbWF/tzuN9oeGxCKWfW9zHR\r\nXOvUtP1f1O31dZ24bl//r+wLzL/1vXV8516v1s4+NNdVKNnjvjHejqGHqYdL6Ht81F63q//048Xz\r\nyh6hLT3q9l/1r621Tc048/16/M3B/7W1NdjaPcDJ4T7aOzrQ1NajdLs52mp76uivDuYLw2psboK/\r\nj6/ay2buH/dgVTQ0oaGxTvL53gv3ejy0PXtaHSQh47ueT/reNoahcJVuFe5VOPrTHAyztrYOYWGh\r\nah/Wdfv85v5A36BgbG9qp44ZJtsh/n8Z/kv75v4zDrTDdwfxPyEpFRMTY3C0s1XxpLn6z3AkXdyb\r\nx20f2u0zLw8r6KBdqpLZ2tpWsqrH11K7yDL28vLD5tIOTFf+M5yXe820+JrH3zy+fPKbeww1+8zP\r\nV8PQ7en5wW/9eR20FxAQqrQXrK0tqX3M18Pnt4on7Uv94kGZ9o4ubG5uqkNyXPHQ/+v2GS/KMpeE\r\nWSebmltxdHCk3Pj6Ub2RJota/PV0aPt79bhZ8SqsBPCNwaKhFTfA2yaA7IDY4U1OjKtl4K8QQA9P\r\n+HiYEBtpQICPASb37344wxKptOJ3B87GZufkYH1lFfHR0Zian8ef/frXmJudUXsw09IysLV9gPS0\r\nBHUQITklFTtbm2pDenBQIKprajE/N4vtnV1ECKlQnal0TJQfdlLRMTGgQmWqTQkK8Ed5RSVmZ6ax\r\ns7uH6MgIRTb9lPqYcHUSNzYuHhvSYRYLKbC1tUVaRiYmxsewu7eHkpIStZ90a2NDhRcdEYHc3AK1\r\n4X1H/iclJKChvgEbG5sS5hJ6e3pBtR7zc3NYXl4Rt2HIzMhWadvbo968NDQ2NuHPf/tbrK6uKCLC\r\nzvJ6PdDBTpTP6qZOrM5OKqLQ0jaAp4/OsSdxprJe3pLAw0obG1vISEtVe1n/4a9/o3TLceuDOVkg\r\nGatqbsOTxw+wvb2JstJSVd/HxkaFMKyjIC9XwnCUdPQIidhWh6ncpY5RfcauxL+wsEid6NxcX1Mn\r\n52fEnHWQp5TXxaykuFjNPurhMWye1vzjP/kzHB/tq5PU1M02KQSN5cFTmbQ3PDyEvaMzPH/8VN3u\r\nwoNYG0Iuqior1D7ckpJiRTJ4Mp9qnHigh/EmwaqsrJJyjcLdu3dQkJuLppZ2PHv+DFvU6ScEyFlk\r\noquzG6uSvqamRnVy9bPPPsfTx4/Q092tiLg5WWHH3Nc/gCWRIeqxY1gdEu6GyEB9ff0r5UXZ8/IO\r\nwPH2GUL8AiTe/QgJCVXxX11ZxujYuBoUtLW1Sn7vqJsiciWPU1OS8f7t20hKSZK0FaKnZwgry8uY\r\nnJpS8dDLnWB43L9MHYlDQ4NCah1QWVWD9bVVdHd3iV3Nnm43KioVpycnUtcMODigQupsFBTkq4Nu\r\n/QP96uR2W3u7It1UVVNUkIenH36qtB1QSTgHQCzjVbHPA3M8jBITG4dtqYNzIvdx8Qk4O7uAi5sB\r\nPQODGOrvRHNTq1IDwzpKxcxZ2byJZh3jIldU6G+eHis0WAngG4NFQytugLdJACn4waHhuLg8R3RY\r\nsJoFNCcOPADiJ+Tvsw0b/Kd/8S7+xS9vITnOSV0tpdvhyWHu9TN3dx3aLRGW7XD0ayWIbx6cAaQO\r\nP4PRFYm82uvoBJFB/vBkZ+EqhGR6Hq2NpbCxd8Lh0THio8JQUdeC6clRrOwcoLqsEG29A+htqxFS\r\nY6dUpbDcHMX+lhCj1uZajE4JQRkdwuzqFprqqtDQ1iP2G9E3OIyW2gq09wyiq6MZ9g4u6Owfx3BP\r\nh3TK2tVq+1vrSn0MVQVtSMeXnZaM7MIyrEknNzwyh4GuJhQKOZkdG8HG+g4mJb6LS2tYmV/C9Nw8\r\nRoUAdHX3YnNtBr2dI5ge7kd+UQnWFqfg6eOHkwcXSEqMV3LIzlEH6wGfnP3mEiTfqTqmqLIB0yP9\r\nuH3rFto6h7E8O4zU7Fxsra3AxdkgxKdASO4KNhaFkBmM2Dm9UAp6WYfoB/2iTkM7OwdUt3Vhd30F\r\n4eGRQsq20dDcLJ31KoqLy/Hs/pl03vk4OtiWwZZR2gIXIScD6loy/6BwHAmxWF9fxeLMqFKMvSj+\r\ntHZ0CpnbFpKRi4+fPYCnyaDKQlPI7gqjyQObO/uoKy+GQchiTUMrpscGlCqN05MzNLZ2YXpqHH4i\r\nE6eHpzC6GJCdnYG2rk48knyKj4nD6dEhAkOjcH5xLulzVf6TsFAJcG/fIDrb2tHR1oCJyWm0CHk7\r\nPztRROzy/AIeRg+kpWahobUTHz57BB93VymvGfRL2ftdKY1mZ0xdoCZ3E5wkzv4hERL2GXy9jXA1\r\nmoQgPVcHxxguSRZlmDOabLM8PIPx4OQBTvd3UVqUB9/AMHz0/BOEhvjh8Pgc+cVF2N7dUqeH14XU\r\nzq8uKtLU2d6Mrv5utLe34PGD5wgPDcGB5G9EZKAijaHyTflgeFRFxPA/++RD+Ad6Ye/kEv3d7fD2\r\n8ZQ4uAlRdVfaCjgQCo1Mwb6Ed+/uLTTIwGFqchwnF/eRnZWFBw8fICc/U+TjBDGhATiRuhUTGYo6\r\nKYPHj5+grbEWHt4eePT0mbp27kLyr6QwF2vbRyjOzYCrhJWWXYyNlTnx/z2k5RViZWEGlw+fIC05\r\nFoMjk2ioKsPU7AKWZqcQ6O8LBylP1mnmlS7jVlgJ4BuERUMrboC3SQDZ0CUkJWF3bxvurs7wvbYH\r\n0M3gg7xUd/zXf/0u8D/8HvAff4btCQeJr/afM0vUPUjlu0wDR/bmILljA0RdUpGREcqMbnSwQvIE\r\nMfVKmYdrxesHCQ6XmZwd7RAcFYvdrW3Y33pH7XW7e/ceOoSE1dbmw9bJTTrxc7g52SEuJRvL89OY\r\nWtlATFgAaprbpROvVQSQs8VGztYImTu/vMT4aD9aWtuRkZqKSSFmKQmRKKluwkhXm3SggTg7OcDB\r\n8RmCAn0lPDuUVjdjQAjBLSFYdZ2DqiN0sr2nbgU4OjtDgHSKgeEx2NpYQ//gDPLT45GSm4uF8RHM\r\nTM2hta1X0I256Vns7h9gYXYGzU2NyMlORU/nKKpyMhCfliGd5QTuOjrj8OQQXkKw9KVmdvRMg95B\r\n6gMRvlOpLOM+OzYoBPUW2oUAtteXwD82ETOLcygtb8G65Elfr5BV6Yx5G8nq/jFCg3zUDCr9YJ7T\r\nPxLA2o4edDTVS1iuONzfwpCQ3KOjHSHJDagqK0J5VaMQ7WHcef9d2NjcVddwlRUX4n0bR+wLEVtd\r\nW0a7EOmxoR6MTk9gaHxcKb5uqq9EgxBro4GExKQRfKmHXGJfXN1EZlIs3nnvFnoGxtBSV4Fb797C\r\n5tYeJoU0tzbVwtsvGBfHx0hJzcD5wQ4q6+vx5MG5lKmTuF+XfD1Ed0uj5Ie9qrvMM8pQcXEJnjx+\r\nLOToOU5PhXBVV2JW8p8zd6fHh0iOTxRCeB9l1fV49ugx3BzvoVdIYkNlkWrvmOdsL5j/1OHn6Cqk\r\n29mI48MtIcEuIoNOiIyJwuziCjbXN2CQtonp8/HxVmF4uIfgk4cf4tnT+4gICYJ3YDgOd/aUImfe\r\nalPX1IS5+Rn87O//TAjqFAaGhmSQe4lPJb4PHz5Efm4edtdo3x4be7uIjA5S16V5eXnA5GaAr5D4\r\n87NjpePuAyGiYeEB8AkIweT4hKT3BF7e7hJ/o9JHSBUyoVGpOFAE8Dbm55fR09eDDz76VMkjb10J\r\nCAxQM8pn+ztYEvlxknB5mw1l7gGvZ6ypxNNPPkV7cwM6WtsQERWBw/MHCPIxyQDkNqLi03FyvCfy\r\n8XMpozrMTAxhY3sXBhdHda93T0stXIX0dXV34/4DyRMSZSftpg3q5dTb+586dAKokz8rAXxtsGho\r\nxQ3wNgkgG2LOFvCeVN70wAaenZZOGkwmX8RHGfG//KN3gH/3t/Bf//Jn6Kl3FGKozeaxUaauP3WJ\r\n+OCgInpUNMrlDC7dUHktl/SoQJj7f6gzkEtcVPBK+1wu4zJPe3u78ksP14rXC+Yt8595Hhzor646\r\n40zD+NCgdBZhyJUO8dGjpzg7P0B0bKx0mCNCcBawtXeM7MwMjM/MIyo8BFVCWFobq1/styIc7B2F\r\niLVhY50kpU3IfAhGJ2eQFB+D4rJq9IrZbZHxvYMjLM3PCvl7X91UcXb5GE8fXiIpMQmVdS1CZKrh\r\n5GAnBM1JyGg3djY3sLa1i+KiAiFg/chOT0KKNNaj/X2gguXGpnY0NrYK8ZxQd+ju7e6is70VUdFh\r\naGnqQVleNuJTUjE1MYI7tnZYWV7C6tKihJ2Be/fuqaveKHtMi3l94JNLdQVllRiVjvzOnfclrA40\r\n1pQhSIjz0MQ4auo7sL+7h7XVLczK990791SadzfXUZBfqAZWev5wCbi8th5nx0dCkubQ0d6slNie\r\nCCHu6exEbnYWfP2Dcf/iFGOjw6pDSkuT/Dk5xczsIoaGRzE4MISWZiHMPZ0YHhtFRnaO1Nkjcd+m\r\nlhMZHuOttyMMs6OrF0d7OygrK0dMfBIuTg8xMTWLuZlZpTfu8uwI6+s7ONzdR3p6Nh4L6R+fmJZ4\r\nHiudhhk5Rfjv/uk/RkiAr5od0/NHnx375OOPUVldi48+eIrkjBRMCDlyczWKHKwiOTFBiNYjDI+M\r\n4/75QxlMOKK4pBQPzk/UFgB2xHr+kECZpM0ZGBrFl198hpGRfvj4+6GtvUNdl7a/d6AIrnb4Q4uD\r\nl1cA1oVopaSm4UDSGBUbj7WlZYmnE5ZWV5QMHx4dYFLSs72zg4jISHwkBKu8rAq/+PxzREdGY21x\r\nQ5HJpZVVRESEqjTSb+qY8/f1xcMHF2r59+HjJwgJCURtXT26u/vUDSq+vpwF1OLPMEPCYvDB0ydY\r\nXlpRCvCN7gasrW+qZf76xiZFnv2EbP/pH/+JmuWjMvIBkS0uhx8eHiJcBsczC4uYGh+V+kX7JnT2\r\n9knZbCll2t5CSLnlYWZ6EocH+4iKDMWpEL2hwWHsHxwICfZXWwE6u3vV3crcdkHdjx9LGbEt1vcX\r\n/tTBcuDtJdziwFlAgrfZWAngD4ZFQytugLe9B5DCT5LA0RA3Yl8nD25uHphvd8T//S9u4cujOzC5\r\nG9VSEk8CsyEn4aPG9yYZdXP5jntfuD9qYWFezQzqN4FwnxT3La2trWFqakpVQtqne+oBtBLANweS\r\n+piYGNXYqSU1R0e1LM9vzsJwpoBlRVAdDztbykN0dIx0+FQR5KvK2nyWzBzsCBOTEpV/XALlQIJ7\r\nuXitoJeQTRfxgzdmsIxJIGiHYXHJkuHTX4J+6XWBDTWJBuWTcTJI4804MHzC3d2k/PT29IaLowvi\r\npNPPysqWtPgrvxgW/WL6eUiAystz5X9oSIiKA5douaSpOn2ztOjgdVmMP/9r4XHWx02ljf85kxAa\r\nGibh0I4bPEyeQpazERUR/YqffNcJOG8t4a0U3KfH5UwqR9f2gWnlwdtymC8k1ZFCUjLSM5WyYy8P\r\nb5WPXu7eWnolvOBgcZ+dq5aVLaWBcWUZUqemFl6YIpfsBKkUOk7kgfv4GG/eqJEQl4C46DhJswzu\r\nJI39/cOYn58RMvjVww/0m+XGd5Yl/WQ+c4bT29tLlRl1evL2CsbX4GKQMnBV6Seu+8dypSxwJYA3\r\n0xiNnKlJUeVJDQRcctVP1eppZfgsR73NYrlo8dLCpznvKVf2JM+9fSXf+N/XX+y5i7m/+GOCt5ef\r\nhE/ZM2uDxT3jk5KSJPaom8+gZJHlxbpC/1/YFTD+jDvzmP8IygzzOyUlWf13E/9557TRTZNj5gP9\r\noxwyHZQRtomUe1VGkk7a4U0yvELO3d1L5UdEUCAcpLxOH90XUl2iTu+T4EUI6dPkKfiKsBvU/l7O\r\nalqSj58imK+JMjjR5ZBgvWT9sNQ3W3FjWDS04gZ42wSQ0BusV28C0WAweqMs1wMXC46YaXOBu8Ek\r\nnSmXiqVhl4aMt3pwozjvzWxpaVGVijN+3ECtzQh2o6OjXd0CQmI4OzurZga50Z/uSBw5W2glgG8W\r\n5jeBECxznlg1/yb4Tnlkp8Rvc9nU7ZrLjg7apRv9m+4IS/7zybjoJ4t1O7ob4nr45n5cB//RP/OZ\r\nSd0+/dHjQTs00+Orv1uC7of5u+6G7+x0Nf9eHmZgWLobc9BMpVegm7GTVkvy8uTMljK7cn/dvm6m\r\ng2Z0x8MjX5cG3Q+9TPg0D1/3X3fPmyqUHfEz9+qaN+rndCF5u3JjDt2d+ZMwD4/Q/5ub6d/m0N3r\r\n9nnYhPHT03sd5vmg54tezrq5uXvdX5aXdgMSSRkPo7DsmEZziD2Jp7l7xlsvL36bQw9Xj4O5PPCA\r\nh25m/p/+8L9uptvnjCJPg9OM36qOiHxwad+F/3iNmskd+QUFQiZ5wwtn95hvjhI/3tKhl7Hhyn/L\r\n+f1TBPsr6qLlUwf7nffee89i32zFjWHR0Iob4MdAANkIcSRvaQbQw8MLgb6eKMuWUXAoZ0W4/KvN\r\nALKDILHg7AXd8kl/+CTR4+iKI3Da4X/9VhD+p7nujpupr4drxevFzXSsWWGFtAdO2jVw2mnXv4ky\r\nwzR9Eyy5ebvQrmnTQIJIcspZVe2/RlJfxY8zHW8TJHycBTQ3Y5v47rvvWuybrbgxLBpacQP8mAgg\r\nYYk8eHhwJpAndkn6eAvIy5tA9CU5HboZD3foewp16EuIhLlbmuthWfFmYCWAVlhhxU8ZbP/MCSCV\r\nahuFSL/7zu9b7JutuDEsGlpxA7wuAsglBY7Y9b1Plux8Hb6NABLcQ/XyGriXBPDrYF3S/XHBSgCt\r\nsMKKnzJeJYAucDW4IzKtAfYuvhb7ZituDIuGVtwAr4MAksBxc3JFRYXai8dZNZpZsmsJ30YA3YXs\r\nGY1e6i5gbhC/yVVwVvy4YCWAVlhhxU8ZrxBAFye4eQWj9vw/ISB10GLfbMWNYdHQihvgdRBAbmym\r\nzqq4uFg182Zpo/I34ZsIIElfsI87SrMcERvhBHchl1zavW7PHNYl3R8frATQCius+CnjFQLIwzne\r\noSi7/H/DN23cYt9sxY1h0dCKG+AHE0AhbwajSalT4exffX0DQoKD4PIdSKBOAF89BOIlRM4HQUL+\r\n/uK+Df73f/cz/M//+OfISXMQc21JmPb0fXw66A8Pe1w3N8d1d9bl4jcPKwG0wgorfsp4hQBKn+dm\r\nkv4ttx/3DMEW+2YrbgyLhlbcAK+HALqry8J5yXhmdg7ycrNfuR/026ATQC4j6wSNBNBg9ENRphH/\r\n9S9/H//7v/k7wH/8u9iZspf4er0ggHTHk736kyd+eTsI/aGOM5JK/iMB4T/a4T++04z6s6gKhqeC\r\nzQmLFa8XVgJohRVW/JTxCgFUcIGLkz1+/vOfWeybrbgxLBpacQO8lj2Azk7IyM5Xy8C8uD8wwE+I\r\n4XefAbxOAHnnb0yoEX/1J+8C//5v4z//65+hpcQAg0nIGpXzGgxKxx+VPS8tLWF8fBy1tbWK0FEn\r\nIG+e4D8qiqYSaM5Qrqwsqzs2ebE9FUTTLrXr815Q69Lxm4OVAFphhRU/ZXyVAGpm77zzjsW+2Yob\r\nw6KhFTfA6yCAbhzJuLjC188fvKT8uyz/El9HAPnkTSAjDfb4yy/fxfN1W5gMPvDw1OyQAJLcZWSk\r\nK/LHJ2/5oMJnPkk6+OQ/atKnYuj5+XllRuKYn5+viCL9sC4Dv1lYCaAVVljxU8bXEUCrHsAfDIuG\r\nVtwAr4MA6iCRIyz9+yZYJoAaePqXy8Dni04Ya5EKYxQCeGWHlamqSjt8wpm/+Ph4NDY2qrt+OctH\r\nYreysiLfVeqapO7ubjXrx5s/OBtIRdG8/oo3h/DKKusM4JuDlQBaYYUVP2VYIoCcxLASwB8Mi4ZW\r\n3ACvkwB+X5gTwOvEgXv9/D29kBJrQmiAB0weVO5sfgpYI4M6KeSTs3mc3eOyLwkhKxnNdYLH/7yS\r\nh2a6+bedLLbih8FKAK2wwoqfMqwE8I3BoqEVN8DrIoBU/aLju8wC0i7vjCQBfPUUsDm4H5DkztK/\r\nr4Kkjoc7eBpY/75ux4rfLa4TwO+qKkjdGytyYunfddBvOzs7JVeW/n8ffFN8+Y/x+y7h8V5X4vvO\r\nmPOqNHUd15UZw6Z/vIJLj4+5m28C/aN94ibxseQ/zbTwX7X7fUH/zNOo0mzmv4uL1s7wijKDwEn+\r\nOYp9/b859PRZ+qdD+S/u9TTo+fFdypR2b5J/3xV6/Imb+s9tOEzP960DujyxHHQzJa/ONwuf7lkH\r\nWU662XX/fhdgPL5vHrxuWAngG4NFQytugNdFAENDQ9RBitDQUEW4LNn5CqQx8/XzVWTNy8vzGwjg\r\nd4f5zJ51du/t4yUBZAfirO5hZsOsd2haB2e5oXYQ88LySqQmxL1wwyfd8L/5N5/c7zkyMqyeuh3N\r\nf+1dIzBax6B3SOb/zf3ju4uzKwIC/eWd9l/tAPmfMp+RkaHkX/fDPH7mnR7feUF/Tk4OysrKpAMw\r\nXpkJgboKT3evOtyrb3P3wSHBantDbm6esufk5Ijo2HhUlJepTj86KgppaSlCmF9uyTBPj7l//Gb5\r\npKWlqS0RrIM0I9l2cLhKP78ZP/mmPzxdn5OTq/yjOc2Cg0PRUFsDJzP72n8tPM39zQgA/aN8cFtH\r\nXl4u3Fyc4Ovvj4amFvWffnh5eUsdd1dhsJ43t7WioaHhRXzphwpPnv5+gSgsyIOdg73F8DX/vNS2\r\nkYKCAuVfcnKSIBkJiYk3ah/ZkXMbiVGe/GYZMw56ePpT3x9NYsT/uowwzpbyh+YmIQ2JEo/09HQV\r\nTyex86p9Lb91+/TX3z9Q5V+CqjNSjlIONCfMw9PDv47IyEgVXnBQkHJD/5m/ISJ7fNf9e+Fe/OO7\r\nHkZGVh4GhwYRGuyv7PNfTU2NqiOa+1fTT+juzf0z/2+Ol/F/mZ7r/pGA8kpQtgMv/L2CFqeXZUT3\r\n5uFd9492zN3q798FVgL4xmDR0Iob4LUcAhH32dnZKCooRG9fn2oIr1e463ARONjbobKmAZ9/9im8\r\nPb3h6/NVRdBcAjaZvMW+N9wM311Vi5UA/jjADl0rdzdkZBfi9PgU0dLJeHmYVGOfmZktnVyCUiX0\r\nQkbEnB2lp7cPeobHkZueLA2yg/IvOjIGGekZ6mJ6D/mOiIxAZkY6nF1cFfmfnltCb2e7NhMoDXZy\r\nSirSUlLgKh0XBx3sGKOjY6SDCoKjyGpycgpS5T8JC68aDIuIkjhlwuBmQFRUEi4vLoQgJb4gSAQ7\r\nXnsHZ2zt7GNpfgq7BydoqKmCna0tYhMShRSmKTn3lbSbFPE1iCx6CJFpxsbKIsYnZzA9PaPqT6gM\r\ngnKys6SzN0h8nBETE4+iwkIhL1p4ep4wr7iFoaWlA+vrKxKWnSKRVTW16GhrhK2NDapq6zExOiBx\r\nE2IWoqUvMjoWuVJH2eHo/vHJzowqkTo6OnB6cYnO9ibctbFDqKQ/Nydb4mOC0eSuCHxOrny7m5Al\r\n5G99ZRl3be0REizE3uCG/IJiDPX3SF47wmBieYt9SY+fjzcchQwFhoSisKgY4eGh39iBqvgEBuPR\r\ng/vo6+tFR3sbfL09kS5lMTY2LHF2FoLmiYWFRYlzkyIoBsm/lMwsPHz8QN7phyuiYmIVmfPx9hJy\r\nnIyjw12kpaep8iY5Y1haOUonLPE9PjrA+NgIOjs7VVo7u/vwR3/0B2hpalD+sxyvx1XPR0chIslp\r\nWfhn/+yfIVvJqBPCI6IRFR2tCBPVZPn5+qnZSm8elJPy8vbyQXRMHJKTEkXmHeAh33n5RQgJDFB1\r\ngHbpP9vRiNgEfPL8Q4zJoObo9AwB/r6qTPLz8lX+GwwmyWcfuIjcUHOCv8jb/uEhujtacXH5AAnx\r\nMTBJnUiSsOLiYlR4JiG5JPHpaakv2n8tPwTy/uDyHBNj4zgTmUhOjBcCHqBkNUrKz0HKyFPKNSE+\r\nURFT+qf1AZmIk8GHi8idj6Rz9/AcxTnpMihxgJ/Iw8TklPQN0ZImZ3hLnY6LT9Dcu2jlkSllGCfl\r\n5uxEVV/STsigStUJk0aqdTCOdJ+bmy/u44VMOsLL2xtRMghKZXpcZOAhdhIS4rG9s63K0N7OXtzR\r\nvZSlm1HSE4jE+HipZ7FS3gHShnghWwZlycmJ0kY4Snl4IULah/SMTImLq+Spv3LrKm4D/X1U+ZjH\r\n6SZgmqwE8I3AoqEVN8DrmgHkSMkgnVedjDo5CtYbx6+Di1QqW3tbVNa24tPPPkZna4c0ihzVv7pc\r\n627yQG6yC3amHNBW4QpPabjY4ZvbuQ52kDro33U/zfFN/6x4feCskbuQB6OHF0ZmV/DHf/gHmJYO\r\nJjIsBAMDQ1iYm5VO6wAV5flqFksvF3aAKanpOH3wBFVlRXj/zh3MLS5hf3sT+0dHKMrLk45lCXt7\r\nO9ja3UdDXbWS6bqWbvQLmblz9y7KqusxNzePxcVVNAtR2t3dw9OnD/Do0UPMzE6jqKwc8/MLWFha\r\nQXV5MQaHJ3B4sIP9/QM0iv26hlb8+h/+iSJ5JIWceeCgwmQyCskyYn3rCLFh3vALjsGDkyMU5OVi\r\ndXkeU3NzaG1pxOjUlHSEaYhJSMHy8gL2Dk4RE+wLRzcPnB4eoX9wEPfPT7G2sor+vk7VMd6XDri1\r\nuRFREeGqw+SslLeQGdYdEo7U1DysLM8K4bOVDiwYa2vrWJwfg83dOyipbsD4cDeGqRappgLR0slu\r\nbK5hdHREHYLiwIv+MY9VXZS6eueO5Flbh5DmGgRFxGJ7Yw2Dg8OYGhtFXkEpPnz2CPMLC5iaGhey\r\nk4HluSl09A6iv6sN7p7umJpZwO72upTdPWTmlOIjISwzs3NYWZyHh7c/Lu/fR3dnqyLR5rM0OlhX\r\nuQpgJx11W/cghvs7haR4IECIhJfEc2h0DGfH60JyHJCUmI6PP/0UZyf7aG5ukA7fFe4SxqF8G9yE\r\nTBjcUdfYgsHRCewJAQiPSsAf/fGvMC35QZVPXhJfhkndnyScWXll2Nlcxr27t5XsOQlBNHgG4PRk\r\nF0YXeyHdr8aVYMdNGSA5oJsBCWtWynl6vE/KyxEt7T0ij0d48ugMgcHh2JL8J1FZ2NxCeFAojo/v\r\nY3lpHo8fPJKBSZLk7Qq6uvpwfHCMID8Z7EqbzPgxLuGJmTjY2MLtn/999I1Oor2lAWPTU+jr6caB\r\nyHxqShp29/fgLOU6OTmH8akZLC/M4913/gEaW7tlMNCHk8sLzIqb8/P7IlOhGJcB0sLMBKoqyl+Q\r\nEh8hdepdBj2nR5J2icP49Cxa6iqRnVeIx0+eIiUmEjaOzuLfJRYX5iQ/L4QIRqOrfxCDQ33Y3TtE\r\nRmIc7tyzk3q+jLKsVNjKICWnoASPnj2T+pMiZeyEo+NzqXMzOL9/iRghhZ29/RgdHpI820VKUixa\r\nunqxJQOc+toqeHoZRUaFNEp+67O+iTJga+/sVuWZkZqAxfUtrIn9o9ML5KQlo6m9Awuzk8r/Zom/\r\ng53UWSGNbjKgMXj4yGDnoaTnGe4/eICpiVFER8WgTfw7PjlFXk4GRmSAsbO1hn2JZ0l+HuZXNpAS\r\nG4X03GIp51FpA+yUNgq9Dt0EVgL4xmDR0Iob4HUSQI6gMtLT1VKWJTvmIAFkR9Ta2YPRkUHsyWjR\r\nWzp8c0LGfX9xIe74v/35LeA//h38f//t30NTlZ1U4pfEgh0ZKxU7EFYmzmZwNrK8vPzFspy5PT7N\r\n3bCR5bfunxWvHyxTlgNnz5wc7eETHo2tjW04CJkzSFmeSyNudLJDQnoWdtfmYG9rq0bcHJlzpH33\r\nno2Qgn5pyKtw+/07WN3YRVpCFArK69EjneHM7AYy4iKE6GRgQ4jX+7duoa61B72tDbh95y52Tx5g\r\ncUY6Z+lk1xcXhcjNo2dgAN3tbZidncHO4TGWhNDw/+L0uHSii8jLSkJGUSWmR/phY+eIg70DuLtx\r\n3562LMptCyRk9g4GRQATo/ylY/HDmRC61bUNbK4vYHR8VtK5Ip1eDlYXZzA8PInyyiocHFwg3McD\r\nDq7uONrbw7QQpZqqculQgnFysIWI8FDJk3MM9vcIAfJRJIVyyjAZNglgWlqeEIgZ6VxtVZxiY+Ox\r\nsTaLu+/fRl5ZDX77219jXjqq9979OQbGJyVeu+gdGMb9U8lrISIsixezsuIn/Wlo75SBWIV0nv04\r\nPz1ET+8Qzk6PUF3XjInBTnj4BGFzewNJyWn4zW/+XEjJCuztbGAvJMVPSOjRwa507jYoLK7F8vQQ\r\nXNy9sX20D3ch/SQGc7NTiIjUZgAJEic9fO4BZvpIFobHF9AgA4HcohJ8/NGHCAnwgavRC8dHa0Lw\r\n7JU8DAnhKi1IxV0hvK7OMjD0CcSREEA3Fwex66E687GpWXz49AmSkjKwvbuOO7duY333AImxkWom\r\nNTw8HC6uLiipaMb8zLCQ6XsqLiQbHr4hkvZdeBhkICsEkOaML5+MM9sMLv1zFtgoA5vHj56grqYB\r\nzz94DJPRGbaSvnUhbelJ8fANCMeR5IOjyP7a3jGiQsOE6F0gQAhXTHQM8guL8Mlnn8lgoR2PHz9F\r\nRgKXnQ1q0MR8Che5PpD6cvfd30eTyPXK4hSeffyJmh19JOFmywBpYX0TZeWl2N3ZQk1tA+amRnBb\r\n6kFZdaPI/rgQmSOldLitZ0gGNWVoFLJ/fLCH4sIClV6mieGR1HL27MmTRzJQ2lUDMz9Pg8jV+5hZ\r\nXEdWYgLsnFxwdH4hA31ntSw/NNAl5O5j9PWRQJ2jo6FO6p0NRuZWUJyZrAZMd6TMRqbnkF+QAVs7\r\nIZAnZwjwNKF7ZFQGfRV49PhDGQj2YvfgEJ1tjcgrLsXl2YnkaaW01dq2Cc7M8qAg+5q09GwMy4Dm\r\n0eP7qK0uwPLWntQbf1Q3dKFLyP+OEGKTmzOaWzrR1lgDRyGAISFh2oqSdwC2tnaEtE+hRfJhZnIc\r\ncbEJGBkZw/kDIYzNNZhY3kRKXDiKq5vR216HgpJazIyNYHZhHQU50sc52Ku+htBl4ttgJYBvDBYN\r\nrbgBXgcBZAVgB9Xa0iIdulEtuVmydx32dnaYGB9FSVEePGWkz+Uic+JgMHojP9UkxO/n+K+8CeSv\r\n/htsTDrAxeClFEGzEY6KilInfrlfhypd2CiTAFIBtFqWLiqSTn5WNfb8T3UwsbExL95pj0tFJIPm\r\nYVvxesEbWAwGHlBwQnBYOC7Pz+Ar5c0lq7PzcyRJp9zQ2o3J0SHpaO1eyAhly13szM4vYXioRy1n\r\nrq7vIC0+EiU10ji3NmF8YgU5yYmoa+rC0GCP6jRHx2cwI52gi4sBK2ub6O/uUFsTgkKCsby8jL7+\r\nIfQ2d6iZkuWVZQz0tSFB5MLP0x3zc2soykxEXkU9JscGYWPvhPPLU0RHhamlM/qv7WUUGXZwxs7B\r\nMcoLMpWfk8MD6B+ZUbMKcTExaomOy973Hz7Cp08fqCXqJSGw1eUlSM7Iw/7mNjqHhqSjq0J2VgE2\r\n1hfFDvdISjyXljE3PSEdpkaUWE+ZH1wSq65txOnRgZo1MxlMqhM9P92Hp/wrq2rE/sYq9vd3kRgX\r\ng/a2HmyszCE2Lh5RUg/cGP+rTov+8XCVl5c7JoQw1VcXolLydUc6yHhxGySkrLK2C5ODHfAOCsfW\r\n7p4MrLJxdHggnegR8nKyFGHIys7FU+mMA3x9UCSd5dLEIIxCGPeESBrchOBJ/W7r6seDiyM42tsi\r\nKi4JvT3dQthebStIFgpLK3EoRMZVOscTIaBREWGIj0/F02cXMpAIkfy4g5HxMXS1N6r9cUaDEYlJ\r\nKXj+7CFCg/2Qkp4j+f0ACUKMSADThQAe7K2rzv9IBhshQdyXpi13crYuVuLy/INHCAsPQ5i0H+7S\r\nFsQnZOL586eIFDLObQP+AUEYHRqEt4c2e6jnnYOjAzJzC/HB08cY6B3Ahx99hDwhPWOcYZuekvzw\r\nljwMxbHIeLjI/YcffyZhROBw91LaOy/Y2d9FoPz/4JkQv7Q0xMXHwl3SRL+1+DkhKiEV989OERsV\r\nqWa8igpyhfh8gKzMDLEfr+QiK7cAv/n1r9HVWo+Q8Ahc3D+V9HphdWUDVZXVapDj7+eFRSGKxXm5\r\nMJjckZiaho8++1S1oU5C6vQ0cUvBxcWFtKVh2r5UJwf4yYDh+PgEtRXFQrBNMqg6Q5AM0mZmF1FV\r\nVYHT8/uoLC1GgsTHV0ikt7cfNoX0t9VXCxFzgqe3LzZ3D4Vc1Um5GnF2fIogTw8MyWCrsqxECOEF\r\naqtKEScyynaBqwWR0fF4+vxTtQ+UcqHnO5fYzy+foDA/R2RwA/W1ZVjdOkB0mJ8Q5AH01NcLkSTR\r\nj8D+4Zn0S/XSptyTcKUOuTjKYMEX65sb6Jc2oqW1GVNCTLf2zlFTWoiFlVWpL7WYXtlSs52VDb0Y\r\n6WmBi7MJT55+gIeXZ3A3cILjZqTPHFYC+MZg0dCKG+B1EEB2iBw96pvutQ7Ssl1z0G5pcaFq4Nmx\r\n+knnYU4aPDy84Scd3J/fvw38+7+D/+Uvfo6ceBlxUw2MmDPevO2jr69PGoItpeiZ7wQ3yXM/T3t7\r\nu3T4S2qvybQ0yDMzM2rWp62tFcPDw5ibmxMCmG8lgG8Y+iEQbR+OKwaHRrC1uaU6n/T0LOzs7EhZ\r\nTMHX10/k51UZKSwswsryPJaWFtTevdLSCoQFBiAmPhEZyUmYn9/CpTT4k5PTilBmZGZjcWFB7C8j\r\nLSUZwYFBWF7bED+WkCQDhZKSYuRkZSMnLRPlJQUyEAjFyuqaEC6Rk/gEFOQXIjY8CJFxiSIbOWpP\r\nXGVtLQ7295B/rTNycHJGfWM7Vhbm0NneKp23G/wCQ4VUrmBjdQl5uemwsbFFaXk1WuoqYGdrg5Cw\r\naKxtbGF9fQ0RYUFoGRrGIyEs8yKbYSFBQjTjpONewdKixFdImPl+Wr7HxCSoPXBrq+soKytFaESs\r\nkuO11RU1kxiXkIK8rAxERydJnJrh4+ktRHIW62trKCspVSdmzf0LF8KwtraCBfHDR+qV0d0Do1PT\r\nWN0Q/yWvY+PSUZSbAQ8ffyGe9YiMiJYyKERgSBR6ujsRKnV/cnJKLWG3NDciJjYJZQV5cJOyqKqr\r\nFqLgpxSwL8r/UhnsOQihTUzLwZ/8wz8UskWy87K8uf/MSeSkrUur0/Pzs2pQNzY2KfHfRE9Ph9i3\r\nU3sa94SM9vf3wUfaDS5tMz97ulrh7euPRSn7hfkZdEg9D/ALkLgtY1WIf2VZkcgX81PrwKnEniSw\r\nRgj18dERZqUMAvz9MTA4io2NHXR3t8MgdvyDwvDbX/8pokOF0AtJ0uPLAUleYSmSk+Lw/nvvyUA0\r\nDRXSpo1OTEt7M42RoX6RfxP6BsdFHlfQ19sPb8nHupoWad9IJh3ED3vUNjRhW9JL1VVsi/QweNjC\r\nT8jn/PycIpS52RlqgMQ9n9vb20rJPeuXyeiOqclJIbd+sJPybWxuxu7utpSPxN/khQ8+/gSba6uS\r\nP+1qANDR2aXkYaC/R5Fo8zSRlDQ1NwkJ81BtOWWEulPXRCbnZyYQLOVx/vgJNjY3MdjfrwYTGTn5\r\n2BRSxbbVz98P5dU1WKcMSxlEhoegvKJa1bEFqSfRMjCqr62Dt6Qzt0jkKzoKiSlZqrwpx2wrKipq\r\nsb66KQOpSUUIOch4kedCAKtrGrEj4U3IQCAhIVbksgHBfh5IF7nKTIgX0liEve0daePHkJSUIGng\r\nXlmWtzPcJd+rZMCVU1iC9IxUFBaVoKCoXPJ/XeRoAqlJsSiR+IbKQCExNRcF2el4973b2BYCOz7Q\r\nDgcZwLhxP6DCS9n9NlgJ4BuDRUMrboDXtQTMBkQnfuaNybeBjYuzVGhfb2/4yyjz+v4+VzcvtJS5\r\n4g/372F33BZGNyO8vDUCyMpDsscTeySCPMXIWz74TnJHQkil0CSDJIJsLNek0eOTS5JsbGmHp92s\r\nBPDNgo06y0svdxI7PrmHSp2YFNkhsXp18OCi/vPgh3ugNOIyCvfyi4LRJwKOQhJ9QpNga+uIycVT\r\nZKRmw9bRBI/QVNiLPJn8YuDo4gFX9wC4ByTA1s4BPiGJYmaAs3ug/I+Eg6MrPALiYedoDxf/CLj6\r\nhsOF90wHJcLFyQ2ewbFw5AEkk4+EHwcnafA9AyMlXqwv5iTAUcVdJ4aqLkj6qJ5En2ljerlUy0Mr\r\nlHkdNjb30NTbp0ipnby78gCAixsMnKES+zzFen3DOZfsGJbaryb/X35T9Y128pb7BumW8eC1jIr0\r\nibmr5K/btfrJ+CriJXb5z1nSxpPXPLRCMq6TAC5LcqbIReJH/+lOL0eWEa7LuxkAAP/0SURBVDf7\r\n8z/dsJNmuXKbhx6G+nawg9FgUjPvNdUVyp55XAgnN03li+4/n3p69fDol3l7w/92V/9prp9Yphtn\r\nZ+10p5ZPL2eXzUH3ejr1cFX+Svx4Cryjqwf9ne0qL1mG5m7phuA73eluCc1fmnMZk+Fo+Uo7yj3l\r\nQfKby/oq76/SZA7GR/PrZfrpL80J3Z5K69W3nh6amWQgvbG1pmYvnShTV34q9Tnin7kfOvQT6ToY\r\nrq2drZB3G+V+aX0dfn6+Em8t3fRHP52svkUOtDygKhhtJlPPD5aDng6aM56OjrSjy8mVP1fh6n6a\r\ng/lJc5an7kYdAKJ9kU1XyqGA+c18ZVq5p1Hv6+ivXm6MO+sww9PqifjNeugmZcbylgFKpwxIDmSQ\r\n6etlEvdsxwgrAfyRwKKhFTfA6yKAPwSswF+nB9Ako9f0BCMOZoxorXCFl8kgBFD+CQHkEnB6eppa\r\nyuXmfD657Mu9fyR1VG3BGSbuB+QyL9UYFBYVKjtckszMzFCkkcvE1n2Abxb6DKCl8v86cKbHLyQB\r\nscVTCC2YRUThDKKK5xBWOIUwMQsrmEB0+TKiyifFzjTCiyYRXDSK8OJZhOZNI1KeEaXzCCmeQETR\r\nvHyLHXkPL5T/RWOIlH8xhZPibgahpWMIKhqX93mE5Q+L/+JWvmMKxxBTOoeI/HHEla4gKLVGOhsS\r\nva92St8XRpE9vWMg2dNx3d5fH3xzOVMO1GlnIY2W/v8YwfIhUbD077uBefO7bm/drg6svL5w3T08\r\n3nq/8XV43fWHmgCoDojbLbTZY8v2vg0ke5xouG5mJYA/GBYNrbgBfuwEkEqgeQrQS0ZevPXD18sD\r\nnlczgPzPCsVDBuZPc5DYsfHmOyub/q6phqG/PHTCJ7+vh23F68L3IYCurjJ6N0r5+MdLwyuNum+Y\r\nWlZ0NbrD4B+hDh8YfaPU7JXR3R8ePiEy6neEB+27Svl7BcHoGQgH/g+kmQEeftFwNQXASRp1A2f1\r\nZHRvDIiBi8iGi8kbBr8o2Ls4wugfDoP88/AQP8RfRzHjrKKz86t7AF8HKP+EpX9/U8Eys2T+Tfgx\r\n5pMmC5b//ZjwuvPtpyavnCn8oWm2EsA3BouGVtwAPyYCaOkqOAVFzoQICqgKQPu2YO87gITPHJbs\r\nWPH6cJ0AcgmG3xypf33DemXf5WrUzeUYVw0uBP0TtwaBOkyg7LkoZcTKfzHTljsNyoxPNyGSPJRB\r\n/7i84yxEUPNTzJ3pj4uYuQlZdNKWjcQ+w3VRy0FCQIRYmu9ZU/4ICdCWu7jcqC2VWlravA6mW79Z\r\nwUX80JQmM25a/Lg0SPPrsxlMi/meqB8/jOpAB/OJe+70/P8uoFsO3thGsNO0ZOe7QF965DvjYymf\r\nvwk8zMNnYIC/todOZIhLzZS/m6SPYTMOlv6ZQ4vjq3JxE5BgK7dXckJZY3hvqq2nv0qeVR21bOe7\r\nwIl104L5S2j5oYWp5bv5fy3fbp5WLbxvrlNaWN+/3lkJ4BuDRUMrboC3TQDZKFFZL2fhvpYACr5N\r\n958VP26YE0B25FymV3uChCj19g0hPNgftiIHulxwrxDBdza6fNdJI83sHcStuNft62DH5ygNf0Zm\r\nptpXpfbzuLjBxsERdvbi3lncyzcVw9rZ20n4DohLSMDewSFqqqqUG+71sxW7DnaOQgA1kvp1M36U\r\nXx4wos68wcEBJCUnijw7ICsrS8X1eievx//evXuIjklEx5WuwuKySnS2Nas9Syq+NjYIjopBV0fr\r\nK0uPzIeC8lJk5+binrhjR0c/aa4RUO2befXiW9zxXbuaS9svpfJez9Mrf83d6+ERNON/pVT7Kj26\r\nf+p6PiGuunvumaN9zR7NHWHy8MPE9CwW5+alo3VShzzsxZxaAHT/VHxZpuKPedgE7fgHBGKPakkW\r\nFpT6Gj3+un0VvvhHf0jm9P98Xu+0aU4lzTy8wnwOCQtHf1+f2oNJ97Sj55/+bQ5FFo3u6jT55vqa\r\nUl5sMJqwJN8+3p5Kfng4xDx+5v6xPIOCQxAXG6PU71giFUwz/3GPc1BwgPhD9/pexpdkjnlNmLtV\r\nZSwytLi0hJCgQBUHP/8ApXSafprbJV6Wl+aW7wTLV4//9W9z8F9xcTGOTw4RnxDxwr1eBrRjHm8t\r\nPG3frF4+BL8J5l3X0LA6tcwwuQ+Y/839Yx25e9cGJSWlKCjMFv9ftgVUpN7VO4iwIH9VvnTLMOne\r\nPDz9m3tH69pakZac9IqMm4P51tLSjIrKCuWGdhgXVQeu5f/XwUoA3xgsGlpxA7xNAsiKExISiubm\r\nZpSWlkrj+VVF0ITRoCmENvDp8d1vA7Hi7UPXOccleR68+fzzz9HY0CDmQVjf2sf0+CC6u3tU+VOr\r\nf3d3lzS4rWp2hQODnp4edZiHuveotkQ/4c2TlHqDTnD2rb6xGb/8g1+hrb0NkZFR8BSZ6e0bUPDy\r\n9Bb4qDjQTx8vbzhKx1rb3IOJQSEB0tC7i1lreyeGB0cQEhCsOvzrBJBh6U/OXi8tbmJ9fQG+vt7q\r\nFPGXv/xShcE9puwsXsbPTeTYqE5VHhydYXlhRtLkg5GxKVSVlUqnws7HiLq6OmwdHAnBWBZiIyTh\r\nKiySnMbuTglrXR124pVd3HzPa7YG+gfUzRjsmKgaaXJiEplCtOmusbERIyMj6kQt78imyiaGwX2x\r\nnE2srKxU/nEfLe3raWMdpX6+0tISjI6OKrLLzpyHq3iQg375SvkUFxWpg1dUx8RTtDytbTR6qds3\r\nHF2knofH4PLoXNIh6TO5o76pSZ3cpeYADghImFmmFRUVLzpUhk9QBhpae7C9sqDK31PKn3t+Wf5M\r\nN2dOGT/GJ0XC52CD6eJVaG1tbUr+9DSxLMIjInB2/xJ7G5soLCxAdGys0uM30Nev9gOzg09Pz1Dp\r\n5V5inRDo8aE6o9z8IpyeniHQ31sdLigvr8bk5CQ83I1qq0G65DvbNd6wQjfMF6aX6aNKlbXNAzy8\r\nPFbXz+nxM48jrzBj+F988YW0kUGSP9nyPabaSdYHDqBYDvHx8UoGmGe6e75Tt+Ds3JxSNUP1NzML\r\nS/jgyUOVX5RXPTytDQ5RqrFIcrgNh2GnpKQoeWEeOguhYp4NDw+p/CRpMY8vQYJKxc4FhVlSh+yV\r\nnPA6RsoY7XM/NslPjOR1iMgTb91pERlk/ujEqEPKkzLkTTUtMiAbHxlCV1e3uliA8eLNMPp1f36+\r\nAejq7MazD56jobFKSJxG9BgXDi62tg8wNTaAHqmDbHMo1zz019nVKWXkruqhXic4uBidW0RedqpS\r\nQ8P06/lJ8J15PDU9reSOpI/2amqqxc9hVR60wzbCPE+uw0oA3xgsGlpxA7xNAshZmIaWXpydnGN/\r\n/wS+3q/e2qH0k8lIe6bVFv/y0zt4tGqDwAAjeG2PboeV2xJp/DZ8m5vv46cVlsG8pB5Gnt7m1WI1\r\nzW1Kx1p5Yb6Qfh/sHp5hfLAHcwvLqJER/cjkDDpbGjE5t4yOpnpF3LY21hEfLR2dk4P8n0dvR6s8\r\n59DX2wEHaZBJMEnu3IQ8FZZV4OOPP0FteQkCAoMxNTuHjtZGtPcMY1xI0bS4a29uRGfvMBakUbe5\r\ncxuVDW0Y7+vE3ffvoF46pv2jAyTEx4n8eYA3TWjLxC8b94AAf3BTON85y1Df3I2+zkbpRO9K55yD\r\njz/8QDqrWnXVFDt0f38/1fE6CNlsa+/GxMgAGtq6sTI7BU8hREzT4vQE7t65g7qWdsxMTqCqqR1b\r\nS3NwlPQxH5lGzpLWdXfg/PxEqaZZX1tBSVk5VpcX0VDfgP3tdenAUnB+doSM1HQE+QcK2WrD3NQY\r\nisuqsLm1jdmFRZxI+u4/eIitvX1U17VgQ4hmRWUVTo+Ooa7CkjJTM21CMiqrm/Hh0wsUllZjb28X\r\npeXl6iq4wvxiHBweIL+8Ah999BRFBSVCavdRIWRobmIAnj7B6rYWnqj0C4zE8e4RjLymy91LCFQB\r\n2jp7cXp8JGUUil/96leoLCvEycmJ6lBZr4OCAlXekYycPvgAX3z0DENC0iLCYvBLIUbVlaXY39lB\r\naXUjdnfWkJ6ViePTY/QODOL4+BAPnzyR8I+Rnsrrvai8W5uFDggMEnJ9iNWZSUVMIqJjhWh9jpLC\r\ncpxLW5QgZXZ4dKKuwnvw+KnkQ6AiqSSWjE9ERDi2dk7w5ZdfqoELZ9mSM/Px5OlThPh4wllk/Nln\r\nnyuCs7u9JWQwHRcPP0C9kK+Q0BA10J2aW8PR3obSR8rVDxIHKhWm/jsvITcnJ4dC+jJw+eAxwsNC\r\nEZ+YjGLJ1yeSprTkeFxcPhTZNGFv/0jN7NE9iToJBglxUnIKHjz5AFHhQfCUuPePTuLs9BB5eXlK\r\nbpkPtE8ym5mdi9nJMfEnAaUVVUJUhxAtA6eSsko8fvwE8UL+VkVuxgZ7ERMZAWc3o5rxJJFjeCQx\r\nJM3T0+MoLkyFjbzHyMCgqKgYDx6cISsjEdt7B/CRch0YFhIs5XwpBLyluRYbO3vIlEFCz8AoZsaH\r\nES/Eird17F/cR293N5ZXt6Rc8tXtPw21lVhb20B1TbnUlUUhlxWYXVxAU32pmrnnwT7qcLSzd8D+\r\nwRmmh3swLG1JX2e7EHV/FJSUKHmoqSpEY1Mz1qRuJSbESxrc0Tc5i9HxAexsbqmZYW4PYXmo21ik\r\nzKmUfml9E/1dzbj9/i0sL29ieXYC/RNz6OzplHp/T9ml7OptxHVYCeAbg0VDK26At0kAuYRX3dyD\r\n1uZO6Zj24ScEkKN7nThQEXRanAn/6z9/B/h3vwf81e9huttRKo1GAFmZeKKXI1j6x8pEsPPgP/3A\r\nB7/1ysd3ppcVlX7QDqHbIbgnkJ01VXNwNKj7YyWF3w/MN47APa5O0flHxmBTCJ39rXfUbMHGziGi\r\nQ/xQVdOMzro6HD98hJW5acwsrqJJGn3OanHGa0PITogQqeP7z7E4N4XJ2UWl5JWNP2cIPDy8QJUd\r\nRm8/HEjH4nz3PSFMLjg4OYavuyN8gyNxdHwiJOcMPkYDfAOjcCiE5t7776Gstgmj3a2wEQLoI+HN\r\nLC1gUzrv+MhwpVaC13gx7rzBhrLm6+cj4WmNOZdz6xo70d1RL2TwDpycjdIBbaubCGyultzYOXD2\r\nijN8nPFMjAlTOsbW5qfx/q33kJieh/nxIbz3znuYW99BcmI0IuPTsL04BychfcxDzhzZ2duirq9X\r\nOsEKOIoc7+9uSj7MySDqUEjlMKZGh9Dc0oPennbcfU/Sf88GC2tbyE6Kxx1bJxyeHGF2eUVIaCuG\r\nhvoxNDmFueUd3D8/VldxLS0sCEl30/RySh3hEn1lTRuGehrxno3k5eGO6ox5g8S7790TIrSF2rZ2\r\n8asbt27dw8HBHurrmzE11A5XD1/s7O3BRUikh08oDrf34WJzG4HhsdKRr2JwdBb3z04QEhYrxHIP\r\nDra3VJh6XdXe3dSMS35pg/jZgzu3bklnHinlJv463IW7DBDb+0eF0Nfg93/2MyxurmFK4tfe0Yzx\r\nmRn0Do0gO51qfahc21f5fc/GFh0DQ6guzMEtyaPI2ARsbK7C7p4LtiSvqkrL8PEnn8vgogcrG9tC\r\nlEKUOxICth1UxxITn4W19SU42r4PgwwObtu7Ymd3D0GeBrgIwd08OVWzgT5efpIWdxSVluLoQMhp\r\nb6/I/D0UVTRgqKtVdf7a7JGrpJfxc0NcUiY2Npbl38+xLQPjqKhojE/NoXdwBB9++CGiQv0xMD6P\r\nUUnD5ua6kk3Gi/FjPOnX++/fFcKyg8hQPziKfGbml2FMCM7t27fErrYVQbPvhpDwaHVl3ueffqJu\r\n/6iuLJe0D2JgZFwI53PkJMQhJjFJyPYWZqYnr04AG18Jj7OHk5MjyM+OETmzweDAAMbH6P4cRXlp\r\nWNreg0nqS5+koaqsANtC3D1Njugc4UUA+djZP5M2wF/1RyRwq3uHqk63tPejRQZSvJlkRgYxS0tL\r\nqKmtxsXBvtR7W7QIuWttLIajuKF9ttW8A3tD6lhkoA/iM7KxIOS2qrIGM7OT2BNi39pUguW1daQn\r\nRKvbUu7dtUHf1Cz+0T/+M5SVlan6zPxhH8C+gLfF0Ky0th597TV4T9qtGSHwOSkxSC+pk3waUAM/\r\n7lOnG+aHJehyfd3MSgB/MCwaWnEDvNUZQCGAvLO1s70XOzsH6tJ3c5JlNPohK9mE//R/+n387/9W\r\nCOD/9Hcx3y+Nl4EKo70UaePSUUpKslpaKSoqVBWYpI3mXO7gBegkiFzKSEpKUksmXHbZ2Nh4cV1c\r\niYwMOUOl+1FcXISVlWW1JNXc3KQaOvrJGQkrCfx+UHsApbNxcXGCV0AQHgnJK83LkQbTV4jWgRCt\r\nENQ1tKNdGvcx6bhH+ntV2VAJbExEGNIzs3B2fomSnGwMjM1iZHhQlTH91ZdrtE3h0qiavPD48j5q\r\nSovg5x+I2YU5DPUKiRmdRJd0GLPSmQ50d0nDPY1+6eSDg/yxJuTk0akQ0chIBIaFCyHLwJaQjA4h\r\nmNxrxxtrBvv71D41yq622V1bHiK53ZcO7PhkT95DxI4QpeN9tDc2ICLi1eU57pEbHBrH1Fgf1jdP\r\nsLI4Kx2XF6bmVvD8Ee9pjUBLdz+mJ8axvLGDvfU1ONppJJJ79UgAG3v7VGfW0NqGsbF+FJdVqJkm\r\nKqyNDA9DSlo+7l+eIT8nE+HBQahvbsPy4gJqhJgtLglxmJpBZ0+vmoWcnFtAo9TBo/0dpTw6NiZW\r\nhaWlUduXVV7VjO31WXWt2MLiNEpKK7Aj4VXUNKgbQ7Lle2tzGaVlldhc3wAVe58drKG1qx+PHj2C\r\nhxAgXmH25We/RFFWGopLa3Fyui+kuRuP7l8KAYzD4cEBXB3vqdkW8/D5JMEvqWzDtOQZr34LDIjE\r\n6eEh3N0c1V7NtKxcXBzvib/l2N7bRofkT09vJ2bmF9R9wDkZKUr/nVp+Fv9IMOrbOrCzsogkqdfR\r\ncQlC3rYkbBP2RA5SEhKVrBXk5yEpNV3caIdESJaMMnDgQCAhKVcGrUtCQu2FMBuEoFbhF7/4Au0N\r\nNfDwDcKOEEAfIfzOzlzyNyA1NUXapmp88MEH8u2C7IIyyaMdpKWlqnaMaSUoK1Q6fXFxiob6Onz5\r\nB3+EhORUPHn2MYqKi/GpkLQ4qSshkbH4b//pf4f6mippR6/25V3lF/3IycnDh5/8AoMyEOBMYUJi\r\nBs4vT5CVmakGI3p4lGODyRO/+PJXUqeG8Zs/+zXypV7df/BISGsZPnj2KXKTE9TSbbb4+fzjDxEf\r\nE6F07Ol+cCk6OTlF6vQFFmYGEBgcjEePH6G8rFyI2yXyslOwuLWH5qZGtWRLRdl7uzLg9zKif3xS\r\nCGIuBocnMT89ruq8u4cn1oUAckavs3tQXQe3SCXaXc3IzEwXUuaHw60tGfw14OmHH6C5vljbTyrl\r\nwjrJJeC9/WO01NViisq/iwuwu3csdbkRe4cnaGuqQENLB7bXFlV4XGkanJ5DY1ONmkHmcr0mhy/z\r\nMyYmBhsS54ujLQSHyABxdhn5GUnIEyI/ODqoZgBVGXwDrATwjcGioRU3wFvfAxgapvYBpqWnqxG/\r\nOcHiUq+HjPAfz9rgv/zrn+NffP4eQgNoTnUxXqrydHV1qVE193csLi6iqalJKXrmO5dXqBh6cmpS\r\nVXTuL+FNINzHQvPsbI0kcvaB+0u4h6i/v1/tLaJd7jehv3xyfxSJoJUAfj+QqLG8WO7cs5aTk4OB\r\ngX61Jy02Ng6ekq+BgUFqWYknvbukDHp7epQ7LgEy/7lPzWQwwlvKn3uHWO50Tzl6KVeakuK01FQ1\r\nC0E9kO4eRnR2tKO+vkGRKC8vb7XfqF7KlW6oFLxC/K6UAUC02I+NixWSNoS6+nqJl7tSVF5QkKeW\r\nBM0JCsOiehq6r6yskYFFNaKjY6QDclB74xi++R4yBekwfbx8JX2dKCwoEcIYrpbiKiuqUFVehaT4\r\nRLhLh9zZ1ikDkRJEit8kH7p7drisM5T7RpF1LhmS9FZWVkgeDaglTW6i5+02Q5Jn3BPH/Oaew67u\r\nbjVDERUZg/DQCCG70YiLiZc89UCFkKfhgSFkZ2a/kp8kF+VVLXjy6AItTfVCVrkk5qKuF+vp7Zc6\r\nG4i0wnI8ffgArfI/IMAPjtJxNjTUS92qRZwQBxKOUiET5TI4y8vNUTNiTY2NqKutR0JcIjzcvZAQ\r\nm6CWafVwzcE0UzYiI8MV2aB7DshIyFR5izvO1rPMWBbBgSFChCMREx0r39ESZ97X+qp/PFTGu3SZ\r\nL5zliZMyp3lCvMRD7HDvJveccrCouzN37+kpA5OYaPXOZceCwkIZUJahRAaPJBTxKn7cK6fNtnEA\r\n2iOkm3vjeADCTf7VXe1RZJtCf3T/KS9sm3hbEcmIUfzPy8sXmW9DupBZDw/O2kXhk08+QQBnnEQG\r\neWKdsq3Hj/WrTAa4ZaWlKn2uQkSrKqTMunpkUKXtATRPD+WGS8Pc+8j0cA9jt8gLV1hYB7g3kvnB\r\nJWTzrRAEy4R1lOkn2E4y3t0io4wHZ75ZFv09fcjJzkWAlEe8yJ27waRkMdAvQIi1hwy2W0Sue5SM\r\nsk0gWeJ1dPSPZUiZ7+zsFpnzR6j0GdzDm5WdiYBAEm0eMtHiQ/klIe2T9qFUZI75HSVyMCDyWlRQ\r\njNCgYMkvIxrq6sWPbtXGcKDGeIZIe8KJAvM6wHcSwIqKSpF7aSOkbnNvMW+u4v5B7o98tV2wDCsB\r\nfGOwaGjFDfA2CSDBysXKw1Ewp/CvEweDwRu1BUZcztthqdceXq5UBaPNALLysJEiEeDmaDYQnA3U\r\nCSBn9sbHx9Q3FUGzAeOmX84CdihCUK+uHuJpvrGxUemwqtUsIM1JBNk4k0Ry+ZGbmbm8cD1+VtwM\r\n5gSQYKehn6Bj+bMT4rtqeOWd2wM4Q0xz/ucIXz8BSM38/Eco+1d+moP+c1mKJy45Y8P3F+Fd/xb/\r\n+U7QnQpP/NbDY8dKc+J6ONqso36CkWG9nBVhGJbc8D/9dxT7JGeMg4MQLYIb7vX0qf8SF3O3rKu6\r\n+xfxU7elaKdM6Rft8Jvp0dzrJx6vTgFLGLSnnlfhMSzuyeUMpXl7wBOVaVkFKCsphN299+DiyjCZ\r\nXvFP/OdyW2xKppDXUtjflf/OUmZuznCUsJwZnqMDDC4SjoPEhWbijt9O9lI2EicXiR/1LZJkMx56\r\nuNehlxPf9fzV/7F8uGdLT7/yh34qN5x9fdUvQuWh5J/uj/5U7q++mX8vZO4a6J7xYV5xVpAz29ot\r\nLDR76R9BPykL3CvKONItZVwrk6+eZCcYrh4+3dMev21t7YV8ROPo4FDatFwpH5I/t1cIIMG40a15\r\nPPj9deHRnp6v+pPyQmXd+vc35Ydmn+l5aZ/fun+UM8qX/q3y7qrusKxYRqw/uv/8r9xJ2jW8zC/d\r\n3E75J/nj8lXydT2+L8KXMHTVS6xvun/m4fHd3C+CZnr4uh3a5+BMf7/u5jqsBPCNwaKhFTfA2yaA\r\nBCsPR6m+1+4CJtw9vBAd5o6xDjcUpBngZaIOP54E1paAecE/TxJyGY5PEg0SPKqL4KibMwJcSiCx\r\n4yiOozfa4akuLiESJIfaaboItRTMWSWOXDmK5TvvEKY76+zf98d1Avg3Caw/OvitOgYzXLf/Q2Ae\r\nliVYcvNd8ao/bnByFYIjxMbgJh0joWaAdAjZ5PV6Qn6MrlQpw46dV2+5wChp/ybQjk5cFHmxQNRu\r\nCsrWi3hf7XG7buc69Dwzt3sTd9dh7o8O8//X5eH7ywT95T5ld3XnNAc3Lm6mF/lnTgAJS3H5scE8\r\nfvreRPP/f11wkzK1EsA3BouGVtwAPwYCyBEVCaB+MOM6TB6ecDV4wOj+1X8kgQTJmf5kJeOMoP7O\r\nJyvadbv8Z34IxPw/zeiGSxv0i+bXw7bi5jAngCzv6zLwJsHG+aajdB0/rKO2BG1WhLD8/9VOhO9f\r\nl0+6PUsdvO7u9cb9u4P5/V3LmW44Y/M24v6mZfJ1+/+2yvdNyxb9tuT/my6f3wVYV9mvmJtZCeBr\r\ngUVDK26At00A9crOfVBfRwC/D3QiR1j6f1PQHxJFpX/Mwn8rbgZzAki9cXz/XXRiDIN70DiDy5nj\r\nm4RJO5RF7kXS7ZOcXLf3XcA6xrunudfq+j92blwK9vH1UfYYJgdE3Pv0lfDlmzfhUK75fb3ucqmM\r\ne9CY5zdJqzm+q31LoB/s5Jjf5vF/Fdyn+SohZx5wvyD1FzJt/Gdp6famoILq62HzNKf5tw7Wb24/\r\n0Q9R6PiK+2vx/SZSYv6fuimV/18T/l8XMP2sE9dJzOsC/afcK9m+VvbqhO/vqM14U7ASwDcGi4ZW\r\n3ABvkwCyMrOj4n49HrbQK785cdDgA5O7jzoU4uXlrux91Y4VP2ZQpxz3e7FjnlvbQlhYsLw7SEOv\r\n3RpAefi6TtXByR4OypynMZ3gKO+aYmS6kW9H7pWTBlb/73S170jeuSeJajT2j8/R01Gv9gXxnybz\r\nnM0QoiD+2TlKXAxCtJwdYWfvpHTUtTXWqH1ivP6tp7sLHkbxU/x2oP/ixo1xp7tr8WW4WkflovbU\r\n2djYoqG5EztrS+qUuk7yNLvO8AsIwc72Ho4PD9Hd1YZ7trYoLKvB8GCPti/K0RXtnd0I8PWADVXO\r\ntHejuqoSTg62Kh48iMI9cFwCtL1ri9q6drTV1Gpx554+s7gRetiMh07E+Py6jv26/Vf/u0nYrrDj\r\n6Wg3bR8Xy5unb4+2t+HsyD1WTK+mAJtX5NnZu6CyrgnxUeFwkvLhjSwxiWk4P95HY2O9kAwviTvV\r\nPRlU/rKslf/yZPhaeV/tuZN06/sS9TixzAtKy5GRxpsdeNMGy8lREQjlnyp7rc0j8Q6PisXy6pLI\r\np4Pyk3Gl+huDUbPvLHJCfYgGyR8ePKEux7TsPBQU5sHm6oS2OTiLmZqVh9KCXFVeQUGR2Fxbg4Gy\r\nJmHwukHl/1V8rhNP5QfDk/+Ms+6nUcJmneGeN/3mC0dHjSjzv77/lIq99XKiH1yS1/2j/PImHNYV\r\nPSxCSzeVXF+Fp+JnVPWV5evAPXSOzpiZm0JWeiJs7SQdYpc6HnX50JeoCdZBzV+pt1IfeDDJlfdv\r\nv/Bfq4MuzsxfiZ/Y54nu/sFBlJfmKDnS/GRanLG6uoWY0ADlD8tM7f2j/xK2i7QPTKNmX+qCm1H8\r\nl3rBvGDdkHzhwSXGS8sbDVTJpNoMCZt+Ui54Klqz+2r+vA4wvVYC+EZg0dCKG+BtzwAajZq+L3Ya\r\nlg6BULcb7wBOjnNHQKARbrzJwWw27ofO8Fnx5sEZFmrQpyqSmMhIrBwcY393Czu7Owjx90FcfALW\r\nVhaxsLiM0CB/RYp0+WBHVtfUgoX5aeztHyIqNATxSRnY3trE9u4+wkNDUVFVh4WFeewfHCE2Mhzl\r\n3PsZGoyk1AyUFxfizvt3UFbbgNG+Rty9exfx8XFqj+im+BETGYLk9AxMTE2I/wcoLytEXGw8tvYO\r\nUZ6fBTvpfDp7hvCPfvtrbK4uICcrE81tnQgPCYKffxB6OltVB6fiK/WIHWZYeDTWN9axLX5kp6ci\r\nPjERj558hNGBHnV6Ve9oWe94vdfC0jo6W2qF5DjCZDAhPDwSaxt7QkCrYWfrgNraFvzmt3+B/Z11\r\nFOTno6K9B48fPVI62/KzM5GekY383CypR8Go42niqjY8f3Cp9NLVlBVpJOOqQ2PechaHB6PWhXSW\r\nlhTBaPLAzMwUNtZWVTnpy9SMn26fJ+S3xH55abHyj/8IEquIuETMzc2q+LS3NQvpsoF3QCSONnbg\r\n6mgHd3cPGeCNYGNL4lNdgaysXHz5J7/Bxck+2hqalHLk+Y1tHO1sIjM1Gd4enhiR8FgeXS2NSoaG\r\nR8exvLKM2ekZZGfnYFXsr6+sYndrFb5+HqpjZ55SXpKSk/HJL7/Ek4f3hVB3KuI2MjqGQ5Gf/t7O\r\nK/kiIZX4y3tIZBw++ewzbEuZjQ0PqFO1fRLfA7E/2Ncr9jkg6MGG/K+vr0VkRBQeffQpnn/4VB0s\r\n480SLFOVHxI+lSA//uBjfP7hBxga7BP74v9HH4v/q5iZHBdS7IBqkcc1IYWDA/0vyItOjkhyahub\r\nVHx6urrUQZum5hapM3uS/kl4+3jKgKBVkZXG+jYEBwaiqaUDc9NzODjYRVCgDxLTMrG/t4upyQmR\r\nKVcUFpdhZW0dE2Pj8BRia046GV5CcjoO9nYwNzut9BeWVlRib3cbK0sLMvj2QF5xOdY3t/EHv/oF\r\n0pMjkJFTgPXVVbU/2tPTeCXT0j4LyeNdyG2tbfCSek+l4XFx0UjLylHX5k1KuZok3zMyc7Eq5Tk3\r\nJ+F5uCNFZHh9YwOf//ILVJTwmkhtYKXJmDP2Ds5xvL2mZCwqIkydQOc+yLjEFDTUVr2USSGrRncv\r\nDI6MYXt7S/zcRF1VldS7NNVmULdnWEgwcvMKMSN1/lDajIKcTIRFxipl6kvLq4iQwSlJpy7jej79\r\nUNAvKwF8I7BoaMUN8Nb3AErDwdNYKalpigiaEzoPD2/4ehnx2Z4N/td/+TP861+9i6R4GRV7vDws\r\nQtLIJT79+6bQ9wZa+mfF6wXzmYd0woKDYXRzxdbpGfKy0zAwPI26ylJsbB+gpa4CU4urGB+mTi1b\r\nNWPIwzucadg+vkR1eT5KqhsxOzaM9a0dJMZEoKC0BgszE1hZ3kVTdTny5XtufAgTQiQzE6NRWtOC\r\nycFekfE7qGpswUhvozqJSTUSVNexs3uMvq4GVLd2YmdzBdExCZgcHVSzNK2dQxjr6cBdezsEBIXj\r\n8vwMsVFhEn8XdPQMYED+VTS0Y3K4V+TXTh0Woizy9PLSygZKCrMRnZCO48M9JKcl4+nTjzE3NYrM\r\nrGzVcXNJnHolnV2NOD2/QLQQyuGxGQz1C+GQDrmkohrry1NCphxkwOOPk7MzIUfxMEhdrevpw5R0\r\nXinpBVibn0RDUyt6u5oRFCrEdWkeNVWt2FiYVqpCHp7x9g0nlZ8MU3XU0gnl5eWgb2QGR/vbCI+M\r\nEYLyHFlpqVInNRJD0qer2OFMT35eHgbHphVpc7S3UeUaFhYq7/bIKq3G+ekB/HwCcXlxBk93V/iF\r\nROFICIMrZ2fcjIq0dfQM4unDc0mDCxY391BdWgAvIRcRkRFY3tnDxeE+CnNzUFfbjFkhpLxv9/Ts\r\nXKkm+ejzXyJCOu6RwSFFNqmw+uRgD8tCopJTEtTsEm/oYFvGGcOxmTl0tDTDg2ktLJMBxoKaMTo6\r\nPUd8TKTkg6a+hx1wqBDAx08fI1QI/fHuISrKq5SSZ84E8kaQNCGUD55+iLqaaomvCTxF2j4wipGh\r\nXpUPnMFie0L/VPhSvm29g5gUckdl4cFBkVL+TxEc4If94xMkJyfh4eNnyMpMV/r99OsCWUd4K4ij\r\nEM6Ti4fobRcSJXUnNCIGp6cnkm+umF9aFtJXJ/7sSzwcsbF6gMSoKFw+fI7Sgmw0NDaiKC8beydn\r\nSJaBDkmul48fnjx5qtQYXV4+Ens5agaN8aX6Jd4bfHh6gezUJEVG/fz9cSZy4yNxHx6dUKT54PBQ\r\nXdG2uDCHotxU8ecxSsSfg+NjIbOlKv5UpWLiVXiSt0f7Rwhy98To1CTyxd7IzAKW52cQFOCvCOL9\r\nhw9QUVygBnFtbS1CNg9kUBWAgZFhqeu5igCqOiVy6GDvgsOTSxTnpKCxrQO93VLv5ldlgJYpA7cF\r\nsV+qBi3hUv4kt97evjgWOVxeXceUEOb5+SkVTlxMFIoqajA7OSptzwSWZkaRIIOz3s4WrMiAq7u5\r\nCWMTs1iYHVVtEPXHsk6/nOH8YbASwDcGi4ZW3ABvmwCy4aivrZNKOv+CMOgwGPyQn+6J/99f/hyg\r\nIui/+rvYHpPRu9vLm0B4gpcNGSsWv/U9e/q7JXNWOup6YodIcx3m7vgkcdG/ievx+2aQlOqw9P+n\r\nBRIQXtnm7OCE5b0DBPl5oq17BM31Qh6kUxru61TXM1F/H2VClZuAsx/zm7vSiXojtaAUS3PTOJBO\r\n2svogujENGysLWFyahFRwQFIzCzAgjT4k3MrSI6NENLXjgkhgLdv3UVFfRMGuxtx6713pZGfxqiY\r\nTy8uYai7AZXN7WhprIeDNPq819XWzgbF5fUY7GzDXZu7MBm8cCYdqsngDCcHB5GbEFwKMTkWUhYt\r\nnQ5nC3S54rLS/oGQjIggmIS4nR6f4t7dO2qWLyslSfzTZguZPqoP4VLV/tEZMhJjEBaZiPunx7Cz\r\nvYPk1AypEyOKsFIVy750tBH+HrB5/xaahFzU1VQhIiYF64tTaBIC2NHWgLCIJGwtLqKmug1d1ZVw\r\nE7JycXYCkxAu6pJjHLkUWFhWje2ddTS39uJMCKqD7T21N/Hw4BQDAz1qBo/xo8xzhq+wtBT729to\r\nbG3D2dGe5AFJnQzExA7VamSWVWFkuBO2Nm5CZi/h7SWdsOTR4ca2xP8OUtOzxe9dVNTU4tGDY9je\r\ns5W8l/xIjpe8uSfubFBa34rhnk688/P30NbeiU7eknHrfWzt7CtVTFv7O2rmjLdotHV0YbCnC3Pz\r\n0xibnZe4x6pZLMoZT5La2tljYHRcEUzerFLV0IrxoX78g9//GVZFljJTY5XaGcbfWfI2Soj/3u4G\r\nXO1csLO2K4SkC1Nj/fj9d24JwdxBRmoCfIWgTwuJOdzZhJMQYCqw72ppwO3bt9XSN5Wcs71g2XKb\r\nQbXIXm9rI9555+cIDIrG3t6OGiis7hwiS8j080+/QGNDPVpaW9RAh0Sb7rnsTMJBM6qmOjk6lEFD\r\nPtYl/9/9+T9A38AQutvasb2/K3lvJwOXYyQJATzYO0VoEG+acYS7kMjLB5dqyfjuvXvwCwzDZ7/4\r\nAq0NdUpPapgQK9Yxli8HFEaTF+7fvw8f+b5z1wbBIRE4l3Dvvn8btTJwmp8bx47UWd6GsbW5IcQt\r\nG88+/AVahDDxPt2o6CgVf/rH/CcBPNzbh5+bJ6bmF1FWUiKkz13KrR1PJF7xsTH44KNP0NnZoe5L\r\nTk5Nx8nxhVINNCnEvaaiSPLKUZWPWnJ3NKjZ6mAvV5RU1am2Ijo2TWT7VORqDx4mbQaS6eapch/f\r\nAKysr2B4fAatba1YWF4S/49hMBkQk5yhbhHqloFETXmhED0bNQt89uC+yMgwqCuU92czf/Q6bd5f\r\n/RBYCeAbg0VDK26At0kAWclCw8Lx61//GlMTY6oB1zewE2yY4sJM+H/+9jbwP/0e/j9/+felY5NK\r\nY9T+s4Ly1o7i4mKl34+6+/r6+tQ+qxYZ/VMxLm/7YOdGxc5U6kq7vGT94uJCNV5UcEp3uqJo6hSk\r\nihjqF6R96hKkEmIqcP1uJNBKAHWwnKhWZ2p8Qt20MbKwgGD/IDS2dKCiNA9Nza3qrl/mOWdBtCU6\r\nbe8Zl0WX9g4xJ53Q+u4eEhJi0dXVJ/Y3VKdEhbkz8+tYE2LIToI3vzS3dWB/dwdHl0/R2VSH1JQM\r\nXEoH9+zJA/BGhsHhUayuLuDg+AgtDSUoqqtHY22NutXBTcLOzsoS+biP548fITszU3VGG+ubWF2e\r\nQV52Ju4KaVne2MPTy0M4Xe0B02cJuBerqroOh/t72NjYQrPIIXW3TU3NC/FIkk7bfDaBJ4OdkJtX\r\nIETxEDMzS5KuVelQI7ArHejHHz9DZWWpmo2Ymp7HvqQ5PzMDFUKUqyoqEB6VgJmJYaSkpOPi/ETC\r\n28bS5ByKiuuEOOwKQZqSDrBZwny5T5F7uwqEAJ6cnmBuaQkby3NCHAJVvVlcXMXQ8IC6bUQ/gEFC\r\nUVxShnOxzxtV1laXVZz5j2kmAUwr5o0PZxKXKQwP9CMg0B+Lq6v4xaefoLW+DmnpObh/eYqxqQmc\r\nHG4K4bRHQ1O7vB+itrpG6RMsrmlAf3sr7GzsEBEZjePzC8zMzaurv0JCI7CyuqKW2u15E0p9sxDe\r\nFkyMDaFrdARJySEqTno7xtmgsvIKPLg8F7sNCA4OxenJsZoNWttYUQML7oNj/EkAGd7qygLcHF2x\r\nMruG6Kh4HJ1eSpnNqG0CPr5e6uo8tg+7O1tqz1hqeqaQ2UuRxU5F3PTy18NPFQL/WEhFh7gLj4zF\r\n4tKyhOWImeU1BIeHYm1zGxMT44oA6e41xdba4KC1tVW1S8dHR/Dz8cPmzg7mZ6fUjS1BMpja2d1V\r\n2x6eP3mGmOBwrCyuITzYB66SHpb36NgYtre2lQJ03qwxJwOD6cmJF4qn9Tqm4iuDlj4hRFzy7erq\r\nljrrjbWVNbVN4uBwH1EyyFld28a8DJiePX+GxLhwjI1OKx2qVJrPWTL696IOSPo5U7m+tIpnzx5L\r\nHUqXdrYc3b3duLw4RaT4NzQ8osq2s7NV3HtjanYFK0LUnn7wHMW5GSJ3V/4J+L6xuSXpn8SmtAHx\r\nQjht79nj+Ue/xNzUsCLcKi1S/jzo4+UdgLmZKfT0D6BBBnaDA73o6B5S913v7h8iR+p3R0cPSotz\r\nxW971Q81ST3d3tpQumQjhVDTzLxMXwesBPCNwaKhFTfA298DaFSjXZKu63sAPTiic/HAfKsT/q9/\r\nfhuf799TZMLj6hAIKw9JA/fhNDY2qAaamuq5X4mNE8kE96iwoeEMFA+a0Jx26I6kjg3wrpAFEkg2\r\njlT4zEMpJJFckj6SBpj+ceTM8Mzj981gHHVY+v/TATsc3siRkZ4OX29vuHm6w+jGWVUPeJq0Tdrc\r\nG0eiTvvmDS8JyKqQoca6agSGcG+Oo9qsnZSUrGTmro0tltf3FNELDApWnQ9nUTjD6y0k08voBl/p\r\nQMNCQxAi7rldwGQyIjklUWQiEB4m6Qg9hNgLuefyNGcQGMewkBBBKPzknZ0b45WZkYpgITeUq4OT\r\nCxTnpKvZMHN5Jth58CaD+Lg4qMMZbiI3Hj4iP9IJCPG4bp8dNpebVP748LCTtmTO+PoHaCeRTSZP\r\npKemI1zMDJKf3HfmKvLIJUIuVfIEbYT44SGDI17tlZAYr/Ze8QDEq+G5wcnVJP+SEBYRLOl3U8uA\r\nXIZkfbA84+GG+IR4hIeFXnVgL9NAwpvLq+h2NxEXFQmjpJc3SfBGhUDJq1D/AOnEDYiNiZGONRze\r\nHkZt473EOVnKME7MuWTKGUpPk7vaw+Xi5IIAKcv0tBRV391EVrwl/91cSVpcJM4iU5J+EhujmBuM\r\nWlz0doyzUCQO1AuaEBcv/jmpZc005R+vcmMaX6aTe9e8vcQfiae3h6/Y50n1YMmTNJFdk1ri5b7R\r\ndBk88FYM+u0iMkGZppxZaj/1/9pNHtxq4qHS5u7lLf9dJO7uSt6pf/RlvF/6Q52lvEXGh/InMs2b\r\nSzIy0hAgZJQE08/XH4mUcalL7q5G+Hh4w2gQEkl/VP1hHUlCUmKC8tfDaEJKmpSxDJBYxq+QG74L\r\nuFeV8WX5GI2MXzqCAgPULDCvX0tMSlEH8biEz5lD2iVYRi/8Eih55b5tKV9vLw+Jlyt4o0d6hvjH\r\nbQ+SN4wT3aakJIm8cFuPl/LfW+TfXexf98/fT8pPBukB3MYg5ZkYn4iHj54iOpxtwss9uJyNdXUz\r\nwUvyy1PaF+5n9GQZStnGS35wtYgz9txeZJS2h+4YF4ZBeWGZ8JDhK/nzmsBwrATwjcCioRU3wFvf\r\nAyhgBWbHbEkNjFE6tMocE04WnTHRJhVdGmttllC7CYQEjteCcSaPJI2dGGczeLsHnxzR0ZzXBpH0\r\nccTKxpXXu/GuX14Nx5Eu/3O2jzOEJIIkhIWFhWq2kLOCVDj93ZeBrdBBAq6PqvXG1fyd/9ixXW94\r\n2VmkScfhKx3ni4b+yr6CsxOS0zIR5OOtlgH5j34ov8StHgb9IfRv/te+xb8rM93v6/bN/aQZ5aai\r\nvFy+r5Orl9Djp3+b+28J9PdlnL45fL6bm/PJsF7Yv7JrHv51mNsnvot9c3OaBQvZSxQCz+VxEhCC\r\nec9/PJzxwr10vObuXwmT5gJz9yQeJDM6qdFPM+tx1qH7dx30W/efcWF4X2dfN9ef1+3Tn+vuzf23\r\nBPP/1/3n85vynOb8z3jwW7fPwRK/aU471/19CReVf+bhf1N4hB4m31+G9zL86+F9k3/6f92+np/X\r\n00Po3zwxz6c++2wO3T3DY3vCwT7VKunur0Pz51UZoVs9vpbC4T/6p9t/3bASwDcGi4ZW3AA/BgLI\r\nCsdN535+Xz0F7CkjtQBvDxSmmxATYoBJRnMc+eszaySN2l2RvuqdRJLf09PTaoSpzfiYlF4y+q/b\r\n0Te5c+aFt3/QDc3pD0eAnIHhJnfap1va/0rcrLgxuN/y+8qZauRFRr7Ovd6o/67kmLNevBLK0r+f\r\nIhxdNLLG/ZM6gbuuesYKK14nWAfZLrztvuu7gHG1EsA3AouGVtwAd+68fQLI0R1Vu1iaAVTw8ILJ\r\nSB2B/H715C6XF82hm/Fyd/P/+uyduR3zf+bf5ma0a535++H4IQTw+4CDCob3fcKkPNryHtSr2QpL\r\n0Gcyflcwn5VQutl+x+F/E7jviqefuZRN4nc9zy2WgaRHv1v1dcy40A9LM0eWQLskrJb+6aAdkgz9\r\n++tIvzZj9KrZd8G3ub/pjBTt/dC8NHdL/8z/WcIPCUsHB29Us6NtK/jmusoZd2fnr7fzOuLzJsF6\r\n8FUC6GYlgD8cFg2tuAHeNgFUlVYqRYCQv+t7AH8IrKTtxwUSwBflLU+t4X+5HETQTFPw/LIhN383\r\nN6NbfeaP4DtP8+n/uWfK3L72ri8HmYV39U+5F9Bfzgg3tLQhJir8RRx1UE0Gofuvu2cnZh4fc9AO\r\n06W/86nH//q37sYctEN5Vst6To6IiIlDeESEIiU6efgm9wT/c4n8K+HLO834reP6f3N/NLzMP9pz\r\n9/ZBdX0DcvKyxb62v0t3r7vhnd4mKtIWc7p1M5rQ3NqB4cFBte+RdlV4V/EzjxO/9Xf92xzMA14T\r\naTJq4Wpmr5avMrsy540ryampr5Ar8yfBVYbyslKls47qY4rLy1BeWXrVgdOuxI+HQdIyVdlcv2WE\r\nflxPD79fiZ+En5aeIvWDegRfujX/n5qWevWf+eP4Ykmd//X84Knb3Nx8dfe5tzv3Goodumd4Zvb1\r\np/7+CtyM8BC3dMPyy8rMVLNT/NbdmcefYLrNv6+D/3T3xHX3lN+4+BgEBweoeLL+fp1/3LeXl1eA\r\nMKmbtKOnn36qcpX85ylglb4Xbl4N723DSgDfGCwaWnEDvE0CyMrKsAfGJ9BWX/sKYTCHSRp3Fzdu\r\n9ua39VTtX0cEBgZJWRtApa9slKOiYxASFKgaaR7a4JI+FehSHjjzyg6M+sLUpvsrWdHlhpv2/f0D\r\nEBUZofaKcYmfG7h5SIEbxCPCw7C5s4fQ4CDtcIeQDTa0dMcToAYDVft4qoMJatlSvmNiYhEZEaY6\r\nGi73T82uYqy7/SuzPiR/gQGB2NqmQlrqUXNXRCIsPEKdcOY+N9rT48vOyGiSOEhn6ibhu5uMkn4X\r\nBAWHqE363KzOgyvB8h0TFani/zI8dtau8PTyw8bWNlKS4pVZU9+AOq0ZIZ0hN+ST2PkHBKn0UEed\r\nefgEO1Y//0AkS3g+3tzg7iYkN0LNkrtxQ7/ELYhXMfr7I0iIOtPj6+ePePlvoD/XyAnTQbLAgyce\r\nUnYGowcqaptwdnEk4Ut+STmHhoW9OOBgkPyfnllEOfX+eXnBztYWeYXl2N1YljyPEDJohJePLxLE\r\nvlHcMs8Yp7Awbs3gFWqu6sAOt2mESJlSNmim0khI+Q1MzKG+oljlJ/eFenh5q32JzG8eMuHMJA9z\r\nMK/iEpOwur2t8oAHfuiXu7t2kEERbUlvWFQcFudn4SmkkrdNpGVm4cnzh2qQyps4KHOM76P7jxEc\r\nEKCWwV/GyxXUNZmUmKgOrygZkDTy0JKfuFdKhiUPqXD84cMzKccAVUY6CVTtovyPj43D/Qf3JR+C\r\nJA7OQpbiJL7in7PmH8lQkOSLs6MLYmj34gkSwkUGHbVbPBISEsW+lLeUAQ/mMH4096AuQyVbV2RQ\r\nkF9cifmpSRVfk+TB6empOmQSHBSkZJLllij55u/H+DsJ2c/H4sKCOqSikxpzmeNsHbfYJEicTVKW\r\nTFtMXLySL+3WEcnj0HDs7W2iuChP3QISLfKrDp3If90fzV9XiZNJKS/n7S70W7UB4hd1P3KmPkbS\r\nurK5IfHzUwdeWA+jpU5T6bO6/cTMv7cFKwF8Y7BoaMUN8DYJIDsannT7xR/8MXZWllRnaq4GhmBH\r\nkxjphtE2O5RmySjP9FUCqC/bmn/rM4Dm7+Z2SUTM3fxQXA/n20C7hKU4fBd/vi/eRBjsFC2ZK0gH\r\nX1bdiK7mGlTWNGN2bh47QtLioiPQ3NGFs6MjpXS3q70Ji0trCA30RWZRBcYGupSyYcaXpMDO3gFj\r\nkzM42NnE+dkp8nMypCNNwsjwCM5PjuU7E/3Do/j1r3+D1cU5pMbHom9gGGkpMcjMKkVXbR2KSutx\r\n//xCOp9d8b8X4SHRalP5gcShvKgY79+5g5LyRkx0dChFzJRVEjjGgddMdXT347e/+Qtsri4hNycd\r\nhUUl2N/Zx+7eAZoaGtRSKPNCi68dWjt7lXLeuLhMDHd3SmedhtOTEwwO9knYgUhIScHq2iqWllfQ\r\nUlOl1M7QPU+K8oq7urp2/OY3v8HuzrqElY+Ktk588tEzbG8foKe1QalS4i0VC/OL6OnsgL2jvTpV\r\nq83gCDmNisLx6SVGh4aRFBcp5Mgf/QNDWFtfR393K7p7e/DwyX08ePQYJ4cHQiRjsbK+gdmZaYwP\r\n9mv7+6TjoqySQKVllOOJ2F1fW8fqwiRcpHyCgiPULRRuznbw8PZFd38/FlaFRI8MIDMjC3/wh3+K\r\ny/MjtDY3SZ3PxOXDj/Hh40u0tzQjMjoOO/uHWFpawSr1gXr74+LiIZYW53F0cohWkY+HDx/g4eOn\r\nuH/5SDp17Y5hVR4Sn4ysbHz65R/jwcUJOttb4CtEcWt3D/OLy9jeWoengVd+acqaSY7CYpPxyz/6\r\nhyJnK9gTIhgrA4+FuVn554b52SUE+3qja3AMZ8en8JIOmoTLxcWEQ5Evf18hVEI4eWPEwtwCPvvs\r\nFwgV0kHSSP8ZLy5T1tc3YXJyVvzflIFOKO7ff6AI09HRvrpZY1rczkpaP//8Y0SHeKt0mGSgYBD5\r\ncnY1yb8lzIudX3z2OUIkvUMjE5iWgfLu1oa6OeXk/IHk1yLOzi4QKQMpm3t2WFneR5IMYpwlrguS\r\ntsWFeZyITCclp6ibaVxELvokXeXF2lVrKv+ELPPE9eHJffzhF19gemwMAULCHn7wAda3d1Q5RMjg\r\nraigWMXh+GgPSQlRWN/dxx/96leYm55WegU5qKN/7Evod2lJNY5PjjA6PAg/H2/0D41hdX0NZ+en\r\nQmwj0NrVh9WlZXz88XPkZqWitqFNqW7hTR/038HRQckb5Y43geTllePhg8coSk3BPRt7yb8NpaLn\r\n8vwS+dkZGJ1Zwa/+VMpUyjEuIlLN4K+LfJ+dnKKAp/VFhrU25O2tdlkJ4BuDRUMrboC3vQRsa2uH\r\ngdFptNVWKPUXnmYE0OTujchAD/yPf/A+8Ff/AP+vf/n7qC10UDMOuh02EoHSYOmHNNgIcwmPp3ZZ\r\n2XjIgypGaE673GeoHfzgIY8w1SjQXIfup/m76ozN7Jnb0f8zfPprHg/9P93STAf/MU5ULUE3ut80\r\n53/OZvGpm/Nd90s3v26mf5u/69/6O0G3HM0zDD61MF664bfuv25myT9zM4J+kczT3Ny9Dh/J920S\r\nPkn3+aOP0NvViU0hTX0dzVr511dJ3vkrQtXe1Y8e6cinpJPNyZTGWzpHzp4wHCr5XdvcQ15qPIqF\r\npA21tyEgJAxdPT04v7yP/vZquJk8cbB/DKOzpjh4bkn8SY9Dbn4NxoRM1DX1YKK3U5Gk0pJi6aDD\r\n0N3dg92jc4yJ+e33b6GsqgUT7e1CALV9VZSbYOl4uRTnLPJ3eHACX5ObEDx77ByeITZUZDAwAqfH\r\nRzC4OCo1KHRja2eLwdFJVJUVSZkXYHF8TAhPIp48vEBDTQUchTBNr2xgfXkWg8NTOD/cgYO44QxS\r\nqArPFfYOLtg92EdEkBfu2txBXe8AOlprERGRgM2FGfQIwT3YXkNndx+e3r8vZMQJwSJXAUKESNhC\r\nImLw+OEjdLY0wdvdpG7SaWptE4K0IkR6G+Nj4+jrbMfcxBhmZmcxPjWH04M9tLZ24cNnj+FudIWX\r\nt7eqM0qRdHEz1qSztrVzxpmQLj9PdwkvSvJkB25OtjCJPNUJsZuaW8Sj++ewuXsXk9NLyMtMhK3N\r\nPZEPD/QOzmFpZkypX2nrG5GBQR1u37ong4AzpYrj/vkjmCQfc/LzMTw1IyS+FwvLixibWEJSYoyq\r\n26znVEdiI2XUJ4OC8txM3L59C1U1bZgc6sbvS8e6sX+C1IRYNQsXFRWpiGBEYjoOD/dx764tNoXk\r\nVFaUiiyuC/F2EcK4LwTQEw6u7kLWJG1UIeLMGTlPHJ6ewMfDiOS0dOxtruLu+zbY2DtCZECAqruU\r\nUXUVmosBJaWVGBgawafPPkR6XCouhIi4SN6t7RygoKgcu5vruPP+XXU1WUK4r5SZs5rN4kxdpAwQ\r\njva2pG2+jbWtHaWL8pOPP1LX0D16/BgVVZW4ODuDq5Tt4Pgc6soLcFcI4OrKIeJlQBEj4R3sbuC9\r\nn78rsjeN+ppKLKxtoyg3B0eHhwjy91QqU/Q6xXuWU3OKsTg5Brt7NkqNytnFGbykXMfH11AgBD4p\r\nJRPdfQP4SOKRmRKNyOQMIevTsLcR+1I/9PRTxRJl7kgIZVxkkBBTG6n7oUpPpaPIbkllDRZmJ0VW\r\nDpW+yaGRUZQVFeDy8RN0d7ViW8z7e1ukX7BR5csZV/YTNjYOGOifRUNhHu5IWrc2z5Ak/xvaemRQ\r\nUQcP/2ClJ9RRBlxG6TdOLy7g7uaE9KxibIrc8O5k+se2yHym8ncJKwF8Y7BoaMUN8LYJIDvYodEp\r\n9He2qRkPc9JgMHqjIN0d/9tfvgP8m/8G+I9/Dxsz9nC+uglE2TEYlMoXqoOhfzzJW11drdS8sFGi\r\naheqgiFBYeWjQmLqAqSKF5Iw1bEHBys1JQTt6d9859610tJSpTtQJ3kMl+a0xyfD5n/qD6QaGobD\r\n8KluhvFhw8OGlu5IjnSdhFQ0TaJKO/S3oqJC3cWan5+n7NMdw2Q8uJzCuNIu3+kXv3lSmWZ6vHUC\r\nqv0LU+Z8p65F/qOftM/00x794jfDo1/UB1dTU/OCCOr7MmlHjwv94JPf9JfvTCtV6tCeHi7dESyH\r\n7Jw87ArZsHdyxeXDJ6ivrUVKSqp0qB4Ym5xDeXG+WhrkkmtAUCieP/8ER8d7Sja5FMxbM/jO2bH1\r\njX2kJ0ajpKoV/a3NajmvXDrxmYVl9HXXw00I2uXFffhIB2YvnRvvGC7Oz0Z7xwBGe3rR0NiJrtpq\r\n6WTu4e6dO1hf30NLc4MQsEmM9fWpAyAt0rHMShmZyyrDd3N1UqqILs7vIzSQBMsZW7v7yE5NRIJ0\r\nipxRUhf+CxGgfSqpHRodVzd3VFY1Y2thUfx3QlBomBDiXfT2dGB4YgHT46NITkpBdCQVYXMZmEvT\r\nmq46R8mzw5MTJMWEwVH8a+4fQJPEPzY6GetLs0L8erEmnVxiYgLioqK1uIpbvV47u7kiIDAYs0Ko\r\n56fHpHwbsb62jJLyChzv7mJieAzdQginh4axMD+HkbEJbG9uKV2LXAZWe97EL5YBl9+Kipow3d8H\r\nT28/XJweKf19sQlpuLi8ULroymqbsLu1i+zCUjy5fymk4n3xdwOVZfmSFgd1u0l1Yy/G+jtV59fQ\r\n1oXJ4UGVr5yxSZY6tLdzKGTSScrnfbT29KGntw8zcxOYmlxEcnKMWubV84ezwiNT82iqrhSCaYfS\r\n8jqsLEwIuWa+nUmehot9bambM0FxSanY2tqUcjII4TxEXm4W9g524SsDkGePP0CAj9SHgCDcf/hQ\r\nSDf1GLqqe58fPHqothUkpaRIOa/Czzfo/8/eX8VqtqTbgphu+7Zdt07VhsxczMzMzMzMzMzMzLxW\r\nMm+uqnPq4L3ntttSq9UPtmTZbslyP1rys1/6uWUNfyPmmpl/rv1n7pWwau+qPR+G5pwxI774gkcw\r\nnn/1LUKkPJNUUD7TLjQ0HE+fPFVTsM/vP0GmEM5DITZOQkJ4x3RBYakQ7214e/nj+cuniArzhb0d\r\nSSZHG+0QHZOorhD09vbE8xcvkZ6ajqdPnyNHCFxyUpw6dufwYF86GvZYXN5EfmaiGpXc2z9HhpDd\r\niMhYHJ8cCOG0x6yQ/ML8bCSmZeOH777H9PiwkCTLy/R00cqUnS3SsguwvbICe3HjIuWHhI1nTM6M\r\nL6MkPwd3Hz5GqpTXu0LoM9ISEJWYhr3NNThyOlZk8OxFPT0ob/fwBDmpidJ5s4e3xNO9u7wi0AGt\r\nnT0YHhzA8dEJvCSeT4TIFgmpO7p4gJqqchW3gf6+r+JTz8Oc8p2aWkZrTbWaLl5f20dMUABaJe+3\r\nttTDy9cfx6d3RRex6+YpBPACYSKnoqoes5MT4IHPun4/FxgWgwDeCMwaGrgGfm4CaCuVRVJKMmZn\r\nZuAlpIGL63XiwIXY/t4u+B9eWAH/y2/w//0ff4O8NHtp4ElytNErHtEyMSEN9+ioOniV5/bxXD+e\r\n1dbb24MZkcubPPLy8pR9kiGSNn6T6NAuj4zhYc/6YdBjY6MYGhpUp/GTXKpL20UGb51YkUqyrq5O\r\nkb2RkWFF9E5PT9R6Ln0EkCRob28PtbU1SgceVE2/GF76S1mbm5vqTELeVML/lEl/aJ/nGnJBN+3x\r\nNgDeNjA5OanCRoLJa/NIOkm4+F5XV6sOribRZRyQzFE/umU8kPDyDESei0gz3oDCcJKAMuz0s7m5\r\nWenD8xA5dcIDUzliQl3KykrV+huGle4ph3Ipk3HPJ8PAA7fpnnqQOOqkl5UeiTjJNxt/Xt/H+KGO\r\nXPNTVlEtDZvWWPDe2Fu3LHB+7ykGe1qEQGk3behgA9XczPVv0hCn5aAoKw2VtVXY3tvF4tIacvLT\r\nccfSGsMSV/v7+0Iyk5GZmYmjo2OVloVCrrOz81GYngZrWys4SsNQVVmt7FL//OwcpGWkq6mo3d1d\r\nIfY5agTytQ4Oaoq3o6NTrZMi8Wea0P22NOp8N7XPd5Jq2l1aWUZdeSXiEhOwInG8traqDtsNDoqW\r\n/LCN5eVlFUemu08J3rbBKcXz0yNUlpQiIz8XuZlZCA0Il7holLj2xsbGuuSfFXWOpekOTvrPMsJ8\r\nu7a6jtzsLPmOl/g4wqyQxs7mNtSUVKA4rxDVQgibGhvUnarzyxsqHzCPmJ53aCvxX5Bbjz+9fI61\r\n5UVxl6vWF85K3POe3baOdoRFx+Fg/0jSdw2DQhTtbO4gO6MQZycXkj86heRbCeEoRFVJgSLILC/U\r\nb09IT0NtudQDPiKnS0iAnTpoO7+oBMWFJagV0ltdWYvQMB4m/DqMJF0cNTw/u4eB/kG4Sd0wO7eI\r\nvd1Dyb+tr+KDpILxwRmD/f09dVNLo4SX/5j26xKHs5NT8PPxRc/YuITnGJMj2iYVdtgYZywH1Hdu\r\nbkHifEPVL/zWR5X4ZD3DtFhZWRXCPY3okCi1ZtPZzlrIegf8haxMTc0qEsp7an19PSUMGjnR1wFO\r\nT0+pOmJ2dkqVpabWDmyRrI8Mqina5xL/XIIwNNgHF8mTbZ292Dvcx/LCDLx9fdAz0K9G+1i+tQ0r\r\n9viXf/wzstNYzn68Js7HywfbQtp5AwhHnru7uyQcHqipaEBsTCgGxibUTTNLS4tSN4SoUV4uO9he\r\nXXt1tZwui/GdkpYqJPZQ8sCcqhPr6pqwv7cvHZVldapDS2u7pMEhViQPRkaGIDuPyyh21e0mrHs4\r\npazL4xpO1oesMxjnXD/c0NCKED9v6cjmCzHmzSE2mJ5aUGWW+T1fzBn+9fV11THW0+fnhEEAbwxm\r\nDQ1cAz83ASSspULi4m2/y9EmUzg7eqCz3AH/fs8Cx1O3VYHx8NAIIHt0JChsPNgAs5KukR4iSRYr\r\ndJIkNv48yFknI3wyvCQkrORIXNholpeXKSJDUkU3JEkkKCQrHAEsKSl+RaZoh0SH9trb25S/umyl\r\ns+jF/zrZCwoKVASTlRC/OepHf+mOpJNhYKVMfbOyslQjQz9IVKk7w5KamqLsk3yR7FI3ki8ujKd9\r\nyvf393s1MkdiyIqPDdScVKrx8XHqblESYMqmv6zMSSqpC8PFkTpeidfS0qw2CHCUkASADRHJCf2j\r\nW8qgO/rBhpfmul90w29W4mwI9XSknmwkGAesrBlH/M9vmrPCV4u9Xd2lR9+O45NTbcOCSUNAMO3U\r\ngnk2avZiZu8A3hzBxooEknLYmHLtHM+QdHHmOidNLp/0g1N0vApMuw1C5Ik76qL0uGzI+K7ra+q/\r\nDjZydMNw8J1P/f1qeaJOjFvKYnhcXF3UsUecLtPCr+1qZP6hfXN+Uheuh+UmFo5+afHFnZN8pxuW\r\nC6+3lmWmATdEkMzZ2WkNEeOQ66vsJa4c7J3UKJSCyCM8eTuGhEmXwVEejngW5NVjpr9XjUA5if9O\r\nziJD/tsw7mlH4tTJhevB6J+QDWft0F+WXZfLnbqUo410avHD8DGOOFJDM34rPwVMY0eGV9xoafIm\r\ngaFcR0d7uLtKfmM6SrwwnJRHsnk1PvnNeGJ8Uy9+E4wTnXyrXam2kk8ZPn6L//zHpybHSaWfufTW\r\n5WnhEXmS5zjyyalS2tfzoboLWsJLu6ZHoJjqo29CUuHxcIebmHl6emH/YBP+koc0/SW/O4juYodx\r\nyuluTsPq4fPy8lb1w8rinJBQK5WOlKnr/Up/0Yn5hN+MZ6afvT3zqDzFD5Yxru9jXDs5S7xL/vFl\r\nPXwl/ATdM+/w2C5+U3/mX8bBm+nNnezaIc9ckqHXz6aymL6MD9rVwqvVGdomKcpjntBk6mWIdlnO\r\ndLuUeVXuXxr03yCANwKzhgaugV8CAWRl6yWVGXvaOmHQ4ebqibxUVxwsuKGzhpUmSdbrjSAcuSIh\r\n4fQXSRtJHAkSR8RI2EhUOBJHYqITElY8HJXh6FtFRYV6J/EhKaR9Ei6SIBLD5OQkNapDQkfZJE4c\r\nrSstLVFTyBwh4ogXD53W5bOQUzanoknqSPq4Po7xTMKkEz/6zREfjrxR9/z8PKUzr6PLzMxQo5Ac\r\nOSQB5XpB2m9qalQbFhhu2mNY6J7+MAycimUlSNLGEUqGifpylIijHfSbJJPhpN/6NwkwySXjgoSQ\r\nhI1pQyLX09Ot4oJh4ogX/ad96sPpYJJEhpFxRP/4/yoBJJk1TXNWzMRVM4YnLy9f/PeVivtN8mcO\r\nvLZKu1rM1Fwjdto7n1ffr0Lz+7X768HUzYe4V7hsjK+Dt/uhh8HcPw10+9q9titTe78aFzre7h+v\r\ntfPz8lKN+ZuHPmvuuAvYVI6ON3V4E+/6R/mv/TAPc3XY2+QR5vy7+n0df9+Ft/v/7vjVYU4/gmHl\r\nNXuvdXt7fHP9oo+Pr+rIsgPA9aGmdq7iTT8pj7JJWnTZ8pQ8SxL5U/Gj62v6ffX/1e+rZu+Dq+4/\r\nVt6nhkEAbwxmDQ1cA78EAshCymkUjlzphEGHl/QwfQRB/l7wk6dG/ghtjRkJgylIOgj9nWRIfxK6\r\nXP3b9B91IVniOjwWTJpxFIQgQTV9vpbx5qYJHfSf/02fujntsyLQ3/V/mn/a1PZV+/ynm5u+c9qZ\r\nZI7r93R7jEcSMspiL5zmBN/phiSNpI7f+lo9mvOd7nU9aK77o4Pfurlul+a6DH7r/tFMx1UC+C68\r\nOdJi4JcGllf9fDkDPw/ep3wwvbSRNiPNfk4YBPDGYNbQwDXwSyeAhKenEA0hfF5C/DxfkUCNoOgk\r\nRMdVt6b4qf8EddD1IAkiSPquQidIH4KrOuvQ/TPnxhzohrqSXPHd9B9HRU1lm4IbPzgiSHu6n1eh\r\ny9Hd6N8fivchgAYMGDDwtwaDAN4YzBoauAZ+bgJI8sc1GiQJ+o5Tc3B35ygTicjHk5F34VOQnb80\r\nzOn8rnD8HGEkAfy5OxoGDBgw8HPBIIA3BrOGBq6Bn5sAclE7b4ng2jjTnaOmcHH1hL2DlzqL66YJ\r\noIGbgUEADRgw8GuGOQJIM4MAfjTMGhq4Bn5OAmhna4eo2Dh8+903aKivA6eBXxNAPt3h7uqOohQH\r\nHE/bobfKWh0UzWMeTMmF6do0gjL0b9N3gu+m6+9083eBMswRUx36f8rV7b3L/k/hunp9CHRdCX3t\r\n3l8CBgE0YMDArxkGAbwxmDU0cA383AQwJjkNaxtL6gLzN6eAhagJ+YsPc8X/599/B/y//lv8//7v\r\nv0F7lQMcXV7vAiaJ4c5Vfdcpw8IjT7hbldPLPBePO4Bpzv88rZ67Xnk+HHfx6oWScnRSaEoQ9Y0S\r\nBM10kmf6TuLKzRj0k8eh0B3X5vGfLo/v1JffurkO/tff6R/PvOIaPt0Pmpu+626u6qE/6Y/pt26H\r\nYaCufFI/7mDWZfGpu6F9Uz/0uP4YGATQgAEDv2bobc1VM4MAfjTMGhq4Bn5uAhgrBHBjawXePt4/\r\nIoBOzl7IT3XB//Z/+63gPwD/y3+DjQlbOIi5bo8EhQfw8ggTyuSRLTysmLt5Sf54rAqPJ+HhoCx8\r\n3OHLXbM5OTlITExQU888DoUkkqSQt1jwH825WYJkkcea8OBkkkz+I5nhkSt0xzP9eGxMYWGhkssr\r\n1qgTz8Tjf/rLf7z9g+a0z3ea0y/K5H/qSnJK+TyTjxfp0w79IaFluEhkqRPt0h7JHM11nUhAeTMH\r\nyRuJKM8hpF88pJrH5JBY9vf3qaNf+M5zDKkP7fH4GNqlH2lpWtgpT9f7dbp8GAwCaMCAgV8zDAJ4\r\nYzBraOAa+HkJoD2iEpLw/R++V4chvzkFTHLnCW9PF/zr+ZdC/v4j/t//3W+RGucoBMdTHRzNwsTz\r\n9XjaPQkXyR3JHw9P5jl7fOcZeSSHHO2jbIKjbDzXjn6SvJEQkbzx/EC+05xuacZDjYeHh9Q5eyRa\r\nW1tbSh4PYub5fySGPIg6ODjole4cYeMhybzajTJ5Xh514ogkCSnl85YFElMerFxUXKT0nZqaVGcN\r\n8sYKuqd/vC2C5JS3hFAO7fG8QOpBu9SX/ycmxhVx5H8eEcFbTHiOIK+V4yHODCf/0Q3DRYJMMsjD\r\noXmYNW8/4fl/PD+R9gcG+pV7ngdoEEADBgwY+DgYBPDGYNbQwDXwcxJAWzsHxCQmY2RsTBUMc7uA\r\nnZw80FrsgO92LbEzagNnR3f4cEpW/pHIkQBxhI7kh6fdk5DxyjJ+k2DxMGaSOU7R6kSG7ni4Mv+T\r\nmHHUi99dXZ2K8FVVVSqSNjk5oUYAeW4eD2qmfF7RRMJJIsfRudbWFnUTR2BgwCudKb+vr1cdnEzS\r\nRZJKQkUCSHmHh4fKH17vRt15iDSf9I8jcSSXJIgcTaQelE8z+kfCqGNubvZV2FZWSNoGFLFlXHJk\r\nkKSYZI8ElfrzwGY+eSA0ySn9pBv6Q7I3MzOtRj7pF/Xkk6OYlKeH7UNhEEADBgz8mmEQwBuDWUMD\r\n18DPSQAdHJ3h5OoBVzc3NfpnjgDyCq+0OAccTzmjpcQRni5ij4cz8788OUrGKU9OfXIEkKSLBJBT\r\nqCRDfKc5oRNA2uf0Kq9XI+HhO6dCSZp4Ly4JF+WSGHG6ldOhlMupUv2WDk4Xc/qWN3RwCpd2KVeX\r\nz1E5TqFymrWxsVHJoDlH1CiH+pH4UQZH6yiP4NQt9eK0LeXyJhASP44AchSSutI9R/D0MJLMUQ8S\r\nO+rBSob+U9ewsFA1qldcXCQ6BCu7DCdHEymX5FTzM1W5IbEl+aTenCbmP2ME0IABAwY+DgYBvDGY\r\nNTRwDfycBFAHpyy5KcEcASTc3ISAuHNjgrtG/EzADQt8kqTomx04Akeypb/TXLeng/8JfcMDwXjg\r\naCBH4fhOM8olKOuqPJrTDs35NJWv2yHoRidRuiza5z8+dZm6f1fd0h3JmKk7mvNd10uXw6fuv+6v\r\nbsfUbz51P2hOuyTJnN4m8eS37l4P08fAIIAGDBj4NYP1H+vdq2YGAfxomDU0cA18KgJIEscDnbVL\r\nus3beRs4NfouAviXAtfukfDoJOqXBBI1c+afEgw7cRN+GQTQgAEDv2aYI4C8a9kggB8Ns4YGroFP\r\nQQBJ/sLCwlBWWoqc3By4urjC8R0X01+FTgAJc+TBnXDXpn11mLP3KUASaM7814KbCr9BAA0YMPBr\r\nhikBdFLf9vD0ccCXX35mtm02cG2YNTRwDXwKAuggaGxuRlBAICqqKhATFQ17u+tfPK4RwLfdBewJ\r\nF2cPeHNkysUDbkIEvcT8p0ig6dTlp5rGNPDhMAigAQMGfs0wJYB2Ng7IKvfA7Gk4/ENspC3+Dz9q\r\nmw1cG2YNDVwDn4IActo3PTMTXZ3daGish4cbRwA/DQF0d3XDXIcN/h8/fI4nG7fhF+j0ajRQt8Mp\r\nS9NpW24o0WVd3VxCe/oU53VHu+jmXSRS/6+vpzM1u2r3Y0GZumw+/1pGLA0CaMCAgV8z3iCA1g6o\r\naPVBYbMnPvvit9IW/zcCgwR+IMwaGrgGPpYAOjk6KJRXViMxIRE1dXUIDwuBvf311wKanwJ2V3cA\r\npye64H/9P/8W+J//A/D//N9htssGjk6vD4JmgeIu26yszFeFiztYeeSJjY2N2k3LHbP0gwRN3+ma\r\nn5+vdt3SPt0ROpE0fedGCO7g5VErNOc3/+mbJKgDd+ZyZy2PlOEGEtrj7mEfH+9XbiiLdnWSyCfB\r\n/7o/ur+6XNrT/+t2GUeUzd3E1IubVnRypdvlkzJ0NzdBRN8XBgE0YMDArxmmBJAzZLHJLhhdiIFf\r\nkLXZttnAtWHW0MA18NEjgEKsXFyc1Pl7UTGxqKqpQVxMzHttBnkXAcxIcMX/+j8JAfy/CgH8n/8j\r\n5rtshQBqo14kNrwyjceW8Ew7Eh7ulp2fn1dHovD8Pp6XxwOOea4dCx+PSeGRLjzfjkSRR6uQEJJE\r\n8sgV7oTlN49Q4REpPT3d6ggWnqdHwtjR0a5uEOHRLTxkmke9nJ2dKULJo1V4uwdH5fb399U3j2np\r\n7u5SR7aQlFG+fuMH/aecyMgI5R+PaKEZzxAk4STBox88xLqgIF/pyDMKKZvh5Tl9JIAkvzyUmkfe\r\ncC0m04JnGpLs8p1+6wT054JBAA0YMPBrhikBJOztHGFj44Df/t3fmW2bDVwbZg0NXAOfZA2gEDhe\r\nGZaVnYXomGg42pu39zaYJ4BC8ARuzq44n7qD/+3/8lv8Ty8/R5CfK9w8Xh8ETZLHmyt4MwYJXHNz\r\n0yviR/LDWzN44DOJImWSCHHTCu3wVgweyMzDkUm0SBT5zX/Nzc2KSPLJEUQSOYJkk+cEEhUV5eKu\r\nVcjhsJKtj7bRDxI0kkIeBM1RwfHxMeUvySWJGQ9w5jtHDZuaGpVcHl5N/0n0SGZpj+GgnL29PfVO\r\nnQmaUS+GjUe3kMjynYc/k0TygGySSx5aTf8NAmjAgAEDPx+uEkDdzNgF/NEwa2jgGvgUBJAgubG1\r\ntf2oY2CuEkDCxdkT1fkuOF20wXSvrZA+jv65w9NTI3O8ao2HHLe0NCtSRuLDq9tI5vjOmy5Itnjo\r\nsU6CWAhJ5njLBkkYD1bm2XckjLztQ78hg4SKI3Yc5SPJIgEjOBpIu5RZX1+nbvTgtKwun8SUI4cc\r\n1aNdkkiSOoaTo4KUv7y8pEgcSR/94pPT1pRLAsc0oUy6J0jsSFJ5YDP9o1uGkXoxDNSRRJbfJH68\r\n/YMHQPOqN5JUfVr554JBAA0YMPBrhkEAbwxmDQ1cA5+KAH4M3kUAOaIWHuKAgVYXZCe7wN3tNQHk\r\nVCtv0mCh4junTPUbPbhGjgSKt23QnNOupjI5YslbLjjVSrv85ighSSGJFM35zX/cSMKpY/pF2fzH\r\nm0f4n+4om2b6Wjs+KZtrA+k3SZt+zzGf1In/6I7y6IZ6E5RLP3UdOe3MtYSUw3e654heUFCgss8p\r\nX/pFN3RLHTkSylFRTh3TL+qp6/ZzwSCABgwY+DXDIIA3BrOGBq6BT0kASeTMmf8U6I7EhgTwKlHx\r\nFLLn5u4qOrrCzfXHx7/o9vnkCBzB6VP9m++6ualsU/u6PY6SkeiRUPHd9D8LLu3oT9N/+rcuW5ev\r\ng/9NzU1l8Knb0c34bWqXT5rr76Zu+dTd8JtEkesgOX2s+8N/V2Gqj/5uFu7a87W7y6eJ+Rv2zYB2\r\nSADNpT3B0WOHnzg30jRvafY/LK99Kjg42Isen1IHB9jY2KpRdPP/f7p88T/jxtFRK8/U8aqdTwX6\r\n9SnT4LXu5v9fhTp0/or993H/l8YvWTdTaGXL/L934Trh02RreYbvTMOreYh59m35ytT9XyMMAnhj\r\nMGto4Br4VASQBZcNvfZ+/UJKv0m2vLw8FfHy8fVVRNDX10eNXGmjcBxpC5B3v1dmPwUe/UKY+3cV\r\npnb1kcirbq8rSwdH7zgqx3d9tFAPE8mQ/q3bMQell3p/Myy6ez9C3Ht785/Ikm/aI+niiKhu3xyU\r\n7GuGydtH4kQIuv6tuzV1/+5vH5W2V9Oe+YRnSPpKXLm5usj3m/912EveUksLaF/s+PrRvuuVfPbT\r\nee5qvnxXPr36z86OxEwz4z/mxQDJl+8j4ype/3eQcuCiNipx+v/H9kg27SU+fVVZoRkPkmXcmZZd\r\nZxdn+Pv5qMXldvaOknf8lBnd0h6f5gimwyWR5X8bk/9v01+X5yPl5F1LPq4bfj7ZiWHnRSev5qDb\r\nZxxEx8QgVOw7SNwR7OiEhtK9ebfEVX3epR/J/VUC/W778l/ixdRMsy9pK/qy/mKa/fj/m2bvwrXs\r\nv0dH6qo8e/lmvlZl8TJeTf+/HU6S7/zh4vx2HWmuz5Iw/wQFhSImJhru4pd+ZBj9Z93LTv/VcNA9\r\n6xDWbXo98KHLjfjUy80b+pq+X+Jt4fkQ0E+DAN4IzBoauAY+BQFkgeZaOa5v4w5bV8nk1yk4trb2\r\nSExMx8bGJh4+fKB22+bm5GF4aEAqAV7LxlE1d6nYwzA2NiqVqA88vTzg5u4CP38SJx81cngVbEx0\r\n8kEixG++u8uTB0vz29NTs8f/bDz4TbfKvlRSOjFjhcRKh9/6aBftELSvjXBp5w1q79rOZK5NDA8L\r\nU2acul1fX1e7felnfEIiVtc2kBAXKf81WW/K06aK9Xf+8xX/PfguZrFxcVhaXUNKbKzo6qnWJYaG\r\n+kvD6PIqDLo8wlX81OVx6tzdzV2RCcom+F9fU0k7ujvlRsIWLhV1f2+vVPC8G9gH45MziAzXKmNd\r\nR7plXDHN1LvEP2Xq/wnmEzaqrLjZiPOoICtrW8wtrSExOkyZ045pHiH5c5fOQXd3Lxxtad8GM/Mr\r\nSE+KFfsaMeLTyUkjRnw3da9k0I6ApNHJSWs4rEWOroPekLCB5jvzLitq3a6jo6varOPmRvsOym1d\r\nQxu62+pgY2P9yk/dPf2zFV2V/EvZptD9cyE5E7d37ligsbkTayuzam0qw6KXHz6Zlsw/B0eH6Oho\r\nQlREHHb29nF+fo5SsW8npM3a2gqlFTXoaKsXd86SvzbF/gk62tvQ3NiIg4N9rG9sqLxoSgJ5VFJD\r\nQxMOD/ewsb6GjPQkIYE2KpyMA1v1LvHMMEqja21trTo3G6LP9u4+urs6VRxYWVlJeJ1exR/dsLzp\r\nhNUU/E9/XSS/0j4RExOLlZVF+e8s3/bKH8YDiTft0w7jS7kTvdq6enD/5AwOziJL0jA8IgJrUn+w\r\nLiORoD31fqkP00MLj8gTHSiP+dScfkzfnIJS5GenSLgsxT3rKltVT1Au5Znap1lGViGKCnJUPOjm\r\nlG9jaw13H3+sS1y5OmoEnPmET+qjxddrWYTuH9+1/9Rf/Bf7enhofvW/ng+v6qf7R6LGMNBM89/1\r\nDfc2QmLnZteQKvWSheQnJ/oncXtV3lU4SJptbm4iJMBXlTOtTGr68Z3EmB2L+bk5lf+srKyRmpGD\r\n+w+eIi8tSflNWEt7MDA0jIrSfNjZvFmOOTrOtc888YB2vbz80dfdAVul35v6mIOuD8Ovt3fM465u\r\nWp3AMDI9NHMtT1J3lYfkqcv5GFCW7oepmUEAPxpmDQ1cAx9LANmgkzw1t7Sogp1fUCTEJloK0I9H\r\nGt6G0Kg4nJ+cwEUqyPDoWPzw3Q9CCncwMtwvlYsT+obHsLY8BzfpkdpIZdPd14eNtSXU1VVJxWAt\r\nMhxU48NCzO+ysgrs7e8KaelQBKKnbwi7O7sYH+qFj18wOluaVaFu6eqCt5cvunoHMDc3j93tXSFG\r\nXmhqbcf62iraW5tgbWOH+sYWaVwWMTjQLZUpe59ahchGJSM7F/k5Wfji1h3EJKWioigX9fVN2NvZ\r\nQaCXj/LHTuztH54iNjxEVV6WVjbY3NlCYkygkkFZTAP+S0hOQ3FRHm5/+QUiYuNRVVqI/KJyLK1s\r\nYFEqUG83F1hZWmJpYxcZUlFbWTvgYG8PUaGBGBydVKMorLwoj2nj4eOHvoE+2Eu85BaWiK6ZKCqp\r\nxLboR8Lt4xuAtrYOaawcUVRdi8TYaKUTG0aG08PLG8sSL//85z9idnoSoUERODg5x+7uhsTXOgK9\r\nvVBaUqM2qRwcniAtJQGZOfnY3t6WNFyHX0Ag6pvbEeDriezCYqSlJiMrvxBrEr8kMSWFBVjb3MP5\r\n/rba6RwREQbbS/0ZL85CVifmFvBf/u3fsDo/jejoCMwubeLe8Q4O9vcRHxmOKMkzS0vLWBYCEREe\r\nJnHO/OCsxYG8ewnZXVpZw87GGuIlzlLTC0XfOewdHKr4DQwJxsLikpCmFcREhiFS5HEH+PbmBuKE\r\nZLd19uLf//N/VnkuOysL4VGREn9HqK4qgaWFBaLFztbmNvYlPMmJSdJIlWB+cQFHh0colLzB+KQu\r\nBNMmPDJSkbG9/QNkZ2chPj4JT548x8hIrzpiiOmm7EueZpnqGxjBqJQFEg03IdWMn7K6FixPjsu7\r\nEAqG09FOyQwUctbWNYgZ6YBYC/mwl/Izt7CMqpJCRCUk48G9e3CXBk/FrcSRleTFidkVNJcXS7gS\r\ncO/eCfz9vDA2MY311XUU5WWjTIhlTkaayHJHV0c7xidm0Nks5NfBGRcX95HLzUzzs9iRfNItBNRJ\r\niN2EdEo2JD4Lc3JV408ddYIYEROHhQWJX7Hf2dkBF1c36cQsYG5kCA5S3oJC4oQsLGJrYwtDfd2q\r\nDPcPjiiC19jQAHshpS6uPjje2pewOMBJOhfDk3NYmB6HkzTeAUHhqjxvrW9JHTIscWSPTulArK2s\r\nin5S9iXOegeHRb911NSWyX+NLDI+WAbj4xPw8us/4NnTe+jvk46Pmwf6Boewt7uLkaFBOKny/zo9\r\nY2Jj8PjZN3j5/CGGhvqkLLmjkXUGTwwYGYSHdN42Ja2Dg4MwNTqiOkm1UkcwPCPDQ3C+JCDOIo95\r\nNyIiBj2dbVLOraSj0YiEhDjUNnVImdvD/Mwk/CU/d3e1S5rbS3y0I0zKWHsbTwCYx+HRAaLCQlW+\r\nZ3yT/DlImJLTstTxUXPTE9JpdERNXRN2JDyrkk89hFiXSBqvC4n70w9/Qnx4KLLzi9RGstmpafhI\r\nJ9zegfXUm0RQJ8+M34uLu1LH7kmnYEuIoA9aWjrh4+KO8qpqxEv8sO45lPIWHxOl2obbFrcl7Cso\r\nzcqAhaU1MqUe3dzcwrd/+AHlxVJmJB+oMiBg+cnPq5DyfoS02Eg4C4maml/Ff/7P/4LFhQUkSHox\r\nHUx1M9WPHaSYxDSsbKxKvphTAwccQFiT/LW+uoxwCS/LIMsJdQgLDUZ5QyuWFhaljjhBbFS4EE1p\r\nzy71uerPdUG3BgG8EZg1NHANfPwIoNbYVlRWIicvHy1tnUhLileVqnn7b4IEyTc0CsfSeNpbWyBS\r\nSM/jBxdCTIJwcnQqBM0NviERuDi/C29X0dPNSyrbZ6irLoWHO0mKVnFrm0GcpbEPwP27dxHg5y2V\r\noI3qae5vrUolaI9NqfAqhOQcbG+onvTW8TGCA0Pw6PFXSJNKpL2jR3qoSTi7e4GOliZ1/VxwSKQ0\r\nzg+QkZGOF8+fS9jitEZc/GOFkFNYisnxEXRJA9Pe04u2xio4OLnjcO8YsVLhaz1iB2ztnyE2LEB9\r\nk1Suba0jKcZPVZ6sFLiZgz3l1PQczE2NobunA02d3ehvb4S/hL+yuh7Pn71Eenw0rC0ssbC2g8y4\r\nCFjZOGJ3/xgXp6eoq61W8UniwPMIOYLHXvWekM/khBhVueXl5OBIyLa3hwt6+ofQ09WNfSHHXh6O\r\n6BeiVVaQqxpBho+9ZYY1USrnrZ0NSQt3ODi74fjsnsRDrDS60yjKzcLExLL0xpuRnJ6LjvZuHO8f\r\nItjXC3XNXRgd6paKdwdRIX5o7u5DVVUF5oW85mdmYOfgCNmZyViThqMsLxOtncNob6iHpRBcjjJx\r\n6txWwhMem4BjSatAIef2to6K/NaW5aG2oRM9TY1Y3dhGe3MtxqZnsDA3KqTGUhFhjsRyRKZ7YBiD\r\nfR2KHJA8dHSMY2txHqGRMeiU8E8vraKvqw09A2PYWVmSBtxDSHKpNNp7GBrogpuHDy7OzhEZHgBP\r\nyRNOolNtfSdmJofwpRD/JWlI8tKThLxnYUeIbW/3BEZ7WpGWnYe1pWmlA8PCqXtLaxvMLq+jsCBL\r\niFAijo8OkZyUhPsPn2JmYlCdPckRCI5ghwQHq87C8tYespNjFQG0ZyfIWjpaFQ2YFbLBkRqmUUJ6\r\nlpCmCVjcuoXFjUPkp6fCSsJ6Wwjk5OwSysW/25JXTi/OEOKnjY5zSs1S/o/MrKChIBt3LBwkzMcY\r\nGhnD5voqCqWj8PD+XeQXFmFDyHV6eh5WFiSOVzaRmxgNCyG/S2tb6B0ekTy4Aw8Pf5ycHgnJjsJX\r\nUlbystOlsdZG5Jie9I+6Zwm5ODs9EDLri+Pzewjw9kREZCLu7R7CSXROSC7C43t3FZHaPzpGtZCV\r\nc5GbIXn32cuX8PfiRrBARQA9VcfPGcFCmu5dHMFVyGJsYgYePXwIP2/RZ+8ImZlZeHD/HFmZ2fjq\r\n5XNER0bg4dMnUmeVSx7nqK69Gr1mmeE7y2v/4JSUjXopm07SySvA1uqCEFk77EpZSk2MVXVORES4\r\nqjtJ3jq6xzA80AZ3D1clIzExBbW1DfjmyQtEhUfi6P4DHJ8I4U9PgW9AKJ6K/5npoqfUZalpMbAR\r\nUsQ6gCPlJMT3710gPCQcR5LvM0TvPelM2Em+mBGS0iwk+PBoRyP9qwdIkg7FvYtnQrYzVVwVSjyx\r\nfgsX/bSlFU44PD1DqpRZTnMGhITi9OxYOtx2GB6fwUB3p5DDA4kLFyk/68hJScXF/fsozM/F/vEF\r\n6ioqYG1tKUTq9egn6watjnCROswO9+4/QkpyonQ++tHd2oyN9T0ESV09MjmJ8pICSXd7LKxuoVTq\r\nFzViLPlgfGwNJVKvWts54ejoCKGBfuiXTkBVWY7Yt1FTxkwXxqejdD6mJ9fRIB1sSykH4XGpODve\r\nk86Kt9KFOrEc6Ppp6aNt/GN90NzRJwRyW+I4XPK5JUanZ9HRVKfIvJOjM3z9fFFSUoYDyW9NDbWY\r\n3jhAZXEBalt6MdjVBAuRESBlmPlY9+N9YRDAG4NZQwPXwKeYAnaWnih7xD4BQaira5CKK1AK7Y97\r\nZObAwu0fFoXTw0Pp/VsiRnpi2+trQkJchZjswdfTBfauHlLhnUhP1VFVlCHSw52WntyukBIH6i5g\r\nr5oFM1DI5L2zE9hKo3v71hcoKizD8twYPvvt7zAjDX1dYxN2N0S+jS0Ozs8RHBSG/c1D+Lp4SKUp\r\nsqTyDwgMxdjYFE72dxGXkIqX0ujwAGYe+RLk76P8oX9s2EIiYvFQGpsXz1/g2ZNHyEhNwhe3LLGx\r\nuo3IQF9VKdGv7f1TRAX7q28LSxtsbG0iLlIIoBA0xj+ni+g39bl/7z6evHiBJ8+eoqywEDtCHstL\r\nK3Dv3kNkJsbD4vYdLAoBTIsOE0LhhP2Te3jx7CGK8znaxKNyuIFFm+og+SgsrpHG5whrq0vwCwxS\r\nB1db3rqNyroWDPX3Y3tzF67OthhfWkFJfo6SwfDRvZ3oHpGQpHrPt7/8XCp7Z+wenCLI2x1dIxMo\r\nLsjH4PCMEDpOl9nAxd1fxb+9pGVOYQVmxwaxurqJMH8vIWIjqJF4nJpfxu62EIeebokPe6xsbSNa\r\n8kyVkKru+hqlM8k8K0uOFvgGBePg4ADWd27B4o41FkVeSkw4isua0NfcKiThBMP9HaiqqUJ6SqLK\r\nU2wUuP7NytIa09JoVkojdOfLW7C0uI22tmG0SofljqWVVOzW2JSOxtTYEGpq6pAmjdjQ2KTES48a\r\nZRgf6JQGykE6IydwdbJTJIz65RbVYHqkF19KWmwfnSFG0tYvKBL7G+tCHIZRmZeF6JR0rC5MqelZ\r\nNpScwrMS8r++KyQpKhTuXpIWx4cqn84urCM3LUE1TiwXDDvDQII2s7CK1vpqsXdL5T3Kyy+vUwTw\r\njqWFdChsMTa7gKzUOFiJPhNC6Dqa63Hr9pe4Q/cS38W5GfALDledIy8hTdRFk28jbldQI/p6+ofg\r\nQEjKwPAYDoX8lldWSL4rgovkzf29XZwfHyEpIV7kL6K6OA+371hh/+AQTR2d6O3rlnztIHnrBD5e\r\nToiNT1QdjumJEdXg6+GxlfgjARwf6xP39kLsz+Dv7QZXzyAcb+zB3soCCSmFWJqYxC1Jr+29PbR2\r\nDeCe6M1OZlVllSI1rq5+ONkW0iJ1j52d1EGeXpJG+4pAxiVlqNFHWxsn7ElnoaS0TMrSI1SUlaC6\r\nulKRrNDQcEyrUd5lIUXaiLcqgxL3lpIv2rpGJM6LVeNcVFqJ2clh/CepQ7j0IicjVfzU1i3SvrXk\r\nh7rmXvS21+GLL34vJCEYdy/uorCoBE/vPkC0EMCzJ0/x4OEFYiJDxO9YfPXtN6iprlE3J/kH+Kk8\r\nq01JS5m1voOWrj4hRSeYGulDVEw89ne38Lu/+0/oGRxFd1urEO4tRch2t46QGBWBvZ1jhAX7SYdP\r\nwiKdBI78UR5nLJyl/rwrdYqXh5uUH0s143JwuIvPP/stGlt6MDc5jp3tPXx5xwI7Iq8gIxsPXn6N\r\nJqkra+sbEK1GFO0QFR11SSi5ZvWyzmIdLt8H0unzcHaUMtyG3rY2rEr95OPiiinpVJYLkfr897cw\r\nNrUoHcZslX/vSOdhfHQNhWkpsHNykw7+PTja2UiZm0NNOUmi7WV8aKN4dyys0N87hWohkHfEvX9I\r\nFM4OdiStLFSnmjrx1AcvTw/1Tjd6fDpKp8BB5JRVVOPBg0dISo7H3MqGdNqSJT7uiD5SR0gZ6e/s\r\nVDMFLS0NGJXyGBsRgtKaFgxLZ44j8c4S9qsE7n3AODMI4I3ArKGBa+BTEEAWOB5nUiGVc0Z6unxf\r\nf80EKz6/4DCsLi7C3tYKEVExmJuekQrWW3qjSwgL8MHo+BS++/ZbjAz3wccnQB2EPDo+pip5e+n9\r\nc02PWhgslR3Xg6wsLmNVyF6jVF7ePn44PDzA/Ow0NtfWxb0fjk5OsTi3iAf3HsDXN0j8WYS/u1Qc\r\n9uzZuqtz9Xi4887utvQgfYTArGN8YlQdMs1RCX2hOsPp6umD50L+Kgrz8EKIYkhIMNrbO/DVy6/U\r\n9ISfbwDapYH87tvvVBj9fX3R2tqNr7/5VhGywEB/FQeMQ1VxuXjh0aNnKCsuwVcvXiIpWkjF3gGm\r\nJLyP7j8W4hCNBgnXy6++wfbaMoICpCGbm0d8TIiaQuXRMHoFqMWvA2wdXPCP//Jf0VJXChtprOak\r\nsluW+DnYO0RYSDimhDwsLy/g/sPHyEjT1ojpMjiVxPV85+dn6pDqkOAIictF+Pl4oEXCVZCZg/bO\r\nfmSmJ4o7EiRbTAqB2lzbwOHBMWIlPQf7B7G1uYaLi3soLCjE+uYedjYlTsfHERcTjfHJOYSH+qO4\r\nshpNFRWwld6/viCbcUwyuC8NzOzcrDSgMZI2M0gW8ltQWIVmISkVQip3toRQdncjWhoBbYpOCz91\r\nSknJkAb5DGOjI4iOCkZ1VQtqy4qlsbRU02Nl5RXSgG6rdY4RkVHoHRjC+sqS+HmC9pZmWAthX1nZ\r\nxMbyItKF4MfHpQlxOcfTpw/V+YtVVfVq+ndraw8lxUVoEGJdnJ2KqMRkjI+MqAZG14fxU15WiaOD\r\nPSEf22q04c6XFqLbDDJTGYevdSfYYeD6OI5oLS0tqcYpMiIOh5KHnz15gtycHASERIisNTgLkWFe\r\nipQwPHr4AIvLKyrPDg0OiL5Hato/LzdPkTBdPte7MbwXJ4dqmUShdCJCI6JUh4vnU/J8TAshpa3N\r\nbXh2/54QNGvEJ6bj9PQMy4tLkra9SM4rwaPH9zAxOSVx2AWvAF/0iZ8zUq4mRkff8I/vGbkFeP70\r\nMcYmJzA80AVfbx/MSp76XvJ0V2uLdLqkLD1+hAnJ85OSZj5+vkJItdtvuM7Yy9sbk5Oz+FbKUF+f\r\nuJcyNTU9jR+++wZ93Z2IkQ7L1PSkdOjcsTC/KGUsBLu7Oxgd7UVNrbj38lTndI6OT6qlHoogSJ7R\r\n8zynrHNyCqQjdqaOheLo7dHRIaZn56XOWRWioy2P0O0zjdLTMvFQSFaX1B0hwZFCaM4xOjaOBydn\r\niJIyNrawiNi4JBzu7cDfz0+IxiqmpibUuZ+urlrn9bU8W3j6BuP/+H/675GVEqfqte2tHZX/D4SI\r\nB3FKWb7nF+bxTNI5NDhY3pcQIU+1/OGSAL4Kj+S5np5+qc+25NkGTy93LC1vqmUO+1IHcDPN6voG\r\n5pcW8OzxE0QHh6J7bFTqiXl0CSnylc4e0+35dz+gpFDI2WV+Ng3/3u4+ZqdmpGO3L3VSEMan5qTM\r\nLEud8kDqlBSUl1Tj+ZOvRf8DNXJIMv/s2QshtrtqtH58kksOVqUz/QiFOSmq3JrK5y1Jjx49kjrl\r\nADHR0XAUsnl0eCz5ZkbiNQa3pbPDen2wr011mkz1Y32Wl5+HfsnnB+ImVTqJGRlZkkZnqp4Pls7n\r\n6MSsmg4/ks4gR4a7RyYRHRGKQimr7U01akSSsj4GBgG8MZg1NHANfAoCSOiL/VlY9YJ3XXCdH3uW\r\n+o45NXrl6AoPIVvuLk4ICAwW4uSn1jdx4TJJTnJiAtyEGFz1i99OIo/rQjgFoCpTL569J/bFD47g\r\ncNdptBAJV5FFN9wU4XLpnnHB3WmpqckSJneRp/XMuXg5WnrAnF59M76cpdfppSpdxgHN9B3AnPLj\r\nQnfuYuYOXX6zR+rnF3D5P/BHFQLjghtD+M6bUDg64e3tJ6QjTm3IcHFyFln+atddkH8Q3KX3zAbE\r\n3l56zPLkhoFX8iQunCWMmXmluHvvLny8xK9LM54PSD05VeQubhLi45X+qsesu7+EIumib1JyktKB\r\n8cX1Stw84iayXFxEB0kn3S6fXEcVxClcaXw4EhcXFyv5w1VtWnn88AlKCwuEICxjfmZcSLyjyNP0\r\n8pT4MCVwmkw7CZe36Jyi4trVlfHARdtu8HB1ho2EnecqpkiYvCUsLqIbG0DdPRsTTj+mpMh/Lzc4\r\niTt3V23xN8NhJ2kcKXklRdKY8cf0TUiIh68QX8Yp7XCjD//7+/upTgDTkvHHaXaOYkZFxSkdOB3m\r\n6iL5Sdw4Sli4cefq2il7sc/Ripho5k+WF46miBtp1Ezt6aAdTgkzD/r6alNeKo8JmDdzC4pRXJSv\r\nprepO+17+/giOSVN2aMdkhjmZzaGV+W7UF6Av5Q3N5VeXFfoJ/mL/jGcLFPcYMQ44yg1R62DgoIl\r\nz8QpYpBeWimEZBXhEYGwd7SDi6RzQmKi5IEY0eeyg3YJ2s8Wfff2ttR6T2eRzTIdGBgkuko58eKm\r\nqTycCDGIiYpU8ejA/OfljVTRh2SBYaRezJMsWyxD6lvKGMmVs+jJMOvxyh26TNfklGSEhXGnsIM6\r\nS5OdVro1V18pIi3pyXzL/5yKTE2W/Md8I9+m+UuvD5imvHaRnVB/KdvRor+7hM1ZyjTXsjJuObLu\r\nLOnMeiFROgjMM2/UJyKb9V5lbTMO9vfEL42cavkvRcqwp1pT7CfpyzrBS/IX5blRrhPLHgmg6KTL\r\nuwTDw45EvISH/xnnSUmJKl/ZSHp6SvxyLSvLNKdE7STdYhMkDePiRQfphCSm4vzuKWIjtTXGprIJ\r\nX9GH5YNpQL9YzuOkTvH0dFfh8/biKQVavcX8y7NN/fx9VLpxNJrr+hgeT/HfXcJDHXXZKv5FP1WP\r\nSvoybVkneHlJHpc4Yb0SHByCo9Mj6RCRPL6Zx+me7lJS0xAkHXQHyd+MQ075sx5kmrhKncDNedTT\r\n2cURrqxrpS1ykbqGdZypvA8F48EggDcCs4YGroFPRQBZyAhz/64DU7d8VxWYVH58siJXxwII2Giz\r\nAtJGqV67NwXd879eUbFC4jd7x+qb7qUR1r7f1JtxQdKnu9Xjht+UY2qmQ3fPpw7a1e2bfmv/tXf9\r\n/1UoO/Lk1Aq/2YBxykkLL/WTp5gRTvLOBvKVO8Er/cTcTyrYoeFhtbmBYXi1W1ZIE/VQdsUN/9Gt\r\ncmcG1NUceSBM3ek66PHP0QuGQ4t/bXdddh6vyBvRRhf8fNTaJrplWmv4sR66/yoOiUt/FPif6SOV\r\nOhtnEjZzDSAXgzOs+vEWKuyXoEzK0O2bxodpHtD8ezM9mSYkgaa7MJX5pXtzoCxC/9b9ehv08Ov2\r\nXvsvbqm/pCU3E+i60p5pGN4ln//sL8uDkqfyp1bG6Idux1QGzSmfT5/QMCE+0bC2tZK4lDAJEdHC\r\n9+P8zXj2DwpBYkKcGplSZEXpT/liX/z18xWyLo0xO2tMR3Z6nCSvM311ffgkdJ2ufuv66vb5/ipP\r\nyjufpvFpDnRLe3xXsuSd+piSE0LLR2/a1+oYTV+61fOs/s2NLbo+prL4HSHklJtXgqSzwXRgncd6\r\niv/oVvl3KZNlxUk6QyruVL5+k5xela37xw0kXKet1YFaR5rppdcxjlLn6nma/oRGxCA0OAiOZtJU\r\nyVPuTfQz0Zf/GW6G5VV8CDSz1+nDzrrKx6LD1Ti+ap/guxaHtqpDEiWE287+9S5sU9A9O4J2El69\r\nftHd6/po+mp2Ca2u/fEgw4eC8WIQwBuBWUMD18CnIoAGfplg5cU1a3rF/0sAK11OixKmFbqBv04w\r\nDd8nf/2UfZIAkidz/34NYJn9pZUN1Xn7BZfV982DPwcMAnhjMGto4Br4JRBAVnjs7Zt+v0+v6ybs\r\nv6mPBtP/b+ANedpIw4/sfAD03qm5f6bgyBZ31b1PHFwFw6uPkBLXiZ93NVDvo4teeX+M/qbQ5RHX\r\nbUQ/hd9va4Qo+3100cGRl0+Vl+j3p5J1HTDM7ywz78B1CKCpfBW/th/X+GvytDzA50/Flal987is\r\n094jDmj/3TI/Lf7S/r0vTHW7bl34NpDAsiP8vmXwUxJfgwDeGMwaGrgGfm4CyMre09sPleVlcOH0\r\nrlSYXNPGdSLXKaysFFzc3OHu5qoaTN3MdBGx9n05fSjv3JHp4c5DTnko65VKhfLE/4rKCrW2hPo4\r\nubirtSnm9KE8Z2dXkSf62tmqNSO5mZmiy+vpHdohSdOndNX3OwgB/3PnZEpSBgK8veSbB9pqDY6T\r\nWiemnRdG95SZkZ2D5sYm+Hh7qG/aY/h1+fzWn/q7KWztHVFcUobgQD95FztOzvDwFH+l8jM3nUTd\r\n8wtL1MYNPU6VLmJO+5ySVWsRlXtNh9fh5RQ08TrPBQQFIzYmBj5eor9qyHkAMMnUm/pffTcPJ4SH\r\nRyAyMhyR0VEICg5Sbui/nh6EA/VRjbzElbjhWj5OH79Nvql7Pbym8nhgsl9gMJLiec6ZiT+Sfzy9\r\nfNS61YjQEHEncSLpqeuk+2cqX33b8gzHAKQnJal00M11vOH/pd78Zhh4VIy+7o7mDGtYZBwKc7NV\r\nHtWmtvQ8qPlPeSRdmrvX8pR7ymT6XsLU/zdI2KV95kGuJ3VxZj6ljnT/Zp40Bd1o77TPG0yCkJaY\r\nDDspA5yq5JQ+w2g6Rc/1xizH9JOnD6Sm8EBhjXBp9ZmmD+3q9Zuu/9X6jmXczZWHmWvHHnl4+SMz\r\nJUWtqaT/tK+HT3ej1hmqkwDMh8dZ5FVWVMKD9ZJ8E3oddNU+p1udXdyUfR+RyfKu+2fWvuDqf37z\r\nXdeR9SqnRhmf/OY/woFPpoeDszovNZDHZV3qR/uvw/jT/utT3Pq3qf/m8C59fwwnKTeeKu8z72Sm\r\nZ8FL6ljmId3Ou/QjlHzGuYQrKjoGrW2tiAwPf+WG7nX/qY+qkyQvMO54uLWNDdcJRiEhPFLFm6ns\r\nDwHzkUEAbwRmDQ1cAz8/AXREXGI65qam4Mq1LkI+eEgrby/ggv+36cYCS/A/dzG2tjSqhcIsvFx4\r\nz/P82AjZC4ngIt9kqdB5wCc3WXR1d6G3W+x7e4ObN3R5+jNYKom5+TkhBSSAzmhs7cDwYAtMr+J6\r\n5b/Iq2psBQ+tJoHxlsaLx2XEx8WoHb48qZ4LnLnY2MfbU61BYWPDnZokJ6YVovZkg+OCmLg4nB89\r\nRKqQGF7rFZeYhAB1BI29WqjNnXRhoTxn0BahUkFd3H+AzMuz4qhjUnIyAmlf9GM8MJ55QK+HamBM\r\n/XOUBs9XHeQcExWhjjzhWYQb66uqceDtGVql+Dp+uEmFhwGnxPPQaCG90sgFhYSq89V4Rl4Cjz/Z\r\n2lb+u1+esxYXnyD6cgE5w6ulqZIpOt29fw8Lc3M4OzlBSmI8rK1t1VVf4WFCmMRvkkmG21HihddE\r\nmVsjqOnHNHFGXX0THjx5goujA5QXF8PO2hoRkdGIElJIEsE04M0R3FTABeXcRbu/e4Bo3twieUcP\r\nqw7GJxf3c/chGyO1scfXV20Q4JpKeyFrAYEh6Bkcx9zkoBpp0N1yKo8HjZ8c7mNrZ1+dL8m1mTxr\r\nMC4uXutkCNEIE9IaFxOlGhobiSM//wDUd/Rie2VR7dymLF0vxmdQcAjiYqPFTNJV8hc3OnFTg6vo\r\n5sbNQ1KWHOy145GYR0tKq9HX1SHxzxs4XKWj4q7imHmSnQ2S8CRxr3aQskMjZY+L4hk/tB8cEoLA\r\ngAAEBwUpouXrF4ikxETlD+OAeSI+Pk51xJylw7SwtIySwky145YdLZad1LT0V5tK9PhhXnBz9xCS\r\nR0IgREjSOD21CNuLy4iOCtc6NdKAq00tySlwdZHyJ/7xoOr62nJF2uKysrG2viLpy2NAxD+xT/2T\r\nxD7/OwqJ440P7Bhwlz7919bVSRwREmedfQPoaG9VR6VERKXgaHMPsSLP14cdsMtNRKmpSj7dN3dI\r\nHdLLg+S1Okon3DqCwiIlT89KnaDdgMN4ZB3EcquH//XTSeI3AvNz89LhYx3GzQdu6oDzwMAA5d7U\r\nPv3j5iTWIcFB2tmiamOQEGFuZmIaqzpA0ofxTnfqXMmQICE0IZI+zvD08cec6BcRJnWIlAnKTExI\r\nUh0VliOWeeYnrkNU/8VfknBdD6Z5oshnHccyrW3s8JOOHPMk7WkklvZVB0WelBci8Uh5tB8SGvbq\r\n4HZT+3wmpKRia3ND/PdVGwN3do9QmJ2uzkqkfZ5OwHvbw8NClf+m8UOQ+HFjSEpKsrpujp2wudU1\r\ndDQ1qCNdWM54gHd4RJjqbLm5e0m8sPPvIbo5C7mVdkDSZHJyBf0NzbC93Fn8MWAcGwTwRmDW0MA1\r\n8HMSQBZYnrI/NDaD04M9IQ+2qpJ49vW36saC7s4uadCkwjcp2DpYobLHyt2mL776Bo8eXKCni4f2\r\nemFxaQmjQ0PSKKxJxe+ubkiYHB9DaVGOVJqxePLsBZ4/uYv+vr7L3aBshLQzrbigvr2rF/fvnktj\r\n4IQgniv48Bm+fn4fA/0DauSBems70eyF1ITh/P5jfP3iKYYG+qSRDMF3336PFdHh9PRESKYPJqem\r\nlT47W5tqN+bp+QUW5udxLs8APz+Rp4WHFS8PPp6amsPczJzI/A7xIr93YBAjo8PY2dlCeGiEOth5\r\neXERZ+en0kiG4vZtC8ytrCMziQvxHdSVS7w15ESIaEJKIra2t+EqjVhr5yBqqysVSWQFzEaCPeri\r\n0krcFwIZHx2h0mN5dRN//vPfY1ZIeaSqoLUGjPFEwldQUCrp8xjZSQmwtLSWxn5D4npd9DlHTlYa\r\nJuaW8ed//GfMTE+IviHo6unD+sqyOqYhJzNDZFiLPO4edlEjJTyU1k0IAM8NXF+cRllphTSeU1jb\r\nXFdXP62sbiDY3wN5JVUY7G0T/X+80Jv6aeTcAV/evoWO4Uk0FeXj1hdforC4FEuL8yJnDSX52cjK\r\nLVTn3HV3dgohCUZn7yD+7V//DSuLC8jKTFdh5OgS9WNjxd2dPBKFh+WWicy6tk6cHh9g7+AYdRKf\r\naZm56hiavaMLTI/3w1IIG/Whe5LBgeFxFOdnIiQ6AScHO8jOyMOjh4/UIcrzsxPIyclRN8dsbe2g\r\nvaUeMfGJ2N3ZxurOATaXZhUBZKNNmdQnMSkZa6vLmJ1bQIs0aIUlpXh49wKbm7vo72hHh+TfyrIi\r\nePuFq3jnDtuNjW3MTE1Iet1BlBDPJ08fY35xBXvbm4oocMfp8soapoYGkJabj0eP7mN5bRNjkm97\r\nevvBqxofPHiA46N9tRueVxmOjU9hZLAXiWmZeEr7Kyvix5jEYS7+/s//KKR3F/X1tUICfXAi5H54\r\nqB8ZmbzKSyMABM8wHBieAA8W5yh3T2c/2pp68IOUoQUhgZur82rnK6/CGx4dw+z0OFKS0/DN9z/g\r\nwcWJ6vhFpabjT//wRywuLGN9bVl1clZXVjE4PIqVhXkhbR64OH8g8hbVGZuBASxzWhkmeYqT+H7y\r\n8mtJk/vo7WwTUpKAP/7xz1iaX8DB7rYQYEd1Xd7Y5DS2NtbVbRb3nzzDU4nDob5+RbJJhFk3MC+y\r\nnLR39uDevQv4CqGzs3eWOmhLXWVWUV7+ajRJL1MkgK1tXWL/HP4+vOrSD3fvSvqI/6dnPAyfpwtw\r\nRzM7bw5wF7J9V2TzNhWe6cmO4Yrkpc3VVQnfA6RKuRwancTo8JCQKKkXMjJwIfXZoyePce/BXZSW\r\nFKGwtAqP7j1ETFgwLCR/jU7OSFzNobGhTpV3HhI/Pj4i+XJPOkZCWiXfsTPIMsYNaZNiX9Uxp8eI\r\nFFI2MjkleWhLvs9QWVGm0pXpy3CSYA2OjkudtYBjqRN5luS65Me15WWcX1wI6eTueaaHtjOf8clb\r\nOf7pz3+WenBSSF641Hl3cSz137nUedxwVFHTgDnJCzwOJz09RXR6s47KyMrBmeg2PDSIcCH9t+5Y\r\noEbiuLOxVurLO2ht78LG6hIOj46Rm5sjeWUSibGhyKuoQXVdNYrLauX/quj3BL119VIGDQL4C4ZZ\r\nQwPXwM8+AsjK0M0Xx8f7cHdxhIXFbTRLb7yirAxWd6Thu9yhZnqWGishHvHCRpqHtnb2DEhDnI8v\r\nv/wCCUnZ+Oarl6irrVPn88XHRAih2cDS3AxiIiNgceeWGtFrayzHnTt31JQZKw6emq8IhHzbSGW3\r\nJ41XkL87blvcQUVtEwY6a2Fx67aqHGlPvynDWvzPrWxAb3cr7oj/7l4BuHt6KuGyxbxUcgVFhfjq\r\nq6/RWFcjjehj+S7AsRAekt2lRV7nJj1uiX+SDO7mCwyPxPHhEb744jOp4NaRn5GNFy9eoqmxDmdS\r\nWdaWVwl5OYWHoz3aePNIQwW++PIO5lc2kR4fCf/QaBwd7OL2Z5+job0PXc1VmJiZR0VJPjYPL9Tp\r\n+gwDj0Dg+WmM21t3rDE5sYj8lHh1zVx4VCI2pCG1krDz2A8tvsO1hk4I1m2pTIeHZlCdnYY7FtbY\r\n3jlHTJAf2rr60FBbDM+gMHW4s/WdL+Hs4S3E8ALONtZIzxWCtzAhlal2UwePdeCRLGdnR/B0d0FI\r\nfCoOpMG6e3KB8cFuLPEqr4EuNLf3orulDnPLa6+IAo/UeDUyIdBuPtFGZ3gOWPfIFJpLC1XFv3N4\r\njrnxAUzNLWJ1dhopaVnqYOFqtezAHk5untgXMufqYKNkUgaPTyFZZ1xxdJOHVvPquNGBFrQPjqOq\r\nrACJqQUidxizQoCTogKRklWE2bF+RfoYPsrgQbUc0X4kDfbW5iYypbEqLKnH6vyEGm3Nzy9SI4PJ\r\n0SFw9w7C3v4OZqQhzk9LQlB0CjaECNtImnAEh6M3zO9jM4vYWVtCb98ITva30dDciqHuNvEvCrsL\r\nC4hPSME2r0ps7sRAV5vqIETHJWFrbUXy/20kSPgPD7cVscwvyMfs8ipKhRjfsXJQ5+3VtrYJgeiF\r\nm+TlnU2NuPT1dAn5GsaYENb+0RFFgHnd15P7Z8irqsH8zBicXH3F/FDKxB0JwyLSEqMlf9yGu6fk\r\nASkTg0IWedQLCYQev8xvvGpvfHwCh3tb6kzLuqo2bEgHiSOChxIf5TX1ePrwHhoa6/Hy+XO4SSPa\r\nNzyMioJM3PrSAnFCqLfWl4WkuCgiWyQdiGdPH6GhXuw/fYrYqATp0D1Ux4vk5hZIZ8JHjYazzLHs\r\nM05rewZRU10q8j5HWEQSTrZ3YGdtq+5fDhCdeYgwCeWLZ8/hLWWgvKldyHod7ty+rfIL7w9nnaQR\r\nOqlDhPQcHh6LX76K3CxJHbQohC1KOlkcESURoH2tQ8njqeywLeEPCfSEp3cwHp6fwdHWBks7h6re\r\n4ogfRzA5XezuLXXM/XMhVpYYHBFSWZwr+eYEcRGBiI1JRFFBIZ5LJ7qhrlZI5X30DfRjYnYcM0KA\r\n29t60dHWis8+/0I6ipIfhXxZSBoMjo1LJ2Yd6Ylxkl6+ePHNd2gWcn0qxLm5skbqXyutjHl6Iigo\r\nUtJ5H1aff4bKpk50dbZjVjoPBTnJCAyJkE5emqpHGT51O5NfiKT/mTrIvbCyFhNjvJrzEMHeruge\r\nnZAOX546e5Gjexzt5+hdYGgMdtc3YWNxS/y2w+7eCaKDfdDS24OayjJ1g8xAXxd4puj48IDqVGht\r\ngqu6L3x16wC5afFSV0kd5sA7xK1R19GD9voqIadOOJPOqKeLvbQXmdJZ4A1CK0iND0OhEMuunnZs\r\nbvMSAg+UlrdioKFBhd9a0uNj1poaBPDGYNbQwDXw8xJAbWQvODwW9x/eVZeJW1lZoHVgEJ2tLWp6\r\nk0fB+AcGo6W5Ga7OrFw1tyQl1JsH2Xb3D6O7owG2UsjjEjLx5PFDpCYnICFOKjNXbYqptKIWXz1/\r\nChcHW9RLT3C4v01NFenHUJjGAa8Funf/AvGxvGvXEhV1LWpkx0Eqct2Obp/ENE8IIEc+ODXGA1wv\r\npOfp6GiDuZ0D5OTn4+njp8jKSENifAz8AgOEAB4qgri8tI/M+Gg1CsGKgVNNAaER6l5kHy8fPHv8\r\nEjkpKXj06AkKcnMRJ5Wzn68fDneOpfJyxPT8HMoLs8H7XrekASjlbQ9SAd89P4eb9KSHJ2ZRX1GI\r\n8JgkfP3d91iYn5HKTyPSevzx3dXVE2ur+6gqylYEKCImGUdHuyLDXo3A0t5r+w6iq5vI2kRzVZFU\r\niI7Y2DpGhJ8XuvuG0EICGBimrptz5Vl9Hl7Si76HEF9vVDe2Y0Iqa/amKYsNJacL7z+4r6aPJ6YX\r\n0NPeiq29I7Q2VknlnIAAPx9J/3B88823ONjdgKOdlaSbnVTMtUhPilH66umhh4cEsG98Fm0VJbgl\r\nDfS6pEN/ZwsSE+IREhQCe2dXddjx2eldtNaXwdbRFffO7iJIdNTPQdTl8ZaH+ZUNdbNG78AwJoaE\r\nAA5NolwIU0pWKRYnBjG3tIq8tDh0D05iYXpMEcDXulhiYGwC3W1N6kw7S2kEy6okPw13K3u371hi\r\neX0HxXlpiIlPw9bGEsamhbAX5aG6qRsHQsRJACmPaUA3/aPTWJqZlPwUp+5dbWjrRl97I4JDEsT+\r\numrs9o7O1Kh0sPznlFlOfqHqGPD8xKT0bKyvLqhGjfHTPzYl4atRDfXxwZ6Qmxb09LXD0y8U+zvb\r\nmJicQE9nJ6bG+zC9NIee/n7s7m6qKcOo8FBkSKdkcnwQbp5BkncPJX3vYFEIT0lBGniHrIP4yTMV\r\nu3qHcH68CwcpJzxXkGFimSkoqcLf/+kPODo9x9dC3PIkXtdnZqRj5IqToz0Ul1fjrnQSePYnp+J5\r\nKC9va2mpL1XlLz4zHyuiF68LOz6Shr+gWI2QJSUmqdE6XwnHxfEx3CU/W0n+57o9+q03xqxDGnqG\r\n0dPdInWIJSIiU3C4vg4nWwchgAfIzMxWI2e83eTpo6fwFSJZ3tyO8aE+lRcdOJ0sYPpQnqOEl3ds\r\n373/EMkx0rGTzpqLpxeKy6rw1cunQqJY1jUdOD3vLPmPZ32eX5wgSUiIj+h7V4i0k9RPKweniIsi\r\naWRHjO4chQAG4kj+OzsLsVzbQXZ6MnZ2DxAV6qPyh7dfIJ4/+wrZWZmIi41BenYOZmYmMC0EsK21\r\nX93nbC967m2eokzscLqXxCk1M0c6q18hMTYKD6TOKi7IQ0JCMnyEwLOsqjwtdZWf6Hfv7gU8XZ2F\r\niE+jvqYSM9I5y0yJUeTL3k4Lm4oPke3BTvHFXZHjilYh2r1CGLd5YLSXC3on51Felif1kjZtzRFA\r\nrhsNCovBxRHTzFHqXSdFACOFHLcPjQkBrFCj78115aqOIMlmfOrxTx0WpUNcV1Gkvrm2nFPWPNx5\r\ntKdDwu6qZiOiwwPUSN/U2KC6LSc3Iwl9Y9OSD4QASqcsNjwIi0tbGG5qEvJqiZy8EnVto17nvC9M\r\n85ypmUEAPxpmDQ1cAz/vFDAPIPXB6MQ0DqTh4RQqzcOj43B8eIjh4SEhbPaqV/lv//avak0ZR2R0\r\n99Sb37wq6ehwX7tYXRr3/v4BbG+sobenS00HjY2PSw+cd7R2SGViK4QzBof7u5iYGFVTwKzcNH24\r\nBsQNgwND2D/Yx9TkGDyksvYLlIZwbxfT09OX6+leE0H67xMQjB1pKGfkf2BAqJDRdvlnhxppJAKE\r\n8DW2SoW3uY6RkUF4C4HrkAqQxLa2thVRIdp9wZRJcL3fwNCw6L+F2elJBHp7oaKmDttbm6LvmLgP\r\nwKMHT7G5uoTR4UFVuTU0NmN7bx+rC3MICApEs/h3dKkvD7++Ze2A7//0ZxTnpqietq67CrM0LI3i\r\nflcakLXlJWnQI6RBc8Xc/AJ2NtbVuirTCo/vNTW12BP7G6vLiAmPRn1DKwK8PJBXUISc9ERY2Qk5\r\nnZlVt31weqiwpEz02cGKyA8M8H+1XkqLR2chGJNYW1lDT1enipektCwVnwsSntiYCI30jEyo+2zt\r\nrC3UqNHS+j425kfUu66bDoaxQBrbnORENdoYF58sDc4WlsV/rrvLysnF6uqa6LOKmKhQWNrYqWnq\r\nA8kTObnZagpJl8X1eQXFZWoqcF4a0JLCdOSVVCI5LhbhUQmoLS9CfHKaEKcDzC2soqykUC2O191T\r\nVlFZuZqWU6OWIi8pJQvVpWLPlovYbREblyDxv62mgBPjoxARHS+67GNucRn11RXKjS6P+c0/KBgb\r\na9R/ETnSgKdJw12QmymkIwQtDQ1q1DG/uBKjg72KwEZExGBpaVndVlJfW40QSePGhlqVliyDgcEh\r\n2NzcwNb2Hopy0hEj4SkUAsq7epubmlFRUYnC/AJUSlir66sRGhKq8sealKnainJEJCSisqIUru5C\r\n8kgubK0ljotwdnKAFunI+foHYFHijksL6msqVBlUa++Y34UshEbEYnpqAnHJGZiWxjgiNAqN1TVq\r\nlK6rswPu0omYmJzB5jqv6WpRSxjiE9PUKFRvbzdCo2LVPdhOkm9pn5vCBkcn1C0fvMnD3cMHPaKX\r\nq9QXpmXXNE7DouKwL50eTpsGBUeiVeLRScpGm7gLCAzCysq6CsP42Cg8hWgEhIapWzmmJibeWDfK\r\nJxv5/v4xVYfMjI9I+H2FsI5jeWUVPT2Sx6VuMPWfB6B393GJwZ6U+TG1Nq67vQPOkjZ1bR0IYpkR\r\nuazvFAH08sXLb77G6toKBga64SSd2jaxF+CrbQIjKW1qapM8v6nqxGjJ85VCmqpqa5CbW6xuj2mQ\r\n/1z3yjojNCAQ7R1d6pq78XGpE4XgllZWY0fKzNT0rBA+bcpc19dWyneDdBKUvrNzcBP7NQ3NQqiC\r\nVV1mGjZOXdtIJ7Gqth57El/zi/PqsO9WqaN83F1QKOQ+iaP6Ela986X8krRk/cWlFTHRsRKeVgT6\r\neCBXyiIPfE+WOmJ/Z0PdhsLOI8Os+8k8FR4ZK2VqC6srKwiWOjEvLw8b2ztSp21IWUyU/JknZWwb\r\nK1KO2K5kSQfp8HAPc3MLyBBCzU7EsdQH8wsLyJNOuNUdC9F9VfIXl6C8Lo/vA4MA3hjMGhq4Bn7u\r\nKWCCDRELlU40VK/6siK1c3BSIwdD/V1CDt4kLzpYgTMM7MXSHacQ1In2qsIUOVJh8x8bXGV2aV+b\r\n0vyxPOrBkYVX+oh9XZ+rdl//10fx2Khp/lAP/Zv+6+5f/Zcn/1+Vp//Xp70pX51KLxWks6sXNta3\r\nEOzlJg0t18KxwuURH6/jj6SD02R8enh5SuPDxnBFGoqrlbMGymf80z574ISu81W71Eu3T7Ah51pM\r\n/qMb/uMoIZ+6e8rlGjaaMbyvRkouwf+EkicNnB4OU//1/EFERUdjY1MahijtJg3djil0XThFzHf6\r\ny+k+/mMY9PVUys5lWjB9+G5OFkdfdJl6OJR7MaM5F6ozDOr9igyaEfo33Zt+q3eJc8aLJkPiU2To\r\n8aLb06HroMePLp/66Pb5ZJzpuvCb+YnudDd8ErqZ8p9yXumnyeM77fAfv/lOMz0/6/HId91/xgv/\r\n63b0d/2/KVh2tPKm5SvK0/XTv+nOND+wbDFsNNPt8/u1fpp9Pa/p/3X3V8H/lKPkXYab9tmZoDyC\r\n5YIjVTSnXYJhork5eQyTHt7XddCPw0/3jC/TOkd/0j790e0yrry8/bC1uyPE1k3+a3WEqT3Oaqg6\r\nUPyjfnp60g6fengYtyq9xR3JF8uELodPPc10v03B/4xbTZ4W/6Z6XoWpfV0+zfVvxqlp+tCM/xgG\r\nzd5r+9Sd7mlf/2/q9pU9kaH/1/0kdNl63uA340jPn5TPjTROztpRPkwb2tPjjfZ1f94H1PFqfNLM\r\nIIAfDbOGBq6BXwIBfCtUQdOuRuMiZHNHkuhQhdikYF4tpFe/Geb3DffbCr7ut+l/Xb6pP/o7K9ur\r\n/94FvaLidAqni/x9/RVhUFNPYs51Njr0xkg/0oTXvHFUi9e3qRtVLmVeB28L73Vh6v5DZL3NDSt1\r\nXh+l7/67Ln5Kn3fpqI9avg10+y7374LKB5LP+a7LMcVV+zre9e+D8J7y3uX/1fz9MQ2nDtP44JMy\r\nr9rRofn9Yz2uA9o19ecqTOXx29Ttu/A+dt8GNXLq4q52iSt5Uifo+ug6EXzXl8tcF1f14/e7dH7f\r\n8JjaN9XZFKb2iXf7/9M66P81+drT9L+p3z/+/37h+ylQtkEAbwRmDQ1cA79oAniJ961o/pZBosBp\r\n258iJDoYdxwd1BqDX3Y6vw+MPGHg1woe7cTRLXP/DPxyYRDAG4NZQwPXwMcQQNNevUY0tOHzq/YM\r\nGDBgwICBXzMMAnhjMGto4Br4cALopA6F1RdA8/aOlJRUdVQA11OYd2PAgAEDBgz8+mAQwBuDWUMD\r\n18CHEEASvvTMLAwMDCKRh3jaOqC8vAypaamor29UB29qp7ubd2/AgAEDBgz8mmAQwBuDWUMD18CH\r\njgDyXCXesJAUGw0PDy/U1FbDx88PPb29yMviaf8/3u1mwIABAwYM/BphEMAbg1lDA9fAhxJAHp5a\r\nUFyChJgouHt6oa+vFyXFxUjLyEZeTpY6hsCcOwMGDBgwYODXBoMA3hjMGhq4Bj6IADo4qPs96xsb\r\nUZiXq27a6OhoR1BQIIqKyxAbEwn79zyiw4ABAwYMGPhbhUEAbwxmDQ1cAx+6BjApORVl5eWoKC2B\r\nvy/vKQ1DRVWVuuydZ9C968w+AwYMGDBg4NcEgwDeGMwaGrgGPnQKmMe9cJ2fmuoVwsdvXgP046uA\r\nDBgwYMCAgV83DAJ4YzBraOAa+FACaMCAAQMGDBi4HgwCeGMwa2jgGjAIoAb9QOsPxYe6N6bKPw2u\r\nxv/HpuffAhgHbzuY/Trx8y73vwT80vX7KbzvVW0G/rphEMAbg1lDA9fAhxJAVr76xdrmvq8LXspN\r\nUAcbm7e55124NH8/2dcF75bV44D36/LeYf0CcA36jSfm44mFWnN/ff3sL+/sdeVdnlf+fSz06fnr\r\nXv2mp525f79oXOYV3pXMNGA49PxztaJ9F+wl3Zge+t3KHwJeGm/O/OcC84C3txcCAgLUt2m5Ynwx\r\nz78rT/OeZQ8PDwQGBir7pnFrDlrZ/8uRMYbPzc1NbTwzl9ZMDx263qb6s84xJY8/pftP/3eAlZXV\r\nKz943zfv5mbcafEnfr5BVlmnMe7/cnFm4OcF2wiDAN4IzBoauAY+dBOIt5cXMjMz4efnd9nYeCMr\r\nKwu+vr5vVKzvAivh+Lg4ZGRkwNraGiUlpSLPRx0xw282KpTl4+OH5ZVluLq5qG9W6qxs9UaXT9o3\r\nrYB10D7/6aCfOtnhHbn29o5obe3E4cEBvDzdYWFjjeDIcMTExsLCwkL+O6iGZnV1RXTTwqb7R7Bi\r\nb2ruwNnpBQL83ZR9yqcubyNVdrZ2+NLCEl39/YgLC30lS2tEHV59a/IdRGdb7ZuNmZAV3X89/Pb2\r\ndpfxYavC5+PjjbT0eNFf3DuSYNsqu3r82OryBGzovTx9JS0zYGl5R/7bK3uTE7NISY1XbimTZro+\r\n1NNG3nV5ehzTD35fDa8pdPem76ZpdNW9qX0SPr5bir8dXb2oLi0UHSzVDTQHp3dRXlQgYbBEcnIS\r\njo8uUF5e9CqOrsrU/bO0skZTRzcS4yJx+84dpYuuD8PH91f+C0zfdTDe8/JylV0LCyvU1TQiKyMZ\r\nX1gwPjXipKcZ7Vx1T5maf5YqrnX96L+eX/W7n/lOGabyTOUrWaJPSloWzo/2MDgwAGcp30rGpVyS\r\nwqWlNUxMjoj8N3VRfoismJhkHB3vYnR0FJ6enkoXuqU+tPNKP8nLVlJek9OzEOjtJuYsU/aX9rT0\r\nMtVPTw8bKWem8pTe8m0ufvT/9I9Pds78/AOwt7+HmZkZRVJN3dFOYWEhtra2MDUxAVdpdL2kflpZ\r\nWVFl2Ur8iYlPQnRYEO5ImgeFhGFseAhW8q7rRxl8Wkv+4P+h4UFYSn2g/zcFw8f6b0Di2sfHRzMX\r\nM9YvDB/XSYeFxSJG8hjrFNp3dnaVOmVV0sJPvrU8RtmqEyzuGRcKJvro4Tf128BfDwwCeGMwa2jg\r\nGvhQAshGt7OzUwhcrKqU0tJS0d3VjbjY6FeV+k+BFVxtYzNGRwZx+9Yd7B0cITo6FJk5+Zidmlbn\r\nCto7OKO+qRUTo8Nwkd6yuxDP8rJyjIyOoaKsTPldVl6BsZFRdLS3Cwnzf9Uo8hkYGI72tna0t7aj\r\nr6cXwSGhyBWiyp3KWbm58JAGwcHJDYdHxwjw9YZfcDB2Tk9wenaK2poquLm6obKyDnNTk/Byd1UV\r\nd1FhCfqEvDU3N4scEgZXHBweIypcyKuNkNqEJExPiH4VFXAQcmYaZhKuBPk/IQ3Tt3/6B8SHhiI6\r\nJh7jYr+yokwdqs3bVLo62tDd14uwkGDExiZienoSLU0NcHZ0EbJRgJ7ePnX0jrO9LaKi4zA+No72\r\n9ib4eAdgfn4BX3/1AE1N8i1kMDE5DTV11RgbG5H/HkKQUsW/KbS0NAr588LU9CK+//YlWpobhcD7\r\nIDklDXMLq4iJCBSiZyXyY4UsTIt/bRJ+F2Rm5aFd0r5/YBBuLs4IDA7B0NCgagA5asS4Nw2zBo0I\r\nefv6IzM9FdZC1FzcPJElnQhfXz/0Dw1L/ulRDbTunlcKenr7KDvUw8nFDdnyHhsTjbn5ZWQLyWUa\r\ns9Fs6RlCr4THmkRFyEVrez+6O5uksbfSZF3K5CX63hLGXonb8fExuHt6Y2h6DuuLMxiROGQe8JY4\r\nGxoewejQEAKCgpGVnQVHRYQdkZ2TA3dXbbRRC5OTpHM9/vHP/4CB/l7ESFp0dQ5hZ20eIyI/Wgg+\r\nD03v7OzAiMj0v8yferyQvEfGxqGhrhaTk1OICA1WI0dM30mJ87CwMOlYZcLV2UmVl6zMXPhKnDQ3\r\nt2BU0jM4MAA+fgEoLy2V9J1AUX6eisOl1S0MdDYr8hYWJeQjOgIeQvRzsjOEkAgBik3G/t76j45r\r\nYriYhjMzKyK/X/KLtxASZ9TW1UsZHENUhITH2Rlt7W2YGJ9CrJCa+IREvPj2j1ifn0VBQQ6Cg8OQ\r\nmhgPZ1dPFV8e7t5CyIoxNNCP+to6KbPWKKuoxNTkJJITE2Bjay/fFZiemUKulMmr9YedvROqq2sx\r\nPzOJjPQUyYNOaOvswqYQKHZAqY/SXdKDbuOkfD26d4GIyGhEhoeL/25SFtowLnnMSf6HR0TiwaPn\r\nONrdQFlpCSIkzZ48fozJkTFUiV6e7l6StzKFxEl6S9pHxSXg4uFDjA4Po7a6TuUFJ/FL14+kt7i8\r\nEv/1v/53qKmqkE6IFcIjY1T4OtpbERoSIvXDGc7OD1FdVaVIQHF5FWampuDjIaRZwp+TU4DFuTlU\r\nVZYows46ZlDKV4vUMeyExScnY3pyQtU5ur8G/rpgEMAbg1lDA9fAh04BW0vPv6ioCInxsarStbax\r\nlO9iJMRHSoV9PQLIUaTS+iYMD3Thzm0rrG1tC7GMwuPnz1BalA9/H1/Vk07LzcfjB4/g5WSPoOgY\r\nfP/9d1Ix5+Di9FiN1J2cnCBDCOj3X38PH2nw3KTCDwoKUsSgtKQFF/L/wd1H2N7YQWNrK/a3NmEv\r\nxHH75BShAT6wlUZ8Z/8EoUIMXL28Mba4iJXlJaSlJEnD64zExEw8vriHIB8PuLr74fvv/oT8vHzs\r\nHhwgPTFWSIYttnZ3EBPqJe79cH52hrysDNy7f181cIwf6uPp6QE3aYRPj0+QkpyAraMzpCWl4vjo\r\nFLnSMB+fHkhD1Ypj0Ysy1jY30dfVhf39QyFtYn9rC5UlJXj08KWQ4xIcHB0iMToMG9uHGOrtQUiQ\r\nv5ATD3R29+D8ZBMZGanSmLhge/dcyIEQNGngmoUIBgdHoqC4VOmXy+v7Gtvx8OIQWRlp2rRfUAh2\r\nj89RmpUqaemMw0OJ38wMzC6soLGuRvR8hPq6Kiyvb0tDmYrB0QkhjNOIiAhX011MW51w6eAoDclm\r\nYFg0NtdWJW5TkClEdlniem5uCQ0NdZhZWBLS1qmIDht2TmH6BIRiR8KdnpqEjOx85dbPxxNLy6vS\r\nuFaLXVs1StPY0YcuIcgkgCR9DW1d6G6vh+UlAeSoF0dnOHrY0NKM/YN9REVFqsZ3eH4RC9Nj6O4f\r\nQV+7EKupWSFk1Whp78XC8jI21teQLfGUkZYpcbkDTzdnBEl4SK5IAJNSs/D82RNUlhcjMCAYPT0T\r\n2F+dR1NrB6ZG+9DY3IHx0X60iE7rq0uK/JIIMozWVhbom5jE3vYmKqSjsbYwJQSyB/39PSgsrcS2\r\nhH11dUM6LalITU7CCold/wBmpqdQXV+PrbUlNdr3x+++E/KUh4OdHZQWF+LlN3/A3ZNdIU41qGqX\r\nuGlvRFBwLPZ3VmFreQuR0UnY3V6RcmCtiA5HsBhH7FDlSd5+/vw7PHxwgabGehSVVUu8r6GspAJ3\r\nTw/hLASVxKirq1+IzTYCJC6OLh5jSEhhRHio1AM1WBzrhZtvGHaOjyXtI/H3f/gnFORnq/grEv12\r\n5ZmbV4QHFyeiVwi++uorVQb0GQQv6egxz9hK2cnKK8Xu1rrULUm4e3YhZS8bh2f38L3EeV9vr0oH\r\nd3d3ydfBsJUy39U3jPaWWsRK2Wqpb4Cv5OnsrBI8Ob8LbycJq/ixtn2AufFhJEn9FRYeg2+/+17K\r\nbJ7UFadIjs/A/tqm6iQeHB8hITUVL7//I7IzMnFyfh9RIYFwl4Y8KDhILd/gVZiTC8sokw7p6sqS\r\nyvsHp+cSX3kIDwuBr9Rjs9KhWl2ZQVJSkiKsMYnJUo6fIMzPF/4hkbg4O0Z8bIzUBYfIE9L8zVc/\r\noCBH0lPqrUBJl8Pze+hobVb1yOuy9WYZM/DLhkEAbwxmDQ1cAx9KAC2l11soBDBO3QVsK42uhSKA\r\ncTFhaorRnJursLa2REVjK4b7u/C733+JTWm8YqJ8kF9chCOpCHu7u1Vv28LeScjWEdzkPSwmFuvr\r\ny2qaa3dnG3Fx8Xj0+Alm5sbQ09EKexsbNQLChkQngAM9vZgan0RP5wDa2juk0VyFlYUFNo+OERLg\r\nDQtF4A4R6OWBL+9YoVx62Y2Ntbj1+RfSCNjh9h07rK9tINjDBS5eATgQwvWl/BsZn0JlUSa+/PKW\r\nkLAthPo5IzA8En/84Vv09w5gUchNQpxGkEk+OLITFp2Aw71d3P7s91jc2EJxfjG+++Zr9Pd1Ym5+\r\nQvxtViNpE+NzqGvpxPzMAjbWVvDZ3/3vUdXUjJH+bmyu7sBRwjm7tCTEJAHR0XHYFFlL4p+zkOSU\r\n1EzMzfTjs88+E5Jtg7XlXSRGhsLRyVk1lGNjU+gbHMDF3cfITUxCVGwcVpfG8fnvP1ON7xe3bqFn\r\nZAJFqQlCaANxKnF/+/e/Q1ZhJWbHR7G0Ko2+hyM6hkaEbBQISQvA4tIiNoWw6tNxVys6Egw3N1ch\r\n0J7YEXuPn72UxvVc0qQdZ/ceYXZiDGMz06iuqFBTZmzUSZidnD2EgG3h0ZPHQj7OMTjYI+H6PSql\r\nYe9qroSlpTUs7liitrUbbUJOOcV2x+IOapra0d5cg9vyrftPcst1WJ5C9CempoXYHiIkNAR9kzPI\r\nSIlDTn45JseGsL53BG9XJ3gFxUhab4vdCTy6e4FH988xN7sg4bOFj+QvDw93RZ7sHT1F1i7cnO1w\r\n55YQul4hZ7kZiElKw/zkMObXdrC/vojh0RGVp+0k7UhwCJaB7tExyQe5cPfwF4K2idX1HcRHBcDK\r\nwQUHB7sYl3x2cXyAl08eYnZuBvNCSg92NzE4NISB3m7k5BZgcXYclncsVD67ffsOhsanUV6Ug88+\r\n/xzVQgBbJC78/SOl87MCa4svEBIWi+3NRSGjt1Uny13CwjhiXN0WOW0dI2ipK1J5qGdgHPfPjzHY\r\n14eJkRHpECVhc2sD/SPj0tE4gqXE99TSJlKjQvD73/0diotqMTPYAUcJz6Z0koKCY7CzsiN+SV0j\r\n+aK5rR1PH91Db28/Zicn4CFmNfV1OBKy1dBQr+oTphXDws5AW6cQuvpS/Oa3n0lH7RDRYX7IKqrE\r\n1FAvvvziC0WIXF1dlH0bcdvWPYDe9iZ4evvhyd17iAsLhIWNO/Y3duHpaI9bkic6+kdRV5iNzyV+\r\nwiLjsC0E3MbCHjtr68hIzcHG4gpspGOxIx2FJCF+y+sb+OL3X2B5ZQVZyfEST85qSYiDvQN8/ELw\r\nxz/+AfNzs/jTH79Xy1rYKbUUcm9hZQkrKxvUNHdKfq1WjT3dfGFhhc3tXQR6uCE1s1DSbwT/7f/h\r\nNxgcGUVbSwv2tqSMW9thQeqayLBwJCalqA7g9PS0mtJmGSOudrQM/HJhEMAbg1lDA9fAh04BR0fH\r\noKenB/V1dWqkJioqSk3h1dfXqobkOhWTna0NkqSyPT87QXlFJY4O9+Hr54PM7Fw0NjTh/v278PTw\r\nRl1Tq1Ssf0RTdQWi45OwsbkGR3tH7O9uIT0jC0+ePVNrlXKy0uEiDTLX5RE2NpYoKa7FQN8wJifn\r\npWEeQkNdI05O7wnRasHX330nvWs/5ff3P/wB3e1tcJFedW5xOY4ODpGbmQUvIUzl5TX4/tvv0dvW\r\nAl//UNw7f4jiwgIcHB4gLDQAxWL/++//gMHeTvgH+OL45ELdjZyTkymkx0nFhYJU2O5eftLbP0Nz\r\ncxP+8Md/QJKQL64/rK3jIdrJyMjIwZgQgqnJRTRJw93b2YO9o1NU11Rjf/8AGWkZ2N3cg5u9HeZX\r\nlpCTkYykpGTkFRTj2dOnCA8NQkRUHO49OFfroFzd3bCwvImUmEg1muLo5IqHjx6jWvR7+OgFspNT\r\n1AjMo4d3peEuVmmZnp6Bh4+fYWVhBgFBITgQf1saGoTk7iEvJ1fifxuhvm7oHRYCWFKMyOgoISF5\r\nuH/vPnKys4R0WWFj7xCNlQWSBtYqrfU4sLW1w/27dzE/NY6XP/wj6iqKMTY+g9GhfrWOjiNjet7h\r\nk9NrR8cnWJ6fwvOX36GjpR4hEXHYOzzFydGuGnWMlTjcO5Hvgz2EhwVL3ozHgcTZyZE2ysdpd10m\r\nG80o6puTgz0JV1VVBQaEYOVmJCGvsBqjg10YGh0XffowOjkrjXEzhsfHhQSvY//kLhbn59Qooi5P\r\n6enoInnqGG2tDWoUqrtrBFVCLuLS0jEzNSp5oUFI+CLy8/IQHh6uOgS6e45Ydg6PSgdlHP0DI0KI\r\nW9SI4driHLp6BjElpLGlpR3PH50L8d7A3s46SkorhAxsIi83B2FhociS8rIwP6tG1JnHrIS4jE3P\r\noqa8WBHiwpJK7GyvYGRiVvL1Fry9OMU9Jh2P5yjKyxICqMWPrhPdd/VOoL2xVMj1LeTmFYi7PRTl\r\n5yNGOhJlldUSd7tolbx5cX4gJPz3GB6ZxZwQ5eT4WKSmZinC2t03iAvJEwHBEdhd3YSzjZVaXxif\r\nkorT0xMUFuQjKSEBXkL2OfXb1tmHY0kzezuuJdXSn3VEenoWzo73UVldp0i7k4MNCkSHOYkbrvl8\r\nlQ5i317CEh4ZrfIYO6gPTs6FTIejpkHqkO/+gNbaWiHgtqiT8r+zsYy01FS1BGNnd1v8csTuxg4S\r\no+JxcXFXymgrvvn6JeKS4nH+4JEq54f7+/DzdH8VX+xgVdc0Sr6YRmRkJFZWVtXo8c7OHjqlQ8rl\r\nA0zvopIKVb9xnTQ7YVy28t3336NPOkARkVHSGTtHhdRDh8eHSBaCfbK3r5aXLO7uI1rq1rS0NBQV\r\nF+Op1HUB/r5w9/bH48dPERsRquTrcWDglwuDAN4YzBoauAY+lACGhAQjJiZGEC0Vmqs0fCHyHiuN\r\ncezl1NjrBvJt4PSJvZ2jNMb56OpoV9MlXABdU1MnjWkLQkKD1ZqznNx8FOTnCiFLl8bCWyr4COU+\r\nPDxUGu1SNX2SnZOHly+/RnJClFTkrBC5885OrYkLDgxDaFik0tHH0wtpGbmoFT9ioyPh4uqiNrPk\r\nSePMBtXDzVlIkiPKq6pQL42Fh5u7/M+VxqpI/mcLAQzBs4fPhYg0i/soIRTSQAlRLMgvVA28u6sj\r\ngkPD0drWjsqqcinwGgHUw8zKOkEq+Pq6WiRI/Lk7O0pchqBN2S9Toxj8DhUZAQFhCPTzRXB4FNo7\r\nupCeliwNnCNihHw7S9jY+Ht7uiri1NHZgfTUFNWY2zs4IV8IYWtrKzy9vBASHgEfIYLcdUhdEqTR\r\nbRECmpKUCB8PT6UTCRHtk7zHx8cr8kj4+fqIHoFok/TJE0JrL3EbIw2Sm+gdJHrSfnJKiloPmi96\r\nONjbwtXDC0cXQrKrChUp0cNOkKBERUXDX4hmZHSsPN0l/7hJx6FBiE6LmoY0jS/aj5CG1d+XnQyx\r\n7+OH0IgYtaassLBI5cNwCV+hEHIiJCRQ4iVS6V5QUKgIIjfm6PIYVuZR6kvyyrzP9PLxcoePbyBC\r\nQwLUCHK9EN4qruGUOAsODUVosB8CQsIlXYLekEeQVEYK6aDM2NhoCUOw6OkJVy8P0UXytKQJpwfb\r\n29uFnL65RpYL+7uEcG5tbqCsuAQuzpJvnZxRVVmFxvo6eLi6ws/PH5ESDl//AERHhsFBygzJQEdH\r\nhwoLR8tILDmSp8qU6Mf84y+dKY42ubq4CUmpkTjJF/NgSTNfyc+SvlKm0pMTlLs3w+Og1nUGBoh7\r\n5icJX3ZugRCaDqSlJMJJymSVlI1S0SFcCIi9g6XkW3+1LrFIZDL/keCUlhQgLDwSzm4eiAmLgIvI\r\nUVOmkoczhQh1d3Wp9Z2M7waJ78amRvHzavwKqZP4ypTy3d7eIWU4SDoRNvD280O46EjdTHVnetpJ\r\nmYyWskX7JUICSbjYQWH5ZKfOVezQz1oJQ0V5mbrKkuTNUfSOjoqBm8R/Zm4haqtrpKxFSyfKFcUl\r\npWhtaZUOX6jEv40KB/1jXg2TsHl7ewqZt4Svb4DkoUBJswCpw9qF1JWLTtrOaxI8+skd2BkZ6cgX\r\nQs2yyxG9mLhESc8uJMTGiB7OiJUyQvnBUtdRVy636ZQyyCUljB8XNy/pvFRL+XnbmlsDvzQYBPDG\r\nYNbQwDXwoVPArHg5VUOQaLFS4kgLG7f3rZC4+03tKLxsGDntY/qt7Y6zUX6p3XX2dnCWSpVTaSFh\r\n0WpahrsBx4ZH4CWVpeY/w+Ss9OKUnfbUR6G4I1Hb3arvwKOf9EPfbclvbibgO9f4cDrZxsYKbkJu\r\nOhrbYCv/1YiauOd0NHcW0g3l20kDYWVpefn94/DSPxIjrkNkeBiXDC/95zuh777VvrkDkDs8tfjQ\r\n45j+8BgJftMvPpmWhPKD4VH2NHf6P35TX/rvLHHCf7RLHXS/GUe6e10/jt44i10ek0M3NNfla/9F\r\npriNS0hUZJaL8mnvKmhf80ee4p75R9v5rfl3NT+a2tf1oW56fNHc9JsbK0y/TWXp8jhy9Dq9NLls\r\nqDlFzHf+U+T10j89b7/tphv+0/Is85pGonTddHn086o+TKeckjIkxMfB0sJK/BO3kqZcx8i1jYwf\r\nXQ7DxSfdUZ7m3+u04OYBpo/+rYVJ4vLSf6afPhrKuLFlfF/mqat4w718075KY+ZZ+Vbxo+Rp7rUw\r\n8j/zpLMqOxz9JXljmXIQf51fHTnjLPZe51m6pWx9F7Rm503oZZR2+a2nx1V7eh6n/pRJN1zLx7pC\r\n7TwW/RR5U/pqYeAxQOxoMO7oTsmn/Uv9aM7yztFaOymLHJnTCSBhGld86t+UzXpDt6eFURs95j/6\r\nr4eJacPNI7a2dOsEG8aLk5ir0VDNPt1SHy1NNP35T5dv4JcNpptBAG8EZg0NXAMfSgB/KVDEU+Dq\r\n6qbWjrEBNWfvU0JvBA2YBxtAferXwE+DZEYnHgZ+ueA5kR97XqSBXy8MAnhjMGto4Br4lATw5+yN\r\nGj1hAwYMGDDwS4VBAG8MZg0NXAMfSgA5FcZRC9PzsDw8PeBIWX+BUTgDBgwYMGDgrwUGAbwxmDU0\r\ncA180CYQeweERkSisakJkaEhako0JSUFVdXVKK+oUIfWmnNnwIABAwYM/BphEMAbg1lDA9fAh44A\r\nhoSFo7auDkmX59xxZxsXMDc1tSAo0Bc8jsGcOwMGDBgwYODXBoMA3hjMGhq4Bj6UAPL+z4KiEiGA\r\n2rEW3P3HY1bqhBTywGN9N60BAwYMGDDwa4dBAG8MZg0NXAMfSgBtbO1QWFKG5Lgo8MJynhXXUF+n\r\nzrHjrkZzbgwYMGDAgIFfIwwCeGMwa2jgGvgQAsijV1IzstDb24uu1iYhf/6ormtQB5VWV1cjNDTU\r\nONbCgAEDBgwYuIRBAG8MZg0NXAMfOgLo5s4bHNzh6eGupnxdXF3hwW9Pzx9lcgMGDBgwYODXDN4G\r\nw7XypmYGAfwkMGto4Br4UALIc/d0mPs2YMCAAQMGDGgwCOCNwayhgWvgQwmgAQMGDBgwYOB6MAjg\r\njcGsoYFr4GMIoOloH9+5G/h9RwBNRw355NrBn7pqzdTNpwBl6Xd08lu/p1P/f/X7KvT/n1InAwYM\r\nGDDwtwODAN4YzBoauAY+lACSqOnr/Uh8/P39ERcXB29v72sTIdrjrmF3dzf17uHhgZDgYGRlZSlS\r\npW8k0Ukh7Tg42EshclMFiRfNm5Op+2/61N1fNecl8F5eXhgYGFBPmpWXl6OxsVH5oX83NTbB7fKb\r\nbnXwu7S0FK2trWoNpJIpoH9X9de/+Z/vJMz6N9/1b+JDyLQBAwYMGPhlwiCANwazhgaugS+/fH8C\r\nSGKSmpaO3r4+xEZFKXITGRmJ9PR0NDc3q80h1yEv1lb26BscQXZWqhSCL1Df3Iahvl5s7mwgPiER\r\nvr6+cBAiFBYaLrIz4eXuDRcnZ/QMj6KjpRV+8l/Xnf4R9NvNzQ12l++uQlA9vPyRkZ4GXy8PODkK\r\n4RPiauvkAnchfOrb2x//+i//hJjoSEW84uIS8OTxIwQEesHO3g4xsQl48OARIvz8hLj9mERGRcfi\r\nwZPHiA71l7jQDsVOS0uDn9invICAINE/A/7y7SDy3NxdERQcgpiYGHFvDzchvnHiR0RYuPy3gYPo\r\nFhkVq8JxnXg0YMCAAQO/bBgE8MZg1tDANXDr1q0PGgF09fBESWmpugmEI3HcCRwUFITa2tprExcr\r\nKwd09Q6htq4KuXn56OzpR2tTA7794zeYX1jB7t4e3JwdhFS2Ynx8CjtrS0hKTMbTFz/g0fk9dHd1\r\nqQJF/bXRO3skpqRheXEBVpY2WFteREpKMjY3tzAzOYmjw30hd4lYXVhQxG5hfQ3+3p5oaGxBvxBP\r\nZ6fL0Ts7e+zv7SAw0EON1FnbOmJraxcxlwRQ889TFWhHRwdY2dhhY3cXsaG+sLV3wvTMFAYG+rCz\r\nsw8/kV9eXonBoRGcHh8LiXXH5u421sXvi4tzZGcX4OTkHhbn5nHv7n0hiV5wdvXEo8fPEB8f98ao\r\noAEDBgwY+OuEQQBvDGYNDVwDH0oArWxsUVRUhITYGDUCyOnbnJwcNXV63Wlga2t7VNQ0YmV9HT/8\r\n4XshfUuorq7A5vYaLK0dFQH09/ZAXV0DRkfH8fWLCziL3NbuYdSWlcPSwkLpTvIZFhaqRvscnF1x\r\nfHqBwtxs7G0uorCgDAszY/hPv/kM80uraGzpwvbaKhysrLB+sI+QAF84OjnCTsLgdKmXvYMjDvZ2\r\n4e+vEUBbO2dsCgGM5CHX8s1p77CwsFfT3za29tgSXSOCPOEfEolvv/8OTU31ePjoGXIyU1FUWIQh\r\nIYBfv3iJsMAQ7J+eICoiVI0AJiZn4nj/BM521ljf2EZKUqLIc5LKwjhKx4ABAwb+VmAQwBuDWUMD\r\n1wAJoDaS9WZm/SkwI9fU1CArK1O5Jzj9WVVVjejoKCFO7x65shfSxY0TeRXV+Kd//nv0DY/hH/7p\r\nX1BWXITdjTUhmC7Y295Gbn4+zi8ukJiUjBfPL+DmZIe27jF0dXXBWeQ4O75JXq2srVDT2IU//cMf\r\nUFOeh4SkDBzsrIs+HtjcPUBheTmO9rcRFOCPJy+eIyDA6w1dSSb9AwJw/96FGoFzcnKBj28wTu6e\r\nIy0uxuwVd94+frh7cQ8pKZHwCQ7Ho+cvkJ2RqtZEBkdE48WzJ4iPicPTh08QExiG/f0DRAQHqvC7\r\nuPvgXAigq4Mt1rcPkJyUAFt7B+TnF7zXekoDBgwYMPDLhUEAbwxmDQ1cAx9CADkqxjVuDQ0Naso3\r\nQAhTSkqKkL9KZGdnSab+aXkcbbOzc0BUfBImx4bg6x+Mqbl5REeFoamhEbZ2LmhqbEZgUAiWV9ew\r\nMD+PocEuNSUcFhmDg/0jjI2MwO1yFE6Xy2vpfIOj8C//8s/w8XKHrYMLRkZHsLdziI6OTtiL3dmZ\r\nOaysrmJkeAjeHm9OV3P6un9gADtCPsfGxuDr64fe3gFs7+xgemLi1UYR2uWTcdfdPYDdnT3MTY/L\r\nfx/USLxsbW1iRPTzkO+pyRmsLC9jSuQFenqhuaVJrV9kPLq6uaOjuUNkOaG+oRmhIUFwcnXD4dGR\r\nxEWUMQVswIABA38DMAjgjcGsoYFr4ENHANXUqK2tAt+ZkQk7Ox7hwlG5d08ra9OtzrCzFzfWPILF\r\nCZY8SsWeMh3g4Oiipla55s5OwPV9NtaWap0ep2EdhXy5iN76tC3BtYhR0dFY39pFe3sbbG2sYS96\r\nUI6Ls4ua5iVps7MT+0JSbYUschTRVC+CYeKxMNyJrNm3h7W1jTK/apews+Vopg3sbGzhJLpaSxw4\r\nUTeJD829xIW820o4XUR3G1uR+8q9A+wlvI4SXjtbIXsSTgfRmWHUiaYBAwYMGPjrxtsI4O9+9zuz\r\nbbOBa8OsoYFr4EMJ4C8RJKK8hzg1NVW9m7NjwIABAwYM/KVhEMAbg1lDA9fA3xIBJPSRSXP//tZG\r\n1IwRQgMGDBj464BBAG8MZg0NXAMfSgC1qc03Dysm+frUa9Yok5sldLyL4L0NTg6il70D3D08VYEz\r\nZ+fHcIK9nT2cHD+eZP1UvDAOGSZzG0zeBsrjOYdMu5sggtSHevNd18/0P/3X/78vKI9pyWl2PW5M\r\n01ez56ymxDn1b2qfdjk1r0/RX5X9NnB5wE/py7jU8wfPa6R9Byft38eE9zrQ40H/1t+5ntbOwUnp\r\nw+UP+v+ruBonP5LH/OXAd2f5R/nmwkL5EtdMb7P/X4PymSbm/hH02zRfXs1Dzs7akpHrl0cDBv66\r\nYRDAG4NZQwPXwIcSQGbk+Pj4VztV2SDw4GPunDWt+D8GbETCwyPQ0d6FtvZWtLQ0Iz4hAa3NDbC0\r\ntHjVoPCpk4OrMqiLq4sb5uZmsba2itiYmFcNF93pDRPN2HiyQFKOhZU1Ojo7EeDr/eq/7WWjRnvc\r\nbEIzftO++m+ijy6P/3z8AhEVGQYrS0v1n2Z6Y833quoabGztINjf+1XD/XaCQ/9sMTg4hJ3dHXX0\r\njqXINbVP90rHS/1M3ZNQ8b/2rulO6DrTjM+hoSEkJSWpcDq7uSJR4t1G/ND/Dw4OqP90Z+of5erk\r\ngND9MvWfxLW7uxtTU1PqAHFuIOro6EB7e7s6Xke5t7FDZWU1khJjlbtOSYvZ2Vm1s7qgoEDtAueT\r\ndk3lE6/10fS1krSsqWtEdUW5Wvep/2ec8b8eJhsbLQ2Zrze39lBSkAtrW9qzRkVFNerqapQ7kkld\r\nPjcVcT0q14BSxit56r8poX0NPZ8QJLm0l5OTreKAcqkf49ZZ8iL9yC8sQ15OOu7cthR5dPcmaaI+\r\nvK1mfn5e4qxShYuHsjOOVbqKzLiEeHhIObewtEZWVjaKS0pV2adf1FHTk3FlicTMLBSVlOD2be2/\r\nqV/KPyGjIWGRyi92rmhGe/SXedPGxhYxMXHw8nJ/FZ7w8DBMTEy8kkEzxrceX9ST7vW40b/N+W/A\r\nwF8jDAJ4YzBraOAa+BAC6CCNRUZGJnr7elWDzMqaGZm7gtlQs0I35+5t4MgXz95zVCMUl2Yig42S\r\nn58/qqub8N23XyEvNxOJqWm4e36C1rYOtePYRhrexMRE9PX1IT4u/kqDQT2ckJNbgtOTQ3h7ucHD\r\n0wsJ0sDTr5jYOHh4eCI5JRUtza3IF0LBRilaSGJ3Xz+++uZbhPj6IiMrCwMD/cjMyFDX3xUXF6Gq\r\nokIIQR285TsyMgp9vT0SJ+lKbrI03k1NTeqgbG/xb2ZpA2dHuygS+dxlTMLT19+PwsIiOEpjyk0f\r\nG1sHSIkJl8baFqGhYeiRxru6uvrHcenkiKjoSDx48BhBQYEq7cLCItRB1qUlxZIWdoiKihHZBdr1\r\ndELe9EaWG2p8JDzRkRGKWLi5e0pDHYWI8Ejk5eUoAubh7oZYSdPpmRlESqPNzSutPd14+ewZqkrL\r\n1O0ssRJvU9MziIoIV/7xu0Lio6WlVenDm0+6OtpRU1uHuNiYV+SC+jN8c3NzGBsdUTvJw8PDERQS\r\ngv27F5gfGVFXA9K+s6sXdna24enmonZjzwhZTE1LlbBF4e7de6irFdK8saXCaHNJvCifz3CxUyJp\r\n1N7ZJeFxRWBQMPpHp1CUkyHhthE/o1BcVCQEv0vyhCecnF1QL2nZ1NQCd4kvjpbVNnVhtKcdd6Sj\r\nEeAfiKHhKRQWZKv8ESwktaiwEF3dPdJB8BE/HdWRSAy/p4e7yHNCdVWl5MledTg6w6OnAf1ifiVx\r\nsrW1l7iOFfn+6OntQ5UQKpLBjMwMfP3NN9LpaZeOQwSaWnuwtTaHtrY+hIaEixwnVWYoj+HhQeOn\r\nx0dKbqrkLe5Up261ohPjJknMnn3zEgMd3ZK341BVVYvd7V2R167S2N8/ABE8R1PCHh0ViYKqamxu\r\nbIj/Hep2HBJMPW75tLSywdD4NP7tv/wbIoICRAdbyQOxGJJOATskkZHRePr0BUZH+ySN09V5mQ2N\r\njejp6VEymA+LigrRL2UgQsLn4eGFLCGdXZLnE4SokjSSwA7I/8zMTIMEGvibgEEAbwxmDQ1cAx86\r\nAsjGq6C4GMnSgLHRYoWdlpYhRKBSKvnrV9gOjs5w9gqFh280XNzYmDpoZ/H5+ym9bO1s4OEdKA3c\r\nLuytLREYFYcf/vQDaiqrcXZ2JCQkCodHBygoyBdicF8IhLcqZHTPhjcyKlr+38c//MMPmBwfQkpm\r\nHg5299T07sbBgRCgBHz3zR9RU1GDs4t7iIiOwMHRIXKErN27/xChfn5Iy8hBTV09Ht+7h7LyCjx+\r\n9AAvHtzDgTS6zXU12N47QlF+Ds7PTpCWkIZvv/4WNfW1OBSikihkc3ZxE2eHuygW0sDGkASwVBrh\r\nx0+eISo4WI3KLC3vIEX8vm1tj6PjU/R1dYpuHP3SdljzqB1OB/r6BWBxdRX//M//igUhUikpGTg8\r\nOEZ5kYRL/MgUErp7cI7ZqQksLi2juqJMkS6Ozrpw1DY5FcvzUxLOKGTl5WNqvB+ba3tYWJzE7PwC\r\nGiU8oUIIz+4/RklWqqSHE9p6h0TXB6gpL1cELSo6Bsdn91GalSYEyRpHJ/cw0NcjhGwb+RIPcxLe\r\n+spSnIuMhhqN1Pj5+Qp59oCLp6/E6114uTkrc6bRbQtLDM7MoTonU5mRABSV1GCovw02kk737t2H\r\nv6erhEPsiz4nJ6fw9XFBSEQ8jg/3YS/mJKYeQr44cju/tYvVxWkhfTPo72mDr7cvFkS34Z5mfPnF\r\nHczP7WB1aQHdg5MY6O1AS3sXhgZ6MDQyg7HBHtz58gtUVjRjtL1V0sZK8pI/Zle2MdrXKe4/Q9/k\r\nFHa2NtAnpHBE5Nc2NGF8ZFg6REOYHO5HVk4WHtw7R2p6Mty9PFSeZrx5e3vBzskVW0K+EuNjhGzF\r\nYkvkRIQEYXBsEktzM7C8cwfpQnqeff2VGhGMiYxEY3MfHpwfC6EdwNL8LKyElPI+bIaZabu5e4Ts\r\nlDg1spch5dDd0x39I+PqJhxbS0vVwXn+1QsM9UgnSQh5cWU9Xj59hMbGNmzOz0vHoQYjne3wEbK6\r\nu72O7LIqvHj+FFU1jTg53Bayaifk0E3lIS6JcPbwxdLKKtq7utHRVA1Pn0B1DmZ5UT6io6MFsXj8\r\n+BnGxweQLh1FJ8nzjS0duHt6BltJn+ycYuztrKNQOhRHJwfIzS7G9y+/RqWUmf2jDXhKPL149gIl\r\nJQUIDg1RecRc3WHAwF8TDAJ4YzBraOAa+FACaGVlg/ziIsRHRapRsa7uLqSnZapppxBp0PTRgnfD\r\nAXb2LkjI7EZR/QLCYnOEmNkqksSRE+plb28LH/8wnJ3uw1kaorD4RKxtrIj/ttiTxrOqqhxfffMV\r\n+vr6sbe3L34Hw81NI4AsXBydTEnNx9rarDSuXyIoIgb7OzuwlIZoTYhgQlwSDtf2YW0h31vbqJVG\r\naHFxFr/5/efY3t5DdEgoxiZmMTI0jGfSaNbV1GKkrw9zk+NoauvE9NQwvvrqawz2DWJvdxvZQjD3\r\nd4Rgir9zmzuIDAlEQamQmY42/O7vfqsOeR6UxnloaBBPpJFLiAjHl7fuYGFhCwnhIbCwtlEjg3tC\r\nThkmt8s1aCSA6igbOyET8n54fAZH8SM8Kh6H+3v44u9+g4qGRvS2t2FpdRexEYHqjEF/H+3cQrr3\r\ncJfvgCAhL+t4+Ow5Vrd20FJbirn5VSHy4YogBgb447MvbqF3bAplmSm4c9tC0iUJC8sL+Pz3v1eN\r\n8Ze3bqNvcByl8v+2hY3IOUKwtydaO7pQW1mB6bk1zM9Oa9PagTzv0E6RB97BTAJ4/+EDeLny0G6N\r\nAN4iAZyeQ1VWuqSrNtW+urahbktxcHbHgwcPFQHkId/2Ds44PjmBj5eT6JWCw90d2AkB5OHdzIcW\r\nki8nVjYQHx2CkOhkbK8v4vPffYbc0goha034/We3MD65gXQhQgHhcZIvFrG1f4TNpRnMzi4IEezD\r\nLSGA5aUNGG5ugoXoZmFxB5mFFRjtbcfvPvs7dE1MID8rA3HJ2ZgZG8Tqxg62Rc7s9AxGhwfg4eUl\r\nhHpBCPEqYmNDJTySh4UAsnNiKYRtbHIeR9LJuLi4q64ltLG8jaj4VMxPj+GOlEdLSde13S2JIzd8\r\n8fnnEq/DaKopEjIUiw0h/1xK4Ma0FWJqa2MnHZATJCdEIK+wFA+lE2RjY4GQ2ASsClm0EUKp8rqQ\r\n4jA/T3z5+Wcor23DQFeDxFcIdhaWUFFah/6WBrj7+mNXylZuVT26uzpw644VLjhy7uGqGi7mIU7x\r\nJmXk4cWLl5iaW8TF8T6yc4uwODspsj9X5Y0dmtnFZSTFhuPW7Ttq/a2rVwAOtrdh+eWX6BmYRm1F\r\nIf7u97/F7v4umuo7MDs5ClsXD+wd7sDJ2QEdUo8cHkrHprRA+fnjusOAgb8uGATwxmDW0MA18EFT\r\nwEIoOE3Z1tGB6ooK+ElDxKm55OQU9Pb2Ijj4ugRQg4ODLRykkXB0eL22SXdPguDnH467d4+EANog\r\nMi4eOzubYu6Ik4N9pKen4fzuuRr9SEhI/FFY2CClZxRgc3MR1lZ34BsYjPt376KwqAhfffudNNBC\r\nALf24GBnj10hXZzCOjk5QlFpOX744Q9ISUrB0yfPkSfmz58/RUNdHUYHBqTBm0Fn9yAGelrV9FtB\r\nQbFaJ+fnF6zu/HVytMeSENI4IXWZOYU42dtDTEw0/IOCpfF8IfKy5fkV4iMjkZSULH58rcibh6eH\r\nGkVJy8zC119/jfDgYBUHJMucauTIZYCQ4+OzCzhJHHl4+eLexQVyszOxKg1sdnqmulEkKSZUiMCb\r\nGzl4xiA3AXz3zdeYmp7CP/zzv6EgJwuLy5tIT46BjcQV7cfFx+P03kPMj48KafNCUFgE7t6/C96r\r\nTJLFKd/T83uYGx+BuxC6VYm/8AAfdPcNKIK8sraNlaUFVAgZdHGm35r/hLXov7a2iemJEeTk5qo1\r\ngKHh4Th/8AgL42Pw9PBAnKTjyty0hNUG1rb2WFxYxpJ8M21iY+MlL9xFS3M9tvYOUaXW9V1OAQs4\r\nPTktBLChugQDI5Nob21CgH8A5pZWcHq4LUTRTwjYGtrrqtE7OIq2thb0D41icmRAjcySqAZLnC8u\r\nrOF4a0s6IsGK+EzPr+DsaF+57xsbR3F+vqRRIaYmhtHV04eZqTGkJicjMDAAvn7+aq3q0soSxkf6\r\n1Fo2PfwkY0OjE3j66B4OT+5iZ3MDnu5uGBiewKMHdxEbHQMrWxtsH+yhoapGjfK1dfShtbEKUdEJ\r\n2FzfuJTH/O2glkDUNTRjU4hbUmoGzk9O4e/njc6BQbx49AgpklbWJIDSGelorkOQ6FdV24LhgU7V\r\nsdpZXUdhXjG2V5fQ1tWjCF9BeRVWV5alI1KM9bU1dTanvkGJI45j0wsYHuxFVl6B6HxP8n4R7l+c\r\nISMjQ9UDPM9zem4eg71dag0vl13UNbTgO+kopUseKiqtxu7WmqR/Dnb3dlFYUILF+WnVOTg6OZY8\r\n547Y+Dhx04THDy5Uvn2fDVIGDPwSYRDAG4NZQwPXwIcSQDbcPG8vLS1VbQQh0eK/0NCQH9n/GLCh\r\nc3PzkcYlTb7thYB4ib8p6h/9p+4kBlwnVlVV9aqhNXXvL6QsOTlBGhFtwwIXzPf0dKv1RZ5ePvIv\r\nUZEHyqW80tIStZaR/1lgKZf2s7Oz1TmDJHKJQkQjI6IQIeQgKT4Bo+J/c0szPNx9kCqNnL2DNZLl\r\n6S/6Oju5CtHoUOsUOTpZXFyMfnkvyMtThIebGZoaG1FXW6vWb3Ht3/DwsDI3bfgYLhI0d1c3pKal\r\nqUOwGZ6kpESMj4+jpKRE0sFR/E2Dt5f7G/Ggg+4ZDo4e5eXlwsfHT4hrmhAN91d+MNxcz9nQUI8g\r\nIfNMW67xGxsbFYITqKb7Gxu1/4GBIUhITIK7myMiJD7Cw2NwdnYXTc01WFlZw+josBrV0/2nfJJI\r\ndhTGhfBxDSDXrlFefX09/H191AhpQVY6nIQA0j43jXDTx8TEuCIYWVlZ6s5pbpS4uj6MBHBxfRu7\r\n64uoq6sXkuyk1qdxTWZTc5Pk2wiMT21gTwhTnfjn7OiiRkYpnzfGRESEKwKuhb9BvVNH+kcZJPnU\r\ngaTQzy8A8fGxasSa6yd58wvtR0REqHdO4ZLAmaYD45/r3hISY0VOguq0kHBSPv0jiWKYuLZ2cnJS\r\npRX9Dw0LU/GmhfnNETHKZB5lHuD93FwbWltfpzorBRlZsBfSFhUdhfGJMSF1+QgOCpE8HAM3IZ6U\r\nxzu0u7u71A08SaIPO3TMq0wjhpPyX/knDVa66Oji5Ijbt2+rNXscbc/MzFabPAoLC1V+CQkJUfmF\r\nG0WoN28MYhiZ9ymnRr4ZR4wr1h8Mr7OrC9KkTHOkmOnBjUg0f8N/Awb+SkGyx7riqplBAD8aZg0N\r\nXAMfOgXMSpkVPWFaQfOdmdrU7seCJE4nmGxM9Uaf68X45Le+doz/TRtczY3mnnrxH+3q4IYWXTbl\r\nUH+ac2ctn3TDKUza4X8lW/lhDztbGzjame7aFfviF6d/ecOIg63EhRAQvttxN6SAo3Z8Ujb1pSx+\r\n2/Kb+sg3zflf1/l1OLSw6XHPf1qYNJ2VPN4ioo5P+TH500F7ugza40YOytB3l9Kc4aFMPW35Tvz4\r\nv6aPGo0SubxlZXZ2DjMzk1hbW0dubrayr/tN0E+6pQy61dOPoB4BgUEqXPpRIfzP9CD0uKHbq3IJ\r\nGxs7NHX0ICYsQOxbSdw7v0ofKysLMbNAQ3MvYiNCcOeOBRzt39SHdl/b//E3/dRB3XXo+un/+E77\r\nWty8qSPl0Q6PYuE77ZjKZ5hpxrAyPqgf8drsx2mr66+lrRYe7trmMgEX+U+31laWkjclj3AnMadl\r\npdwzrzJP0i7X5zlw1Fh0Ut8iw/GK/tTNVmRQd8rU9bWTMsL8z7LCb+qo5QetrPKdoH39m/ryP+3y\r\nyXrIND4YBt29AQN/7WC5MAjgjcCsoYFr4EMJ4K8JTk46Xp9dxm+zdl9B7LyCqbkGc25Mzd4Hb9Pl\r\nLwXGh/6uERVt0wN3PH9IA04CYM78ehAyIjrox5Mw/l//04iTtuNc/6//+9sDw8bOh2kYtbz24zz5\r\n6j/jRn+/hP590/i587EBAzcJ1pMGAbwRmDU0cA0YBPDTwNyozMdAI1La6I+5/x+Nn5L7kf5S7zd0\r\nf6e8n/Lr43S5irfFqWl831i8GzBg4FcJgwDeGMwaGrgGPpQAsoHkdI7eUOrTQZ96yobyORVE6NNH\r\n7wanDO3VZgnz/z8OHD3hCBenTd8YOTEZBfs4aNNnPPIlJCRUrRE0b+9DwfRyUmfVafpLeBwc1dl3\r\nb4bH+YNHf5gX9PTSRvPEL1N5l3nntRvG3dsIF//R7SckZJJW1EUHzZhvAwIC4e/vq8oDd9ly9OxH\r\nbg0YMGDgA2AQwBuDWUMD18CHbgLx9vFVuzgDA/zUmrOE+EQUFRWoRevM5Dox/BjYO9jD28sfI2Nj\r\nmJqcRF5OFhzshQza2qgz4XQSwd2u2nohrpGyQ0x0HOJjotQ6LGfHN4mgKaHkOiSaUQ7facb//Nb+\r\nW6v/JAdKvoTTTuQHh4QjNTkOFhYWcBKC4+TkipWNDQQJeSDh0e3r8kmurvrH7zdJkOgmZMdOnvby\r\nXFhcwtrKEjLTU9RxKXRLsMKgfF1nU/c6Xvuv6W8jhPX2bUu0d7YiLTkGX1rYYGpuHmnxcWLPDp4+\r\nfsjPzYK1hIfht7K2wejULDJTtEN5tfh9HT+Uz92nas3alQ0J/BcUFIylpSVsbW2J/um4dccSA6Oz\r\nKMxJE3dWcHLzQH5+Iawt76h1ZoOjkwgP9lNHrmjx/3pdGHXpHp5EWHAAbltaqTWbpv5p9iVe+C5g\r\nvHAdGnXV9WWaMBz8thA/m1rakZudofIH84yFtQXKa+rVcTqNDXXqgPCdw2M0VZQrdzqhJfhumm6a\r\nf6/XYNI/U/0MGDBggDAI4I3BrKGBa+BDRwBTk1PR2t6OhLgYRVB4AHRMTKTa0cdMbc7N26Ddu8rR\r\nRK1xZyOqEQB7REZn4Hh/BymJSXjy5BFcnJ2Qk1+A2Zlp5OXnqKNLCouKMTc7g6LiIgQHheHuxQPc\r\nPT1UN3W4u0rYLuURHh4e2o7W8XHU19eJ387IyytAZ2c3RgcHJS6cUFJepa4dq6goUY06b/qYmZlF\r\nj4Q3ICAUW7sHeP74rtoV6unujrLyGsyL/z5eLooQcKcwrznjTkqGJyUlFXOib21lmSKQ8ckp6hiW\r\ntra213FA/eTp5OImJDoXj54+QHREGFwkLnk8yfz8AlrbmsQud+nmColpxuTEBHyEiPM6MrqnHO4Q\r\n5Q7PyckpdfuCo62VxGGshHcK3/7hW2SmxSExPUcRzLCQILi6emFqdgE/fPcVOlrbwQObU9MyML+0\r\njOjQYEX+8vLz0dfTi+GRfokfR5GfgInxGQwPDCItLVkRNeW/gPfW7h+eoK6yVB2H4ufngwQJ79zy\r\nChKjo8S9C/pGJvDHP/49ejraEBoUiNWNbSzOTmN0bBQeXt5Ik/AFeLsjNCYa0eHhmF3bkf+zGFXh\r\n1W4K0dLTHu7efmo3tb2NFeyc3NTxOqFBARgfn8Do6KjagRoREYma6mrMCunlTRf9w2OSZ/KQKHkq\r\nPTUVvgH+OL33CFXlefDx9oKltaUQwmaMdrUKSbRQeZq7shnfIWFR0vHJk7Byg4PkHekE8SaN7r5u\r\nzEiacvcr9dPT1YABAwYIgwDeGMwaGrgGPoQAcrSFI0B5hUVIvCSABQWFqKmpUlc/vc9ibo56+QTE\r\nIig8HR7ewaphpz5BQSHqPSQiVd1KsLWxhe21GQSFRuL07K668eDhw4cID4vFi2dfobQoVx2h4iUE\r\nb3FhXQjDGOITeS6gozpGhEdjcGQoMCQcf/zDD8hITcLR6YWQrHjlvqa6FEvLG0hNSUJsQhIqKqvx\r\n7NlzadyDcHp8iqKCXISHBMPTwxODw5PY31pV5x66ubogSgjRA9ElKsQPNnaO2N/fQ3lZiSIDHkKC\r\nzs/PkJWRgQf3Hqtz3vZPztX5c7wyjTuUWSnwKBBOOfr4B2JmbgX/9I9/wvjoIBKTE3F2fISk+Dgh\r\nSusoyc/G0eE9DHS3Y2hsSt1vS5LKsxfd3d2EQLrj9OQYuTm52Ds6Q35+njrQOjM1Getbm8jOTIC3\r\nfyiOTy6Qk5kCO3tHNDS34u75IdKSk9VtGv6Bwdg5OkV5dgZ44PajR49RX1WBpdUt5GZkYm3zAFlZ\r\nQszvPkBJcYEi4Yxfdzc3+DN9Tk8Q7OuBzq5uJEqnwMfXH8tb+6gvLYSD2C2WuH344BGy0lOFoLlj\r\ne/8QAx1CuKbmUVlWhsXVbaTEhKCquR0djXWYW9/BQG8n2nuHMNjXAWsrK/FPC6+HbxD2dneFFGcg\r\nKzsPG+vrWF9dQ3lJPto6ezEyPCRkWcJ3doLikipMT4yis6cP84vz2F5fVXKq65rx9//wL9jZWEBp\r\naa4aJayobsZIRyNu3b6N6dlFtDTUoKq2SeRvYV3SIScrHVlClLfX1tBQ34CLixMhlzFwddGu3jOX\r\n1w0YMPDrhUEAbwxmDQ1cAx86AmhpZSkEsATx0ZGKANDMRRq/+vpGRESEqVGhq25+DAfwZofIlBZk\r\nlE8jKDJLkTTq4+vD88dsEBGTgT1pdIOElJyeHaK2oRkvXn6Nzu5uzM3MINDXW0hOCfb2DjDQ1w2r\r\nO5+jpbUfjbUl+OyLL9QoEc854yiOIoBCGLc3V/H5736DWSEauenZ2N3YgZezNNrOrvD2DZBGfgOd\r\nne148vQJ4mOTcCHkwcbqlhBdSyG+Figta8CYEJHffU75drh92wLr29uI8HeFi4cvLu6ew87WUp2T\r\nFiyE74fvvkZvVxvmZmcRFRmK2PhEbGxuY2FhAW5uWiXAkS1n8V/dGuEfjqODTVhZ/g6hUXHY317D\r\nZ//pP6KuqRUD7Y1YnN9BdJC/xJ+TOsuNcenr66OO9fAJCMH333+HoZ5uTE9NIb+kHId7e7D4/PeY\r\nXZhFfm4SfvO7LzA6PYfctDh1U0MsD15enMAXv/87NXr1heSJvtFJlGakSDrbqQOyvYXcdXVNoVSI\r\n5ezqBtaXFyQ8c/Dy1K46Y/y6MN2CwtTB3O7Odujrn8TMQA9++9vfo7lzEHWFObC59SUCwqOE0G/i\r\nzmefw0Ly0fLWNmJCfFBV147m6krMLa4jPswP5Q3taG+sxfjCMkICvRCbloO1+WHYWFoq/9xcXWHv\r\n6Ibl1XU8ePxYSOw5JkZHRd99eDjbSNylYGNtGY2tbWhrqoW1BY+FcUB33xD+9b/8O1rqKlUa3bpt\r\nKaR2H3GR/kL+LGBpIWlcXo/Blnp8KfGzf3oPIb7ucPcWsrm1g/GpGdy7d47HD+5ieXYCrq7O6Bse\r\nwaGQ5hQh7JzC/nFeN2DAwK8ZBgG8MZg1NHANfOgawOjYOHT39KKpvlaRF452xcXFo6GhUb55/dj1\r\np8F4/Zu6zUEImmbGKWRee2aD8Kg0PHvwCB3tbdjd2UJkdDyOz05RVVGhRtXc3F2RW1CAhsZ2PJRG\r\nmeecFZfX4lAIFG/v4L3C1JfgNHNgcIy6vaC0vAIH+3vw5wjS1h78PNxgZWODwJBIPH3yRI1mvnj5\r\nHEF+/kIu99DX06XOtOO9qBmZhbh3eozCgnx4eHmivKwS333/NUb629Whwrx1YaS/X8hWrhCVAHV3\r\nbWNdFXJzsuDu6oKMrGwUlVbg0bMnCLk8aFcbNeLVd/YICI5Wd7A6OlrC1d1bwnsm8VqLg4NDJEq8\r\nryzvIS40WOJHc8dKhPHGjRJOQiJ5jVx7a6sQ43x4ClE6PDxBV2sLvvvha2SkxSJFSO+T58+xujQL\r\nXz8/BIWESZyco6q0WKUlD/p98OQZNpYWEBwYih0Jvx8Pb+6ZRml+Adb3D0WHRXWwrw8PnL6c8qQu\r\nvOpubmkJg4N9GB6bx0hXK2LjEnF2/gQH6ysIDwxU07b37z9EXWU5/IS4LgrBTwgPEHLfjqaKMgyM\r\nTWNqpA/HFw+EyFdgWghed3srFlaWUVqc+8ZaO6692949UGG5//QZutsaMTw5g8GhfszPr6KupgL1\r\nLe3oaGkQ4mil7todGB5DXV2t5Kcd5Ofl4PYdK2xvHUr+DVEdm7i4WGzuHuPxyQFipDPTNziC2ckx\r\njI1PoKe9WY0Anx7uSDxfYGluHH7BwcgvKJJ030VPZ6voZH5tpgEDBn69MAjgjcGsoYFr4EMJYFBw\r\niFpPFRMdpXaq8rYCrlVTa9IuCcHHQUiN+OPi6qFuR8iThtpXyBYb/6joWLV+Lj8vD85SoCqrKtHS\r\n1KSmaNUIoosbKirKUSEkjwRQl8l/AaHRePn8hSJkkUF+cBE/oiMi4OrE6WjacUR6Zg4qhWDyVgfe\r\neMDbMkh2SkuKL3eGOqOoqAR1tTVCQN2RkpqO7JxM5GRnwc3NBV5e3upWB+rgLOEIDg5Hc3OTEMUy\r\niWsXtQGiTQhafHzMlU0NGpFzdfNAZGS4vGtn6nHTSXNLC5KTk9VGlPDwSHi6ur7awWoKkmg/IZUN\r\nDU2orq5So1NhYVGoralBTGw0PIToxscnCZnNUfD184atEEnertHa1KwIIG9f4O0quUJg/Xz9xb8I\r\niQdnBAYECzkNxb0Hz1BRUoTVtW1MjvcLabJ67b9KM1d1AwQ7AwG+voiKihbymy+EOAfB/v6wkTAk\r\nJqehVeIkKNAPIaFh8JB48/MPQID47+UXiPrGBiQlJ6kbTcIjo9As6ZvDTUASJ9zF+zq89hK+cPj7\r\n+SJM9AyQp6u7J2rr6lFcUij6OEp8BCLQ30/sSkdA7Adxd7UQWm9vH8TGxsBOzCLCJW6kM8GRa+bl\r\nPMlbJPARoSGqfFRV1UieKIGz5AfefhIcFKimynm1WpD439LSipLSUolvVvCv9TNgwIABwiCANwaz\r\nhgaugQ+dAibJY2OpbwDgU98Rac7+B0Nk2wrpU/fayjvN9F21+m5MkkJ9h6ZODmhGvJIj4Kikt18A\r\nGuvrYGfxJRzsbIT4CSm4spNVl6fLp1x9l+dVO2rUS+zp/pFw0B9T+4wb/ZYGfuv2aa7LewOX8al/\r\n82YGteP2Uh/1T+yYI4CEpq92kwK/aZ/vfFI/EmHKIvjNSojvenho73V4XutCd3ZOLujv1+5Cnp2b\r\nQ0JMlPx/M83phm4pT88nujzu7KYd+scw0S7tkHwz3tSGlsv4ph3l/tIuv0390UG9aI/xpG+IoXv6\r\np/3Xbq14bV8bOTU110ZTX/9/pe+lXf1b6yRo7l7DQfQzdgEbMGDg7TAI4I3BrKGBa+BDCeBfK9hA\r\nmxIJFkDT/38p0N+fy++PBYkOdddI1FtIrAEDBgwYeAXWmQYBvBGYNTRwDfw1EEASDR3m/hP6KNWn\r\nwqeW9zHgKJM5M32EjSCpfVf8/KXxLl2u6nsd/X9JYSOojw5z/98X7yPnU/r7c4C6M83N/bsKTs+b\r\nNZfy+UsqowYM/BTYzmpLRF6bGQTwk8CsoYFr4GOmgE0bIb1RYg/nU45sUTc3N1clk3fL6rJ1//hO\r\nP6OiouTf63CY6nadb663083oJ9f/mcYL/3H6z/RbfzeHn/p/Fe/SJzA4SO2w1f1n3PPYmOrqarVe\r\nLSwsDElJSVK5vD6C5EP8N3Vz9fsqtP/m/xGurm5qSvZqI013oSEhSE1JUWcy6mFJTeWRMNw8ZN5P\r\nho12deJwVb+r31fxLvt86nKvA+Y3HdSLZu+S/9N4XW7eNs2tyyO8vb3gJXH1Lp3N+X/12xSfwv5V\r\nmJNHMN0DAwPN/jf9JgKDQiVe3rTDcsn8HhkVCbsr//R3AwZ+aWC+NQjgjcCsoYFr4IM2gdg7SOUb\r\ng+bmZkSEh6pGi5sHysvLUVRUpIjap6iMSR4SEhKwtraDx48fYWlhDrxlwsbaEs4urkpvW7ETEBSG\r\nzfU1tZGA68fYMHp4eIt70UH04Lowdw9PNZpAvSjX47IB5c5Z6s/bPLhBg6TF08sL6+ur8PX1Vnrw\r\ndhFeDaZum3DgmjZ7uLvT/dvD6OXlo71frnnTwGlTxp9OYl6P3rFRdBLdeLOIDUnTJeG1Fr/WtrYQ\r\n7O0j9uyUHYbn4OhYxT+Jb3p6Bp4+f4mUhFgli+AmB/pB+TpRYNj1d1O88l8aU/7nRhMniQseim3O\r\nPuHppR34rYdFBzeUTM/MY3drQ92OEilkj/Hn6KjFPf2KSYjHvfuPUFpSqG7jiI2NxfnFPdTUlKtR\r\nTVN5XPs5NDyGo709bGxsCXHwFzu2cJW4IWnSR4JIOHmGoSLO9uKW8XwZV7aio4v857ExXPfJfEDi\r\nph9a7ippOzw0AvfLHeOm/l8Fp7ybGptwfHahzhZsa2tVccSzJnkmpFonaS8yXT1EP5LWd8vjdHpJ\r\naTVODw+xsbuH0qJ8FUfMt84qr4if8k49fSRf2on9xo4u1NfVSX6UtGVeuSKT8UH73JHOY4XsmMdt\r\nrKV8CCk3k540U/YlD9A+8yjzgKfEJ3fO6/b0uOGTYWMeM7cEgP8JnsvJNFLreCVfcHMUN0Vl5+Zh\r\ncmJMlT1Hbsy5TCv6z4PM+W0r6RQYEoaTgx11jBNPCuAGLIaX6djS2o5HJ+eST0VXsc94VqRY/pt2\r\n1AwY+KXAIIA3BrOGBq6BDxoBlAo3OCwStbV1SIqPVo0YyR93j1IWGyCz7t4CVtps9HQywUKhGg55\r\nd5BGLiAoFvfunsHH1REuHl6Ynp/G0uo6dra34S3Es39kGutLi/BwlMZKiMvE+Lg61Pno8AiREcEY\r\nHh2V71UcHx8jNDQcXV3dWF5dw9DQsDRCzhgZEfsLazg8OEZQgD86u3uxtb0mDZYrvLx9sbC4go21\r\nDSwvLysS2NPXj4WldZyeniEpIUrpr4/gMOzc/bqyuoG5+QW4uVw2mCSXDrZIzchBZVkxLG5/KUQo\r\nFXXVFWhpbsLu7g42VtYkjG7oHhzA4tISzs/PERoejVUhwJGhwZicmkJ8nBDvjg68/O4PQpiq1egZ\r\nz6qbX9lETkocLKxs0NrSjIM9yltCemYm6urrcfvOHRX2DiEsjGumE8EduSQTe3u72JT49PP1Ql//\r\nENZEl/2DPSHc/qpx1cNHt3nSgC8srWJra1Piy+/VfxJGO3nf2T9FiJDnlu5uTAwNobG5E4G+bigo\r\nKkZudjY++/xzDA5NoqayGNaSdyxEt86efiFWZa8IIHXjDm4rIXtrW/vITEzE+tqmIo1RMUlYXVnB\r\nyto6wsNC1IHcG9IBOD49RWlxgTpOJjo8BGnpuWI/H+GR0VhZWRVSv4b4mHBEx8dja2cH8/PSoRCS\r\n0Tswiv/+v/w7dtdX1M5nRcBEB1Mw7NSJaWkrpLSxsw/D3dpNIZGRkWpDzJ7EeVpKPCIik6TTso2N\r\nrV1MjU8qAnSVlLwOnzVaO8bQXFGhzkd8eHGodpvnZWchJDgKrfV10hHxE3kS3sUFtWO9vLUbz589\r\nw8H+PirKitQmKb3M2AvRCg4Nw8bmhqTfIcrKRG5EDNZWV3Ag6Ts2NqZIluY/CauUr8AgdYD2/sEB\r\nqqsrEZWcLGRbyo98t7XUv5JPNyTYXl6eGB0dl/yyI2nWIPH1+r9O5HjG5YqkEeOTh8b3SZk5lPLY\r\nIHVGYkY2vv/mJXYk//RJWWTHaHx8FKury2huahQZTpiaHFPHD714corYuAS0NjdIPDpjsLcXbk5S\r\nT7h64nRrD67OErdObhiVMrwhdUKnlA1b3ip0Jb4NGPi5wfJhEMAbgVlDA9fAh04BW9k4oKSkVBFA\r\nfnd2daK4uFhIYS38/UkazI8cvQmO0LggOF4ahfwh+IVmiDuO5rgiIiJc6cVvH78InJ4cKYLn7O2P\r\n51+/RFhQIDo7uxARFQ4Xbz+cH5zB28UePkFhuH9xjtj4JDy+f18aw3CcX9xFXGwMHt0/Q0JyJh49\r\nfYbsnP9/e2/ZHVmSbQnOl1mr5xUkRIhZDkIXMzOEmJmZmZmZFVIwZmbRdL/1uqtWf+v5aXvONtcN\r\neSo9MxWRGa+qXt0Pe12/BseOwXXbRsce4e3bb9S1Zk+fvEJKXDRamzuRmpIML1+jkLsjWCz+CLRE\r\n4dWrV8pO4JYQxJj4JJw/fqzui33+4hVCAvxETy+1FMtZIBLAlORkNDa14v37bxEjRIR54DItZ1RS\r\npfNbnJ3A2OiYdPxDQhymcbC/CzdnR8xOzaOxuhZ754+Rl52lSHVObgF2tk7w7PoaldLZ+/h4oaah\r\nEa+/+QMqyssRYrHAUTrYZSEcuSlx8LdE4PLsFAZ3J2WLj6d1Z2em0Ds6gs6OfsyMDsDJyVHZbQwU\r\n8mwOCsWFhPf1dENH/wj6Olqxe3CK9NgYjE/NSZpFkieaWon8kD9edVdT24Dnz1+ipChfDQCYf84C\r\nc5by6OQCs0LC96UDz8jIFAJ3hNgwP7QIIWwV0vrFF19hbHwOtVUlivDxZo8+IZ3NTVYCSBLBNsRb\r\nOhzlfX37EG+fPpE2cKYGH1sHl6In7f0tYmF2WhmCTogMRU1LO3pa6zC5sIFMIealtS0Y6mkTAr+O\r\n0b4OGShMYHVpFiVSrucXj5EYHw8PyVugJRxXZ1cIC/JXbY9tk/nU2jD14WwWyTZ/84R1fXsfBjub\r\n1Qwml65ZV1tb+xgfaUdjcx96+zqlPEcxPdKnwrMMtdPSWv7CJH9O4tfcNoyzvV1FInvam9DR3Yvm\r\nxhpEx2VjbX4KSdLWXkubzc5Ig6sQzvreIWk/o0hMycXO+pwyTk7SxTpykQHA1OwiqqqKYQ4Ow+Xx\r\nMbIKi3D95AqBMngaGxuFj6+XkMpAlR8XaQvDQp5amhpgNAfi/OQIdS1NWF6bl28nAWcyCPBwdYLJ\r\nbFbyPb2sS+C8+YdX+j2VgZm7+HO2WvlL/ij37du3KC62muFJSMySujuCjxA3zmBmFRTj+GAH/kHB\r\nOBSSXFpejccXRyguKsKbVy9QX1OLtZlJeEie9g9WhUQWYm1lSf1XnB+dwCzfuYG6ysDAw91FvuUK\r\nXD2+VnYvv/n2W4QE8brAf84DVjr+60IngJ8Ndh113AOfSgC5pFNeUYHkpET1zntxea0bZ5zycrKV\r\n6Y67cezBQ0b1QRE5iEyqEDKSIH/y1j9urSNmJxwUHCsd9hkMQgANgSE4Pj6CUToTLv+6e7jBw8eA\r\n471zGLw94B8aLsTsCZYWVkSPPBgDLHj69BmWF2blPUuIYRrevXsj5LUM5UKg/ANDsb97IJ2j9RYO\r\nzkK6S6d1dHSIICEEAZZInEl6Xi6OWNo7RLzEv7y6wsrSkiLAbtL58SOmvlzS8pP0njy5RpF0Ws9f\r\nvEZ8dKgiE5p/UGgUXj57ihcvn0un/hKdXe3Y3NvH11/8DoMDI2gUcre2dSAEN0gRKxdXTxwfnuOl\r\nEKDy8iK4Oj2En3Tex0IS3cWf5cNZspXNPeQkxyAkIhonJ8dw+vL36Ozuxmh/P05E/xdCIP747i0a\r\nKovgIKRK6SOdeVBYlCJWzg++QKMQqEEhactrewgTwjsyMYWaqlLRQ9PfEy6e3jg8OUV9ZZU8z1HO\r\n2z1ED/qTCLNdHJ5eoqOpVhFFR9FtWwhlVLAJQ0J6m2SA8MUXXwoRmUF1tRBAF2c4OTqhd2BMSE+1\r\nIoOsd7ZJEg0nF1esSnmU5KRLnRwgTIjr4cUzzPR2oFLKPykpGQen57CYvNEzNIru1hqMz68jLSES\r\ntW09GO5pxebOKaaHh6T8qpGRmqqIWL4Q6+snT1FVWggXLz9cnj6GwcP1hvh5KIPjUaGBH2albf+8\r\nSejqOgcw3t0q388DDI9PYWK4D0Nj00Kw+1Db1I7ry1OMjI8j0N9PSLE7oqJjERVBO5VWecwblzY5\r\nA9jaOYT1uRnEySDFwcERPX39yoB1fJqQ/9VFOD58gKSUVBwdnqKnrV7S7kVjfS2i4tKFAC7CVdqm\r\n1gap29LKBgpyhSxyIHO0j5ySUsxJ+3cWOWqm3bZ8hQBOz6+ioqQQTm5eOBfS3tjWhi4hsKaAcJwc\r\n7sDL3Vnkcy+uQcrHFSVllTja3UZpTb0Mto7g6SZ1dpM+88YyjIuJxerGPuZnJpCamoWDnRU4ffUF\r\nHCV/eUXlmJsZg5tPAPbWd2TQ2IgnV+eoKC1RtiJbmtsw0d8Nb79gPLs6RJ58S6tL8/D0MeP6/AIm\r\nabdGkxBA+R7dXRxQVMGrBa/VXeD8rrkVgMSTuujQ8Y8C/j/ym7N10wngrwK7jjrugU8hgOzEsrKy\r\n0NfXpwwyBwUFITc3R82CVNfUIJhGd7+39+2nwX1G7m5WG2oeQjCUu/zmk27+0hEtryzDV0ifMSAI\r\nS0uLMHlb9eB+PV7N9c3bP0gnPIyY+AS8ef8G87OLGBkZQUJyGl6/foeF+TmMjo0hxBKK1fU1zEuH\r\n297eBh9fMxZm5+EnBNBNyCQ7sdGRUbx//w3mJEykdGQrC/Nqb974zKwQwFS8eP0Wy/PzmJiaQriQ\r\nBHZ41JP7/Ux+gTg7O8WshL28uEIE/W86fYbxZid2LQSxKBfXz68RExWFhZU1bKytYH9vFwFC7mZE\r\n94gQzqK6iU5emJqaRWxkOHbFPz42RhkwXpE4PiLTTcI0C/l++eY9jnbWhSBFYn5+Edsi73B/D8FB\r\nFiFOJ6guK8aT6ytkpSXBmfrelDHvAp6ancX2+rJaBo4MC8X4xDyCzX5o6+wUIputCJ51Sc0DLqIP\r\nl89XFxdxdnmF3Kx0Iam39hG5BDw9t4hwS6AiG85C4PqFmB3tbeH8/FIZn+bs0bNnL6WcjtT+v6LC\r\nIjx5+lLK60wZu75dgqX9PTeMTc4gPjIMFTW1aG9uQHF5DU52djA+MozwiHB0dPeI/E08f/sOHY1l\r\nqKprVXvHjiS9pppy5BVUqOvwJsbGkRAbj7zsHEwJaTs4OERJfhYeurhjdW0Lu5uryuj4V0LqZhbk\r\nfXVWESQtbxpchLSW1jaivb4GDx86oK27VwjOBrZ3D4X41qO9tx9PHwvplHbJgzpc4u4dHFez2LRn\r\naCuLS+A19W0oLyzE1yKLM6C5+Xnq+sGtvT2MD/cjIjpKymACG5u7qK8pRZkQr/LyMoRHJkk+htQg\r\nRJNHgpaVnSdle4z17R20NtUhJiUNQ8MDcGNe2E5tDk6w7aakZeOC4Td30CvfRF5BkQwGGmH2t8h3\r\nMy1tn/vyrPv6OOjKFPL8+OIUC8vLWF9bFALIb9favvlNcmZzYmxCiOgWRof6pO14SNlsY2NlCdXl\r\nlUjLyMGAEDwSuoXpBVgswepWnumJcRkUlCFEBnFX58dY3dzGodQr9/1enp9iZW0dh7tbCAkIwOL8\r\nEv74/j1GBvrgHxQo38Y2picn1QoE90xq+dOh4x8FJHs6AfwssOuo4x741BlAEiWeztVO5vLPn7cx\r\nGA0+6jqwX/M2BA8vbzVb4uNl7by8eADkRj5nJsxCiPzM/jAZzMh+JERHOt+sTCFYz55goLcH19Lx\r\nZmZm4sXLV8hOF4IhJCZeiEd4eBi8RI6vt6+kQfJp7Ti43KfdFMEP1iDpeXr5SFhvRCem4cXzp8jO\r\nzMDFNWeQ8tUsltLlBrx+LTIyRspVPnbqLG4amAbLmwdp1FPKjQcu4uPiYDYaxN0N3r4s09s64QEH\r\n7ouyzsJwlsUbJtHJR8qd/rf6+iuZ1CFJ5PmZTGp/olHyQALn5eOtNtKrwybyVPrwt8iJj49DgL+f\r\nMopt8JH0RScvkeV9V38Jz7rnvjf1Z3ajgy3oTpkE36kTD6twCZm/uZxIfak3ZXH5krqr+32lPd2V\r\nR/2ZjrsnDwBI+3LzQEh4LGLiEuBroE5u6nBIa3c3hroahUS5Kf04E+QjAwUXdy8hESFIlDyaRQd/\r\nSTdRBgohwRZV3jygwjS4JEy9AgKDhLAcoba8QO1/u6sP4S36qFtmSKZkZB8TEw1/ievu6oaVrV21\r\n9NzQ3C5t8UzcjVhb30F7S4Mi03dleXlLubC+OVCQ8nWXNhIVGQFLYIDUl4cqE7bXCHFz46EMtitJ\r\n08OTJ5Ep47aOWOYkdZaQELWNgu3MXfLmy7pXg7LbutfgKmVgCQ5GnOTBk+Wh6l7qT8J7S3nbthV+\r\n127S/kLl27EEB6r6tJVFsP7jYuIQGy3ypG7cRA6/2SQp81AZHLL9avr4SlocABqNZiTEJ8oALUDt\r\n4QsMChBiKANJCcuDMMFSV2GhFiknxvFGUIC/fPNGBPiZ4SVt1nhTRhaL1KnS8/s66dDx9wa/TZ0A\r\nfhbYddRxD3wqAeSfrAbNjaP/z/Xnayv3bhqaHkyfZInXng3yLt7CAtXR1NXWqnfuSWIHyNkK61Lf\r\n7cycPXma++2TnbWPutJtYKAfFepqN+vJXtv4nIGwlsX33TX8UK71ZPJddw227h/85GnbMdv68Uni\r\nZxtWc+fzLgEgbNPnPjs+P7zfAd2/F96O/933u/nTYO/9B/jgfhuG5Xsr03pTB5ecIyPCxd263+5W\r\nnvU0M8NTFt35W6t/LQ3NjUQ0WggkT55+8P8BRI7Nu1bejB8lxKe3pxvdPT2iT4QicHGxcUJkbNKz\r\nga0cDZSj5c1Wt7vhbvP4fTCsFl6b7WW9a7AbnuVz867J/Tn5P+ov5W8rj+mrMtJ0+iDf6s93VWdq\r\n8Ggrn/7W+iMoRwuv4Ta+/TLSoeMfAToB/Gyw66jjHvhUAviPCnYE6mCBQC1d3nm3F+djwA+Wcm7l\r\n/XoznTp+Gdj5awctfgk0MmHP7z5gXK3NaUT0l8jToUPHPz90AvjZYNdRxz3wSwggOzaCv7UROqG5\r\n/VqgPJIte+Y57gNbPfnB8fmpZJDxtXxq77Z+fN7NP8NaycCvRwIo777lzHLj3jPbvVHMv5aHXwNq\r\nv98n5tFWD3s6UfbP5ZX7JX/N/NyFRurum8bPhaO8T23P/xiwbvuw9x3RnXn7qbbAPcI/rFN+P1a5\r\nyhaluNmbrdSh458R7Gd1AvhZYNdRxz3wS5aAuVSmnfzj3huaf6DpDnv7uD4V7EhNJrNabs3JyRY3\r\nLrNZZ1S0DkbrcLQOhXFom4xPutFoMI3iMjzfjUYDGhsb1Z40vitjwRJf67St8a3vmkwNvgZfdXAh\r\nJSVF5VPzp2yequX79/Ryc0VQUDCqqioRHR39QU97+mvvd2EvfEPDrbmdH5NHP7pl5+Qo24eWQP8P\r\nbtXVVaqu7MUnbPXR5BGavy0Yjoc3aPuNB4G0sLbxmQ7d7i6L06CwhfvChBB4enmrvWiacW6rTu7I\r\ny8tHgL/5R0k76y84JEztC2NatunR/+47QdlWfX6aWBIMGx8fL2VWrZaZtTK0J1/7HSC60I9tlU/6\r\naeH5TE1NQ0HBIyXnbnwtTS08lz3pzneGU253YJufu/LuvjM8339qEPBT8qz+Hsq4NvOgLcsS9Pf3\r\nC0BqSiri4mI/yLeVRzcaYvf1tu5XtPWn3KCgUGRlZsFVCLfar3oz6NLi851Pe++UZfv+Y/nToeM/\r\nG+xndTMwnwV2HXXcA59CAPmnyqu7uK+OV6bxzzY/P1/ZAezv71cE6Zf+8VImYTCYcHJ8iqmpcfT2\r\n9irSaTKaVIesESo/fz91Cpn22Jgu7ZHl5eWpTpj7n3qGBjHaP2AlF/LB0WD1/Py8OiTAtLjxn1dL\r\n0TYe5dFGGk85852byzVdPKSTSkhOUkZ4aWz68PBQHSggCc4RkkVCxt+URz34sVuCQyTcEbq7O/D4\r\n8ZXSmWGSkpLUQQWe2uQ7T5+SVFI/Lf/WsvBShyWYXx6kYEfJU9dzc7NKP6bD9FjmrAv6c5RJeWHh\r\nYSo/QcEWHJ1foTArRZ06ZfyZmRl1cIHhjQajistN9Fq9paenK9t+9OfhExI8ut3Vj4SOtv9OT0+k\r\nDnJV2dE9U9qHpg8JeFBQoIrPwxPWfEk7Ej9LRAzWV1fg4vA1TAEh2JDfPFWanJyi8uzo6IyVzV1U\r\nFecjMSnZJt1b0kGdn794qQw9c6aTxJ5lQ505YCBR5+AkTdLXwickxCtirA0CNFm2oDvLr6CgAFdX\r\nj1Xb5kCExIltiG2Ge9oon2Q6PT1DysdTXXN2enos30i6so3I+qUuaWnW9Pm9NTe3ySCkVmQ5q/g8\r\nCcuDSjzsxDTZTpS+ogPrkwdlWH6Ud7cM6M/2xPgsX6bHk/hsw2yD9Gc8+mu2HFke/GZtD03YlkOi\r\ntAXGZ1yC9Zoh8akH9bNYQlBV16xOA6tTwDfxnZwd0dnZi/PTQyyv72BifEzSc5W2G6e+EX5PvvL9\r\nLq1to7GqFIHSFpke2zb9uac2JfkRNtbWkCL1HSz+lBsXH6e+ab+bb4uDKuofGWlto8wv2x/1oz/l\r\n0p/fmNamdej4e0IngJ8Ndh113AOfOgPoazQrO3gpifHqD5idAjsKmmH42BlAniq02v+zkgN+FLxt\r\nwM3VGYUlldhcW8KDL79W9uJ8zUF4+vwpFuemcPXkKWLieMvBKgalc97e2lKzEnWiA68P29vbRHJC\r\nLC5fvsObJ1fo7+mWDtAkZGwITy6uYTbwpo8wvHnxFnMz8zi7uERAcCh29w7QJ4Tx2+/+gIQY64wP\r\nSRZnqeLTs7C7torf/fZ3mJ5dRlNDNWZmZzHU34WdvX2kZ6bLcxeu0hFOTs1gcnJadJ3Db37zW7T3\r\nDmN4qA/Xl4+xND+Hi8cvlEHr+fklzM5NoKqq+kOZMP+KbHn74ur6CZYXp/D48inipUMrKSnDk+dv\r\nkCS60S7fhfjPL83i8vIKCXFRGBubxshgH46OjhWR+PqBI6YXN1CcmQpHIUglpWV4KXlOSY0XAuKF\r\nixPRR+SfXj9DbHSEEO1BTIwNY//gEIkir2dwGGsry2hsqJO6tc6usDysf2hGjI5N4G9//V9YW11G\r\nakYmhkfGJH8zODk9Q5aUR9/AGM5O9rB7cIbu9maMaskqAAAxG0lEQVQ1s8OOmn+GfpYIIW6bKCoq\r\nQv6jR5ifHkd9QyNmp2n2ZAu5QgoWtvZxdrSF/aMLVJYXKxLL8iHRob3J5KRUbK4sYOfgGCbqM7+G\r\n48NdbO2foqa8SOlzdnKMjb1jNNZXo6igDKdHe2hpa0egkGN7BIGyqaOzyN87PEO+lN2DBw+lDT5E\r\nTV2DtLVNrIperc116OrqxcnJEbYOTtDSUIva2mb8r7/+B1ZWFiVPuQgNC1eHQrb2TtDWUKNum9kS\r\nXUb7uvDg669Q39SFJ4/Psbmxi8HeLhlkpKhbNMZn5tDT3oLk1Ey8ffUCi4tL2NvZUdfZ8VtjGXD2\r\nkwS/q6tT3XYz0NMh9VuHV8+eqNtaRkcH8ai8Ei+eX2NpaRXzUxPqRPRjIbTd3d2KaNO0C/NrHbhw\r\nBi8YPZ1d0qbWMTE8IESqDK8kPm+nmZyahEXyc3q4h6nZBVydW+0Asi1woEIC3t03idb6Inzt6C7p\r\nXCEuKgLNrR2Yku9geWFC2kQ2vv3Lf+D8YEvZveTBLZpkmp6dk3Y4g7jodPz7X/6M2dl57O3vwc9o\r\nkLrqwKT4b20swSTf7cXZNfr7epGZlQO/QAt2hfz3D4xge3UJ/kJyj87PlCF03kTC/6e79atDx382\r\ndAL42WDXUcc98KkE0NHFHcUlJUKwYlQnTALIEThH8fcfcXvAzcMHybkDKGneRmRiqZotYOemltqk\r\no6tr7cLESD8cvnYQ4uACg78Fl0LmfD1dkJqWilrpjL95+xrNLW14/foNwqOiUFdXh7HxaXzzzSuY\r\nvN1Q3dKLLul4HaSzpckPF1cDjrZPECgdS2CQEMSDSzg7uQphOEJSchouad6lshpHx8fK9iDNfVAf\r\n3jsaIwTwQAjnl7//Em2dA9JhTSvD0m0t9WoWKjUlCWs7h0LSitRVV3WN0rGNjuALIbA1TZ2YmZnE\r\nmcjl7Qp9QzNoqChRhGtPSGNWdpbqgFkfTE+ZGfE140IIo6+3K9q7+tDd3ITf/uZLLK3tICsxGs5e\r\nBpw+voa7tzvaOzoxOjSAV2/fo6ejHVfS+VZWVuCLrx5iemkThenJkndXIYQOmJtfRV52shAcH1yd\r\nPYGfwRV903OoLC0VsvAS/b2dkv8TtAvBqZYyPjs9QXFxATy9uAzroWbYSJB4YtgSFoGnQsbjYiIR\r\nGBKJ88tzuDs5KJM8c5OjGBlfQG1lAUx+QcpuoLvoECwkiDeR+JoCsC0E8NWLV1IGOxgf6pf4TzE+\r\nMoj1jU0MDQ1hcmUDCbGhSM4qxPrStLo9g+lzNthRBgX9Q5MYHx0QwnqEUunwx1akbNITEZWYibWF\r\nSSEWiyjMy0JwVBK2N5aRkZaNq8eXaGxskDL2VbNXNPfCNsx2SYLLGTPOkvGe2ZPLJ4gPtyibhi5C\r\nXveOzhAt776BYTja28aEtLWy0gLRTwjs1CgeOLjjUAiS0eQthPuBupptaHBA2tcl1oXoP/zySyRn\r\nFmBxbABfffkF2rrG0NFYi8jYBKwtz2Jkaha7W+sYFOJ6Ku0iL78UW6vz6kq1ooICeEsbZtlHRkaI\r\nrp4ICArBQD+vN9wUAjSPmtpODHV2yuDAVwYBe6jr7Bb/TsmfJ65OThAeZsHp2TlGh0eEjIao75Vl\r\nyfwqAugfgsG+biGAWzje3kRFWROmRnuUUfWVjTW0d/ejXYiup8Ek+V9ThqI5yxsREa4MW7f3TqOr\r\nqRi//9IBR2enQtAT0C46jM9M4+XTIzg+dMS4tL+clDj57SBx/dDbLQRvZhZPr06RkZwn+V3Cw6++\r\nxLaUdWxcEtraOzAhhPDViysZuPlgd+cI83NLQmaDUVheh/cvn6KtuQ1v5BkRasGaEPSFhXnExER9\r\nxP+RDh2fDzoB/Gyw66jjHvjkGUCTn5ppe5SbpRoxO6TWtla1xKRmruzEsQ8v+BgCYDRz+dT8PT8S\r\nhcT0bLx8fg1LUKCy2xYYEiGdyokQQFfp/L9GKv2fPkFyShpiYuORmJwiBOY5kpJS8PbtS+ksvFAr\r\nBHBuZEDZhONVamFhsXh2+QKJMdGwhMThfO9UGUTeO5HOJyMTj6+fYXJyCvEJ8R9IAZf2eNAgXtK7\r\nPj5CbFQMTi8uUCQk+IWQF9oFTEyMVwaji0qq8R9//at0SA2Ijk/F47MzZY5mfWMHFdU1ODrch7/R\r\nRzrTAxTnpcNbSEhWVja+/fZb6UQjP3RYypi2dI6nolegvxlzi0uoKHokssxSBkLuivLgYQzAgcg3\r\n+Rswt7CMupoqPH72DMVChLhMaTabhIj4Y/vwAs0VZcqentHsh52DEzRVy7u3Hy5OLhFgdMPw/ALK\r\ni0vVTGJleSkSJL6/pGsQQs7fb9+9lvJJVmXCNqPsJgpZ8vY1Ctm8RlCAGV4GMy6FXEWFhqKlexAD\r\nHS0Ym5hHeUmeMqrMuGwf1jbioWw8fvfuG6zMTuONENeZyTHs7B2hran+Rn9/LG/vITUpBg0dfRjr\r\n7wZvu9DamIeXUerrJWbnprC9s4+d5UWMLKwiOyMJVfVtQoj7MT41j+LcNBQIUVicnZSBhaeQsmh1\r\nd3BHS4My5lxdU4dHj/K+N1vE5UjONs4trWK0vwcGadv+gUFY395HSX420nIK1P28Y6PTQvhzkJFf\r\ngsXpcTg4uSuj1nFxUUK4nYRsL6OvrxNdfWNYX5gR8u+Kitpm7K0uqjJo7xpGR10NYlJTsLG2gN7B\r\nUSzOTUv7i1XbFgqLKrA0PwYXJ6cP+yC1/Ds5OaO3b1gZNuf3uLuxhKrqdgy0tCI6MQlbQoQqmtrQ\r\n29MhZCgep9L2WGcBgcEYnZzAthA829tXnJ1d0dLSgY3VBRSV1uB0Zw9V5U2YHGqHX2gMVrc2ZLAl\r\nA42+LuQWyWDh6QU83JwUEeU34ij69AxMY3ygFVn55Tg8OkRlVZUQ4n1kyQDx1YtTOAtpn13aQJ0M\r\nfritQhn2FsKcmZuHZ9fnyEqxEkCT/MfsH5+iorIGxyfHSMvMw5sXL6Q9esEvIBBtrT24vjpHTkEp\r\nnl6eIDkxQchitLrqzuxnRkN9M168fCJ6cQvH7f+KDh1/D+gE8LPBrqOOe+BT9wCmZ2SoWw5qaqrV\r\n/iXugWKHTZKkdU73h5VIqOcdPx4C6OhoV3vM5mZm1d6eppZmePPABQmEhBkcGFCX13d1dakl3sXF\r\nRXUgYXh4SO2pCgkJxe7ODqamptTMzuDgkAo/MjKsDg80SsfpLXlqbGpAYmoaXr58KWFGcHJ6iiQh\r\ngRopYL4pa2V5We0hzMsXUuPsjKamJrX8PDo6qmYvDQajdPrzav+Si6ubuqB+f38PfT298DH64/03\r\n77Czvoaenh6R6yzkoFddhE99GZ8zUEyPTy8fA969eoW9zVUMDA6qPV6tra1q2XR+dgbBkXF48uqF\r\npL+GwaFhtSettKJcOvZtlV/O7NTV1avl1CUpF16lVlNTi03RlzeqxMQkoLGxCSZfN5RUVCA6OkbN\r\n5O7sbGNubg7cL8hl/fX1dSHFE2qZUNNPg4+vL9ra2qzL9pJ+iZBi3ioyv7CoDC+XlVVK2+D+xR/O\r\nxHCGbWR4GElxkVIPzSgrLlF33+6KfstSh5FCiBubhSzt7mBmds5qrForH0krMDgELc0tePjga2l3\r\nPmhvbsKSEMbLkwMhhfPKOPj0/AqeXhxJnSxKfgLVXrKNjQ3VTqKjIuHw0BkTc2vY21lSd/va6sc6\r\nDxCysSH5Pzo6Qnl5hZRZrCrfjY1Ntd+0SIgQ8xcRHY/K0mJFyjgLzesEeT8t9/9xhpf6F8k79zYu\r\nLS1jU3QoLi5CZmYWstLSYQkPQ31drWrja2urqszz8vOVXcGK8rIPgxFbsG3yOrzd3V0hgbOoLCsS\r\nMtuB72QQtC5kOE7iFtY34fWbV1hdXkBKUjxCLJFYXV3Hyuqq2idne20j64j75vZE3qy04XppO4lJ\r\n6Sh5lAOzP9tCHQID/BWxnF+YR3Nzq9THLWmmjrl5+VhfW8HYOJebQ9Xe2K3tLSxIe+jsbFf7HlMl\r\nv0eHh+qbpdFqfj+zcwtob29X+xK3JTzzT9udbMNs74tSf70dnULCA2SwsyB5WJO2XKP+A3jHMb9p\r\nfhschM7OzEgZrqOhoUH9J2n66dDx9wL7Rf6/33XTCeAvhl1HHffAp84AsmPknz07IHbIhPbbXvhf\r\nAs568E+ehwZ4KtDZzRXunJEjhATSPAfDMW1NLz41UynUi/ucNHmcWeNSszJFIfHVrJS4c49hvJCP\r\n6+tL1Dc04eLiAsk3exxv41rTo04qnnzA2qyM5q/CODkpHUhqNX9ehG/g7JuQK+5rcnUV/TytZcZZ\r\nCp5c5m9bWT4GE3alMwwS4mPV2aqv0kHg5mPG2s6mECOjcmc5Od2E0+RQf01furMcbd9dXCQfnMFh\r\nedzIZzw1yyfvBPOphdfk2oLyOGPm6+t9k29rugzPJ5cWfyquqjd5qrCMJ+9qICFx+K5uApGOXJP9\r\nAeLP+GqGR/y4pDgyv4S89GRFxBwdXTA6MYvC3HRVZoyv5YfyGDcyKgbrQjCSEqyHYr4nX8A4DMff\r\n9Gc9aXryqX5LGNYPl9gp21YOf6tyEL8PvyUsYZVvjU9yzzZpnW22bj1Qhsblt1Yn9sCwBGfTnB4+\r\nQHVtKzobmuEu+XdxcECxEMDm1np5d4Knq8h35/duTcueXCWP5S5PF5HJmzzchRj6iC7WtKzfE/Oi\r\nlYst6M6yJrT8qrqXOnJxsdYf06UslhX9+JtuWhtjPC2c5s/8cf8o24ImU9Of+rBzZXlRpmo7N/H5\r\n1KHj7w22SZ0AfhbYddRxD3wqAfx7QLML5sHZPw18v+kM7EGLa/uudRBaJ2ELdjQ8OMEDCdwTZb0q\r\n7Pth7sJWjj2ZtqC/n7//bfqSB6sfdbNDkCQMZ0BIDjTZt/kjgfWGyd8s4YTU3ByisS2X78n6Gfyc\r\n7j8HLU8/Judj9floiHwSWZN/AAxCRFV58F1IN6+Q+7H01dWCXkJcb0jHj+G23H8aDPtzZWmvrGzd\r\nbGEb76fAb8Nb8utrMMNP4O0u73Q3mmE0+sCH2y2kvXjxwNUdfe8DW33u5ve+ILm15/4xUP8BNmnb\r\n6mX7W4eOfySwXeoE8LPArqOOe+CfiQD+Z0Gb2SAZtOf/S/GxnaZmS+7HoF2f9bFQenDmzI7fPzOs\r\n5ODH3+3hY+vkHxnW/Nrk5+67Dh06/tOhE8DPBruOOu6BTyWA7FC05R2+kyzxXVu6+bVAuTQtoZbv\r\n7OwhswfO/HwseVN6/5ORIebxxzp227qxB/prpljs+f8cfko+3T926Y2E23aZ/tcE9bFdkuSfLt0+\r\nto18ShwdOnToIHQC+Nlg11HHPfApBJAdocFoUoZwuSGcnSo3e5eVlSkDxGzU9uJ9LHigICQyGr3d\r\nvejo6EBEuEXSclFLdWr/mzytZMNFHcZwc3GGt5cPenqHsLO+AZOvr/hb966x8+eTHbgiAZ7e6kn4\r\n+JqVjbWgAKshaS28tr+J7x9IqB0CwNPKPKHp6nKzH0nFJxif8rgnylX5c/nK1d1NmTKxt3/qNv73\r\n0+c7wXfq8ODhQzS3tiIpNuwHxJjpzczMIjaWe9ps88ObFUQXV3f09w9hf38bpWWFkjcH8aOJE1dw\r\nTyTLxEX0U/m1kauB+RoZm0RmepKEte5ro66MwyVzD19vpKSlS5k4CKm27k/T9Gd93ZXn6u6B8ooq\r\nZKQmKlmEbXi+a+RLg5Yn/qbfj8nnO9t3Z1cXVlZWlAHzuLh4bB8cobK4QOl9Nz7T0/bAsfzcZUDh\r\nIOUdn5KK1gbrTSe2aejQoUPHz0EngJ8Ndh113AOfSgBpgLWvr0+dkmWH2NLSouyA8cSodmOFvbj2\r\noPayeXAG7rbzZhouLk4oq23C2f4eyirKcXn9GH4mX6SlpmFkeAgZKUkw+BqRm5snJLEHRXk5QsYc\r\nYTQH4fL0KYL9/OAiZCcjIxujYyPIyU6DJSQCiQlxcBLCw9OTvIasoLgSM1NTCDR4K5MmOdk56O3q\r\nVjebMG/p6dno7+lBfW2tuuWBxEDbr8ffPEk5PDyMokf54uaFtIwsdSq2procNHOSnZWNjrZ2VFdV\r\ng3ecRsXEK/t2LCvmU8uvJo83NgxJ/spLCuCm5KWjpbkV9Y0NSp+I8Aj09A/g3bfvkZPK21BuZ+MY\r\nnyZlFuaXERIaKO9eQtRT0NTUIDIa1Ub+sIgoPH9xjejocPlD8lI3dpSWlqmbVnhlXly86Dc4qk58\r\nevtYdbOVT+PBs3PLiI8JlbTdpRxT1Unj7vY2mMxGtEhdvP32WymvaoQEB6pbJAYGBtDc3KzamiZL\r\ny7fZLxB/+dOfcbh/KKTRESmpGahraEAdyzvYgoSkFPhLvYdFxiA6IkTyH4X8wgIMDA4pO3CcxeQA\r\noblF8ufDmz04AJE0RDbJaq+U1frKEpKSk9UJXB4Oaezsw2hvOxwdHdSp0Y7OTvT0dKlbZmLikxEc\r\n6IdgaSu0beghf9KNDfU4PL3AwnS/Gmxo+uvQoUPHfaATwM8Gu4467oFPXQImsSoRgkTbW5yNo+kQ\r\nkh528j91vdZdeAjBMfqFISA4Fr7GQBWPH0lIaAg83BxRUtOEmcFe/Lff/hsW1rfQ0tSEo/0jFBQV\r\n4PIxr9vKwZ/++CdUiC7XVxcIswTB3cuIk8NL+BsNiIiMxcXZCfJyc3B5eYnC0mp1Q4WXpy/Oz88R\r\nExaCzJxCPH/+HCF+RvhLp/+XP/0F1RWVuLi4UtehXVycS/wM/OFPf0TkzV2wNFXBa634O0MIV1VN\r\nDV4/f4qY6Dh884e/oKaqHMcnB8jMy8cfvvsOtVUVOD4+RkJcAo5OztDd06mIF8uApz3DwkJVvnnC\r\nkmZDaIia9gxJFl++fYPmJtpCe4zU5HTs7e2hqKQYx6dHyEmzzvJxBpY2/6hPihDkp1cvkZQYKSTa\r\nGy9fvERbaxMOjw6UIeGJqRl1U8Xy8hwSk+Kws3OIpYV5TM5No1lIaaTkubSsGk+ePJd8pyqCSfna\r\nNWIxsXFChq5QkpeOhw+dcX72BEMDvdjY2JZyK0VdUxtevH0nv8sQHBSMrc0d1NZUYGFpWYhwq5pp\r\no3kZmuShcWOmNSLkc31zHxFSfyRgja0d+Pd//x+ICo3A8sYukqJCUNvWja6mSiFqQ7g6PxXS1o2p\r\nyVGMjgyju6sTM9OL4tch8p2UfJqlcXXzxvHFJeLC/OHg6KQINGdzq5u6MNzTKu3/gcSbkfgd6B0Y\r\nxbjIGp9cQFFmEoorGzE62I229k6MDg+ir38Y0xN9OgHUoUPHR0MngJ8Ndh113AOfSgAdpeOmja6E\r\nuFjVqVZUlCt7Zk2NzeqGAhIZe/G+Dw91E0hCbg+KGlYRHleolnd9RJ8gSzDcXZ1QSgIo5OK//fY3\r\nWNnYx+jEJN69eY+BvgEhFkvILyjF1toyvhaCuLK7j7TEGDgJOT08OIG3h6syyrw4OYj/5//+N0wu\r\nbCAvPxsLq3sY7OvH2so8vJwc8LWDE7Z3dxFk9EFQWDSODg/g7OAo8g+REhuN62fXmBwfUrbFvEU2\r\ndSfB4Mfs7WPA9OyCsin47vVrpCam4/jwGE5f/R4D4xNoam7E5t4uvpD30bEplBTnIiu7SN2ywVlD\r\n/gEQvMtUmfzw8sbkJG+2GMHL52+QkZCE/eM9eLm7YGpiBU3VjULY9vDb3/wWi8sryEvnfbu8GzVI\r\nETTq9vuvvsLczArSYiPh6mLA0d4ZTJ7eGJuZQ0lhLtyF/F5cHMPgzaVzV6xtHSAtPlydHPbz80dX\r\nd7cyhP302TOUFmUo0ya05aZd8fflV1+ja2AcJdm8Hk3KSeolIsCI9q5+tNZWSd2FY2VnFw+//B18\r\n/QLx+OICLg+/QHJGPraX55WJnIDAAOvVYdKONjb3sL2+indCGhtrqlSbHJucFlJfrNJa2T4Qoh6A\r\nyqZ2dNeXorNvEM21ZXBzeojAwFBcCVFdXpzBwsIyOoXIcamb5JI2C13dvXH2+ApxEQF4KPXMturo\r\n4ICyhnb0dzSK/s44O7UawvYLjsDeziamhUjmpcQht6QGYwM9WF/fQWSQCel5hZibGFQE9rYN69Ch\r\nQ8fPQyeAnw12HXXcA5+6BBwRFa2MuPLmCXa2NODKi9lrauqQnMy9XPffJ0WyyPBcCv7g5uUJN2cn\r\nFAsBfHxypkjJjhC82LgE6fCf4FFuLpISIuU9GZdnp0KqcnB4coKQAD8Ul1bjuz/+GZWVpYhPysT1\r\n5bmEz8fl+WOEBfkhJbcY/+f//H8oyM1U+/ceFRbiu+++RUsdr+NKwsnxEdxdXCS9Y2SnpOLJi2eY\r\nGR9BbnY2fLjfzsNaBtQ7KCQSb969R1HhI3zz7p0QKQkvhIMX6R8eHqrr6k6vrpAh70fH54iOChOd\r\nU5GfX4B3797eXL9l3cfmIU+zfwjevH2DwoI8vHv1FhmJSTg8OxCy5on5mW1U5hfh5OwcVZWV+Mt/\r\n/3+Rlcqr+G6XgPnMzMrG62fvMdLfDT9zGE72LxHoY8bUwgrKCvPg5W3C1dURTD6ucHByUQQwKyla\r\nLY26e/rg2fMXKC8txZOnT4UApqnbMG7luyMpOQXHF8+wNDUKP5M/djYPEGsR4tg/hKa6Opj8g3H5\r\n5Bnyc7KEoAWpO4UbpJ3ML66grb4OTkLQtPLzDwzB1fWllF8e2jq6sLO+gkYZRLz/9ht1jV1wkAVz\r\nSxvo6WzE4cVTdDaUCQEcUPcSc7nYSfSfX1zFyNAAMjKylFFyVZZKXy4Bu6J/cEQRu4KCR2rfKmdb\r\nl7Z3cba/jxBLCJZEr96eNnWXLK9A6x8axdhgHza3jjE02IXhsQmM9LZi9/AUCzOj+gygDh06Pho6\r\nAfxssOuo4x74VAIYHROL9PR0pAvB8TObERJiUbcecH+YXXt2PwlrZ/29eLQXJoQoMCQcdbX1qKio\r\ngMlkVsZ0s3NyMD42KiSoFDExKfjm7Vv09PUgITZW3ZNaXlGN2jrGKZcPzIA8IVsTY8PISksRUumI\r\n+ORUvHr9Cr7KaKy3WsrmDQzVQqoCAy1qzxz3jyUlJCMtJQ1Pnl8JISrG82evUJj/SBks1vSkiZay\r\nCi5LdiNHSF5oUBjeiz4DI4PITE+EwWzCm2/eCgkZQGpGiopbXdOA0dExdSOFRqxu5XmiqLgEvf29\r\nKMjLQYCUbUp6irLnlhCXhmCTCemZ2WoGlOUQ6P/95Xb+5gX4DXUNQs55a0MIUpPSYfDyRWxCEkKC\r\nAiTPvlJ3lOkON9E/MSkNgX5GlRfOJmZkZmJwaETVZ3AQl7lv5ZOsktzW1TVKmdUh1BKK5MQU+Bl8\r\nEBEdg/CwcLi4eag8jI0OIzzUIiQrFEPDIyq8MnZso6u/fyBSUpLg6PhQ7XfMlPZEIldTW6ducYgM\r\nD0d4eJSUp+gjMiNDAhAZHa1IHHXhIRN//wB0d/epfZW8mUO5f0iDf7Le6raWiYlxJCUlqZsuaurr\r\npYzqkRAfB7PZD319/WhvbZE24Y1Ai0XdFlNWWomIiBB188SA1F9pSQliosN/UGc6dOjQ8XNgP6sT\r\nwM8Cu4467gESQDZC20Z5H7CT5XKadgBBe/+Ywx/3AWfFuOSmndakm7aPiwgLj0NPZwcePHT4cKUV\r\nw2pxSCptw5O0npwcKxJD97vhedOIJoe3DgSHhGBreweTE5NYWVmyOQRyq+OH+AKjKQAjA/1SDjwV\r\nLO8BfhgY6lKzXs6uVuLI8NRFS/8ubPVhnrVw1llS6zv9earYHhnR/HkAQoW/mY1Vp2lvdGe98cCK\r\npzoNzRnIO/F5i8RN+pr79/yVfGd1WlbJFXeWi1Y2Ko/iz/h047Iv3e7Ksubnps2o39KG5P2D/BuZ\r\nLC/G194JWxnW8LyT9of6av6UQV0ZV5OvdP8Q/1Zf6v4hPXHT3llWd+Xr0KFDx8+BBFC/C/izwK6j\r\njnvgU/cA/qOAxIX7Btlx2+v878LX11eBRMOe/12QADAN3sZhXar+aYKriJCEMYguPh5ealbLyc1R\r\nnjSxQvKgwX78/3zotybo0KFDx+eGTgA/G+w66rgH/tkJIEHSpc3k2PO/i/uG06CRy4+KJ8TRzcVV\r\nzR7Rtt4Plrg/Az5GPyux/XX1+TlybAumrWb7PiLOL8XP5Zf+9sLQ7WP1/DFZP+dnC9swv0Qe7Rhy\r\ndtXrE9uftkJwVx+2Ie1dhw4dPw2dAH422HXUcQ/8kiVgW9LFdzbun+uMPhZaR8M9cG7u9kkezajw\r\nFOynpst4H0Mgfw7Ul/rQPiBPz37+jlL09nKHyeRvl8xb8+auljC1PFI/zoT+OnmWOvJwQUJCskrf\r\nWp5Wo9v2wtPf19eAnJwctR/v1yr3HwPzT114SvqndDL4mmE2fb9MlLvEo8me+y7/csaYdeHvb1Lx\r\nCW05mb+NRgMMBqZjf+DFZXqSY+1UN+PwRDPtKfI33TRCapVnVLe6aH624ODI12iGySgdj80hq7ug\r\nvB+bFef/g6Y/35kOT4T/km9Oh45/NegE8LPBrqOOe+BTD4FEREQoQ8bhYWGq4+ANC9XV1SgpKflo\r\neT8G7sXjidZ6kUuzLC1d3crYNE+r8sPhxfLslIKDLdjd2VFGjHlgwbr37aaTFF21jo179Gw7Qcal\r\nnb+lpRWcnp5idXVVdfSUz6XRD/FcuPTr/mGpmXvvKFsRC5HHG0uoD8MzjI8Qq6OjIwwODiIhPkHt\r\nPaMc+jO+iyv3kllJCZ/WvWUiTwguZww1/TQwbU0+4/NULg9vMC1r/rjf7gGmJuaQlpKsZGlxKY92\r\n7rY2tzA1NS0Ex6j2sy0tLSE52RpWg9dNvfE37TOqJ/VV+nHfnVVnTbYGZymf8vJKzM9OqX101dU1\r\nODk5lTQ3VPla995p8d3g6OiMhYU5zMxMKpLMOFZyyvJgOA+VX6ZlLz3NTfNn+fPJAyY/DOuGYEsI\r\n9nZ3RacT1UYdHR1v40oe+XR0ckRpaR36uprxwNFB5duqj6siO3v7J+qwCvcn2sonwWL5W9+tdcT2\r\nU1Ndj96+dikbZ6UfbWSS9NHwdGdnl5RXieTb2q6+J0/S9A8IwMb6Oo5E376eHjiJvjRKPjY6qsqK\r\naVAeSR9vKGlsakZzU5PaZ2nNj+guabJtPHR4iNqGZrQ08dS0dc+jbXoEy57yN9bX1PfBb4emf1gH\r\n9OdJ64aGJlhCAlRYpp+SmoqlxUVVPiyrD/tm5cmDTNSTAwPlf+OuydOh418ROgH8bLDrqOMe+FQC\r\nGBMXr05WJifEq5NN7JB4lytPfybEx1rJiZ249uDuzo3/ztJp3cahPTyagSmpacTS6Ai+/PoBFndO\r\nkJSQgJb2LmxvrqOxvhae0tkMDU9geX4ePh5u6lTp+NgE1jf2MCLxKLO7r1/I3TI21lYQG2GR9G7T\r\noe294JBoPH3yBNGR4eLmjfq6Vom/ie7ubnh5eKGzox9zc4vY2lpDoJ8f2pppdHge29vbCAjwR219\r\nA9Y2tpQR4QB/I5o6uvHuzRvk5+TB6GtSthH3D/YxNTkOL093NLc2CfmZFnlbyujz9PQU1tbWlDye\r\ngv1wKELAMi0tq8DK2gamZydgNJrQ1dWP+eUNydMKTF5uKCgswcr6Fv77H/8dWYlxKo61sxUi4GnE\r\n2dEFosNicXR8ity0JBSVlGJ/fx/R0VGqo+YsHNNeWl6Cv9mMtPQ0rK2uY3Z2DiazQdXtwgLzv/Vh\r\n1kfrzPnbxxCEMyErNLGjkcfN3SNUleQLkXCTdtKG+flF7OxuITwiFPl5xfjuu3eoqioS8h6oTi3T\r\n9uHBwZ6knYykxBR1bdu6kKAPp31vyoPyeZKXBJb+NFBNw9RrQt6XFheUfgxv1c9L5W9xZR3tLQ3K\r\njaSJJJ952RFSGK1OFIeLvEW8fvUHjPe0wyg6zYksDghIYEkYUzIKsLu3CS8hQNRDK18fgx9amhuk\r\nHZL4eAsZa1C3jVB+TU21OvzT3N6Jv/3vv2FrYxW5OZno6BzC9eNLbO9ty3vGh/rid+gqbX5yZh4j\r\nfb1wl4EGv63w8HBsbGygSQZczkJU64Xw/fVvf8Pm5iYKCwpR3diKV8+f4VAGQY/y85Camo3C9EyE\r\nWCyiQwXKhLy9fHKNg519IZ5l0r5cbOpPiLDkaX1jHd++e42U2Ag4uXqgs6dX2sgeKsvLUVhYjP/5\r\nP/+Kg/0dkVerZhyn5hYwPDAIDxdHGIxm+R6mxX9P5JcjMjJB2ZHc2dmVb6MCTh6uGBweVvpygEgS\r\nqdWnDh3/KtAJ4GeDXUcd98CnLgE7OLugpLQEqYkJigTU1dUhm7eBtHcgLZUzS/c5ZMGlQx9YYsoQ\r\nl9mOgJBURc7Y6UVERsHDzQVFVfWYHxrAF18/xOz6ATLS0vHs9TvUVZXBbPSFp5C+sMhYXJ9dw+zt\r\ngZCIOLx5+RqWkBCcP75AXHISzi8vkBAbjbdvXiHIxI/QV5kLUcRXOkASGM4A+pmM0tnG4vnzF8jM\r\nysKrV6+QKGTk9at3eCQd9WD/qHSumXh6/RqFeXlCEHuQlZ2J6Nh4VNbU4Zs30oEmxaFnaFTd/tFY\r\nW4ecnEc4Oz6Er8GEne0t5AnZuby+QkVpkRCjZiGpwzjY21M25maEZA50NKrZEhIPlgNnj6Ji4lBa\r\nUYU3b54jQ9J/8eSt5CcBWyKP9gKPj8+EiAZidU4IRWqiIl3h4WHqZhBXd188e/wSJ/tneP/uW0RY\r\n/OHlY8DO/gkKczPwwMFZkcGywnxVHl7eRlxcnqOyrBhbu4dC/hpweXkt+U9Txp/7OnmTh5MiJSQC\r\n1DU5LQe7G8tC2Dnr4wlHJxcsrG2jKDsVDx1dcHb5XOTnSl4n0NJUjbLyOvzxj9+pGbLoqFBMzc5j\r\nZmoS2dl56O1tV8aoeTXdxcUlWlobFemjcXFtmTMoMBAlMtDYPTlGW0OdhGnH4eEBIiXP9KcOtK9I\r\ncu7u7oPTiytEhEpZSLm4uHspe5LZGWl4VFKBtZUlzM0voSgvExWVTRhra8GIkN2e3jYMDY4LCVxS\r\nM3AeXr44Pr9CeGCwDCo8VP79ZDDgIeW1tbOFehkENAg52hdSafL1Rm1zB5ZnJ1XcwJAwHF9dIC05\r\nAQYfL/T1T2B6dAhZhWVYWZpUs4Jc3uUJc9Y300mOCVemeIaEiHnKN1FWVou1xTk4Oz6EOSgYhxdn\r\nyE3PgK+0kYbWHmwKeU9LyZb8LIgeHRgSUhgdn4SNzVVFAPfkGRmRgIvzE3h7uiJQiDLJM7+38IgY\r\nrK8toqmuQbW/2ORMHEqbonkno3wTRpM/Do4vUPYoSwYEZlXGKdm5OJUyd334NZpaOzExMiSDH38p\r\n63M01LaKnwwwYlOxf3qIwNBAvP3mvZBTaxuzJfQ6dPyrQCeAnw12HXXcA596CIQ3OHDZSLsLmDJI\r\nuhoamxB175tAOAPhjfDYAiRnNyAoLEl1DlyK9OOpW1cXlFXXYX5sDL/53e+wvneMeCFykVFxWFpZ\r\nxdbGupBEJ+nUPXG0ewwfDxeERCVgd21dLentHR0gNiEBV0+fYl06yOqqSri7OCpduadKEV/pzAzG\r\nEJydnar9X8nJaXj//r3koxGtra3SKUfi6OhY3UXLjt/D04Td3Qt1bRzzbfYPkA77DJXVVXj14jli\r\nggIQGBGNnb19fP37L5Cano2drXX8229/g4mxSVRU12JjexcRQUJInJyRmpGB2ekpTC6sor2rG4Od\r\nTcpWIMkFl7i9vA04kPRpQ+/pk0vkZOTgYPsYvkKKuARXV1uDg/1DPJB63N44QH5KiiI6JH9qj5+n\r\nEccHx0J8/TE7P4eutib89ndfYW5xBXmZqUI+XIUgXyEs2IwHDx4I6TTh7bu36O3pVletpQiZ3909\r\ngNnHTc00jfT3qCVd6keCyrTSsvKxsboAd2dHVacPHBwxtyrkNCNZEcCtvVNEh/ijq2cAjfXleOjg\r\nKYT7WIiFtCOHh5iYWURxEZeCndRs2Nz8MgZ6u9SNJ23tLeLO/Jit6bm4YnJ6FqODvViR+u/raIaz\r\n6NDS3IQn19fqHmXWC8mi9bS3pHUm5CslTuXPw9NXCOkVgozeCJN2dLC1IWT4CCEBJlTVtWCiqxM7\r\nQsbn5kbV/dYFBQVwl8GMm4cXDk/OESFkjm2U5JfymfbMwhLeSBt7LQOG5aVlPHzwFTLzizE7OQqH\r\nh5Kmlzd2j49gNPjI+1fo7x9HdckjxKRlCwGcAm8uMQnRos4ukr+9gxPkpKfIYCYaj49PpZ08lIFI\r\nthDKKbhKHpzdPLB9tI8wvwB8/eVXaGzvRWdLg3x/8dhYWkRDXQc6hcxFxqVifWMF5TLQaG2okTwY\r\n8PjsBEapSy5rMz1ul6hv6sBf/vyN1Mk5nl+eqcHG1MyC/Dd8pbY4OLu6Y2P3FElRFjx4+FAt9waE\r\nhuFgZxsPv/wCg2PTytD311/9HvtC/FqbOzE13A5fUwj2To+kzF2RmpaGbSHeM1MTyjzS3f8BHTr+\r\nq0MngJ8Ndh113AOfMgPIDpD29HjBf3tHuzrokJiYiMrKSrWny16cn4LqYO8uAQsxI4mMiorExcUF\r\nRkdHhRBsISDAD+1tnegfmcDezi78jAYMj47jz3/6DsMDPYiKScDG/Lx0/C5YXV8VApOCV6/fYH52\r\nDh0dHTAJMdJmiazpeMLga8He3raQTh+1xHpwcISRkUE1q2nw9cPW1qba0E993D2MWF6TzjfAX5EV\r\ns38QHj+9xuBwvxDAZ4jx90NQdKyQk001I+Zt8sORdP4TQgaODk/gH2iR+BuIDvYTwuSERCGcY6ND\r\nGJmaQbOQs7bWOrVERh0JL18zLh5L/ocG8FLkpyWnYH1pAyYPV8zMzCA7PQ0bW9tYXpzHu3ffIj02\r\nwbrv6iY+r9o7OTnCmvjv7m4jOjpc6qlOwr6T912EWkLQ1tmFg71ddHV2wizEZkTKek7KsKO9HQHB\r\nITg9v8DESL8Qk4ObwxDWvYGq7oR8+wWH4fxCCLS39fBCeUUF3n3zrSIIwZZQLCyvIyYsCK1tXait\r\nLpX4BqnLHQQGCYl2dpeym0BhQbbad0ZCtbi6icXpMZyfX6K+vlqRFC09NxchiIurWFmYxOXZORpr\r\ny5GWlopO0Z2zuCRs1EELz7IsKyvDCyHnLK/S4mK0dXVhd31d2s8OykuK0doh79tbuHjyDJ2Ndaiq\r\nqhP9NkRmK+Ilv65CbEPCORA4smk3VvlcYh4alba4PI2F1W2MT4wiOkaIpZD2169fo6ioUBHmtdU1\r\ntcycmpqItrZuVJYUIi4lHdOTI9a9qTdyWba8V/tCBiQjY1PY3dxCXEwktoX0f/f2DepLy4W0O2F2\r\ncQ7bIjMnKwcVtTJYaaqVso7B/MQ0soSQX52fY2X9AIsLs8iX7/L4+BCTc4volzy5ujgIKbtpH0Lu\r\nFpY3kJWZDLOfGfvb28jOSMXJ+WOMjY2iqFD0l/IfGJnCoXx/xUVctg/G/MoSvvvDd2rWMCktC48v\r\nzjA/PYPJqRE8yi/A2EALfP2CsbSxhtDgQLWdYnx6XgZiMlBwse6J1aHjXwk6AfxssOuo4x741BlA\r\nzgDxCjguXXE2ge+0lad1jL8W2CFyqYqdImdJaEMvLS0DOTl56tAHP6BwIYkR4WHq1gguiXGfnpcQ\r\nO6OvL3Jy8/H0+gqZGVl4+fadxLMagLYlvV6eXpKXIBWXs27MR15erjokwVskOPt0q5O35DUY3l7W\r\nD5mkMEzS5iEYNWvH/ItsbamM+jM+T7wG+Aeo2ROThPOWNH1EltHXKPEE/mYYTL7wMVtPfmrgIQ7e\r\ni5yemQF/IZ2+Pr7wMwt59HAXOUapOx4a8Edaeqp04H4wevuoE9NeN/G5AT8oKFDt9+OsFfUNDQlV\r\nS6Q8yGOUumMavCItOytLlQGv4cuQ9HJysuFjNAu5u0RdVSksasnwh8t3PJTSPzyGof4uRbgsFovU\r\nRzgiIiNV26BelMsZJ757evqqMvb2cRf93STvBvgapD68RLaXB4wSLisrUx3uufuHSZCk52SnISQk\r\nED5SHlw65cCDexnt6cc64F4/tqFAabM8bMO9l0kyaGF4bymzdCHSQbzvWNoMD2YkJyVL+Bx1IMNV\r\nSO7i0jKqy4pU/mxlW0/8mmEy+Kry9TMZ4G8OQExUDKIk/9qeROad8kJDQ6TMzVLvBsm/j9Q928mt\r\nSR62S6VvZDTy8/JhkbpjO4+KjJEyjYAl2CrPIAOfXGlT3MrAMuABE7ZNkww4PDy8kJqUgqiISDVL\r\n6S5ISc9Gcmqmqmu2ids8eEn5B8jTSgjZhrkvllsKWF6UT50MBiOys7MRFxur6oTuYVLH/DZZXizf\r\n7OwsicuOjmVgUvGMkj+WKb8Pbquwnn7+df8jdOj4Z4CVAPI7vXXjN6ITwF8Mu4467oFPJYD8E9dg\r\n+3433K8Bdni2szpcdrR9pz/hIeD7B3fpSNnx9vZ0YWpqEvWN9fLB2dNTc7OeLOZvymdHrORQtnT0\r\nWnjr71sCyXAMr8LRTeLzt+bP3yQOmhvJG+8TJvEkmJ6akeGeyJs4tmA8JZ/x5F3Tn8RB6X7HXyN/\r\nGhifOmrxtHdbN/UuMvhbO7VplempZtV8fazERJP5PYgMXyGyVdWVQkase7xs5d/qq/22moqh7qo+\r\nhNRbbSWKLJvypxwtri2s/jdmVeSdp15Zvj+qn4B+lKnJ428tvL30tPB043aE8rLSHz3YxDgaWBas\r\nW9qBZL1o8vjUdL6Nyz2wVv+7YDil740MvtvqZ5V3q7Pmrl3bp/xEXxVX9HFxFXlC1HhAx7btWmXd\r\n6nQr57bNaoMlLT3NXwPfbcuX38cHOTdP+hH8rUPHvyL4HekzgJ8Fdh113AOfegjknwXsiLi3jPus\r\nXORp29npuB9IXLQO/cdA//+qHTzzdnfm7+dAEn6XiOvQoeNfFzoB/Gyw66jjHvivTgB16NChQ4eO\r\nvzd0Avg58H/h/we4LlkjOh6DqgAAAABJRU5ErkJggg==",
    "RulerGuidesX" : [],
    "RulerGuidesY" : [],
    "RulerShowing" : false,
    "Title" : "Code Spell Checker",
    "audioNarrationNotes" : "",
    "calloutStyle" : "Basic"
  }
}
